/* XPM */
static char *result[] = {
/* columns rows colors chars-per-pixel */
"64 64 202 2 ",
"   c #1D1406",
".  c #1C1508",
"X  c #221706",
"o  c #241A07",
"O  c #2A1D06",
"+  c #2B1D09",
"@  c #2C220A",
"#  c #352A06",
"$  c #34260B",
"%  c #39270D",
"&  c #36290A",
"*  c #3B2B0C",
"=  c #3F300C",
"-  c #282312",
";  c #362A12",
":  c #3C2E12",
">  c #3D3014",
",  c #3E3118",
"<  c #411A10",
"1  c #412E0E",
"2  c #44330E",
"3  c #49360F",
"4  c #44380D",
"5  c #4C390E",
"6  c #533D0F",
"7  c #452A11",
"8  c #562B17",
"9  c #443311",
"0  c #4A3611",
"q  c #4C3A12",
"w  c #44391C",
"e  c #483A1B",
"r  c #5C3415",
"t  c #533E13",
"y  c #783F1F",
"u  c #463A20",
"i  c #7A3D21",
"p  c #673B31",
"a  c #59400F",
"s  c #564216",
"d  c #5B4416",
"f  c #5F4816",
"g  c #534118",
"h  c #5B4419",
"j  c #5F4819",
"k  c #634A16",
"l  c #624718",
"z  c #6B461B",
"x  c #644A19",
"c  c #684918",
"v  c #72431D",
"b  c #594525",
"n  c #5D492A",
"m  c #514431",
"M  c #554A35",
"N  c #654D2E",
"B  c #734222",
"V  c #675226",
"C  c #6C552D",
"Z  c #664E31",
"A  c #675133",
"S  c #6D5433",
"D  c #6F5933",
"F  c #685A38",
"G  c #705735",
"H  c #735A36",
"J  c #725738",
"K  c #755D39",
"L  c #785F3B",
"P  c #776036",
"I  c #7A6336",
"U  c #76603B",
"Y  c #7A623C",
"T  c #5F5647",
"R  c #5A595A",
"E  c #675A46",
"W  c #7B6645",
"Q  c #706657",
"!  c #7A7154",
"~  c #787163",
"^  c #737373",
"/  c #9D1E2F",
"(  c #A11C2C",
")  c #AA1535",
"_  c #A51936",
"`  c #B21535",
"'  c #91312B",
"]  c #BC2C38",
"[  c #A83235",
"{  c #A63D3D",
"}  c #CC1D3D",
"|  c #D31C3D",
" . c #D2223C",
".. c #D22D39",
"X. c #826A3D",
"o. c #84683E",
"O. c #8B703F",
"+. c #9C3041",
"@. c #A72741",
"#. c #A52E45",
"$. c #A92D45",
"%. c #AC2B49",
"&. c #B22845",
"*. c #A23144",
"=. c #AA3747",
"-. c #CC1C40",
";. c #D31B41",
":. c #C72641",
">. c #CF2E47",
",. c #975E44",
"<. c #A45F47",
"1. c #856C41",
"2. c #8D6D43",
"3. c #916F44",
"4. c #857041",
"5. c #8D7243",
"6. c #947345",
"7. c #987747",
"8. c #957A46",
"9. c #9A7B47",
"0. c #957548",
"q. c #997749",
"w. c #967A4A",
"e. c #9C7C4A",
"r. c #87785E",
"t. c #A56A48",
"y. c #B46A4F",
"u. c #A17F4C",
"i. c #B46C53",
"p. c #867B63",
"a. c #817D78",
"s. c #CB951B",
"d. c #CC9A19",
"f. c #D2941D",
"g. c #D39F18",
"h. c #D1A116",
"j. c #D38D21",
"k. c #D19221",
"l. c #9F814C",
"z. c #A3844E",
"x. c #A8874F",
"c. c #A6884F",
"v. c #A9884F",
"b. c #A58651",
"n. c #A98652",
"m. c #A68952",
"M. c #AC8B54",
"N. c #A68A5A",
"B. c #AE8E59",
"V. c #B18E56",
"C. c #B28E59",
"Z. c #AE9056",
"A. c #AF9059",
"S. c #B29057",
"D. c #B4925B",
"F. c #B9955D",
"G. c #BB995E",
"H. c #898378",
"J. c #938A79",
"K. c #AF9361",
"L. c #B49562",
"P. c #B99661",
"I. c #B69A64",
"U. c #BC9B63",
"Y. c #B69A69",
"T. c #BB9D6A",
"R. c #A08F70",
"E. c #A5957C",
"W. c #BA9F70",
"Q. c #BEA16D",
"!. c #BFA270",
"~. c #C19D64",
"^. c #C19F69",
"/. c #C3A066",
"(. c #C4A26A",
"). c #C2A471",
"_. c #C5A871",
"`. c #808080",
"'. c #968D85",
"]. c #999385",
"[. c #969593",
"{. c #999695",
"}. c #9E9C96",
"|. c #999799",
" X c #9A9999",
".X c #A39B8F",
"XX c #A49D9C",
"oX c #B39B9C",
"OX c #A5A097",
"+X c #A2A09D",
"@X c #A1A1A2",
"#X c #ABA7A1",
"$X c #ADABAB",
"%X c #B2ACAA",
"&X c #B6B3AD",
"*X c #B5B5B5",
"=X c #B7B5B5",
"-X c #C6C5C5",
";X c #CAC6C7",
":X c #CCCCCB",
">X c #D3D3CF",
",X c #D3D3D2",
/* pixels */
"S J K K K K J J K K L L Y W L L L K G H J H G K K Y Y L K K K K K J K K K K K K K K K L Y Y L K L o.Y Y L K L W L L K J G K F Z ",
"D N.W.L.L.L.Y.L.W.W.T.T.^.W.).^.(.^.T.Y.Y.T.T.U.T.Y.T.T.T.^.T.T.T.L.L.L.K.Y.Y.T.).(.T.T.T.T.T.I.L.Y.Y.Y.U.^.).).).).T.C.B.N.0.S ",
"K I.L.L.D.K.B.B.B.C.C.C.B.C.B.V.D.~./././.~.~.~.~.U.~.F.G.~.^.^.(.(.T.U.U.Y.T.(.(.(.~.^.I.U.~.~.~././.~.~.~.^.^.(.^.~.~.C.M.w.J ",
"K L.B.M.M.M.n.z.u.u.n.M.B.V.C.M.D.F.~.~.~.~.~.~.U.~.~.U.G.F.F.~.T.U.^.U.F.F.U.P.F.C.F.F.D.F.F.G.~.G.F.F.F.F.F.F.~.~.~.D.M.c.q.G ",
"Y T.M.M.n.M.M.n.M.D.I.I.F.D.F.F.D.D.S.V.V.S.S.F.F.G.G.G.~.U.F.C.C.C.P.P.F.P.P.F.F.F.P.P.D.F.S.F.F.F.F.U.~.~.G.~.U.F.C.B.M.b.q.H ",
"Y Y.B.M.M.B.C.D.D.F.D.F.C.C.C.P.F.S.V.x.u.u.e.z.c.n.M.Z.F.F.P.P.F.C.P.P.C.C.C.P.D.C.C.C.D.D.V.S.V.V.D.F.F.F.F.D.C.C.F.C.M.n.e.K ",
"Y Y.C.C.C.P.P.P.V.B.C.i.M.u.u.u.x.x.x.x.9.O.8.7.7.e.z.M.V.S.Y.U.~.I.P.D.C.C.B.M.n.V.V.M.M.M.v.v.x.n.M.M.M.M.B.C.C.D.D.D.B.b.z.L ",
"L I.P.F.P.P.C.C.V.C.M.C.M.B.n.n.v.v.O.O.u.z.e.e.z.z.n.M.D.F.U.^.^.P.L.i.C.n.C.B.V.M.B.S.V.M.M.M.M.C.C.F.F.C.D.C.D.C.C.M.n.n.q.H ",
"Y Y.F.F.D.C.V.M.M.C.C.P.C.C.M.M.n.n.u.e.b.c.b.c.m.M.M.A.F.F.I.I.P.U.P.C.D.D.D.C.M.B.M.S.Z.Z.A.D.P.P.D.~.^.P.P.P.P.C.C.n.b.n.q.J ",
"Y Y.F.C.C.V.M.C.F.F.P.P.P.F.F.C.F.D.V.V.V.M.M.B.A.B.A.S.B.V.D.D.C.C.C.C.B.N.n.b.z.z.v.n.M.M.M.S.G.P.P.F.P.P.^.F.P.P.D.B.B.u.u.K ",
"H P.D.V.V.V.V.F.U.U.^.P.C.C.C.C.D.S.D.S.V.V.V.M.B.M.B.B.A.C.S.F.C.L.P.C.A.m.l.z.l.m.M.Z.A.A.A.Z.V.V.F.D.B.C.C.C.P.D.P.P.C.n.q.G ",
"J K.C.V.S.S.F.U.~.^.U.U.^.U.U.C.C.M.v.n.M.V.D.D.D.D.D.S.A.M.m.m.n.n.n.n.m.N.l.l.l.l.l.m.M.A.S.D.V.M.n.M.n.M.B.B.C.P.P.D.C.M.e.G ",
"Y T.S.V.C.F.G.~.P.I.P.P.P.P.P.D.F.D.A.V.C.C.C.V.M.B.B.B.Z.M.c.b.b.b.u.e.l.b.z.b.m.l.z.b.z.n.M.B.V.S.D.D.D.P.U.D.D.P.F.B.B.n.u.L ",
"Y I.S.B.C.D.F.F.C.M.M.n.C.C.C.C.V.V.B.V.C.C.C.D.A.B.B.n.v.M.m.m.n.b.b.u.e.e.l.l.z.m.b.b.m.m.n.n.M.M.S.F.D.P.P.C.C.D.S.C.n.n.6.J ",
"K w.6.6.6.6.0.0.q.e.u.e.q.0.0.q.7.u.u.u.u.u.u.u.u.q.q.7.7.7.q.8.0.0.e.b.l.u.u.e.w.5.0.5.6.6.6.6.5.6.6.6.0.0.6.q.q.u.e.e.7.7.3.H ",
"D K H H H G S D D D J J J K K J K L L L L K K J H G S S S A S D D D K K K K K W P H D F A S D S S J H H J G K H H H I I I P K G ",
"P K K K L K L W L Y W K K K K K K Y Y W Y W L L Y Y K K K K S Z A K Y Y Y K U U U P K H J K Y I W Y Y L P K P K P H P U Y Y Y Y ",
"L.I.Y.T.).).).W.^.T.^.).T.L.K.L.Y.T.Q.(._._.(._._.(.Q.T.I.K.6.S b D K J U U N.D.K.K.K.L.L.Y.T.Q.Y.Y.I.P.I.P.I.I.Y.Y.Y.Y.Y.Y.Y.I.",
"m.M.M.C.P.^.~.^.~.^.U.~.^.D.M.M.B.F.U./.(.~.^.(././.^.U.U.F.6.D * * + + & : z.D.F.P.U.U./.^./.(././.U.D.B.B.S.M.M.Z.m.m.b.m.m.m.",
"b.n.N.C.P.~.P.P.~.^.~.~.U.G.D.M.B.S.D.D.F.D.V.V.V.F.S.M.X.Y H n 5 5 1 * 0 q K Y z.m.Z.S.D.U./././.Q.G.D.v.c.v.c.z.z.z.l.l.l.e.l.",
"n.B.D.D.P.U.^.^.^.^.~.U.F.B.B.M.S.S.F.F.D.V.V.S.S.D.D.u.@ O * = k k k c k k & @ 4.z.m.D.S.D.U.G.Q.~./.I.F.B.M.c.l.l.l.l.8.9.l.c.",
"C.D.C.C.C.C.P.P.P.P.D.F.D.C.B.B.V.S.S.D.V.V.M.V.i.y.y.t.9 * 3 5 c k d s k k 0 1 C H l.m.Z.A.D.F.F.F.G.U.U.D.A.m.m.z.b.z.m.N.B.F.",
"C.C.V.C.C.C.C.V.B.B.C.C.D.B.C.D.C.S.S.Z.Z.Z.M.y.;.;. .] c c k k k k 2 2 f k k k & @ Y Z.D.G.U.U.Q.G.S.F.U.P.D.P.D.A.m.M.A.D.D.D.",
"B.M.n.M.M.M.n.n.b.M.B.C.D.I.P.P.F.D.D.m.5.X.X.,.:.:.:.] i i k x d h 2 9 j x k k 2 : P 5.m.D.F.F.G.G.S.S.B.M.A.D.D.D.F.L.P.L.S.M.",
"n.N.m.B.D.D.A.Z.m.m.m.Z.A.D.L.D.D.S.A.Y = & @ 8 <.=.$.@.) / x f 2 9 > 2 f k c c k k 1 + o.B.C.S.F.F.D.F.D.C.V.V.B.N.M.D.C.M.M.M.",
"b.b.m.M.Z.m.m.l.l.z.m.m.S.F.D.b.w.w.8.P 2 = % 8 ' { &.&._ _ ' v 0 q 9 9 s f f k l d 1 % H 6.z.n.M.n.M.n.M.V.D.D.B.n.M.M.M.b.b.b.",
"c.m.M.m.z.l.9.e.8.8.l.m.S.F.F.H $ = 4 s k k k k c i ;.} ) ` ;.:.x k 2 9 2 2 f k q 2 d k 3 * I B.V.n.v.v.M.v.v.M.n.v.b.n.b.e.e.b.",
"m.m.z.l.e.8.8.w.l.l.l.m.S.S.S.D @ # 5 a k k k k c y ] } ) ` -.-.B B 0 0 0 q d d 5 3 s k 2 * H w.u.n.z.x.z.u.e.e.l.c.M.B.n.e.e.l.",
"c.z.l.e.e.w.e.e.l.z.b.m.M.S.C.H @ 3 k k k c k k k k c y _ ) ) ) *.*.z k j k 0 9 h k k x 0 ; @ + C v.v.v.n.z.z.z.z.z.m.n.z.l.e.l.",
"z.l.e.e.l.l.e.b.z.z.b.n.m.m.n.S $ q V c k k k k f l c z / ( _ _ $.#.B v k j q 9 s f l f e , , @ D v.x.x.b.z.z.b.b.b.c.c.z.e.l.l.",
"8.w.w.e.l.u.u.e.w.q.e.e.u.e.9.N $ Q &XH.s s k d 2 3 k k l B #.$.$.$.} } r 2 f l 9 % * * H.=X`.R W 3.3.3.3.3.6.6.6.7.7.7.6.5.2.2.",
"H D H H F J G D D S H H L L L t $ Q *XJ.s j k d 2 0 k k c z +.+.%.%. .| r 3 d l 9 : : > H.*X`.R E S S S G G J K H H G S H D H H ",
"S L L W K J J J J H H H K L K t @ ~ >X;X*XJ.s s k h 9 0 k k x z ;. .j.f.s.s.6 1 a.[.$X=X@X|.^ R E K K W L W Y o.Y K K P P U K F ",
"J N.P.P.^.^.^.~.T.^.T.^.(.T.T.K O ~ >X-X*XJ.g s k d 9 0 k c c z  .| f.d.s.s.d : a.|.$X*X+X[.^ R p.W.).).(.T.T.Y.P.L.Y.P.L.A.w.S ",
"K T.P.P.^.^././.(.(.(._.(.(.U.X.4 5 b H.,X:X%X].g s j k k k c k 7 7 s.h.f.s.R.'.$X*X@X XT > ; - K ~.^.~./.~.U.D.V.V.V.V.M.n.7.G ",
"K T.~.~.~.~.F.F.~.~./.~./.(.U.o.4 5 5 r.>X:X*X].g s k k k x x l * * s.g.f.k.E.|.$X*X@X[.M : ; - K U.U.~.~.~.^.G.F.F.C.n.u.e.q.K ",
"K L.U.P.F.G.~.~.F.F.F.G.P.~.~.P.Z.Y X , N p.>X-X#X].s t : * * 9 +XoX>...{ =.oX=XT w w u : # I z.V.F.F.G.U.~./././.Q.I.M.n.l.q.F ",
"L T.P.P.F.G.~.F.S.S.S.S.M.V.C.P.F.K . ; t ! ,X:X*X.Xs q * * * , =X&X>.;.&.%.oX&XM & & & # # P c.c.z.z.Z.S.D.G.U.U.U.F.Z.M.b.q.G ",
"J P.F.D.V.V.V.V.V.v.V.F.F.P.F.F.D.b.1.H @ > F ~ >X-XXXOX}.}.}.}.XX}.) ` } } p m : # @   C 5.l.c.z.c.M.Z.S.A.A.B.M.m.z.b.z.e.3.G ",
"L I.C.C.V.V.V.V.V.V.V.F.P.P.P.F.D.C.n.H   & g W >X:X*X=X*X*X*X*X|.{._ ) -.;.8 & # # @ - Y m.m.Z.v.m.c.M.M.m.m.c.z.c.z.l.9.e.q.K ",
"W T.P.D.D.D.M.M.M.V.V.D.C.C.D.D.F.D.S.l.1.P # e E r.:X-X+X+X@X Xm m @.@.` ` < O H O.5.8.c.M.M.M.m.m.m.m.m.m.m.m.z.m.b.l.l.l.w.U ",
"1.W.P.C.C.D.C.C.V.V.M.M.v.V.S.S.S.S.A.M.M.Y # = 5 F ,X:X|.|.[.[.& % +.#.) ) < o O.v.c.c.c.n.M.M.Z.Z.m.m.m.m.m.z.z.m.B.m.l.z.n.W ",
"W T.^.U.~.D.F.D.G.P.Y.P.D.D.S.S.A.Z.A.B.Z.m.W I = e E E M M M M   X ' [ <.t.O.o.z.v.v.v.n.A.S.S.Z.Z.Z.m.m.m.c.m.m.N.A.Z.b.b.l.W ",
"G K.U.~.~.~.F.C.D.F.F.C.D.D.S.M.M.N.b.b.m.m.m.O.* & * * & & & % . . / [ n.M.M.V.V.S.S.D.S.A.Z.B.M.z.m.m.l.m.z.b.Z.Z.M.M.b.b.0.A ",
"L Y.D.U.~.~.F.C.M.M.n.M.M.M.x.x.c.l.e.l.l.m.m.l.Y H @ @ o O $ $ P X.t.t.D.A.V.V.V.S.V.V.V.V.M.x.m.c.l.l.c.x.b.n.n.M.C.C.n.b.6.G ",
"K D.M.C.F.F.P.C.V.c.u.u.x.c.x.z.c.b.M.M.m.m.m.m.m.4.o       @ & b.b.n.B.B.S.V.V.V.V.V.V.S.v.V.x.z.z.l.l.z.z.x.n.n.M.S.D.B.b.2.S ",
"D 0.6.7.e.t.q.q.7.7.t.O.O.6.6.6.6.6.6.0.0.w.l.e.q.6.n b b n n N 2.2.0.e.q.6.7.9.z.z.u.z.z.z.u.7.2.2.O.5.6.6.6.6.0.q.q.9.7.6.1.S ",
"F K H H G Z S S C D H H G G H H K H K G H D K H H H D S S A A A D H J K P K K P H I H C C C C G H H S S H H S D D G S S H H G A ",
"L P Y U P P U K F K U P U Y W Y o.o.o.L L L K K Y K K K L Y K D P I Y Y Y K K P I Y I I I P Y Y Y K H D K J H J U K K Y W Y W Y ",
"D.L.K.L.D.D.Y.K.A.N.N.K.Y.Y.T.)._._.I.P.P.L.F.Y.T.T.T.Y.Y.L.w.J I D.Q.!.(._._.Q._._._.Q.Q.Q.U.I.I.U.I.T.T.).).).).).).T.T.T.Y.T.",
"V.M.B.I.G.Q.F.Z.m.b.b.N.B.P.I.~.(.(.(.(.^.^.U.P.P.P.S.D.P.D.2.S P P.A.F.P.I././.(.(./.~.D.Z.V.B.Z.S.S.D.F.U.U.^.^.U.^.U.U.U.^.F.",
"F.D.G.^./.Q.G.M.b.b.b.b.b.C.F.~.~.^.(./.(.^.G.C.B.C.D.C.C.V.e.o.4.!.M.M.M.B.D.G././.F.S.F.F.F.S.S.Z.M.v.M.V.V.V.F.F.U.U./.~.~.U.",
"~.G.G.F.G.G.F.B.Z.m.z.b.b.n.S.F.G.P.~.~.^.U.U.D.C.P.F.S.B.M.u.I 1.Q.M.m.n.n.M.S.G.~.F.F.F.F.V.n.v.z.l.c.n.V.C.F.G.~.~.~.~.G.G.~.",
"~.~.G.F.F.S.v.v.N.m.m.m.n.B.S.S.D.D.D.V.V.S.F.D.B.C.M.B.M.b.9.P I Q.M.c.n.c.M.D.F.F.F.S.V.v.z.x.c.b.n.B.F.U.U.^.~.~.G.G.F.F.G.G.",
"~.~.G.F.S.V.v.v.m.Z.Z.Z.Z.B.B.D.C.D.D.D.S.B.B.m.n.n.n.m.b.b.6.D P A.n.z.c.M.V.D.F.S.v.v.z.9.z.B.S.D.D.P.P.F.F.D.S.F.S.V.V.v.S.F.",
"G.~.~.S.S.V.v.x.l.l.z.B.D.D.P.L.C.B.C.M.M.m.b.m.m.m.m.m.b.b.8.P Y G.m.m.n.V.V.M.V.S.S.S.M.M.M.S.F.S.S.S.D.V.M.B.S.S.V.V.V.S.F.S.",
"F.G.F.G.U.D.Z.m.c.v.m.A.B.S.D.D.V.n.M.m.M.M.M.M.Z.m.m.Z.m.m.9.P I I.n.M.B.M.M.B.P.D.P.P.C.C.B.v.n.M.C.B.M.D.F.D.G.F.D.S.M.S.D.D.",
"S.S.A.M.A.D.A.Z.Z.Z.Z.Z.M.C.M.M.b.n.m.n.B.C.D.S.A.Z.m.m.m.b.8.H W Q.A.S.P.D.P.D.C.C.C.C.C.B.M.z.z.M.B.C.M.B.M.M.v.S.M.V.Z.M.M.Z.",
"b.b.m.z.m.Z.A.Z.m.m.z.z.z.m.N.n.b.b.M.C.V.B.M.C.I.D.Z.m.m.l.9.Y Y _.Q.I.U.P.P.D.D.I.I.C.P.L.A.A.B.n.n.n.M.M.V.C.M.n.v.M.D.M.m.m.",
"b.m.M.Z.A.Z.Z.A.m.l.l.l.z.m.m.n.A.D.C.C.S.D.V.M.m.m.z.l.l.l.8.P Y Q.U.F.P.P.I.L.U.^.U.C.P.D.B.M.M.n.c.u.u.b.z.b.v.c.v.n.m.m.m.z.",
"n.B.B.Z.B.B.n.m.b.b.u.b.z.m.N.Z.C.D.C.F.C.M.n.n.n.m.v.c.z.l.7.Y o.T.P.D.P.U.U.P.I.U.P.C.V.V.v.x.n.c.l.9.e.9.z.z.z.l.e.l.z.z.b.m.",
"c.m.n.n.M.b.m.m.b.z.l.l.l.m.n.M.B.B.C.F.C.M.M.V.M.M.n.m.c.z.e.Y Y P.M.C.C.D.P.D.C.C.B.n.u.u.u.u.z.l.e.9.e.u.z.b.c.z.z.z.l.l.l.l.",
"7.7.7.e.q.w.0.w.5.5.3.5.6.0.e.e.u.n.i.u.u.u.6.6.9.e.e.z.e.6.1.H K e.e.e.b.b.u.n.b.u.e.t.6.6.6.6.6.6.6.6.6.7.6.6.6.6.6.6.e.e.0.5.",
"A A A A A Z F F A A A A A A J D J K K J J G S S S S C H S A N N A K G Z Z S J J K Y P Z N N N S S S S A N A A F D H K K J K J D "
};
