/* XPM */
static char *result[] = {
/* columns rows colors chars-per-pixel */
"64 64 162 2 ",
"   c #060606",
".  c #0D0D0C",
"X  c #100F0F",
"o  c #10100F",
"O  c #131313",
"+  c #191714",
"@  c #1A1916",
"#  c #1C1C1C",
"$  c #241E15",
"%  c #201E1A",
"&  c #24221E",
"*  c #29251E",
"=  c #312A1E",
"-  c #232222",
";  c #292723",
":  c #2C2926",
">  c #2D2C2B",
",  c #342E22",
"<  c #312E2A",
"1  c #3C3325",
"2  c #33312E",
"3  c #3C342A",
"4  c #333332",
"5  c #383531",
"6  c #393939",
"7  c #4A3B26",
"8  c #453C2C",
"9  c #4A3E2E",
"0  c #453D32",
"q  c #483E30",
"w  c #413E3B",
"e  c #4C412F",
"r  c #53452D",
"t  c #58462D",
"y  c #4D4131",
"u  c #40403F",
"i  c #4D4438",
"p  c #544632",
"a  c #564934",
"s  c #5B4B34",
"d  c #5C4E3B",
"f  c #654D2F",
"g  c #664E32",
"h  c #665134",
"j  c #6C5433",
"k  c #6F5835",
"l  c #61533C",
"z  c #68553A",
"x  c #6C593D",
"c  c #705735",
"v  c #725A36",
"b  c #725738",
"n  c #755D39",
"m  c #785F3B",
"M  c #776037",
"N  c #786136",
"B  c #77603B",
"V  c #7A623C",
"C  c #7F683F",
"Z  c #434242",
"A  c #4D4D4D",
"S  c #50504F",
"D  c #535353",
"F  c #5D5851",
"G  c #5C5C5C",
"H  c #615645",
"J  c #665942",
"K  c #6D5C40",
"L  c #60594D",
"P  c #745E40",
"I  c #635F59",
"U  c #6F6146",
"Y  c #736246",
"T  c #7B6443",
"R  c #77674C",
"E  c #7A6A4F",
"W  c #6A6255",
"Q  c #7A6A50",
"!  c #626262",
"~  c #6A6A6A",
"^  c #776E60",
"/  c #767067",
"(  c #7D7261",
")  c #7E776B",
"_  c #747473",
"`  c gray47",
"'  c #84693F",
"]  c #886A3F",
"[  c #856742",
"{  c #866A42",
"}  c #8B6C44",
"|  c #876F4F",
" . c #926E45",
".. c #8E7145",
"X. c #8D734A",
"o. c #8B784F",
"O. c #947445",
"+. c #987747",
"@. c #967A45",
"#. c #9A7B46",
"$. c #947549",
"%. c #997749",
"&. c #967A4A",
"*. c #9C7C4A",
"=. c #A17F4C",
"-. c #9E814C",
";. c #9F8352",
":. c #A3844E",
">. c #A8874F",
",. c #A6884F",
"<. c #A9884F",
"1. c #A58651",
"2. c #A98652",
"3. c #A68952",
"4. c #AB8B54",
"5. c #A58758",
"6. c #A68B5B",
"7. c #AE8D59",
"8. c #B18E56",
"9. c #B28E59",
"0. c #AE9056",
"q. c #AF9059",
"w. c #B29057",
"e. c #B4925B",
"r. c #B9955D",
"t. c #BB995E",
"y. c #9C8863",
"u. c #8F8674",
"i. c #9B8D74",
"p. c #9A8F7B",
"a. c #9E9076",
"s. c #9D907D",
"d. c #A48B64",
"f. c #A88F62",
"g. c #AD9363",
"h. c #A3916F",
"j. c #B49562",
"k. c #B99661",
"l. c #B69A64",
"z. c #BC9B63",
"x. c #B29669",
"c. c #B69A69",
"v. c #BA9D6B",
"b. c #A19074",
"n. c #B79F70",
"m. c #BC9F70",
"M. c #BEA16D",
"N. c #BFA271",
"B. c #C19D64",
"V. c #C19F69",
"C. c #C3A066",
"Z. c #C4A26A",
"A. c #C2A371",
"S. c #C5A871",
"D. c #868686",
"F. c #888787",
"G. c #8B8A8A",
"H. c #958F86",
"J. c #9C9485",
"K. c #95918C",
"L. c #949493",
"P. c #999690",
/* pixels */
"j b n n b m b b n m m P ' m m m n n b b v b v b m V V m n b b m b b n v B n n n m v m m V m M m m C V V m m m V V m b b v b k h ",
"k 5.M.x.j.x.x.l.n.v.v.v.v.v.A.A.V.V.v.v.v.v.v.B.v.v.v.c.v.v.M.v.v.l.j.j.j.x.c.v.A.A.v.v.z.c.v.k.l.c.k.c.z.V.A.A.S.A.l.j.q.6.$.k ",
"m l.x.e.e.e.7.7.7.7.8.9.2.9.8.8.r.B.C.B.B.B.B.B.B.z.z.t.B.B.V.V.Z.Z.M.v.v.v.Z.Z.Z.C.Z.V.z.z.z.V.B.C.C.C.B.B.V.V.Z.V.V.t.9.3.&.v ",
"m l.4.4.4.4.2.:.=.:.2.4.9.9.9.9.w.t.B.B.B.B.B.t.B.B.B.z.t.r.r.B.z.z.z.z.r.e.k.r.r.9.r.e.e.r.r.z.z.t.r.r.r.r.r.r.V.B.B.e.4.,.$.b ",
"V l.7.2.2.4.2.2.4.9.k.B.r.e.r.k.w.r.w.w.8.w.w.r.r.t.t.B.z.t.r.9.9.9.k.k.r.e.k.r.r.r.r.k.r.e.w.r.t.r.r.z.B.B.B.k.z.k.9.7.4.1.%.v ",
"T c.7.4.4.7.9.k.e.k.e.9.9.7.9.r.r.w.8.>.=.*.*.:.:.,.4.w.r.t.k.k.B.9.k.k.9.e.9.e.e.9.9.9.e.e.9.w.8.8.e.r.r.e.e.e.e.9.r.9.4.2.=.n ",
"B l.9.9.9.k.z.k.9.7.2.9.4.=.=.1.:.:.:.:.=.] @.+.#.*.:.3.8.9.z.z.B.k.B.9.9.=.7.4.4.8.8.4.4.4.<.<.>.2.4.8.4.8.9.9.9.e.e.e.4.,.=.V ",
"m l.k.r.e.k.9.9.8.9.9.2.7.2.2.2.>.:.#.#.#.:.*.*.:.:.3.4.9.k.z.V.V.k.e.9.9.9.7.7.8.4.9.4.8.4.4.<.4.9.9.e.r.9.9.9.9.9.9.4.2.2.%.v ",
"V c.r.r.e.9.4.4.2.9.9.k.9.9.7.2.2.2.=.=.,.,.,.,.3.4.4.7.r.r.k.k.k.k.k.9.e.e.e.9.4.4.4.w.0.w.0.r.k.k.t.k.V.k.V.k.k.9.7.2.2.2.%.b ",
"V c.r.9.8.8.8.9.r.r.k.k.k.e.r.e.8.r.9.8.4.4.4.7.q.4.q.e.7.e.e.e.=.B.B.=.7.7.2.1.:.:.<.4.4.4.4.w.k.k.r.r.k.k.k.k.k.k.e.7.2.2.=.b ",
"v j.e.8.8.8.w.r.B.B.V.v.9.9.9.9.8.e.e.w.8.8.8.4.4.7.7.0.q.q.e.e.j.k.k.=.q.3.;.-.-.3.4.4.q.q.q.w.8.w.e.r.9.9.9.9.k.k.k.k.9.2.%.b ",
"b e.8.8.8.e.r.z.B.B.k.k.V.k.B.9.e.4.<.4.4.9.e.e.e.e.e.q.q.4.3.3.=.9.9.=.3.3.-.-.-.-.1.3.3.q.e.e.8.<.2.9.2.2.4.4.9.e.k.e.9.4.%.b ",
"T v.w.4.9.r.t.B.k.k.k.k.k.k.k.9.r.e.e.4.9.9.9.8.4.4.7.7.8.4.3.1.=.=.=.=.*.1.;.1.3.;.:.,.:.3.4.7.w.w.r.r.k.k.z.k.e.e.r.e.4.4.=.n ",
"V l.w.w.9.9.r.r.e.7.3.2.9.9.9.9.8.8.4.8.9.9.9.9.e.7.7.4.3.3.<.2.7.7.1.1.*.*.-.;.;.,.,.,.,.3.2.2.4.4.0.e.e.k.e.9.9.e.e.4.4.2.@.c ",
"v &.$.O.O.O.O.$.$.*.=.=.%.%.%.%.%.=.=.=.=.=.=.1.=.*.$.| x ..$.&.%.$.=.=.=.=.=.=.&.O.X.....} O.O...$.O.O.O.$.O.+.%.=.:.%.+.+. .v ",
"v n v v v c k k k k b b b b n b n m m m n n b b b k j H + $ t h j b b b n n P n M k k j k j k j k k k v v b v v v n N N V N v c ",
"M n m m m n n m m V V n m n m n m m V T C B V m B V V L O   . $ 7 h V V m m B B M B M v b n M C T V V m m n M M M n M B V V V V ",
"l.l.x.m.A.A.A.A.v.v.A.Z.v.x.j.g.c.v.M.Z.A.A.A.S.S.Z.N.W .     . O ; 8 l g.c.j.q.q.j.g.j.x.c.v.z.c.l.c.l.l.l.l.j.c.c.c.c.j.c.c.l.",
"1.4.4.7.k.B.v.V.B.V.B.B.B.e.4.4.4.l.z.C.Z.B.Z.C.C.C.c.L . O ; > # o   = t.k.t.r.j.r.M.t.C.V.C.C.C.M.z.e.w.4.w.4.4.0.4.3.1.1.1.1.",
":.1.4.9.k.V.k.k.V.B.B.B.B.r.e.4.0.w.w.r.r.e.8.8.w.w.9.F 4 > O         r 4.e.w.0.4.3.4.w.r.t.M.Z.C.z.t.r.<.:.<.,.:.:.:.-.-.-.-.-.",
"2.7.9.r.r.z.v.V.V.V.B.z.r.7.7.4.w.w.r.w.w.8.8.w.q.e.i.D._ D 6 O .     1 -.-.,.:.1.1.3.e.e.r.t.t.B.C.M.t.r.4.4.3.:.-.-.-.@.-.-.3.",
"9.e.9.9.9.e.t.z.k.k.k.e.e.9.9.7.9.w.w.r.w.8.4.w.q.7.J.F._ > u D A u > & C @.-.@.-.#.,.3.4.0.e.e.t.r.k.z.v.e.0.3.,.,.:.;.3.3.6.r.",
"9.9.9.9.9.9.9.9.4.7.7.e.e.9.9.e.9.w.q.w.0.0.4.4.3.6.P.D 6 G O o o @ > w l -.-.-.-.1.3.4.e.r.t.B.z.t.r.r.z.r.r.j.q.q.7.3.0.e.e.e.",
"7.4.2.2.4.4.2.>.1.4.7.7.e.k.k.l.r.r.e.q.0.3.3.3.,.i.L.4 O 6 D O O O 1 ..-.-.-.;.1.3.q.0.e.r.r.t.z.t.e.4.4.0.q.e.e.e.e.k.j.r.e.4.",
"2.3.3.7.e.q.0.0.1.3.3.3.q.e.e.e.e.e.0.4.0.3.3.3.0.a.F.# O O 2 D @ & X.-.-.1.:.3.2.9.e.7.7.4.9.9.r.r.r.9.e.9.8.8.7.4.7.9.9.4.4.4.",
"1.1.3.4.0.3.3.1.-.1.5.0.q.k.k.7.q.7.0.4.4.4.3.3.7.J._ O O O O ; S U 1.1.3.7.r.q.7.8.7.9.9.4.4.4.2.4.4.<.4.8.e.r.7.3.4.4.7.1.1.:.",
"3.3.4.3.1.-.#.#.&.@.-.,.e.r.k.k.e.e.0.0.4.e.q.e.g.K.D o O @ r p x l.4.4.7.k.j.7.9.9.4.4.2.4.4.4.8.2.<.<.2.4.4.<.2.2.3.2.1.*.=.:.",
"3.1.1.-.*.@.@.&.-.-.-.,.4.9.9.e.e.q.4.3.4.3.3.3.h.L.4 O 1 X.{ a i U K x R 5.5.1.5.R 9 y z 9.9.9.4.2.>.:.:.=.*.*.*.2.4.4.2.*.*.-.",
"3.,.-.*.&.&.*.-.-.-.,.3.4.8.e.9.q.w.4.4.3.>.1.1.i.F.# 3 ;.3.Y - + O O O + - - - & # O . = 9.2.>.>.2.<.<.2.:.:.-.:.,.3.2.1.-.*.:.",
":.-.-.*.-.-.*.-.-.,.,.3.3.3.3.2.2.2.1.,.:.:.:.{ I ! # # * * - - + @ + O @ < < < < - X . = 2.<.2.<.<.>.>.2.:.:.,.1.,.,.,.*.-.*.-.",
"@.&.$.*.-.=.=.*.&.X.T T d d l } } } } { ] { { 8 # # - # - - - # - - p z P X.$.$.$.P p p j  .{ { { [ [ [ [ [ } O.O.+.@.+.O.} } O.",
"k k v v v k b k k r - & & : - 2 > 2 2 > 3 > 4 % 2 2 ; > 4 > - 4 4 - ; 4 > > > : 4 ; 4 : > > : < ; < : < < > 0 v v b j k v k k v ",
"b n ' P m b b b b g 3 3 ; 5 : 9 y y y y i e e : - - - - - - & - - - 3 e y q e e y 9 q 9 q y 9 9 9 9 9 9 9 e s ' B m m n n B n j ",
"b 4.e.c.v.V.B.B.c.v.l.V.g.f.g.A.N.N.M.v.M.l.c.J 2 4 # # # # # - # # : 3 q R Q Q Q i % @ 8 v.A.A.A.v.A.A.V.v.c.z.k.x.c.k.r.q.&.k ",
"n c.k.k.B.V.C.C.Z.Z.Z.Z.Z.V.z.k.z.z.z.r.w.e.e.0.u.` O < x T l - @ O + + O - - & & # O . 1 z.B.z.B.t.V.V.C.B.z.e.8.8.8.8.4.4.@.k ",
"P v.B.B.B.B.t.r.B.V.Z.B.B.Z.B.B.e.8.4.4.0.w.w.0.h.F.; # { r.o.4 ; ; - - , a a a a 2 O o 1 e.r.t.t.t.B.B.V.V.V.t.r.r.8.3.=.*.$.n ",
"n k.B.k.r.t.B.B.r.r.r.t.k.B.k.V.B.c.r.4.4.e.e.e.g.K.u o + y &.1.,.,.-.-.*.1.3.3.3.-.&.&.1.w.e.e.r.r.r.t.t.B.V.C.C.M.z.4.2.*.&.b ",
"P v.k.e.r.B.t.r.w.8.8.8.8.8.9.k.k.k.r.9.r.k.l.e.g.H.! o X O % , H E 3.;.1.;.1.4.,.,.:.-.:.:.,.:.:.:.:.0.w.t.t.z.z.l.r.7.4.1.$.k ",
"b k.k.e.8.8.8.8.<.8.8.r.r.k.k.r.r.8.4.4.4.9.4.2.7.s.` O O X O A 4 8 ;.3.;.;.1.;.:.,.:.:.-.:.,.,.:.4.<.0.0.q.q.4.4.,.:.1.:.*. .j ",
"m z.9.9.8.8.8.8.8.8.8.r.r.k.k.r.9.9.2.:.=.=.1.1.4.b.G.- X # A > O O B -.-.-.-.,.,.<.0.4.,.4.4.0.<.<.4.3.3.4.3.,.:.,.:.-.#.-.*.b ",
"T v.r.r.9.r.8.2.8.8.8.9.9.9.e.e.r.9.e.3.3.2.:.,.2.d.K.Z + G > X O o + a X.1.,.3.3.,.0.0.0.<.4.<.3.0.3.;.3.3.1.1.,.3.;.-.-.-.*.n ",
"T m.k.e.9.9.9.9.8.8.4.4.4.8.4.e.e.e.q.4.3.3.3.4.7.6.K.~ G 4 O - > u A Z Y 3.1.,.,.,.,.:.,.<.4.0.0.3.4.3.4.;.3.,.3.1.7.3.-.1.1.T ",
"V c.V.z.k.e.r.e.k.k.k.r.w.w.w.w.7.e.7.7.q.0.7.4.q.q.p.G._ G ! D 6 ; @ , ,.<.<.<.<.<.<.<.4.0.w.w.0.6.0.0.3.3.,.3.3.0.0.0.1.=.1.m ",
"b x.z.V.V.B.r.e.r.r.e.e.r.e.8.8.4.3.:.1.1.3.6.4.4.3.y.` ` Z # O o o O a <.4.4.8.w.0.w.r.w.0.w.w.0.,.,.,.;.,.:.1.3.q.6.4.2.1.$.z ",
"m c.r.t.t.B.e.e.8.8.>.4.4.4.<.<.:.=.*.=.:.3.3.4.3.3.1./ > A S > O o o y q.q.8.8.w.4.8.8.8.8.<.<.:.-.:.-.,.2.,.2.2.4.9.9.4.1.$.j ",
"n 9.4.8.r.B.r.9.w.<.=.=.>.>.>.<.,.,.4.3.3.3.4.3.1.,.;.) @ O % 6 Z 6 - 3 6.0.8.8.w.w.8.<.w.w.w.w.:.:.-.:.>.>.:.2.1.4.e.9.4.1. .k ",
"b &. .+.=.+.%.%.+.] =.] O.] O.] O.O.@.O.$.&.*.%.%.*...) # O X O * a V X.&.$.@.#.:.:.:.=.#.=.#.] O.] ] ] ] @. .O.+.+.+.+.@.O.' j ",
"k v v c j j j j j j v v v v v v n n n v v v b v v b k ^ ; O = r z k M M M M n n v N v c c c c c v k k v v b k k k k k k v c j j ",
"m B B B B M B n k k B V V V V C ' ' ' m m m m m m m n ( w r v k v V C C M m n m N C C N V V V V N M k v b b v n m B B B T C B T ",
"j.q.j.k.q.r.c.g.f.q.f.q.c.l.v.N.S.S.k.x.k.k.k.c.l.c.c.c.x.x.&.v N 0.M.M.A.S.A.Z.M.S.Z.M.M.t.v.c.l.M.l.l.m.A.A.A.A.A.Z.v.v.v.c.c.",
"q.3.7.l.t.M.k.0.1.;.3.4.7.k.k.C.Z.Z.Z.B.V.Z.z.k.k.k.e.e.r.9.] j M r.e.r.l.k.z.C.Z.Z.C.B.0.0.8.8.w.w.w.w.r.z.z.B.z.z.V.c.z.C.Z.r.",
"r.r.t.B.M.C.t.4.;.1.1.;.3.9.r.z.B.Z.Z.Z.C.B.t.9.7.9.e.9.r.8.=.m { M.4.4.4.4.r.t.B.C.t.w.r.t.r.w.e.0.<.4.4.8.8.9.k.r.z.B.t.B.B.z.",
"B.z.t.r.t.t.r.4.0.3.-.,.1.3.e.e.r.k.B.B.B.z.z.r.9.k.r.9.7.4.=.' { M.0.,.3.3.4.w.t.t.t.t.r.r.8.<.<.:.:.:.4.8.8.r.B.t.B.C.C.t.t.B.",
"B.B.t.r.r.w.<.<.0.3.3.1.3.7.9.e.r.e.e.8.8.e.e.e.7.8.4.8.2.2.@.N C l.4.,.>.2.4.r.t.t.r.w.8.<.:.>.,.,.3.7.r.t.z.V.B.B.B.t.t.r.t.B.",
"B.B.t.r.w.8.<.<.3.0.q.q.7.7.8.e.9.e.e.e.e.7.4.3.2.3.3.3.2.1.X.k B q.4.:.>.4.8.w.w.w.4.<.=.=.,.4.e.w.e.r.k.t.r.9.w.w.w.8.<.4.w.w.",
"t.B.B.w.w.8.<.>.-.-.:.q.q.e.r.k.9.7.7.4.4.3.3.3.3.3.3.3.1.1.@.N V t.1.,.2.8.8.8.8.w.w.8.4.4.3.e.e.e.0.w.9.8.7.9.w.w.8.8.8.w.r.w.",
"r.t.r.r.z.e.q.3.,.3.3.4.q.e.e.e.8.2.2.3.4.4.4.4.0.6.3.0.3.3.#.M C e.3.3.q.4.4.7.e.e.j.k.9.9.4.4.3.4.9.9.4.e.k.r.B.r.e.8.4.w.e.r.",
"w.e.0.0.0.e.e.q.e.4.0.0.4.7.7.2.2.2.1.4.9.7.9.e.0.0.3.3.3.:.&.v C M.0.0.k.e.k.e.e.9.9.9.9.7.3.:.,.2.7.9.4.4.4.4.4.4.8.8.q.4.4.4.",
"1.:.1.1.3.4.0.0.3.,.;.,.1.3.3.2.2.2.2.9.4.4.8.9.r.q.0.3.3.1.*.N C N.M.t.l.k.k.e.k.k.k.e.k.r.q.q.4.4.2.2.4.4.4.9.4.<.<.2.0.0.3.:.",
"1.3.4.q.q.0.0.0.,.-.-.-.:.1.3.4.9.e.9.9.e.e.8.2.4.3.-.-.-.-.@.N V M.M.e.k.k.k.l.z.z.z.e.x.r.7.4.4.2.,.*.:.1.:.1.<.<.>.<.4.3.1.1.",
"3.4.e.4.w.0.3.3.1.1.*.:.-.,.3.e.9.r.9.9.9.8.2.<.3.3.<.,.:.-.@.V ' v.9.r.k.z.z.k.k.k.k.9.8.8.<.<.2.2.-.#.#.#.:.:.:.:.*.*.-.1.;.,.",
",.3.3.3.<.3.3.3.1.-.1.:.;.1.4.3.9.r.r.r.8.2.2.8.4.4.3.3.,.:.*.V C k.7.9.e.e.k.9.e.e.7.2.:.=.=.=.:.*.*.+.*.*.,.1.,.:.:.-.-.:.-.-.",
"+.%.*.*.@.%.&.&.X.}  .} $.$.*.*.=.=.=.=.=.=. .+.#.=.=.:.*.O.' v m &.+.*.1.2.2.=.=.=.=.%.+. .+. .O.O.O.O.O.$.$.O.O.O.@.O.*.%.$...",
"g g j g h h j j h h h h h j z k b b P b b j j j j j j j j f f f j n b g g j b b n m n f f f f g j j j j g f j k j v n n m n b k "
};
