/* XPM */
static char *result[] = {
/* columns rows colors chars-per-pixel */
"64 64 159 2 ",
"   c #060606",
".  c #0D0D0D",
"X  c #100F0F",
"o  c #10100F",
"O  c #131313",
"+  c #191715",
"@  c #1A1916",
"#  c #1C1C1C",
"$  c #201E1B",
"%  c #25221C",
"&  c #29241D",
"*  c #332B1F",
"=  c #232222",
"-  c #292724",
";  c #2B2926",
":  c #2D2C2B",
">  c #362E23",
",  c #382F21",
"<  c #322E2A",
"1  c #373024",
"2  c #3E3526",
"3  c #34312D",
"4  c #3B3328",
"5  c #333332",
"6  c #3B3A37",
"7  c #393939",
"8  c #443926",
"9  c #4A3B26",
"0  c #413729",
"q  c #453A2A",
"w  c #493C2B",
"e  c #463E32",
"r  c #4E422F",
"t  c #51422C",
"y  c #5F4A2E",
"u  c #4D4434",
"i  c #41403E",
"p  c #514330",
"a  c #564A34",
"s  c #5B4C35",
"d  c #5A4C38",
"f  c #5C513C",
"g  c #654D2F",
"h  c #654E32",
"j  c #655134",
"k  c #6D5433",
"l  c #6F5835",
"z  c #64553B",
"x  c #6C5B3D",
"c  c #705735",
"v  c #725A36",
"b  c #725738",
"n  c #755D39",
"m  c #785F3B",
"M  c #776037",
"N  c #786136",
"B  c #77603B",
"V  c #7A623C",
"C  c #434342",
"Z  c #4D4D4D",
"A  c #5E574B",
"S  c #535353",
"D  c #5C5851",
"F  c #5C5C5C",
"G  c #6E5E42",
"H  c #645A4C",
"J  c #6C5E49",
"K  c #716145",
"L  c #7D6541",
"P  c #7D6842",
"I  c #74654B",
"U  c #786748",
"Y  c #626262",
"T  c #6A6A6A",
"R  c #7D7262",
"E  c #797268",
"W  c #747473",
"Q  c gray47",
"!  c #84693F",
"~  c #886A3F",
"^  c #846642",
"/  c #836A43",
"(  c #8D6D43",
")  c #816D4C",
"_  c #926E45",
"`  c #8F7044",
"'  c #8C744C",
"]  c #947345",
"[  c #987747",
"{  c #967A45",
"}  c #9A7B47",
"|  c #957549",
" . c #997749",
".. c #947A4B",
"X. c #9C7C4A",
"o. c #827152",
"O. c #8C7855",
"+. c #927A50",
"@. c #9D7F51",
"#. c #937F5A",
"$. c #A17F4C",
"%. c #857D70",
"&. c #9E814C",
"*. c #9E8152",
"=. c #9D8459",
"-. c #A3844E",
";. c #A8874F",
":. c #A6884F",
">. c #A9884F",
",. c #A58651",
"<. c #A98652",
"1. c #A68952",
"2. c #AB8B54",
"3. c #A38758",
"4. c #A58B5B",
"5. c #AE8D59",
"6. c #B18E56",
"7. c #B28E59",
"8. c #AE9056",
"9. c #AF9059",
"0. c #B29057",
"q. c #B4925B",
"w. c #B9955D",
"e. c #BB995E",
"r. c #9F8D64",
"t. c #9C8B6A",
"y. c #8C8374",
"u. c #908574",
"i. c #9B8C72",
"p. c #A38E68",
"a. c #AD9264",
"s. c #A3906A",
"d. c #AF946A",
"f. c #B49562",
"g. c #B99661",
"h. c #B69A64",
"j. c #BC9B63",
"k. c #B2956B",
"l. c #B69A69",
"z. c #BA9C6A",
"x. c #A79171",
"c. c #BC9F70",
"v. c #BEA16D",
"b. c #BFA270",
"n. c #C19D64",
"m. c #C19F69",
"M. c #C3A066",
"N. c #C4A26A",
"B. c #C2A471",
"V. c #C5A871",
"C. c #868686",
"Z. c #888787",
"A. c #8B8A8A",
"S. c #948F85",
"D. c #959086",
"F. c #999284",
"G. c #93918D",
"H. c #949493",
"J. c #989590",
/* pixels */
"k b n n n n n n n n m m V V m m n n n n b b c n n B B V m n n n b n n n n n n n n n n m V m m n m V V V m m m V V m n n c c l h ",
"l 3.b.f.f.f.k.f.z.c.c.z.z.c.m.B.N.m.z.g.l.l.z.j.z.z.z.z.z.z.z.z.z.f.f.f.f.f.l.z.B.N.z.z.z.h.h.h.h.j.j.z.j.m.B.B.B.B.l.7.a.4.| k ",
"B l.f.f.f.7.7.2.5.5.7.7.7.7.7.7.w.n.M.n.M.M.M.n.n.g.j.h.n.n.m.m.m.N.m.z.j.h.z.N.m.m.m.m.m.n.j.m.m.M.M.m.n.n.m.m.N.m.n.e.q.1.[ v ",
"n f.5.1.2.2.<.-.$.$.<.2.2.2.6.7.0.w.n.n.n.n.n.e.n.n.n.n.w.w.w.n.j.z.j.j.g.w.j.g.w.w.w.q.q.q.w.j.n.e.w.w.w.w.w.w.m.m.n.w.2.,.[ c ",
"V z.5.<.2.2.<.<.6.7.g.j.g.q.g.w.0.0.w.6.0.q.0.w.w.e.e.e.n.j.w.6.$.7.q.g.g.g.g.w.w.w.g.w.w.w.0.w.w.w.w.e.n.n.n.g.g.g.q.2.1.1. .n ",
"m l.5.1.<.7.7.g.7.g.q.7.7.7.7.q.w.0.6.;.$.} $.X.:.;.2.q.w.w.g.g.n.q.g.g.7.7.7.q.7.7.q.7.7.7.q.0.6.6.q.w.w.w.w.q.q.7.w.7.2.<.$.n ",
"V h.7.7.7.g.g.g.7.7.7.<.<.$.,.,.-.;.>.>.} ~ { } } X.:.<.6.q.h.j.m.n.g.g.7.<.5.<.2.6.6.2.2.2.>.>.;.<.<.5.2.<.7.7.7.q.q.q.2.1.$.m ",
"V h.g.w.g.g.7.7.6.7.7.<.7.<.<.<.-.-.-.~ $.-.} &.-.&.1.<.q.w.j.m.m.g.7.7.7.7.7.7.6.2.5.8.6.2.2.>.2.7.q.q.w.7.q.7.q.7.7.2.2.<. .c ",
"V h.w.w.q.7.6.2.<.7.7.7.w.7.6.<.<.<.$.$.:.-.:.:.1.<.<.8.e.w.h.h.g.g.7.g.q.w.7.7.2.2.6.6.8.8.8.w.g.w.g.g.m.g.m.g.g.7.7.<.,.<. .b ",
"V h.w.7.7.6.2.0.w.w.g.g.g.q.w.q.q.q.7.6.6.2.<.5.9.9.9.q.5.7.0.q.7.q.n.$.7.1.1.,.-.-.<.1.2.2.2.0.w.j.g.w.g.g.g.w.g.g.f.7.<.<. .n ",
"n f.0.0.7.7.0.w.n.m.n.j.q.7.7.7.q.7.q.0.6.6.6.5.5.5.5.8.q.5.q.q.g.n.7.7.9.1.*.&.&.:.5.5.9.9.q.5.6.q.q.w.7.7.7.q.g.w.g.7.7.<. .b ",
"b a.7.6.0.0.w.j.m.j.g.z.n.z.g.7.6.6.>.>.2.6.q.q.q.q.q.8.q.<.1.1.$.@.7.@.4.1.&.&.&.&.-.:.1.5.q.q.2.>.<.<.6.<.<.6.7.q.g.g.7.2. .v ",
"V z.0.6.6.w.e.j.g.g.g.g.g.g.g.7.w.q.5.5.7.7.7.6.2.5.5.5.8.2.<.,.@.$.$.X.X.1.,.1.1.&.&.1.&.1.1.q.0.0.0.w.q.g.j.q.q.w.q.6.6.<.$.B ",
"V h.0.6.7.q.w.g.q.5.1.<.7.7.7.7.6.6.6.6.7.7.7.q.9.5.2.<.<.>.:.1.<.7.<.@.X.X.X.,.*.1.1.1.1.1.,.<.2.5.0.w.f.g.g.7.7.q.q.6.<.<.| v ",
"v X.| ] ] ] | [  .X.$.X. .|  . . .$.$.$.$.$.$.$.-. . . .| } [ .. .| $.@.*.X.,.X.X.` { ` ` ] ] ] ' | ] ] ] | ] [  .$.$.} } } ~ n ",
"l n v v v c l k k l b b b n n b n m m m m n n v c c k k k j k k b k w e R n n m M l l k k k k l l l l c b v b v v n V N N n n v ",
"M n n n L n m L m V V n n n n n V n V ! V V m m V V m n n n k h t ; O - E B V V M M n n v n B V V V V B n M M M M x M B V V V V ",
"h.h.f.c.c.B.B.c.m.z.B.m.z.l.9.f.l.z.v.z.B.V.V.V.V.N.N.l.p.O.a % o o o # y.h.a.9.a.a.a.9.g.z.z.z.z.g.l.l.h.w.h.f.l.l.h.l.h.l.l.l.",
",.1.2.7.g.m.j.m.m.m.j.n.m.q.1.5.9.w.j.v.M.m.m.m.M.M.n.w.2 - 7 C 6 % o # %.z.w.w.w.e.j.M.j.N.M.M.M.M.j.w.5.5.8.2.2.2.8.1.,.1.1.,.",
"-.1.5.7.g.n.g.g.n.n.n.n.j.e.q.2.5.q.w.w.w.0.6.6.0.0.q.q.p O . + : S Z : E q.q.9.1.1.5.0.q.j.v.M.M.n.h.0.:.;.>.;.>.-.&.&.&.&.X.&.",
"<.5.q.q.g.j.m.m.m.m.m.j.q.5.5.1.0.0.w.0.0.0.7.6.q.9.w.q.d o o . o # C Q Q =.*.&.1.:.1.q.0.w.e.e.j.M.j.z.w.2.5.:.-.&.&.X.{ X.&.1.",
"7.q.7.7.7.7.g.g.g.g.q.w.g.q.7.5.6.0.0.w.0.6.2.0.q.1.1.4.1 # - 7 S Y F W A.u.&.{ } &.-.1.5.9.q.w.e.e.e.h.h.w.9.1.:.1.-.,.1.1.5.g.",
"7.7.7.7.7.7.7.6.5.5.7.9.7.7.q.7.7.0.8.8.8.8.2.2.1.1.1.K C S i : = O 7 F T S.&.&.&.-.1.5.q.e.e.n.j.e.w.w.h.e.q.q.9.9.5.1.9.q.q.q.",
"7.1.<.2.2.2.<.<.<.1.5.5.w.g.g.f.g.q.q.q.8.1.1.1.1.1.1.+.d + X o o : S # i H.=.:.&.1.8.q.9.w.w.w.j.e.q.5.6.5.q.q.q.q.q.w.l.q.q.1.",
"1.<.1.5.q.9.9.2.1.1.1.1.9.q.q.q.q.q.9.8.9.1.1.1.1.8.1.2.1.x + O : S + O - A.t.1.<.7.7.7.5.5.7.w.w.w.q.w.w.7.6.6.5.1.5.7.7.5.2.>.",
",.1.1.1.9.1.1.:.&.1.1.5.q.w.q.q.0.5.2.2.1.1.5.1.8.q.8.5.1.&.2 5 Z O O o O Q F.9.7.7.7.7.7.<.<.2.2.<.2.<.2.7.7.q.7.1.2.2.2.<.,.,.",
"1.1.9.1.&.&.} { X.{ &.1.w.q.q.g.q.q.8.8.5.8.8.9.q.0.8.5.2.-./ C % # O o . Y D.7.6.6.$.6.<.6.<.2.6.<.>.>.;.>.2.2.<.<.1.<.,.X.X.,.",
"1.1.1.X.&.{ { X.{ &.&.:.5.6.q.q.q.8.8.......*.<.1.:.2.1.*.&.` l x =.r + . C A.d.7.7.w.7.7.7.7.7.<.<.-.;.-.$.} X.X.<.1.7.,.X.X.&.",
":.-.&.X.X.&.X.&.&.*.,.1.2.0.q.7.9.7.2., X O 3 a a a d 1 % & = % < #.1.L $ - A.x.7.7.w.w.7.7.<.;.2.>.>.>.<.-.-.-.-.-.1.<.,.&.X.&.",
"-.&.X.X.+.&.X.-.&.:.:.1.1.:.<.<.<.<.<.* . X # = = $ $ @ @ + O @ = f G z > + Q y.7.7.7.7.6.<.;.;.>.>.;.<.,.-.,.,.,.:.:.:.$.&.&.&.",
"[ [ [ X.&.&.X. .X. .X.X.X.X. . .] ] ] , + @ 0 h j f j 8 ; % $ # = # # = # # 5 : d $.$. . .[ _ _ ] ^ ^ ^ _ ( ] ] | | } { ] ` ( ( ",
"l c n n l l n l l r q w w w w q q q q 0 0 0 q q q q q q r 1 = = = = = = = = = = ; q q q q 8 q 8 q ; 3 - > > s n v c k l v c v c ",
"k m m L b b b b c e < 3 : ; < - < : : : : 5 - 5 : 3 : : 5 - = 5 5 = : 5 - = 5 5 = 5 : 5 : 3 3 : 3 = : = & = s V V m n n M M x k ",
"n 2.g.g.m.m.n.n.z.f.a.g.a.a.a.k.d.d.a.U f z o.4.=.=.=.' U A = = = # = = = = = # u d.d.d.k.d.l.k.k.I J J #.#.a.h.f.g.l.g.f.q.[ l ",
"n k.g.g.m.m.M.M.m.N.N.N.N.m.n.e.j.j.j., . O - < 3 < : # + + + + = - & & # # Y F =.j.v.j.j.j.n.e.n.j.m.m.M.n.g.q.7.6.6.6.5.<.[ l ",
"L z.n.m.n.n.n.w.n.m.m.m.M.M.m.g.q.6.5.* . O $ = = % = + O + O O = ) 2.$.4 # Z.i.8.>.>.0.0.e.w.e.e.e.e.n.m.m.m.e.w.w.q.<.$.X. .n ",
"b f.j.g.w.e.n.w.w.w.w.w.g.j.n.m.j.g.q.z e p U 4.1.4.4.) G G G G K *...2 O 5 H.p.:.>.8.>.w.w.q.w.w.w.w.e.j.n.M.M.n.v.e.5.:.-. .l ",
"m z.g.q.e.e.n.w.0.0.0.6.6.6.7.g.j.g.w.7.q.g.g.q.q.q.q.q.7.g.q.+.U a @ O O S G.4.:.:.-.-.&.&.-.-.-.;.-.8.0.w.e.j.e.v.q.9.1.-. .l ",
"n g.g.7.6.6.6.6.6.>.0.0.q.g.w.w.w.7.2.<.7.7.2.<.5.7.g.f.g.f.G Z - o O O O W F.1.-.:.-.&.&.-.:.>.;.:.:.8.8.9.9.8.2.1.,.&.-.X._ k ",
"m j.7.7.6.6.6.6.6.6.w.w.w.g.g.w.q.7.<.,.$.$.,.<.<.7.7.q.g.,.- # S 5 O o # C.i.&.:.2.8.2.>.>.1.8.:.:.8.:.2.1.1.-.-.:.&.&.X.&. .n ",
"L z.w.w.q.7.6.6.6.2.6.q.7.7.q.w.w.7.9.<.1.-.-.:.<.<.2.7.@.0 O O + Z 7 O 7 H.r.1.:.<.2.8.5.>.2.2.8.1.1.:.1.1.1.1.:.1.1.*.&.&.&.n ",
"L c.g.q.7.7.7.6.7.6.2.2.>.6.2.q.q.q.8.5.<.5.1.1.5.2.2.J C : # X o + F 7 S J.4.:.:.:.>.-.-.>.8.2.1.2.1.:.1.*.1.-.&.1.1.1.&.*.1.V ",
"L z.z.j.n.q.q.q.j.g.j.w.w.0.0.q.5.9.9.5.5.9.5.8.8.9.8.' $ : C Z S C : W A.F.<.>.>.>.>.2.8.8.0.0.9.8.8.4.1.1.:.:.2.9.9.9.,.@.,.L ",
"b a.j.m.n.n.w.7.7.w.w.7.q.q.0.2.<.<.1.-.1.1.1.5.1.5.1.1.q       O 5 S W C.s.2.2.0.0.0.0.0.0.0.0.1.:.1.:.:.1.:.,.1.9.1.5.,.,.| j ",
"m l.w.e.g.n.q.q.6.<.<.<.2.>.;.;.-.&.&.&.&.1.1.1.<.1.:.*.t         O : 5 D p.6.6.0.8.0.6.6.6.>.>.1.&.-.-.:.<.:.<.2.1.7.7.2.,.| c ",
"n 7.6.7.g.n.w.q.6.;.$.$.;.-.;.;.:.-.5.1.1.1.5.1.,.:.&.&.&   X # : : o . A 5.6.6.0.6.6.>.6.6.0.0.:.-.&.&.;.;.-.<.<.2.7.q.2.,._ k ",
"l | _ [ [ $. . .[ { ] ] { ~ ] ] ] ]  .]  .[ X.X.} } ] / t 4 = O       . A  .[ } $.-.$.-.-.} } ~ ] ~ ~ ` ~ { ] ]  . .} } | ] ~ k ",
"l v v c c g k k k k v v v c v v n n M c c v c c v v k k k j y 9 % .   o A M n n N N v l k k c c v k l l v v k v k k k k v l k k ",
"M B B V V M B x l M M V V V V L ~ ! ! V V m n n V n n n n V n l l j & # H n n n N V V N V V V V B v v v n n l n n n m V V L V L ",
"f.a.q.f.9.w.l.a.9.4.9.a.l.l.z.b.V.N.f.f.f.f.g.g.z.z.l.z.z.f...n N 9.a.U p.V.V.N.V.V.V.v.n.h.z.h.z.e.h.v.z.B.B.B.B.B.B.z.z.z.z.k.",
"5.2.5.h.e.v.e.8.1.*.1.1.5.w.h.m.N.N.N.N.m.m.n.g.f.g.q.7.w.q._ k M h.0.e.e.h.v.M.N.N.M.n.w.8.7.6.8.0.8.0.w.e.n.m.z.m.j.g.e.j.m.w.",
"w.w.e.m.M.v.w.2.*.1.1.&.,.7.w.n.m.M.N.M.N.m.e.6.7.7.7.q.q.2.} ! / N.2.2.<.5.0.e.M.n.w.0.w.e.0.w.q.8.>.2.2.6.6.7.w.w.j.m.M.M.n.j.",
"e.n.e.w.e.e.w.2.8.1.:.-.,.2.7.q.e.e.n.n.n.j.j.q.q.w.w.9.5.<.X.V ~ v.2.:.<.<.2.0.e.e.e.e.w.w.6.>.>.-.-.-.2.6.7.w.n.n.n.n.n.e.e.n.",
"n.n.e.w.w.0.>.>.1.1.1.:.1.5.7.q.q.q.7.0.6.q.w.q.5.7.2.5.1.,.} N V v.2.>.;.:.2.w.e.e.0.0.6.>.-.-.:.:.<.5.w.e.j.m.n.n.e.e.w.w.e.e.",
"n.n.n.w.0.6.>.;.1.8.5.8.q.4.6.q.6.7.q.q.q.5.5.1.<.<.1.2.<.-.] v B 9.:.-.;.2.7.7.w.6.0.>.-.$.-.8.q.0.q.w.g.w.g.q.0.0.0.0.6.>.0.w.",
"e.n.e.0.0.6.>.;.&.&.:.5.q.9.w.g.q.5.5.5.<.:.:.1.,.<.1.1.1.1.{ M V e.1.:.>.6.6.2.6.0.0.0.2.2.1.9.q.q.8.0.7.6.5.2.0.0.6.6.6.0.w.0.",
"w.e.w.w.e.w.8.1.:.<.1.5.5.q.q.q.7.<.<.<.1.5.<.5.8.4.1.8.1.1.{ N V e.1.1.9.1.5.7.7.g.g.f.7.7.5.>.<.2.7.6.2.q.g.q.e.e.w.5.2.0.w.q.",
"0.q.8.5.9.q.9.8.8.8.8.8.1.7.5.1.,.<.,.<.5.7.7.q.8.2.2.1.1.*.[ M V v.8.9.g.q.f.q.7.7.7.7.7.7.<.-.-.<.5.7.2.5.2.2.0.>.2.6.8.2.2.2.",
"-.:.1.:.1.5.9.8.2.1.&.1.1.1.<.<.<.<.<.7.6.2.2.7.q.e.8.1.1.:.{ V P b.v.e.j.g.f.q.f.g.g.7.w.q.9.5.5.2.<.2.2.2.2.7.2.;.>.2.8.5.1.:.",
",.1.1.5.9.8.9.8.:.&.&.&.&.-.,.5.7.q.7.7.q.q.6.2.2.&.&.&.&.&.[ M V v.v.w.w.w.g.j.j.m.j.f.h.w.9.5.<.<.-.-.$.-.,.-.;.:.;.<.<.1.1.-.",
"<.5.5.8.8.8.1.1.1.*.X.,.-.1.1.9.q.q.q.w.7.6.<.<.1.1.>.:.-.&.} V / z.7.f.g.j.j.g.j.g.g.7.6.6.>.>.<.:.&.} X.} &.:.-.&.X.X.&.*.1.:.",
":.1.<.:.1.1.1.1.1.&.,.@.&.1.1.5.7.7.7.w.7.<.<.6.8.1.2.1.:.&.X.V ! g.<.7.7.f.g.7.7.7.2.<.-.$.$.$.-.&.X.} } &.:.,.:.-.-.&.&.-.&.&.",
" . . .X.X.[ [ X.] ( _ ` | | X.X.$.$.$.$.$.$.[ ] } } } -.&.] ~ c n X. .X.$.<.<.$.$.$.$.[ ] ] ] _ ] _ ] ] | } [ | ] | ] | X.X. .` ",
"g h h k k j j j j j j h j k k l b b L b b k k k k k k v l g g g j n k k k k c n m m b k g g g k k k k k g g j k k v n n n l n l "
};
