/* XPM */
static char *result[] = {
/* columns rows colors chars-per-pixel */
"64 64 157 2 ",
"   c #060606",
".  c #0D0D0C",
"X  c #10100F",
"o  c #131313",
"O  c #1A1916",
"+  c #1C1C1C",
"@  c #261F16",
"#  c #201D18",
"$  c #24221D",
"%  c #2B261D",
"&  c #322B1D",
"*  c #232222",
"=  c #2A2621",
"-  c #2C2A26",
";  c #2D2C2B",
":  c #332D24",
">  c #312E2A",
",  c #373024",
"<  c #3D3426",
"1  c #33312E",
"2  c #3C352B",
"3  c #333332",
"4  c #3B3935",
"5  c #393939",
"6  c #413627",
"7  c #463A26",
"8  c #403729",
"9  c #433A2A",
"0  c #4A3E2C",
"q  c #473F32",
"w  c #403F3F",
"e  c #4C412D",
"r  c #52432E",
"t  c #59462E",
"y  c #4B4132",
"u  c #44413B",
"i  c #534633",
"p  c #564A35",
"a  c #5B4D34",
"s  c #50483E",
"d  c #5C4E39",
"f  c #5D5037",
"g  c #654D2F",
"h  c #664E32",
"j  c #675134",
"k  c #6C5433",
"l  c #6F5836",
"z  c #64553C",
"x  c #68573B",
"c  c #6D5A3A",
"v  c #705735",
"b  c #725A36",
"n  c #725738",
"m  c #755D39",
"M  c #785F3B",
"N  c #776037",
"B  c #76613C",
"V  c #7A623C",
"C  c #414141",
"Z  c #484745",
"A  c #4D4D4D",
"S  c #50504F",
"D  c #5E574B",
"F  c #535353",
"G  c #5D5850",
"H  c #5C5C5C",
"J  c #6D5E46",
"K  c #705E42",
"L  c #685F51",
"P  c #615E58",
"I  c #746343",
"U  c #7C6642",
"Y  c #7F6840",
"T  c #73644B",
"R  c #7D6849",
"E  c #736755",
"W  c #7D6E55",
"Q  c #626262",
"!  c #6A6A6A",
"~  c #787268",
"^  c #747473",
"/  c gray47",
"(  c #83693F",
")  c #886A3F",
"_  c #836B43",
"`  c #8C6D43",
"'  c #816D48",
"]  c #916F44",
"[  c #8E7145",
"{  c #8B744E",
"}  c #8E784B",
"|  c #947345",
" . c #987747",
".. c #967A45",
"X. c #9A7B46",
"o. c #947549",
"O. c #997749",
"+. c #957B4C",
"@. c #9C7C4A",
"#. c #957C53",
"$. c #9A7F54",
"%. c #957F58",
"&. c #A17F4C",
"*. c #9F814C",
"=. c #9D8356",
"-. c #A3844E",
";. c #A8874F",
":. c #A6884F",
">. c #A9884F",
",. c #A58651",
"<. c #A98652",
"1. c #A68952",
"2. c #AB8B54",
"3. c #A48759",
"4. c #A68B5A",
"5. c #AE8E59",
"6. c #B18E56",
"7. c #B28E59",
"8. c #AE9056",
"9. c #AE9059",
"0. c #B29057",
"q. c #B4925B",
"w. c #B9955D",
"e. c #BB995E",
"r. c #9D8864",
"t. c #9E8C6D",
"y. c #8B8171",
"u. c #948770",
"i. c #978972",
"p. c #9D8B72",
"a. c #9C917C",
"s. c #A08E6E",
"d. c #AD9362",
"f. c #AB926A",
"g. c #B49562",
"h. c #B99661",
"j. c #B69A64",
"k. c #BC9B63",
"l. c #B69A69",
"z. c #BB9D6A",
"x. c #B79F70",
"c. c #BC9F70",
"v. c #BEA16D",
"b. c #BFA170",
"n. c #C19D64",
"m. c #C19F69",
"M. c #C3A066",
"N. c #C4A26A",
"B. c #C2A371",
"V. c #C5A871",
"C. c #868686",
"Z. c #888787",
"A. c #8B8A8A",
"S. c #958F85",
"D. c #9D9386",
"F. c #94918C",
"G. c #949493",
/* pixels */
"k n m m m m n n n m M V V V M M M m n n n l n b m V V V M n m m n n n m N m m m M m m M M M m m M _ V V M M M V V M m n n n k j ",
"l 3.b.g.g.g.l.l.z.b.c.z.z.c.b.N.N.m.k.z.j.z.z.k.z.j.z.z.z.z.z.z.j.l.g.g.g.l.l.z.B.N.m.z.z.z.z.j.j.j.j.j.k.m.B.B.V.B.z.g.5.4.} k ",
"B l.g.9.7.q.5.5.5.5.5.7.7.7.7.7.q.n.M.M.N.M.M.n.n.k.k.j.n.n.m.m.N.N.m.z.j.k.z.N.m.M.m.m.k.k.n.n.n.N.m.n.n.n.m.m.N.m.n.h.q.<.X.n ",
"m g.5.5.5.<.<.;.@.;.<.<.<.5.7.6.0.w.n.n.n.n.e.n.e.n.n.n.e.w.w.n.n.z.k.k.h.w.j.w.w.q.q.w.q.q.q.n.n.e.w.w.w.w.w.w.n.m.n.q.2.:.X.v ",
"V j.5.<.<.5.<.<.<.7.h.k.h.w.w.h.0.q.q.0.0.0.0.q.w.e.e.k.k.e.q.7.7.7.h.h.h.h.h.w.w.w.h.h.q.w.0.w.w.w.w.k.n.n.n.h.k.w.7.5.<.,.O.m ",
"U l.5.2.<.5.7.w.q.h.w.q.7.6.7.q.w.0.6.;.&.@.&.-.:.<.2.6.w.w.k.h.w.7.h.h.7.7.7.q.q.7.7.7.q.q.6.0.6.6.7.w.w.q.w.q.q.7.q.7.2.,.&.m ",
"V j.7.7.7.h.h.g.7.7.7.<.<.<.,.&.-.;.>.>.X.) | X.X.@.-.2.6.q.k.k.n.h.h.q.7.<.7.<.>.6.6.2.2.2.2.>.<.<.<.6.6.6.6.7.7.q.q.q.5.-.&.V ",
"M j.w.w.w.h.q.7.6.7.<.7.<.<.<.<.;.-.X.) &.;.X.@.-.-.1.2.q.h.k.k.m.h.7.7.7.7.7.7.6.2.5.0.6.2.>.2.5.6.7.w.q.7.7.7.q.7.6.2.<.2.O.n ",
"V j.h.q.7.7.6.2.<.7.7.q.h.7.6.<.<.<.&.&.:.:.:.:.:.2.2.9.j.w.j.j.h.n.7.w.q.q.q.5.2.5.2.2.8.8.8.q.j.w.h.h.h.m.h.h.h.7.7.<.,.<.O.n ",
"V k.w.6.6.6.5.q.w.w.h.h.h.7.w.q.0.q.7.6.6.2.2.5.9.5.8.0.5.6.6.{ ' $.n.&.5.2.<.<.-.-.>.2.2.2.2.0.w.k.w.w.h.h.h.h.h.h.7.7.2.<.@.m ",
"m g.q.7.6.6.0.w.n.m.k.k.7.7.7.7.q.q.6.6.6.6.6.5.5.5.5.6.0.7.9.q * #.7.7.5.1.*.*.*.1.2.8.5.8.9.8.6.0.q.q.7.7.7.7.h.w.h.h.7.5.O.n ",
"n d.6.6.0.0.w.k.m.k.k.k.k.k.k.7.6.2.2.2.2.6.7.q.q.q.q.8.5.5.1.9 * { &.$.2.1.=.*.*.*.-.:.2.9.q.q.6.2.<.6.<.6.7.2.7.q.h.q.7.<.O.n ",
"V z.q.6.6.w.e.k.w.j.h.q.h.h.h.q.w.q.9.6.7.7.6.6.2.2.5.5.5.2.@.= * D &.&.&.<.-.1.1.*.-.:.*.1.2.5.6.0.q.q.h.h.k.h.q.w.q.6.<.5.&.M ",
"V j.6.6.6.q.w.w.q.2.2.2.7.7.7.7.6.6.5.6.7.7.7.7.9.5.6.<.>.2.+.4 - t &.&.@.@.@.-.*.1.:.:.1.1.<.<.2.2.0.w.q.h.q.7.6.q.q.6.<.<.) v ",
"b +.| | | | | O.O.@.&.O.$.O.O.O. .&.&.&.&.&.&.,.&.@.O.O.| ..[ - * D &.&.&.&.$.&.+.| [ [ | [ | | [ | | | | | |  .O.&.&.@.X...| b ",
"l m m b b n l k k l n n n m n n M M V M M n b n n k k k k k k 9 1 h n n M m M M B b l k k k k l l l b n b n n b b M N N V N m b ",
"N m m m M n U m K V V M M m m m m V V V ( V M M V N V B m b k 6 - c V V B m B B B B b l n m V V V V V B m m B B B b N B B V V V ",
"j.j.l.c.B.B.B.B.m.z.B.m.z.l.d.g.l.z.v.v.B.V.V.V.V.N.v.j.j.g.} 9 1 =.q.j.l.h.j.q.9.d.q.q.g.z.z.k.z.l.j.j.j.w.j.q.l.l.j.j.j.l.l.l.",
":.2.2.7.h.m.k.m.m.n.n.n.n.w.2.2.5.w.k.M.N.M.m.m.M.M.v.e.k.w.| 9 1 4.q.e.k.k.w.q.q.v.k.v.v.n.M.M.N.M.k.q.5.5.0.2.8.8.1.1.,.-.<.1.",
"-.<.1.7.h.k.h.k.n.n.n.n.h.h.q.2.5.0.q.w.w.7.6.6.w.0.0.q.w.q.X.e ; d.5.>.2.q.0.8.1.:.0.q.q.e.v.N.M.k.e.q.;.:.>.:.-.-.:.*.*.*.@.*.",
"<.5.q.q.h.k.k.m.n.m.n.k.q.6.5.2.0.0.w.q.0.0.6.0.9.q.q.w.q.0.*.e 4 f.1.-.*.*.:.:.:.:.1.0.0.w.k.e.M.v.v.e.q.2.1.:.*.*.@.*.X.X.*.1.",
"7.q.7.7.7.q.h.k.j.h.h.q.q.7.5.5.6.0.0.q.6.6.2.0.9.2.2.8.8.8.:.e ; d.:.*.*.....X.*.X.-.2.2.9.q.w.w.w.e.k.k.w.9.2.1.1.,.*.1.1.5.j.",
"7.7.6.7.7.6.7.7.2.5.7.7.q.7.q.q.6.0.8.8.8.8.5.1.1.1.1.8.2.1.*.e 3 =.*.*.*...*.*.*.:.1.5.q.e.e.n.v.e.w.w.j.e.q.h.9.9.5.2.9.q.q.q.",
"5.5.<.<.2.5.<.<.<.2.5.5.w.g.h.h.h.q.q.q.8.1.1.1.1.=.2.1.2.*.p - * y ' +.*.*.*.*.*.1.8.9.q.q.w.w.e.w.0.6.8.5.9.q.q.q.q.w.g.q.q.2.",
",.<.1.5.9.q.9.8.1.1.1.2.9.q.q.q.q.q.8.5.8.2.1.4.2.8.4.4.t.y.; * 1 * P i.r.=.1.1.5.7.5.7.5.5.6.7.q.w.q.q.w.7.0.6.5.2.2.q.5.5.2.;.",
";.<.1.1.9.2.1.*.*.1.1.2.9.w.g.7.0.9.2.2.1.4.4.4.s.a.S.F.A./ 3 * 3 + H C.G.F.D.a.f.d.d.7.5.<.5.<.6.<.2.2.2.6.q.q.5.2.2.2.2.<.,.-.",
"1.1.5.1.*.*.X.X.X.*.*.1.q.w.g.w.q.q.9.9.r.a.F.G.A./ Q w - o + * * * o + 3 F ^ Z.G.G.D.i.,.3.<.7.6.<.>.>.;.2.>.2.<.<.<.<.,.@.*.-.",
"1.1.*.*.@.....@.*.*.*.*.5.7.5.p.u.y.~ ~ / Z.! C - o . X # : + * - * * 2 o X X * 5 F Z.C.G D L E W #.-.;.&.&.@.@.@.:.2.5.<.@.@.*.",
"1.:.*.+.+.X.@.*.*.*.-.1.2.0.5.u - + O ; / ^ H O X X o O V x + * 3 * $ 3.2 o o o X 5 ^ ^ 3 . . X O m 2.;.:.-.*.*.-.-.2.;.,.@.*.*.",
"-.*.@.*.*.*.@.&.*.*.:.1.1.1.<.m o X X A C H 5 F + X o e :.c + * ; * = 1.+.+ o o 5 Q ; F 1 X     % @.:.:.;.-.-.<.<.-.:.:.@.*.*.*.",
"....O.@.*.-.&.@.*.@.@.@.&.@.X.] < X * S + ! o ; A o + V B r + * * * * m ` e o 1 F o w 5 o -   . n ] ] ] | ] | | | | ....| [ ` ` ",
"l n n b l l l k k k l n M M M b t o 5 ; X F * X ; A $ j > * * * ; * * * i i - F o X F o   ;   @ g k k k v k n m m n v l v v b n ",
"k M ( K M n n n n n b M m m M m n % C O X 5 ; X o 3 s j # O + * 3 * O o y x S O o X A .   + X r m m m M M U M _ M M m m N B n k ",
"n 2.w.k.h.m.m.n.z.m.n.m.m.z.z.B.B.L 5 X X = C o o q %.4.= o + * * * O o T x.E = o O C     X - f.B.B.B.B.N.z.z.j.h.g.l.h.j.9...l ",
"m z.h.h.m.m.M.M.N.N.V.N.N.N.n.k.k.%.= X X + S o I 0.6.<.= O - i - J o o K 7.q.3.2 ; ;   .   y w.k.n.m.N.N.n.k.q.6.6.6.6.5.<...l ",
"K l.n.n.m.n.w.w.e.n.m.n.M.m.n.h.q.,.8 0 p > Z p 8.q.5.3.= O < x 3 U o o x 2.2.2.+.u $ 7 t % z e.e.e.e.n.m.n.n.e.w.w.7.<.&.@.O.m ",
"M g.n.h.w.w.n.n.e.w.w.w.h.k.n.n.k.h.5.5.<.2.T =.q.q.e.9.> O 0 z ; R + o I ,.1.2.1.J [ 2.q.0.8.q.w.w.w.e.k.n.n.M.M.v.e.5.<.*.O.l ",
"M z.h.q.w.e.n.w.w.6.0.6.6.6.7.h.h.h.g.7.w.h.h.w.q.q.9.9.d # I d > *.> $ +.,.1.1.:.:.-.-.-.*.*.:.-.:.:.8.0.q.e.k.n.j.w.9.2.-.O.l ",
"n h.h.q.6.6.6.6.6.6.6.0.w.h.w.w.w.7.<.<.6.7.5.<.5.7.h.g.d * K z 3 *.> $ =.1.1.-.*.:.-.-.-.-.:.:.:.:.1.8.0.9.9.5.2.1.,.*.-.*.] k ",
"K k.7.6.6.6.6.6.6.6.0.w.w.h.h.w.q.7.<.,.&.&.,.<.<.2.7.g.d * R z - =.- * } *.*.*.:.2.8.2.>.:.2.8.>.>.2.:.2.1.1.:.-.:.-.@.X.@.O.m ",
"( z.q.h.q.7.6.6.6.6.6.7.7.7.q.q.w.7.q.1.<.-.-.-.<.<.<.2.d * K z 3 } - * X.-.:.1.:.1.2.8.8.>.2.>.2.1.:.1.1.:.1.1.:.1.=.*.*.*.@.b ",
"U c.k.7.7.q.7.7.6.6.<.6.>.6.2.q.q.q.8.5.1.2.1.5.5.2.5.,.1 + q a - I * + J :.1.:.:.:.:.:.:.>.2.8.8.2.2.1.1.=.1.-.:.=.5.1.*.-.2.V ",
"K z.m.k.n.7.7.q.h.h.n.w.q.q.0.0.5.5.5.9.9.8.5.5.8.9.5.#.o X # p 3 f o X r ;.>.>.>.>.>.>.2.8.0.0.8.2.8.4.2.1.:.<.1.4.8.8.,.,.,.M ",
"n h.k.n.n.n.w.q.w.q.q.0.q.q.6.6.2.2.-.-.1.1.1.2.5.1.1.} X X O p - f . . 0 >.6.6.0.0.0.q.0.8.0.0.8.*.1.1.*.:.-.,.2.8.5.2.,.,.| x ",
"M l.q.n.n.n.w.7.0.6.<.2.2.2.>.>.-.*.*.*.*.1.1.2.:.1.-.+.: & < p > c & , x 8.6.6.0.0.6.6.6.0.>.>.:.*.*.:.:.:.:.<.<.2.6.7.<.&.| n ",
"n 7.2.6.w.h.w.q.0.>.&.&.;.;.;.>.:.-.2.5.1.1.5.1.1.:.-.*.*.-.-.a ; *.1.5.5.5.6.6.6.6.6.>.6.6.0.0.:.*.*.*.:.;.;.,.<.2.7.q.5.;.[ l ",
"n o.|  . . .O.O. .) &.) | ) ) ..| | | | O...@...X.@.| ` ` ` ` 0 ; ( ..@.O.| ..X.-.-.-.-.X.&.X.) [ ) ) [ | | | | O...X.X.| | ( k ",
"k m b n v k k k k k b b b b v b m b m v n b n n n v k k k k k < ; x m b M m M m b N b k v v v v v l l l v v k k l l l v v n k k ",
"V B V V B b N N l l c B V V V V ( ( ( M V M m M V m m m m V n 8 ; N V V V B m m N V V N V V V V N N l b m n n m m B m V U U V V ",
"q.g.g.9.j.q.l.d.4.9.9.d.l.z.z.B.V.V.h.g.g.g.h.j.z.z.z.l.z.g.+.9 > 1.v.v.N.V.B.N.V.V.V.v.v.k.j.j.v.e.e.v.z.B.B.B.B.B.b.z.z.z.z.l.",
"5.5.9.j.k.v.e.5.1.1.1.1.5.h.h.n.N.N.N.M.m.N.n.h.w.g.q.7.h.q.` 7 ; 4.6.w.j.j.n.M.M.M.M.n.q.8.6.6.8.q.8.8.w.h.n.n.k.k.m.k.e.M.z.h.",
"q.w.e.k.M.k.e.2.1.=.*.1.<.7.h.n.n.M.N.M.n.m.w.7.7.7.q.7.7.5.@.0 1 g.2.2.2.5.q.e.n.M.e.0.w.e.w.0.0.8.1.>.5.6.6.q.e.w.k.n.M.n.n.k.",
"n.n.e.w.e.e.q.0.8.1.:.-.-.2.7.q.w.w.n.n.n.k.j.q.7.h.q.7.5.2.@.e 1 g.9.1.<.2.2.0.e.n.w.w.w.q.0.2.>.-.&.:.;.6.7.q.e.n.n.n.n.e.n.n.",
"e.n.e.e.w.0.>.>.2.1.1.1.2.5.6.q.q.q.q.q.6.q.w.q.7.6.5.2.1.<.X.7 - 4.5.1.:.;.2.q.e.e.0.0.6.>.;.-.:.:.2.5.q.k.k.k.n.n.e.e.w.w.e.e.",
"n.n.e.w.0.6.>.>.1.2.9.9.9.5.5.7.7.7.q.q.q.5.2.1.<.2.1.1.1.,.| r y 4.:.*.:.2.6.6.w.0.6.>.-.X.-.5.q.q.0.q.k.w.w.q.w.0.6.0.6.>.0.0.",
"e.n.n.0.0.6.>.;.*.*.-.9.9.q.w.h.q.7.5.2.2.1.<.<.1.1.1.<.<.-...N V w.1.1.;.6.6.6.6.0.0.0.2.<.2.q.q.q.0.q.6.6.5.7.0.0.6.6.6.0.w.0.",
"w.w.e.q.e.q.8.1.:.1.1.5.5.q.q.q.7.6.<.<.<.5.2.2.2.1.2.4.2.1.X.N V e.1.2.9.<.5.5.q.g.q.h.7.7.2.>.;.5.7.6.5.6.w.q.e.e.q.0.2.0.q.q.",
"0.q.8.5.9.q.q.8.8.8.8.8.2.5.5.,.<.<.<.<.5.7.7.q.8.8.2.2.1.-...b V v.8.8.w.q.g.q.q.7.7.7.7.5.2.-.-.<.5.5.2.2.5.5.6.2.2.6.8.2.2.8.",
":.-.:.,.1.8.9.8.2.1.*.:.-.1.2.<.&.<.7.7.6.5.5.6.e.9.9.1.1.*.X.B Y b.v.k.k.h.g.q.h.h.h.q.h.w.9.5.5.2.2.<.5.<.5.5.>.<.>.2.8.5.1.-.",
"<.1.2.5.9.8.8.9.:.*.*.*.,.,.,.2.7.7.7.&.7.q.6.>.1.1.*.*.*.*...N V v.v.q.q.h.h.k.k.k.k.q.h.g.5.5.2.;.:.@.&.;.-.:.;.:.;.<.2.1.1.1.",
"1.5.5.8.0.8.1.1.,.,.$.,.*.1.2.9.7.7.n.n.6.6.<.>.1.2.:.:.*.-.X.V ( z.q.q.h.h.k.h.h.h.h.q.6.6.>.>.<.:.@.X.@.X.*.-.-.*.@.*.-.-.,.-.",
":.1.<.:.1.2.1.1.,.*.-.&.*.1.1.2.n.&.&.n.6.2.<.6.8.1.2.1.:.*.@.V V h.5.7.q.h.h.7.q.q.7.&.&.&.&.&.-.@.@.X.@.*.:.<.:.-.-.-.*.*.*.*.",
"X.O.O.O...o.O.+.[ ` ` [ | O.+.@.&.&.&.&.&.&.| | X.*.@.-.*.| ) l m *.O.@.;.<.<.&.&.&.&.O. .| ] | ] | | | | | | | | | | | O.@.O.[ ",
"h g j k j j k j j j j j j k k l k ( K n n k k k k k k k k g g g k m k h h l n n M m m h g g g k v k k k g j k k l b m m m b n l "
};
