/* XPM */
static char *result[] = {
/* columns rows colors chars-per-pixel */
"64 64 162 2 ",
"   c #060606",
".  c #0D0D0D",
"X  c #100F0F",
"o  c #10100F",
"O  c #131313",
"+  c #191714",
"@  c #1B1917",
"#  c #1C1C1C",
"$  c #201E19",
"%  c #25211D",
"&  c #2A241C",
"*  c #232222",
"=  c #292723",
"-  c #2C2A26",
";  c #2D2C2B",
":  c #342E23",
">  c #312E2B",
",  c #3B3225",
"<  c #34312C",
"1  c #3D362A",
"2  c #333332",
"3  c #383530",
"4  c #3B3934",
"5  c #393939",
"6  c #403627",
"7  c #443925",
"8  c #43392A",
"9  c #493F2D",
"0  c #503F29",
"q  c #463E31",
"w  c #493F30",
"e  c #413F3E",
"r  c #4C412E",
"t  c #53462E",
"y  c #4C4231",
"u  c #44413D",
"i  c #524532",
"p  c #554935",
"a  c #5B4D35",
"s  c #534A3C",
"d  c #5D4E39",
"f  c #5F533E",
"g  c #654E2F",
"h  c #664E32",
"j  c #665134",
"k  c #6C5433",
"l  c #6F5836",
"z  c #615239",
"x  c #69573A",
"c  c #6C593B",
"v  c #705735",
"b  c #725A36",
"n  c #725738",
"m  c #755D39",
"M  c #785F3B",
"N  c #776037",
"B  c #76603B",
"V  c #7A623C",
"C  c #424242",
"Z  c #484745",
"A  c #4D4D4D",
"S  c #5F5340",
"D  c #50504F",
"F  c #5E574C",
"G  c #535353",
"H  c #5C5750",
"J  c #5C5C5C",
"K  c #6D5F47",
"L  c #736346",
"P  c #7C6543",
"I  c #7F6840",
"U  c #756449",
"Y  c #6B6154",
"T  c #63615D",
"R  c #786D5A",
"E  c gray39",
"W  c #6A6A6A",
"Q  c #797469",
"!  c #747473",
"~  c #797875",
"^  c gray47",
"/  c #84693F",
"(  c #886A3F",
")  c #866642",
"_  c #856C43",
"`  c #8C6D43",
"'  c #836D4C",
"]  c #916F44",
"[  c #8D7145",
"{  c #897049",
"}  c #947345",
"|  c #987747",
" . c #967A45",
".. c #9A7B46",
"X. c #957549",
"o. c #997749",
"O. c #967B4B",
"+. c #9C7C4A",
"@. c #877352",
"#. c #8C7757",
"$. c #87775E",
"%. c #9A7E52",
"&. c #917B58",
"*. c #A17F4C",
"=. c #9F814C",
"-. c #9E8151",
";. c #9C845B",
":. c #A3844E",
">. c #A8874F",
",. c #A6884F",
"<. c #A9884F",
"1. c #A58651",
"2. c #A98652",
"3. c #A68952",
"4. c #AB8B54",
"5. c #A38758",
"6. c #A38A5B",
"7. c #AE8E59",
"8. c #B18E56",
"9. c #B28E59",
"0. c #AE9056",
"q. c #AF9059",
"w. c #B29057",
"e. c #B4925B",
"r. c #B9955D",
"t. c #BB995E",
"y. c #9A8A69",
"u. c #8C8272",
"i. c #9D8D73",
"p. c #978D7A",
"a. c #A08760",
"s. c #A48A65",
"d. c #AC8D61",
"f. c #AF9462",
"g. c #AC916E",
"h. c #B49562",
"j. c #B99661",
"k. c #B69A64",
"l. c #BC9B63",
"z. c #B69A69",
"x. c #BB9D6A",
"c. c #A2927A",
"v. c #B79F70",
"b. c #BC9F70",
"n. c #BEA16D",
"m. c #BFA270",
"M. c #C19D64",
"N. c #C19F69",
"B. c #C3A066",
"V. c #C4A26A",
"C. c #C2A471",
"Z. c #C5A871",
"A. c #868686",
"S. c #888787",
"D. c #8B8A8A",
"F. c #928E84",
"G. c #969087",
"H. c #9C9386",
"J. c #94928E",
"K. c #9E9688",
"L. c #949493",
"P. c #9A9791",
/* pixels */
"k n m M m m m m n m M P M V V M M M v n b b b m m M V M M m m b b b b m m m m m m m m M M V M m M ) B V M m M ) M m m b b b x j ",
"l 5.v.h.h.h.z.f.b.b.x.x.x.x.C.C.C.N.l.x.x.x.x.x.x.k.l.x.x.x.x.x.x.k.h.h.h.z.z.v.Z.C.x.x.x.k.x.k.k.k.x.l.j.N.C.C.C.C.z.h.7.6.} l ",
"M z.k.e.j.9.7.7.7.9.9.9.9.9.4.9.w.M.V.M.M.M.M.M.M.l.N.j.M.M.N.N.N.N.N.x.k.l.N.N.B.B.N.N.l.l.M.M.B.B.B.l.M.M.N.N.V.B.M.j.9.2.+.b ",
"M h.7.4.4.2.2.:.+.*.2.4.4.4.8.9.w.r.M.M.M.M.M.t.M.M.M.l.r.r.r.M.x.M.l.l.j.e.l.j.r.9.r.r.e.r.r.j.l.t.r.r.r.r.r.r.B.N.M.e.4.:.| l ",
"B z.7.2.2.4.4.2.2.r.j.M.j.r.r.r.e.e.e.8.8.w.w.r.e.l.t.l.l.t.r.9.9.9.j.j.j.j.j.r.r.j.r.j.r.r.w.r.r.r.r.t.M.t.j.M.j.r.9.4.4.1.+.n ",
"V z.7.4.4.9.9.j.e.j.9.j.9.9.9.9.r.w.8.>.*...*.*.,.>.4.w.r.t.j.j.r.9.j.j.9.9.9.e.9.8.9.9.9.w.w.w.8.w.e.r.r.t.r.r.r.9.j.9.4.1.*.m ",
"V k.7.9.9.j.j.9.9.9.2.2.4.*.1.*.:.>.:.:..... ...+.+.:.2.8.e.k.l.N.M.j.j.9.2.9.4.8.8.9.4.4.4.4.<.2.2.2.7.8.9.4.4.9.9.j.9.4.,.*.B ",
"V k.j.r.e.j.j.9.9.9.9.2.9.2.2.4.>.*.........+.+.=.:.2.4.e.r.l.N.N.d.9.9.9.9.2.9.4.4.7.w.8.4.<.4.7.8.e.e.9.e.9.r.r.9.9.4.2.2.+.b ",
"M k.t.r.9.9.9.4.2.9.r.9.r.9.4.4.2.2.:.*.:.,.,.,.,.2.7.q.r.r.k.k.M.M.j.9.e.e.e.7.4.4.8.4.0.w.0.e.j.r.j.t.j.N.x.j.r.d.9.2.1.2.o.n ",
"V k.r.9.9.8.4.w.r.r.j.j.r.e.r.9.w.e.9.9.8.4.4.7.q.7.7.w.q.w.2.f P *.M.*.7.7.2.,.:.:.<.4.4.4.4.w.j.j.t.r.j.j.j.j.j.j.h.7.2.2.*.n ",
"m h.e.8.w.8.8.r.j.N.M.j.9.9.9.9.e.e.e.8.8.8.8.4.0.7.7.7.q.w.;.< z j.j.d.q.6.1.=.=.3.2.0.q.q.0.w.8.w.r.e.9.9.9.9.j.r.j.e.9.4.o.n ",
"m d.8.9.w.w.r.l.N.M.j.x.x.N.j.9.8.4.<.4.4.9.8.e.e.e.e.q.q.4.=.< h 9.*.*.3.3.=.=.=.=.,.3.3.0.e.e.4.4.2.8.2.4.4.4.9.r.r.e.9.2.+.v ",
"P k.e.8.8.r.t.M.r.k.j.e.j.j.j.e.r.w.7.8.9.9.9.4.7.4.7.7.0.4.+.< p *.*.*.+.1.1.-.3.=.:.:.1.3.7.7.w.w.w.e.j.j.j.r.r.r.e.7.4.2.*.M ",
"V k.8.8.9.e.r.r.9.7.4.4.9.9.9.9.8.9.8.7.9.9.9.r.q.7.4.2.2.2.=.; z *.1.*.=.+.+.1.=.3.3.3.,.3.2.2.4.8.w.r.e.j.j.9.8.e.e.8.4.2.} v ",
"b O.| } } ] } | o.+.*.+.o.o.o.o.+.*.*.*.*.*.*.*.*.+.o.o.|  .{ < w o.*.*.=.%.*.+.O.} [ [ [ ] X.] [ } } | } X.} | o.+.*.....| ] b ",
"l m b b b l l l l l n n n n m n b M M M M m m n v v k k k k j - 8 n n M b m M V N b l k k k k l k b l l n b n b b M N V B N m v ",
"N M m M m m M P M V V P m m M b M M V V _ V M M V V V M b b j ; , M V V N M B B N M b c b m V V P V V M m m N N N b N N B V V B ",
"k.k.z.b.C.C.C.b.b.x.C.N.x.h.f.h.z.x.n.n.C.Z.Z.Z.Z.V.n.x.k.f._ - 8 3.k.k.k.k.k.e.q.f.k.e.h.x.x.x.x.k.k.k.k.k.r.k.z.z.z.z.z.z.z.l.",
"1.4.4.7.j.N.l.N.N.M.M.M.l.e.4.7.7.r.l.B.V.N.N.B.B.B.B.l.l.r._ ; 9 k.e.r.l.l.r.e.e.k.l.M.M.N.B.B.B.M.k.r.9.7.w.4.7.0.3.3.1.1.3.3.",
":.1.4.9.j.M.j.j.M.M.M.M.M.j.w.4.7.w.e.e.r.8.9.8.w.w.w.c , : j > r 8 : : -.e.w.0.3.7.7.e.e.l.B.B.B.M.k.e.<.:.<.:.:.:.,.=.=.=.+.=.",
"2.7.9.e.j.l.N.N.N.N.M.l.e.9.4.4.w.w.r.e.w.w.8.w.q.w.r.y . . p - r @ . o { =.,.:.,.,.3.e.w.r.k.t.M.B.M.k.e.7.4.,.:.=.=.......=.3.",
"9.e.9.9.9.9.l.j.j.j.r.e.e.e.9.7.8.w.w.e.8.8.4.w.q.4.3.y O o a 2 r # o O /  .=. ...+.1.3.7.q.e.r.r.r.k.l.l.e.w.2.,.3.:.=.3.3.7.k.",
"e.9.8.9.8.9.9.4.4.7.9.9.e.9.9.e.8.w.0.0.0.0.7.3.3.3.2.L # * B - 9 y % < [ =.=.=.=.:.3.7.e.r.j.M.n.t.e.r.l.k.r.k.w.q.7.7.q.e.e.e.",
"7.2.2.4.4.9.2.2.1.4.7.9.e.k.k.j.r.e.e.e.0.3.3.3.3.3.2.-.* ; _ 2 r L % r =.=.=.=.,.3.0.q.e.e.r.r.l.t.e.8.8.7.0.w.e.e.e.k.h.e.9.4.",
"1.4.3.7.q.e.q.3.3.3.3.0.q.e.e.e.r.w.q.q.0.3.3.3.7.0.3.-.* > ) - 9 K * i =.=.1.3.6.9.9.9.7.4.9.r.r.r.9.r.r.9.8.9.7.4.7.e.9.4.4.2.",
"1.1.3.4.0.4.3.,.-.,.3.3.q.r.h.9.w.7.7.3.3.7.3.3.0.q.q.-.* > / < r L * p 3.7.r.q.9.9.9.9.9.4.2.4.4.4.4.2.2.8.w.e.7.3.2.4.7.1.,.1.",
"3.3.7.3.-.=.........=.,.e.r.e.r.e.e.0.0.0.7.0.0.e.0.7.1.* ; ) > r U % a 7.k.h.7.7.9.4.4.4.4.4.4.9.2.<.<.2.<.4.4.2.2.4.2.1.+.+.1.",
"3.3.=.=.+. . .+...=.=.3.9.9.9.r.e.3.2.3.3.{ K 7.3.<.7.P + @ m ; y r @ - 1.e.e.w.%.U 5.9.9.4.9.4.2.>.:.>.:.:...+.+.1.4.4.2.+.+.=.",
"3.:.=.+.O.O.+.+.=.-.1.3.4.8.8.e.q.z & t 7 & 5 O.<.4.4.c O + K 2 i 1 + = 5.e.j.9.d Z : d y 1 +.>.<.<.<.<.2.:.:.:.1.:.1.2.:.=.=.=.",
":.=.+.+.=.=.+.1.-.,.,.2.3.,.2.2.5.8       ; ; ,  .<.,.c O O y = 6 - + & *.9.9.L @ A @ O X = { >.2.<.>.2.2.:.:.,.1.,.,.,.+.=.+.=.",
" .X. .+.-.*.*.+.....+.+.*.+.+.| ) & X     C + O % f | z O + * * * # O * ] { 8 + X C * X X 5 g ] ] ] ] ] ] ] ] } } | .. .} ` ` } ",
"b b b b b l l k k l l b M M m n 0 O #   . A o O @ D j r @ @ * 2 * # @ $ j Z 2 X O ; 5 X + C $ g k k k v v v n m b v k l l l b b ",
"k m M P n n n n n v b M M m m n $   ;   O G O O G - i p = * * ; * * = ; x $ A > o * G O ; 5 O t M M m m M P V ) B M b M M B b k ",
"m 4.j.j.N.N.N.M.x.N.x.V.N.x.x.&..   ; O 5 C O D 2 O a ;.@.* * * * # S #.;.$ O A ; O E # G # O u x.C.C.C.V.x.x.k.k.k.k.k.r.q.O.l ",
"m z.j.j.N.N.B.B.B.V.V.V.V.V.9.:     . 2 G ; E 2 o O @ +.e.- * ; * # U 9.i X O @ G 5 J C A o o @ P l.N.B.B.N.l.e.9.8.8.8.4.2.X.l ",
"L b.M.M.N.M.r.r.M.B.N.N.B.B.' @ O . . 2 ! ! 5 X O O O 6 7.* * 2 * # k P + O X O @ J ! ^ ; # # * u r.l.M.B.M.M.l.e.r.8.2.*.+.X.M ",
"n j.j.j.r.r.t.M.r.t.t.r.j.M.a.$.R Y F H A.S.G 5 # o o O 1 # * ; * * : # X . O = C W D.~ Q ~ u.y.i.r.r.r.l.M.B.B.M.n.t.7.2.=.X.b ",
"M x.j.r.M.t.M.r.w.w.w.8.4.9.9.j.j.j.e.d.c.K.P.L.D.! G 2 # + * * * # + * e E ^ D.J.G.p.;.:.=.,.:.:.,.,.0.w.r.r.l.l.n.e.0.7.:.X.l ",
"m h.t.e.8.8.8.8.8.<.8.r.r.r.j.r.9.7.4.4.4.9.7.s.p.H.L.L.A.T # 2 * 2 ! D.D.F.p.y.;.3.:.:.:.:.:.:.:.,.3.0.0.w.q.0.4.,.:.:.:.+.] k ",
"M j.8.9.8.8.8.8.8.8.8.r.r.j.j.r.j.9.4.*.*.*.1.2.4.9.d.g.c.T * > * ; u.y.;.-.-.1.,.4.0.4.<.3.0.0.4.,.4.,.4.3.3.:.:.,.:.+...+.+.M ",
"P x.j.r.r.9.9.2.8.4.8.e.8.9.e.e.r.9.q.2.3.3.:.:.1.4.4.9.e.#.q * - p =.=.:.3.,.3.,.3.4.0.0.<.4.<.0.3.,.-.3.3.3.3.,.3.3.-.=.=.+.b ",
"P b.j.9.9.9.9.9.8.8.7.4.<.8.0.w.e.e.0.7.2.2.3.7.4.4.4.4.4.4.%.2 a 1.-.3.,.3.,.3.,.,.<.:.:.,.0.4.0.3.0.3.3.3.-.,.-.3.7.3.=.=.1.P ",
"P x.l.l.j.9.r.r.j.j.j.r.e.w.w.w.7.7.q.7.7.0.7.0.7.0.7.7.4.6.%.< f 3.3.3.<.<.<.>.<.<.<.4.0.0.w.w.0.0.0.0.3.3.,.,.3.3.q.0.1.%.1.P ",
"n h.l.N.M.M.r.9.r.r.e.r.e.e.w.8.4.3.1.1.:.3.3.7.7.3.3.3.1.1.+.4 f 3.0.q.4.8.<.8.w.w.w.w.w.w.w.w.4.-.,.-.,.3.:.2.0.0.7.3.1.1.X.k ",
"m z.r.t.M.M.r.r.w.2.2.2.4.4.<.<.,.+.=.=.-.3.3.2.2.3.,.1.-.1.O.> a ,.4.q.e.0.8.8.w.w.8.8.8.8.<.<.,.=.:.:.,.2.,.2.2.4.9.9.4.1.X.n ",
"m e.4.8.j.j.r.9.w.<.*.>.<.:.>.:.1.1.4.3.3.3.0.3.3.,.=.:.=.1.O.4 d ,.2.7.0.7.8.8.w.w.8.8.<.8.8.8.:.:.=.=.>.>.:.2.2.4.w.9.4.1.] k ",
"l X.} | | | o.o.| ( *.( ( ..} } } } | } } | +.+.....} ` [ ` P < i [  .+.+.| | | ..:.:.:.:...*.( } ( ( ( ( ..} } X.+.......( ( j ",
"l b b b v k k k k v v b v v v b m m b b b b b b v v l k j l h ; 7 l b M m m b M N N b k k v v v v v l b k v l l k l v v m v v k ",
"N V B B N N N c l b N B B V V V / / ) M V M M M M M M b B V c < 9 B V I N M b N N V V N N N V V N N l l b b b m m L m V P P V V ",
"h.f.h.h.f.r.z.f.q.q.q.f.z.x.x.C.Z.Z.j.h.h.h.k.k.x.k.x.z.z.h.f * - 3.n.V.m.Z.Z.V.Z.Z.Z.n.n.n.z.l.n.t.k.n.n.C.C.m.C.C.C.x.x.x.z.z.",
"w.4.7.r.k.n.r.0.;.-.3.3.7.j.l.M.V.V.V.V.N.B.M.j.j.k.w.9.k.9.s = 3 ;.w.r.k.k.M.B.V.V.M.M.w.w.8.8.0.w.0.w.r.l.l.M.M.l.N.l.l.M.N.k.",
"r.r.k.l.B.B.r.4.3.,.-.,.1.9.j.l.M.V.V.M.B.M.j.9.9.9.9.e.e.4.d * = z.4.4.4.7.e.t.M.M.t.w.t.t.r.w.w.0.4.<.4.8.9.9.r.r.j.M.l.M.M.M.",
"M.t.t.t.t.t.r.7.3.3.,.:.1.2.w.r.t.t.M.M.M.l.l.e.9.j.e.e.7.2.P * 1 n.3.3.2.2.2.e.t.M.r.t.r.r.w.<.<.:.:.:.2.w.9.r.M.M.M.M.M.M.M.t.",
"M.M.t.r.r.w.<.<.0.3.3.3.2.7.e.w.e.e.9.w.8.e.e.e.7.9.4.7.2.1.P % 1 e.0.3.,.,.7.e.t.t.w.w.8.<.:.>.,.,.2.7.r.l.l.M.M.M.t.t.r.r.r.M.",
"M.M.t.r.w.8.<.>.3.0.7.0.7.7.7.w.9.e.e.e.e.7.7.3.2.2.3.3.3.:.` t f q.3.:.>.4.8.w.w.w.8.<.:...:.0.w.e.e.r.j.r.j.e.w.w.w.8.<.8.8.w.",
"M.M.t.w.w.8.<.>.=.=.:.7.e.e.j.k.w.7.9.7.2.3.3.1.2.3.2.3.3.,...N N t.3.3.4.8.8.8.8.w.w.w.2.7.2.e.e.r.0.w.w.8.7.4.w.w.8.8.8.w.r.w.",
"r.r.r.e.t.e.0.3.,.3.3.7.7.w.e.e.9.2.2.4.4.4.4.7.0.3.3.7.3.3...N V t.4.3.7.4.4.9.e.j.e.h.9.9.4.<.2.4.9.8.4.e.k.r.t.t.e.w.7.w.e.e.",
"w.e.w.7.q.e.q.0.0.0.0.7.2.w.7.4.1.2.1.2.7.7.w.w.0.0.3.3.3.-. .N V n.0.w.r.e.j.e.e.9.9.9.9.7.2.:.,.4.7.9.4.4.4.4.8.8.4.8.7.4.4.4.",
"3.:.3.,.3.0.q.0.2.3.:.,.1.3.3.2.2.2.2.2.8.4.9.9.k.e.0.3.3.,.+.N V Z.n.k.j.j.j.e.j.j.j.e.k.h.q.7.4.2.2.2.9.2.4.9.<.<.<.4.0.7.<.,.",
",.3.2.q.q.q.0.0.3.=.=.=.=.1.3.4.9.r.9.r.9.e.9.>.3.3.=.=.=.=. .N V n.n.e.j.j.k.j.l.l.l.e.j.r.7.7.7.2.:.*.:.:.:.1.>.:.<.2.2.3.3.,.",
"2.7.7.0.w.7.4.3.3.=.+.1.-.,.3.q.9.r.r.9.9.9.8.2.2.,.<.,.:.=...V ) x.j.9.j.j.l.j.j.j.j.9.8.8.<.>.3.,.+...+...=.:.:.=.+.:.=.-.3.,.",
",.3.2.3.2.3.3.3.3.-.1.*.:.3.3.7.9.9.9.r.9.2.<.2.7.2.2.3.,.:...V V j.4.9.9.j.j.j.9.9.9.2.*.*.*.*.:.+.+...+.+.,.1.,.:.=.+.=.:.=.=.",
"| o...+.+. .X.O.} ` ] ] } X.+.+.*.*.*.*.*.*.} | ....+.:.=.[ ( b M +.o.+.1.2.1.*.*.*.*.| | ] } } ] } | } | | | } } | } | +.+.X.[ ",
"h g j j j j k j j j j j j k x k n n P n k k k l v k k v l g g g j b k k j k k b M M n k g g g k v k k j h h j k k b m m m b b l "
};
