/* XPM */
static char *result[] = {
/* columns rows colors chars-per-pixel */
"64 64 179 2 ",
"   c #1C150A",
".  c #1F180C",
"X  c #20170B",
"o  c #241A0D",
"O  c #291E0F",
"+  c #271E11",
"@  c #2B1F10",
"#  c #2B200F",
"$  c #2D2110",
"%  c #2E2518",
"&  c #322512",
"*  c #352914",
"=  c #382D1C",
"-  c #3E301D",
";  c #45351D",
":  c #712F0F",
">  c #77330D",
",  c #4F3C22",
"<  c #6C3D2B",
"1  c #324F17",
"2  c #335017",
"3  c #38571A",
"4  c #3F601E",
"5  c #40621F",
"6  c #594429",
"7  c #5E4A2D",
"8  c #614B2D",
"9  c #6F542E",
"0  c #614C30",
"q  c #7E4633",
"w  c #695334",
"e  c #6B5434",
"r  c #6F5835",
"t  c #6E583A",
"y  c #735A35",
"u  c #745A36",
"i  c #7C5D34",
"p  c #436620",
"a  c #456B22",
"s  c #4D7625",
"d  c #4F7728",
"f  c #537E27",
"g  c #7E6136",
"h  c #7D613A",
"j  c #351C46",
"k  c #371C4A",
"l  c #3D1D52",
"z  c #0F2E5D",
"x  c #102F5E",
"c  c #143465",
"v  c #17396A",
"b  c #183B6E",
"n  c #421D5A",
"m  c #4B1F67",
"M  c #4C2664",
"N  c #4E206C",
"B  c #50216F",
"V  c #5A247D",
"C  c #0F5353",
"Z  c #0F5858",
"A  c #1C447E",
"S  c #106262",
"D  c #136D6D",
"F  c #147777",
"G  c #197A7A",
"H  c #99421B",
"J  c #856200",
"K  c #8B6600",
"L  c #986F00",
"P  c #A97C00",
"I  c #874B37",
"U  c #894C36",
"Y  c #815F36",
"T  c #93543D",
"R  c #9A553E",
"E  c #836136",
"W  c #84643A",
"Q  c #88653A",
"!  c #866C3F",
"~  c #8B6A3E",
"^  c #91733E",
"/  c #832B42",
"(  c #8C2E46",
")  c #912F49",
"_  c #95304B",
"`  c #9D334F",
"'  c #A73654",
"]  c #AE3958",
"[  c #B53C5C",
"{  c #B93D5E",
"}  c #A45D45",
"|  c #AB5F45",
" . c #866A42",
".. c #8C6C41",
"X. c #906C40",
"o. c #8E7342",
"O. c #947642",
"+. c #957A44",
"@. c #967946",
"#. c #9A7B46",
"$. c #9C7D49",
"%. c #AE6247",
"&. c #B1684D",
"*. c #A17D48",
"=. c #BA6F54",
"-. c #C14062",
";. c #C84466",
":. c #CF476B",
">. c #D44A6E",
",. c #57842A",
"<. c #59872D",
"1. c #649435",
"2. c #6B9D3A",
"3. c #B98800",
"4. c #C38F00",
"5. c #C59204",
"6. c #C8950A",
"7. c #D09F19",
"8. c #D2A21E",
"9. c #D5A522",
"0. c #DFB235",
"q. c #E2B53A",
"w. c #9D814B",
"e. c #968352",
"r. c #A3834D",
"t. c #A9884E",
"y. c #A58551",
"u. c #A48953",
"i. c #A78955",
"p. c #AB8C54",
"a. c #AE8D59",
"s. c #B18E56",
"d. c #B38F5A",
"f. c #AD9255",
"g. c #AE925B",
"h. c #B29156",
"j. c #B4935B",
"k. c #BA965B",
"l. c #B4995C",
"z. c #BA9C5E",
"x. c #AF9560",
"c. c #B79864",
"v. c #B49C64",
"b. c #BC9E62",
"n. c #B7A267",
"m. c #BDA164",
"M. c #B7A269",
"N. c #BCA56C",
"B. c #BEA771",
"V. c #EABF4A",
"C. c #C1A465",
"Z. c #C2A66A",
"A. c #C5AA6A",
"S. c #C8AD6B",
"D. c #C4AB74",
"F. c #C7AD78",
"G. c #C9B27A",
"H. c #EBC04B",
"J. c #EEC451",
"K. c #F1C756",
"L. c #F2C958",
"P. c #672B8E",
"I. c #692B91",
"U. c #762FA2",
"Y. c #7A31A7",
"T. c #7D33AB",
"R. c #1D4888",
"E. c #214E8F",
"W. c #204E93",
"Q. c #2556A0",
"!. c #2759A5",
"~. c #913BC6",
"^. c #A241DE",
"/. c #A743E5",
"(. c #168484",
"). c #1C8484",
"_. c #208F8F",
"`. c #229494",
"'. c #CFBB84",
/* pixels */
"0 8 0 0 0 w 0 0 w e t e e t e e e h i i h e e r r 8 w w 8 0 0 0 8 7 0 0 0 0 0 0 w e e e 9 e e e e e e r y i i h u e 9 e e 8 7 8 ",
"h g.l.m.b.Z.v.m.m.b.m.m.Z.m.m.m.C.Z.Z.A.S.A.S.S.A.A.C.C.C.C.A.Z.b.b.m.b.b.m.m.Z.C.C.C.S.A.C.S.A.A.A.A.A.S.A.A.A.C.A.A.C.C.i.$.h ",
"i l.a.i.i.$.$.@.$.*.*.*.*.$.*.*.*.j.d.s.j.d.d.s.s.p.s.r.i.j.j.j.d.x.d.a.a.a.d.x.j.j.k.d.p.s.a.d.a.h.h.s.d.h.d.j.j.d.s.d.p.r.*.h ",
"h c.r.@.i i i 0 y 9 i i Y i Y I Y Q ~ ! ..~ ~ ~ ~ ~ ~ ~ Q Y Q ~ .. .....W Y ~ Q E Y Y Y Y Q Y ~ ~ Q Q Q Y Q Y Q ~ ^ ~ ~ p.r.$.h ",
" .b.$.i                                                                                   X   X   . .     . X           D.i.$.h ",
" .l.$.i                                                                           X X         X       o .     X X . X X N.i.@.! ",
"! z.$.E               X . .     . . . o     . o X 5 4 4 3 3 3 3 2 2 2 2 1 o + + O O O O O O $ O # # # $ @ @ $ $ $ & $ $ D.t.@.! ",
"! m.i.Q               . X X     . . o . o . o o X o p ,.,.f d s a 3 5 2 @ O O @ O $ $ $ # # O $ N m m n n l k j j j $ $ N.p.#.! ",
"! m.t.E     C (.(.(.(.F D S Z C C C C X o o o # o O p ,.,.f d a p 5 5 2 O $ $ $ $ $ $ $ $ $ & $ @ I.Y.U.P.P.m m k $ & $ N.i.$.! ",
"W m.t.g     . S `.`.`.(.F D S S Z C o O O O o o # # <.2.2.1.<.d a 5 5 2 $ O $ $ $ $ & $ $ & & & & ~./.^.~.T.I.I.M $ $ & N.i.w.h ",
"h b.w.E     . Z (.(.(.F D S C C C C O X O O O # $ O ,.2.2.1.<.d a 3 5 2 $ $ $ O $ $ $ & & & & & & ~./.^.~.Y.I.I.M # $ $ D.a.w.h ",
"h l.w.r     . Z (.(.Q.F D S C C C C O O # O # # $ $ 5 ,.,.f d a a p 4 2 o O $ & & & & & & & * & & I.U.U.I.V B m k o o @ D.a.w.h ",
"h z.w.E       S `.`._.).F D S S S C X O O t ; # $ $ ,.2.2.1.<.d a p 4 1 o + O & $ y ; & & & & & & I.Y.U.P.V m m k o o o Z.p.r.i ",
"h f.r.E     . S `.`._.).F D S S S C X O # e 7 . $ $ <.2.2.1.<.d p 4 p 2 o o o & & t 8 X * & & & @ I.Y.U.P.V m m k o o + B.a.$.h ",
"8 $.^ E     # S `.`._.).G D S S S C . o # t 8 . $ # ,.2.2.1.<.d a 4 4 1 o o o O & t 8   & * $ $ + I.Y.U.P.V m m k o + X v.i.O.r ",
"8 g i 6     . S `.`.`.).G D S S S C   . o t 7   $ $ <.2.2.1.<.d a p 5 1 o o o o O e 8   $ $ $ o o I.Y.U.P.P.B m k .   + e.e 0 0 ",
"8 i r 6       S `.`._.).G D S S S C   X o t $   # # <.2.2.1.<.s a 5 5 2 o o o o @ r o   $ $ O o o I.Y.U.I.V N m k X X X $.t 0 0 ",
"l.l.f...    o S `.`._.).G D S S S C X X o & 7 . * * 6.K.K.H.0.9.6.4.4.K o O $ $ $ % 8 X * & $ O o I.Y.U.I.V N m k o o o F.g.f.f.",
"$.r.+.i     o S `.`._.).G F S S S C X X o t 6 X * & 6.L.K.H.0.9.6.5.4.K o O O O @ t 6 o * & $ o + I.Y.U.I.V N m k X o o M.u.w.$.",
"$.r.$.g     # S `.`._.).G D S S S C X   o 6 7 . * & <.2.2.1.,.s a 5 4 1 o o o O @ 6 8 X & & O O o I.Y.U.I.V N m k X o o n.w.$.+.",
"y.y.y.W     # S `.`.`.).G D S S S C     X % - . & & <.2.2.1.<.d a 5 5 2 o o o o + % ; X & $ O O o I.Y.U.I.V N m k   . o l.w.+.w.",
"s.s.y.h     # S `.`._.).G D S S S C o o o = # . & $ ,.2.2.1.<.d a 5 5 2 X o o o + = +   & $ O o o ~./.^.~.T.I.P.M . o o N.i.u.v.",
"s.t.r.E     # H L.L.J.0.0.7.6.5.4.:   . X % 7   & # ,.2.2.1.<.d a 5 5 1 X X o o + % 8 X & O O O + I.Y.U.I.V N m k o o o B.c.d.a.",
"t.*.+.u     + : 3.5.3.3.P L K 9 J : o . o t +   % $ <.2.2.1.<.d a 5 5 2 X X o o o e + X & O O o o I.Y.U.I.V N m k . . + G.k.p.r.",
"*.y.$.i     o S (.(.(.(.F S S S S C . . o % + . & # 5 ,.,.f s a 5 5 5 1 X X o o o % + X @ O o o + I.Y.U.P.V N m k . X o D.p.y.r.",
"y.y.$.i     # S (.(.(.F D D S S Z C . . # % +   & # <.2.2.1.,.d a 5 5 1 X X X X o % + X O O O o o P.Y.U.P.V N m k o o X B.i.*.*.",
"r.r.u.h     # S (.(.(.F D D S S S C X + $ % # . & # 5 <.,.f d a p 5 5 1 X o X o + % + X $ O o o o I.Y.U.P.V N N k   o o M.$.$.w.",
"r.r.w.!     S (.(.(.(.F F D S S S S C @ $ % o . & 5 ,.,.,.,.s a p 5 5 5 1 X X o @ & + X $ o o o P.Y.Y.I.P.P.N N m j o o N.r.@.$.",
"r.w.w.w.v.v.n.n.M.M.n.N.N.S.D.D.D.D.D.N.N.N.N.n.N.N.Z.Z.Z.B.v.u.u.F.B.B.D.D.F.D.D.D.D.D.D.A.N.b.M.N.m.N.N.M.n.M.M.N.N.N.x.r.+.w.",
"w.w.+.+.e.e.w.w.u.u.u.u.u.f.p.f.p.p.a.i.i.y.t.t.f.h.t.p.p.a.y. . .c.a.d.d.c.c.d.k.j.k.c.d.p.p.s.s.a.p.f.p.u.p.p.i.i.i.i.r.w.$.w.",
"^ w.w.w.+.w.^ w.o.e.^ w.w.+.+.+.@.*.*.*.*.$.$.r.$.@.@.@.+.O.O.i e @.$.$.*.$.y.y.r.r.y.r.r.r.r.r.#.@.O.@.+.r.y.r.w.y.r.w.$.+.^ +.",
"8 0 0 0 8 8 0 7 0 0 0 r e e r r e r i  .h e e y y 0 8 8 8 0 0 0 0 0 0 0 0 0 0 w e w w e y e e e e e r r r h h h h y i r e 8 e 7 ",
"0 0 0 0 8 8 0 0 0 e e t r e y e e h h E g w e e e 8 8 7 0 7 8 8 7 7 7 8 0 0 0 7 0 e e e e r e e e e w i i i h h h t r r e 8 0 0 ",
"g w.j.k.j.b.c.b.m.Z.A.S.S.S.A.A.S.S.A.Z.n.m.m.f.f.f.f.h.j.z.z.b.C.N.C.C.z.z.z.z.b.m.C.C.C.m.C.C.C.C.C.b.C.m.m.b.b.b.z.z.b.j.i.h ",
"h l.p.p.d.j.d.d.j.k.k.d.j.j.y.p.a.p.h.y.r.t.r.t.t.r.r.$.r.t.a.h.d.a.p.*.*.r.r.a.a.h.d.d.d.t.s.t.t.t.h.h.d.s.p.*.*.*.*.y.r.r.$.h ",
"h m.j.a...~ Y t ~ X.X.X.X.X. .E Y i i i g E g i g g g g Q Q Q Y Y Y i i y i h i i i i i Y Q Q Q ~ ~ Q ~ ......~ Q Q Y Y *.@.$.h ",
"h A.p.~                                                                                     X   X X   X   X   X .   .   Z.u.$.h ",
" .A.y.Y                                                   X                       X           X             X   . . . . B.i.O.! ",
"~ m.p.Q       / ) ) ( ( ( / / / / / < X . o o o o o o o O o o o X o o O o O o O O O O O O O O O # O # # # # & $ # # # # M.r.+.! ",
"! b.*.Y         / [ [ ] ' ' ) ) ) ( X X o . o o o o o o o O O o # # O O O O O O O O $ $ O $ v v v v v x x x x z # # & # v.w.+.! ",
"W b.*.Q         / { [ ] ' ` _ ) ) / X O X X O O o O o I U } | | R T I q I < < @ @ $ $ $ @ $ & W.!.Q.E.A b v x & & & # & n.r.+.! ",
"h m.p.E         / { [ [ ' ` _ ) ) q X @ O O O O O O O O | =.=.&.} T I q I < & & $ $ $ $ & & & W.!.Q.E.A b v x & # & & & n.w.w.h ",
"h b.a. .      X / { [ ] ' ` ) ) ) N @ X O O O O O $ @ $ | =.=.&.} T I q < < $ $ $ & & & & & & W.!.Q.E.A b v x & & & & & M.w.$.h ",
"h b.a...    X   / [ [ [ ' ` _ ) ) / @ @ O O @ @ @ $ $ # %.=.=.&.} T I q I < & & & & & & & & & W.!.Q.E.A b v x & * * & & N.t.w.h ",
"i k.*. .        6.K.L.H.0.9.6.4.4.K o O O q ; o $ $ $ @ %.=.=.&.} T I q q 8 $ & & r , & & & & W.!.Q.E.A b v x & * & * * B.u.$.h ",
"h k.*.Y         6.K.L.H.0.9.6.4.4.K o O @ I 7   $ $ $ O %.=.=.&.%.T I q q < $ & & r 8 X & & & W.!.Q.E.A b v x & & & * * B.f.O.h ",
"e $.$.i         { >.>.:.;.-.{ [ { / o O $ e 8   $ & $ $ %.=.=.&.} T I q q < + $ & t 8   * & $ H K.J.q.8.6.4.> $ & & & * B.u.^ r ",
"0 h u 6         { >.>.:.;.-.{ { { / o O O e 8   @ @ O O %.=.=.&.} T I q q < o + $ t 8   & @ @ H K.J.q.8.5.4.> O O $ $ $ e.t 0 7 ",
"8 u e 6         | >.>.:.;.-.{ { [ / X o @ t +   o @ O o %.=.=.&.} T I q I < o o o t o   $ @ $ > 5.3.3.L K J : o o # $ $ @.e 0 0 ",
"z.b.f.Q     X . { >.>.:.;.-.{ { { / o + $ % 7 o * * * & 5.L.L.V.0.9.6.4.4.K o @ & % 8 o * & & > K.J.0.8.5.4.: o O & & * '.D.m.l.",
"t.w.$.Q     o X { >.>.:.;.-.{ { { / X + $ t 6 X & * & $ 5.L.K.V.0.9.6.4.4.K o @ @ t 6 X * & $ W.!.Q.W.A b v x O O $ $ & F.b.b.i.",
"s.s.f...    o X { >.>.:.;.-.{ { { / X + $ 6 0 o * * & O %.=.=.&.} T I q q < o O $ 6 8 o * @ $ W.!.Q.W.A b v x o O O $ & G.C.k.k.",
"k.k.t.Q     o X { >.>.:.;.-.{ [ { / X o @ % - X & & $ @ %.=.=.&.} T I q q < o o @ % - o * $ $ W.!.Q.E.A b v x o O @ O & G.m.k.k.",
"k.k.p.Q     o X { >.>.:.;.-.{ { { /   o @ = + X * & $ # %.=.=.&.%.T I q q < o + @ = + . & $ $ W.!.Q.E.A b v x O O $ @ # G.k.h.k.",
"k.k.s.Q     o X { >.>.:.;.-.{ [ [ / X o @ % <   & $ $ @ %.=.=.&.%.T I q q < o + @ % 8   $ O # W.!.Q.E.A b v x o O @ O O Z.t.t.s.",
"k.k.s.Y     o o { >.>.:.;.-.{ [ { /   X + t + X & $ @ # %.=.=.&.} T I q q < o o + e @ X $ $ $ W.!.Q.E.A b v x o O O O O Z.d.s.s.",
"h.h.t.W     # . _ [ { ] ' ` _ _ ) /   X o % +   & $ O O I U } } T T q q q < + + O % @ o @ @ # b W.R.A b b b z . O $ O O N.j.h.s.",
"p.h.r.g     # + { >.:.:.;.-.{ { [ /     o % @ X $ O O O q T | } R I I q q < o o O % +   & @ # b W.R.R.A v b z # O O O O D.p.r.t.",
"w.$.w.i     # # ) [ [ ] ' ` _ ) ) q   o + % +   $ $ O O | =.=.&.} T I q q < o o O % + X $ @ O W.!.Q.E.A b c x # O O O o D.g.r.w.",
"w.r.r.e.    # ) { [ { ] ' ` _ ) ) ) / o + % +   O O o I U } | } R T I q q q < + o % +   & @ v W.W.R.A A b b b x O o O O N.f.r.w.",
"t.t.p.g.B.B.N.M.M.M.v.M.c.B.B.F.D.F.D.G.D.N.N.N.Z.N.m.N.M.M.M.u.i.'.B.'.F.F.'.F.G.G.F.D.D.A.N.N.B.N.n.v.v.l.v.M.n.n.l.v.g.u.w.r.",
"r.r.r.r.i.f.f.f.g.u.u.u.*.a.a.i.a.a.l.j.j.p.a.j.d.p.f.p.i.i.i.o...j.i.d.c.j.x.x.j.j.a.a.y.r.r.w.u.w.w.e.e.u.f.u.u.u.u.u.w.w.w.w.",
"$.w.w.w.w.w.@.@.+.+.O.@.@.$.@.@.$.+.$.$.$.w.w.w.$.$.O.#.$.$.#...W $.*.*.i.*.y.*.^ #.~ ^ @.w.+.^ +.+.^ ^ ^ ^ +.o.o.o.^ o.^ ^ ^ O.",
"7 8 8 8 0 0 0 7 0 7 w e w w t w e r r i h e e t r 0 0 7 0 0 0 0 0 0 0 0 0 0 0 w 0 e e w w 9 e e w e e e w h h h h t g e e 8 w 7 "
};
