/* XPM */
static char *result[] = {
/* columns rows colors chars-per-pixel */
"64 64 83 1 ",
"  c #5D472D",
". c #5E492F",
"X c #5F4B31",
"o c #644C2E",
"O c #684F2F",
"+ c #67502F",
"@ c #69512F",
"# c #654E30",
"$ c #694F31",
"% c #675031",
"& c #6B5433",
"* c #6F5934",
"= c #6F5538",
"- c #705634",
"; c #725B35",
": c #745C39",
"> c #795F3C",
", c #766137",
"< c #796037",
"1 c #776039",
"2 c #7A623A",
"3 c #896A3F",
"4 c #8C6C43",
"5 c #916E45",
"6 c #947345",
"7 c #9A7646",
"8 c #977A44",
"9 c #9A7A46",
"0 c #957449",
"q c #9A764A",
"w c #977D4B",
"e c #9C7C4A",
"r c #A17E4C",
"t c #A37E51",
"y c #9E8047",
"u c #9E824B",
"i c #9C8152",
"p c #A2834D",
"a c #A9874E",
"s c #A3884E",
"d c #AA894F",
"f c #A38551",
"g c #AA8653",
"h c #A68952",
"j c #AB8A53",
"k c #AE8D58",
"l c #B28757",
"z c #B28E56",
"x c #B28E5A",
"c c #AE9156",
"v c #AE9159",
"b c #B29056",
"n c #B4925B",
"m c #B9955C",
"M c #B5985C",
"N c #BC9A5E",
"B c #B69560",
"V c #B99661",
"C c #B69862",
"Z c #BD9B64",
"A c #BC9D69",
"S c #BEA066",
"D c #BEA16A",
"F c #BEA070",
"G c #C19D63",
"H c #C19F69",
"J c #C4A166",
"K c #C3A36A",
"L c #C8A168",
"P c #C6AA6D",
"I c #C8AC6E",
"U c #C3A572",
"Y c #C7AA74",
"T c #C9AB76",
"R c #C3A478",
"E c #C6AA79",
"W c #CBAC7B",
"Q c #CEB17C",
"! c #D2B47E",
"~ c #D8BB7F",
"^ c #D0AF80",
"/ c #CDB383",
"( c #D3B380",
/* pixels */
"&&&&*%$$+%---*&@@@O#OooO@&-=-$$#OO&&&&&%OO%&-&&$=:---&&--&@@@%%&",
"on/AAFRUW!WWT!!!!WYPYYTTIIRTTTTTYKZAAFUW!!TTYPIPKYYUPTQQ((UACCw#",
"*UBkBnkgjjjgjggadLLGGGGGGVHbNHKKHKKZZZAKLKLHZGGHGJHGGLKLKLGZnge:",
"%UhkjggrerggllzzzmLGGGGGGGGGmbmGKZAAVbZmmbxnzbxGJmmmzzmzJGGngfe$",
";TgghxgagmZHZVZVnnbnnmmNmGNGHGmgllVVVVVmVVZVBVbmmmmGGLZHHnbgkge*",
"=RgkgjxZVZnmbknMZmza998pdpjjmmZVmxVVxnxVnnxxnnbbxzmmmmVmxxBnghh=",
";UhnnZHBjkjjgprprppp97399qsjzxZHHZZBkgljjzkjjgddppjgjgljnxCmlpp:",
"*PmmnVxnlxljggggpp9899wuusjjnVZAHnkklllkjjbbbjjdjxnVmnxnxnbgjjr&",
"*Pmnxmjdjnnmmjljjfr9gsjdhgjvZMAVZVVmBVVxjbkbbvnmAVVZHHHZVlkgpje$",
"-YnkzzjnmmVVVVNmmVnxbjgxnvnnjjbxxnxlkhhpprdjjgjkNZmZVZVVZZZgggf:",
"$AxmzzbnZHHZxjjlbnnnbzzjjjgbnnMBnBVnvhuiuhjvvnvbjbnnllxxBxZVxjq&",
"$AblbbmGHHZZHHAnxddgjznBCCBvnhdhfhghkjuuuushhMnMjddgadggxmVVVje&",
":TjbxmNHnAZBVZVxZmbxxxggjgkkbkdfffeuqhfhhuuhuhjbbbMmVZHmnBmjggj:",
";TbmnmGZmhfhxnxVbbbbnnVNMkngjjhhkgpfwweuhhhchhjjbbmZVZAxmVVblj6&",
"*i66666qetgttqeqqrgrpgtggreequeuqqhgjggte60560q60066506qqrer999*",
"*;*&;*%%+%&$&*-;;;>;--=&$$#ooo%%&%****:::&&%%%#%#&&***;&-;:22;;*",
"&@%@%%&----%*&&&@&;;;-&$@-*@&&%#%&;**%&*&&&o%$****,*%&&&&+&&*--*",
"YPU^(((!TTQ!EADDTETW!!!~!QQIPDe%$BKPUKDACDSAAREPUDPFPKPKYERFPETP",
"pgpknHZZHGNGGzhgjnJJLLHLLLGZZN6&*YzmGHmmCMJJKLLLKZAcjjzddhhsuppu",
"ughbAZmVGGGGGHnjvzbnmbdlzbzbVN8;&PjsjmnbhhkzzZSLKZNMpadpdpssfeue",
"gknVmZHKAKHZvgkgbnmmbbbbvnNVmbz22!ppfshphhhMbmZNGKKZnjjdp9uq88wj",
"nnnxlnZZZZmnZnnlzbbmbdjMMhhkcjz<:Ts988688qsjhcbmNmNHZVvhhshfhhkZ",
"xxxnxxljgkxnxknnkzvjccchdhgcjjp-&Ppw989suhhknZZKHZzmDAnAxvhhvBBn",
"jgpjdjgjhgkbnAnAZmBMvhffihjhhhp&&As8siuuuhbvMmmmZNnjjjxbBmZVZBng",
"gjhbMMvkshhhknnnnkbvvhhcjvhjhsq&*SwpppuhkBvngkbnmnVmVbzjggjZljjj",
"hhhhMjhfffhknNnxzkjhhjhsjMvkjj6+*KehgkZbnnkkbggjgjjagxmmngjgkhhp",
"hhvhse8888wsnCVVnMncnvnvMbbcjp7*;TjjxZBkgzllggjkbjdjjjjzghhft9pp",
"hhhew888eeuhxbznbbjhhjsdhdzvjj0%*Dgjknxxxkllnmnxjgpd9r788jkxgeeu",
"hfuwwwepffpgkbnnnnzjhjaahdzdzdg>:WgkkxVnmmmmxzapjdddghpspshjfuup",
"suwquwepsshjhdhljgggaaaazjdddj6&*UkjnBVmmxbmlzdljjdjjahghhhhuupu",
"9erggggteptrprrqqq656666699r984@*w66qtfggrrrrr666675650q79ee6546",
"%&*%&&&$+o&-:::-&*-&oo&--&-@@&@+o#o#%&&$&$oOoooooOo&&$&--&+&&&**",
"&:;=$Ooooo+@@%$%%*;:;*&+ooooo#oo##o%&%**-*&=&*-O&$&-&;=>;-@@**&&",
"&VKITTIIYTYTTTW^(!ERYYYPKDZJUEEWWERUTT^^/QW^WW^^(W^!TEYIKUEKKKu&",
"&EnnGHLLLKLKLLmNZGJnnNbNbMjzxmGJLGZzbbxZALLSHNZNmmGGLGVzgdljjg8%",
"-EZLGHmmGJLLLKGGzajjdzbjvbkbmNNnzjdppgkhhjddxmmNGGGHGKHZmmbje9t:",
"$AGmmmGGmmmNGHGHHHxgjzbCMnSAxvbkcbcsphhghdkzNNNNNNNZGGGJGSJjgut%",
"-EmmGGGmbbbdgjgGVZVmZZZBMbxkxZMhhhhifphcsj9pp8uuprudbmNKKDCvvst&",
"oKVmlzzlddzmVVVVmjgjjngggnmAZnxksshiihhisdruradsadcvvbvjjpsuuu4#",
";YlglzbxbbmmVVGmmxjp9rpjkxlxZnZASCkuyuyssjMhdhccasdhjhjupjuuqes;",
"*EzVZxgjjjnnzxbnmnngghishglxBBvkswupshhhdhdvncjdjjhschhhhhhuwpe*",
":^mnjmmbxjjjdlbvbxvjhjjjkkgjkjkhshhshhshdddu9jkjcjhhsihuhuvkuix>",
"=RDZHxxmZZKnbbnbvvbvvvvcvvkbghhhhhhhdddadgjdjvMbvvvvhhahhvvviil>",
"#AZGGGmzmmmnmNcbkjfffhkjhkhhhhhhvhcjjzjzcbbMnvvjkuhsshrhjvghhh0#",
"*TzGVGVmjggjjhaap9w8fhhhhgsuisshghhnBvzzbzzbzzjdsuussjhhggnxjf9&",
"&DjnGGVVxgrpjdhjjhmvhgvhhspfshdkkhjnvmnbnbzzzcbjddusdjgjgjmmxjq%",
"#u57r97r9r79736666qqqqprpa65644345qeeqq9adaaaaa954446666eeer964%",
"&;--Oooooo--@-&;;;;%*&*&&&%#o#o+&***;;;:-;@@oooo*&&&***&&%%%&*%+",
"*;;:&&*&+%&**,*:::;>;-*&&%&%*-;*;,:;&+o+@*,;,;;:&&oooooo%&%;;;::",
"AAAAADYSCCCDFWTWQ!KZDZAPTTTTRYi-*JQQ~~(QQ!QIPPUPTIIT!(!(((QTERPR",
"dhgBZAMkiuhhgVnHLLGKKKHVnnjlmm3+@JgmnMNJJJLGvcjjjbdbmmZKZVHmNZHb",
"mmZKJJZjhihuhbVGHPLLLJmjlxnnnkr>2~hjgjmNJJmbmmmmMbdjdzjzmmZGZJGG",
"GGmbGmMvvffsfjbnmmGLLZZnVVZnkga>2QddzhpbGNmNmGzddu9pgznzNGGLJGGG",
"GGGmmbapvhhhgvxnmxxzdmVMkxgjhhr;,PddjpkmmGmbzjprppgnmZHKKGGGNmmG",
"GGGmbbzahvbvvjjbkBxZnvjhjjdhgh6@@Shupjzmmzdde8fbmnNBZNnnbbzddddm",
"GGNbbdaar9uzBCBAnkbghhhjhhhsfhy;;Iufjzbjdzmbgkgnnmbbnljjxbbbzbmb",
"mNmZSNbhddjbkknnxgjhgjgjjchvhhu;;JhhxfglVVBCnxjdjgkxjmZmHZnbjnmn",
"mnbjvMvnMnnkgMkgpghjxbnnvjhhcsq*,QgbBBZBxkzxbkjppgxxjkjgddjbnhgc",
"suhuhgvhdisshghghphxzjjnZCvjhie:,!ZAAVBxxAZxCCMvvjjjxjxxzjddMchh",
"fhgnvbnMsywuifhgbBxnnVxghsuyuu9;&YZVxBVZGAAnZBjkhjseehpppajjgghf",
"jvbvbvhhsiufsfhnnnnmxjgjgjdhufe12TxVZAGVVZVxxbjljje9w8esse9euufh",
"pjghjjhhhffissvjklnNbjjbkjjjhss<;PjlmnVxxxjjrp99sew8efjjgssuuffu",
"eerpeeesw650qqffgllxlr7qrapdd64;;h9rkzljggrr977q7q999e8q6q7qefq0",
"o.oo.X#.XXX#####$=$$#$o+o+o@o o.#:@ oo#*=:;o. o$$#$#..#&%*;:=*&&"
};
