/* XPM */
static char *_5af80d1a8a546b0e579d77cd2f7fd67hrHwYcq1gf6oLPZF[] = {
/* columns rows colors chars-per-pixel */
"64 64 4 1 ",
"  c gray50",
". c #747474",
"X c gray56",
"o c #686868",
/* pixels */
"XXXXXXXXXXXXXXXX    ........    ....oooo........                ",
"XXXXXXXXXXXXXXXX    ........    ....oooo........                ",
"XXXXXXXXXXXXXXXX    ........    ....oooo........                ",
"XXXXXXXXXXXXXXXX    ........    ....oooo........                ",
"        ....    ....                        oooooooo....    ....",
"        ....    ....                        oooooooo....    ....",
"        ....    ....                        oooooooo....    ....",
"        ....    ....                        oooooooo....    ....",
"    ....oooooooo............oooo............                    ",
"    ....oooooooo............oooo............                    ",
"    ....oooooooo............oooo............                    ",
"    ....oooooooo............oooo............                    ",
"        XXXXXXXX    XXXX        XXXXXXXX            ............",
"        XXXXXXXX    XXXX        XXXXXXXX            ............",
"        XXXXXXXX    XXXX        XXXXXXXX            ............",
"        XXXXXXXX    XXXX        XXXXXXXX            ............",
"....        ............    ....    XXXXXXXXXXXXXXXX....        ",
"....        ............    ....    XXXXXXXXXXXXXXXX....        ",
"....        ............    ....    XXXXXXXXXXXXXXXX....        ",
"....        ............    ....    XXXXXXXXXXXXXXXX....        ",
"    XXXX                            ........oooo....oooo....XXXX",
"    XXXX                            ........oooo....oooo....XXXX",
"    XXXX                            ........oooo....oooo....XXXX",
"    XXXX                            ........oooo....oooo....XXXX",
"....        XXXXXXXXXXXX....XXXXXXXX............                ",
"....        XXXXXXXXXXXX....XXXXXXXX............                ",
"....        XXXXXXXXXXXX....XXXXXXXX............                ",
"....        XXXXXXXXXXXX....XXXXXXXX............                ",
"........oooooooo....oooo........        ............            ",
"........oooooooo....oooo........        ............            ",
"........oooooooo....oooo........        ............            ",
"........oooooooo....oooo........        ............            ",
"XXXXXXXXXXXX    XXXX        XXXXXXXXXXXX                    ....",
"XXXXXXXXXXXX    XXXX        XXXXXXXXXXXX                    ....",
"XXXXXXXXXXXX    XXXX        XXXXXXXXXXXX                    ....",
"XXXXXXXXXXXX    XXXX        XXXXXXXXXXXX                    ....",
"        XXXX            XXXXXXXXXXXX        XXXXXXXXXXXXXXXX    ",
"        XXXX            XXXXXXXXXXXX        XXXXXXXXXXXXXXXX    ",
"        XXXX            XXXXXXXXXXXX        XXXXXXXXXXXXXXXX    ",
"        XXXX            XXXXXXXXXXXX        XXXXXXXXXXXXXXXX    ",
"oooo    ....    ........oooooooo....    ....        ............",
"oooo    ....    ........oooooooo....    ....        ............",
"oooo    ....    ........oooooooo....    ....        ............",
"oooo    ....    ........oooooooo....    ....        ............",
"                    XXXXXXXX                    XXXXXXXX    XXXX",
"                    XXXXXXXX                    XXXXXXXX    XXXX",
"                    XXXXXXXX                    XXXXXXXX    XXXX",
"                    XXXXXXXX                    XXXXXXXX    XXXX",
"    ............    XXXX    ........        oooooooo....oooo....",
"    ............    XXXX    ........        oooooooo....oooo....",
"    ............    XXXX    ........        oooooooo....oooo....",
"    ............    XXXX    ........        oooooooo....oooo....",
"XXXXXXXX    ........        ............        ............XXXX",
"XXXXXXXX    ........        ............        ............XXXX",
"XXXXXXXX    ........        ............        ............XXXX",
"XXXXXXXX    ........        ............        ............XXXX",
"    ........                                    XXXXXXXXXXXXXXXX",
"    ........                                    XXXXXXXXXXXXXXXX",
"    ........                                    XXXXXXXXXXXXXXXX",
"    ........                                    XXXXXXXXXXXXXXXX",
"                        ........    XXXXXXXX        ....        ",
"                        ........    XXXXXXXX        ....        ",
"                        ........    XXXXXXXX        ....        ",
"                        ........    XXXXXXXX        ....        "
};
