/* XPM */
static char *_eb40a1fc80a4b20c1ea480c6c6619e2tWBSQbgsq5m0vtzt[] = {
/* columns rows colors chars-per-pixel */
"64 64 231 2 ",
"   c #37130A",
".  c #362311",
"X  c #312B28",
"o  c #37332E",
"O  c #3C3632",
"+  c #3A3833",
"@  c #44150D",
"#  c #4E160E",
"$  c #4A190F",
"%  c #56140F",
"&  c #451610",
"*  c #4B1511",
"=  c #4C1A12",
"-  c #531611",
";  c #541B14",
":  c #5B1D14",
">  c #5D1E19",
",  c #631D14",
"<  c #691C14",
"1  c #7E1F1A",
"2  c #452C15",
"3  c #532415",
"4  c #5D2116",
"5  c #5E221A",
"6  c #4B3316",
"7  c #4C351A",
"8  c #4E3A1B",
"9  c #52361B",
"0  c #533B1D",
"q  c #583D1C",
"w  c #642115",
"e  c #6B2316",
"r  c #64231A",
"t  c #6B241B",
"y  c #6C2A1C",
"u  c #73241A",
"i  c #74261B",
"p  c #7C251C",
"a  c #7C291E",
"s  c #553E21",
"d  c #5A3E22",
"f  c #423B38",
"g  c #7A2720",
"h  c #6F3227",
"j  c #59441E",
"k  c #5D4422",
"l  c #5B4626",
"z  c #464038",
"x  c #624623",
"c  c #644924",
"v  c #6A4C26",
"b  c #654A29",
"n  c #6C4E29",
"m  c #744D28",
"M  c #6F5127",
"N  c #6E522A",
"B  c #735327",
"V  c #73542A",
"C  c #76592D",
"Z  c #7B5C2D",
"A  c #6D553B",
"S  c #765B30",
"D  c #7B5E31",
"F  c #7B6336",
"G  c #514A4B",
"H  c #534E4B",
"J  c #58514D",
"K  c #5A5352",
"L  c #565A5A",
"P  c #585958",
"I  c #744742",
"U  c #625957",
"Y  c #5F6263",
"T  c #646667",
"R  c #6F716D",
"E  c #72716E",
"W  c #757874",
"Q  c #7A7D7B",
"!  c #82251E",
"~  c #8C271F",
"^  c #84291E",
"/  c #94281F",
"(  c #852622",
")  c #852A21",
"_  c #8B2B23",
"`  c #8B2824",
"'  c #932D23",
"]  c #9B2E25",
"[  c #932E29",
"{  c #8C3126",
"}  c #953125",
"|  c #9C3225",
" . c #96352A",
".. c #9C3329",
"X. c #A23426",
"o. c #A33629",
"O. c #A93729",
"+. c #A53A2A",
"@. c #A83828",
"#. c #AB3C2C",
"$. c #A33D31",
"%. c #AC3E30",
"&. c #B23F30",
"*. c #82582F",
"=. c #A4402B",
"-. c #AE412F",
";. c #B1412F",
":. c #AE4231",
">. c #B34433",
",. c #B84737",
"<. c #B64936",
"1. c #B94937",
"2. c #BA4B3A",
"3. c #BF513A",
"4. c #81612F",
"5. c #846534",
"6. c #8A6735",
"7. c #8C6C39",
"8. c #916C34",
"9. c #977335",
"0. c #95723A",
"q. c #9A753B",
"w. c #9D793E",
"e. c #A17B3E",
"r. c #C14F3B",
"t. c #C2523D",
"y. c #AB6F4E",
"u. c #A27B43",
"i. c #C35043",
"p. c #7E817E",
"a. c #8D834C",
"s. c #938B4D",
"d. c #968C52",
"f. c #9B9454",
"g. c #9D9758",
"h. c #A38244",
"j. c #A69C5B",
"k. c #A39C5C",
"l. c #A7A25D",
"z. c #B1A85E",
"x. c #A59D61",
"c. c #AA9F62",
"v. c #ABA464",
"b. c #ABA766",
"n. c #B2AA65",
"m. c #B7AC69",
"M. c #B4AD6B",
"N. c #B7B169",
"B. c #BBB36C",
"V. c #B3AD71",
"C. c #B9AF78",
"Z. c #BCB572",
"A. c #BEBA72",
"S. c #BEB879",
"D. c #C2B86E",
"F. c #C1AF72",
"G. c #C2B774",
"H. c #C4BC75",
"J. c #C9BD76",
"K. c #C0B67C",
"L. c #C5BD7B",
"P. c #CABE7B",
"I. c #C6C176",
"U. c #CAC177",
"Y. c #C6C17C",
"T. c #CBC37C",
"R. c #CEC97E",
"E. c #D1C57E",
"W. c #D1C97F",
"Q. c #868986",
"!. c #9C9F99",
"~. c #A2A49D",
"^. c #A4A6A2",
"/. c #A5A9A4",
"(. c #A9ABA6",
"). c #ACADAA",
"_. c #AEB1AC",
"`. c #B4B4AB",
"'. c #A9AAB6",
"]. c #B6B8B3",
"[. c #BBBCB9",
"{. c #C9BD81",
"}. c #BEC1BA",
"|. c #C7C281",
" X c #CCC582",
".X c #CEC984",
"XX c #CDC689",
"oX c #CFCA89",
"OX c #D1C683",
"+X c #D2CA85",
"@X c #D9CE85",
"#X c #D1C78A",
"$X c #D4CD8B",
"%X c #D9CE8C",
"&X c #D8D287",
"*X c #D5D18D",
"=X c #DAD28D",
"-X c #D5CD91",
";X c #D9CE92",
":X c #D6D191",
">X c #DCD493",
",X c #DED995",
"<X c #D7D298",
"1X c #DDD699",
"2X c #DED99A",
"3X c #E0D48E",
"4X c #E1D695",
"5X c #E1D996",
"6X c #E1D69A",
"7X c #E2DB9C",
"8X c #E8DC9F",
"9X c #E4E09E",
"0X c #DDDAA2",
"qX c #C1C3BD",
"wX c #E4DCA2",
"eX c #EADFA3",
"rX c #E5E1A4",
"tX c #E8E2A7",
"yX c #F1E7A7",
"uX c #C4C5C1",
"iX c #C6C9C3",
"pX c #CBCAC4",
"aX c #D3D5CE",
"sX c #DADBD5",
"dX c #DCDCD5",
"fX c #E2DFD9",
"gX c #E5E4DD",
"hX c #E8E7DF",
"jX c #ECEBE3",
"kX c #F0EEE7",
"lX c #F3F0E7",
/* pixels */
".XT.+XY.B.D.Z.T..XH.#X.X2X<X.X,X7XtX7X:XH.I.I.7X>X$X:X:X*X.X$X7X,X8X1XrX7X>X7X$X*X%X$X.XW.T.W..X*XT.wX,X9XR.{.*XT..XH.B.B.L.L.L.",
".X XL.H.I..X-XD. X$XH.$X$X+X=X6X$X;XH.*X$XD.#X.XT.$X@X.X:XR.*X#X5X7X3X7XtX7X7X,X<X;X$X$X*X=X,X6X4X+X,XeX7X+XW.Y.$XL.T.L.H.|.#X=X",
"=X=X=XL.|.T.I.H.oX+X.X>X+XT.4X2X7XOXT.$X$X.X+X$X$X$X$X$X:X*X<X:XwX:X2XeX1X,XwX8X$X.X=X$XR.+X=X5X7X7X,X6X:X.X.XT.$X+XL..X|.$X.X$X",
"=X*X.XT.$XP. XY.T.W.$X*X+XwX2X2X5X$X=XH.H.T..X$XP.+XT.+XOX:X+X$X4X,X7X,X7X7X2X1X2X4X7X7X4X9X7X7X&XrX7X7X&X$X:X.X@X$XOX$X$X$XT.$X",
"-X$XT..X$X$X+X$XY.T.+X$X>X5X=XrXOX$XT.H.L.Y.+X.XT.$X$X=X$X$X>XwX&X,X5X=XwX=X<X$X,X7X>XwXwXrX7X,XwX2X>X7X4X=X6XT.*X+X.X,X.XR.$X$X",
"$X$X.X.XY..XT.=X*XOX$X7X>X,X,X.XOX.XT.H.Y.H.+X.X XI..X$X%X+X=X%X=X>X2X,X$X2X+X2X@X%X,X7X=XwX2X.X.X$X*X*X%X:X&XtX,X$X$X$X$X$X$XT.",
"OX+X,X.X$X XT.$X+X=X7X7X3X,XW.$X.X$X$X$X-X XoX$X$XU.T.>X*X.X>X=X7X$XwXoX.XT.T.^./._.wX2X=X7XT.$XR.+XL.=X%X<X:X7X4X7X,X%X$X:X+XoX",
"=X1X=X4X=X$X>X:XU.4X5X+X7X5X5X.X$X:X,X>X.X.X#X<X.XT.I.*XW.>X<X2XwX6XR.L.H.'.)./.]./.).`.4X X$XT.I.:X.XY.OX,XH.:X7X>X,X,X7XT.+X+X",
"1X4X@X7X7X$XeX=XtX,X&X>XwX=X@X-X-X$X$XP.<XU.=X.X:X$X+X+X>X>XwX$X1XT.H.+X_./.[.).dX].^.).~.].T.U.T.$X X|.$X.XR.Y.*X8X6X=X>X6X2X,X",
".X$X7X&X7X:X=X=XrX7X%X>X7X,X7X,X$X<X+X$X$XI.$X$X+XY.$X4X@X$XOX,XT.P._./._.^.jXaXdXaXgX/.(.).).XXT.H.H.A.+X$XT.T.OX2X5X>X:X2X>X>X",
"T.OX$X>X7X7X>X,X,XrX:X:X7X:X7X>XwX7X2X+X.X.X.X.X.X+X1X4X>X:X:X XP.(.(.`.).hXjXjXdXjXkXjXkX).(.)._.$XH.I.L.T.+X$X.X$X=XeX4X5X%X2X",
".X$XY.+X$X,X:X,X7X=X:X X XL..XY.I.:X2X<X>X#X$X.XOX2X=X=X%X%XXXU P R ~.qXuXpXfXjXjXjXjXjXjXjXjX/._./.(.G.XX$X$X@X$X$XT.7XwX7X=X2X",
"$X$X$X$XoXT.7X=X7X%XT.A.|.Y.|.H.L.T..X,X,X5X>X4X*X1XwX=X=Xg u U K K K uXqXiXqXhXjXjXjXjXjXjXjXjXhX)./.^.(.oXOXY.$X*X=XwX,X,X$XOX",
".X$XT.$XI.T.0X7X,XG.Y.A.$X|..X|.#X.X.X:X+X,X7X&X$XwX Xy.! p a u ) P K K U uXqXiX[.jXjXjXhXjXhXkXjXjX^.(.^.^.`.J.J.5X:X5X7X.XT.$X",
".X$X;X$X$XY.=XwX%XY.&X XH. XH.$X.X:X+XL.1XT.1X:X%XrX} ` ~ ] ` { ( _ I K K K z ].uXuXuXjXjXjXjXjXjXjXgXdX)./._.).XX=X7X>X+X$X+X.X",
"P.$X:X:X X$X1X:X&XT.oXT.|.P..X XI. X.X$XR.#XOX%X..+.| [ ' @.#.t.! ) ! ^ U K K U E pXqXqX[.kXlXjXjXgXdXdXdXaX(.(.!.(.yX1XT..X+X.X",
"oX$X$X:X$X*X2X@X+X$X+XH.Y..X|..XL.T. X+X%X$XX.} o.] ~ +.%.@.-.O.2.< ! a a p U J H J dXiXuXqX[.jXhXhXjXaXsXaXaXsX/.^.(.~. X X.XH.",
".X$X.XOX$X2X,XwX+X.X:X.XL.Y.G.T. X$X$X.X.X$.:.X.@.>.o./ ..] >.<.>.>.>.p u p ) 1 H K J U qXqXqX].gXgXaXaXaXaXuX}.}.iX).T +XoX.X+X",
"Y.T..X$X%X,X&X2XT..XL.L.H.$X.X:XT.#XY.X.@.@.:.:.:.:.>.] ' ] ] o.3.#.>.o.o.p p ) ) I U K K K [.qX[.qXaXsXaX[.].].[.Q T T .X$X$X.X",
"+X+X7X7X,X=X*X:XT.+X X+XP.Y.T..X$Xy.X.+.%.| @.>.>.>.o.,.>...+.) _ ..>.X.#.%.#.( ! _ ) L K J H O qXqXiX}.uX}.qXT W W Y T 7X$XOX.X",
">X>X4X,X,X2X@X=XI..X XY.G..X.XP.O.:.#.o.<.#.@.-.>.#.:.>.<.#.#.' '  ...' :.@.#.%.p ) p ! g J H U K iXqXqX[.qXW E R Q T Y 3X7X:X+X",
"2X2X7X7X7X>X7X>X5XT.P.T..X.X+.| +.#.@.2.2.,.,.@.X.>.>.2.>.2.+.:.;.] _ ' +.#.] >.| #.! ! ) ! ) K G H P iXR Q Q Q Q.Q.T T 4X=X>XeX",
">X2XwX7X7X7X:X:XwX>X.X*Xy.o.X.@.>.@.2.;.2.-.#.#.>.>.#.#.%.X.#.#.1.] _ | ' ' ] %.o.| | | u p ( ! g H O + E Q.Q Q.Q Q.L L 4X$X5X=X",
"5X>XOX+XT..X>XwX>X$X:X#.@.#.@.-.#.@.>.#.,.t.>.<.,.>.,.#.#.@.#.+.o.@.o.#...' _ _ [ | | ..[ | ! ) ) O O f W E Q.Q.Q.L L L 7X7X=X7X",
"2X+X.XT.+X$XT.<X2X+.o.#.+.o.,.#.2.#.%.-.>.>.>.@.,.>.,.;.,.@.%.#.#.X.o.o.@.t.[ _ ' ..[ ' _ .._ : ; f O O E Q p.p.L L P P T.$X7X7X",
"+X+X+X.X.X$XOXy.:.#.#.:.,.<.2.2.,.>.>.-.#.2.1.&.:.>.1.>.1.,.#.#.@.+.#.:.i.,.@.#.` ! ` [ ' e t : : O O X R Q P L L L k k T.OX$X,X",
"$X:XOX-X$X$X#.%.#.,.<.>.t.#.&.#.#.;.#.@.2.>.#.1.@.1.>.>.#.;.#.,.:.#.;.#.>.2.-.#.....' * ; y w ; ; o + o L K L T b N 0 q  X$XOX.X",
"$X X$X$X$Xu 2.#.#.@.#.#.>.#.,.#.:.,.&.-.&.:.:.#.#.@.;.%.>.>.#.,.2.#.#.:.-.@.| X.| ' 5 - : y 4 * 3 O X + L L H v x v 9 c +X+X.X:X",
"$X+X.X.X+Xu ! X.:.@.#.,.>.2.2.,.:.#.;.@.#.>.#.| ,.@.:.-.#.#...X.#.o.o.| @.X.@.X.r y r ; # - 4 = $ X O X P N v V n N k k $X+X*X$X",
" X+X,X.X+X{ ) ) ! o.X.-.@.>.;.,.-.,.2.;.>.#.#.#.>.-.X.@.| / | | X.o.#.@.o.o.r : w 5 : = : ; : @ $ o O b v b N b C n k k +XT.;XT.",
".XT..X.XH.^ _ _ ! ` ..#.:.#.,.@.<.#.>.>.>.#.#.-.<.@.#.@.o.X.] | o.| @.o.a : : r : : w = ; @ * $ = o n k n N 8 2 D V k c $XT.$X$X",
"+XH.$X+X Xp ^ { ! p ) _ ' :.>.-.>.-.>.>.o.#.>.>.#.| #.X.o.o.#.#.@.| +.; # : : w r r 5 ; $ = $ = x x V V 0 7 0 8 S v k b $X+X$X2X",
"H.T..XY.$X^ ^ ) ^ _ ) _ ! _ ;.@.1.-.#.o.#.#.#.>.#.#.o.o.' +.o.#.| w w ; w - r r w 4 = @ ; @ x v v x x 7 6 0 2 q C N b k =XT.,X7X",
"+X#X.X$X+Xi ) ! ) } | } ( ( ) p #.>.>.X.#.%.:.@.@.] o.X.@.o.o.=.- : w # r g r y - = @   ; 9 9 N n 7 7 s 7 b.c j V C j q :XOX%X>X",
"4X>X+X+X+Xu < % _ | ~  .| ! p p ! g o.-.#.o.#.@.@.#.#.,.@.#.e r t 5 ; y r : r = = & @ k N q v 6 9 6 8 A b.b.6 c N V c k >X>XwX:X",
">X7X=X=X6X*.i w , : o.] ~ _ ) ^ a ) p ! | #.| +.X.:.#.1.y 5 y > > y 5 : 5 $ = & @ k v x x k 0 6 0 0 d.b.C.b.k j D C c +X=X7X1X=X",
"7X7X7X>X=X8.q.e , w t a } } ` ) ! ^ ) ! _ +.+.o.#.o.r.w h y y > e r r y & @ $   k c x x 8 6 8 7 f.s.f.k.b.n.S.x N +XH.+X@X.X<X:X",
"7X>X1X,X6Xw.w.6.6.< i t , ^ { ~ ' ) _ ^ ( ' p o.' > 4 w y : w , 4 ; & & @ ; v v 9 v 6 9 6 7 . k.b.g.b.M.M.Z.M.n.L.#X.X+XT.+X.XT.",
":X+X=XwX4X9.q.6.6.5.8.e , , w ^ ) ` ^ ) ) ) a p : r 5 > : w ; # & = * @ n n v v q 0 7 8 8 x.k.k.c.l.b.M.j.|.L. XY..X$X.XT..X.XT.",
"T.$X$X7X+Xw.q.V 0.6.6.6.6.w , e w } ) ) ! _ p i : 5 > r : 4 @ = = = 3 x M v M 7 7 7 7 f.d.b.g.k.k.b.Z.N.b.B. X$X$X1X XY.+XY.Z.H.",
".XT.*XoX+Xq.9.C n 9 4.5.Z 6.% w # < , ) a a p e 5 w > w 4 = ; = = v n c F 6 0 l 8 a.g.g.g.g.b.b.V.M.Z.n.N.|.#X X$XY..X.XH.J. XG.",
"T.;X.X@X+X8.9.v F 6 q 0 5.5.Z 5., e w < e { < u w e 5 ; = 3 # n n x N 0 9 9 q c s.s.f.k.c.k.b.b.S.Z.B.#XH.|.E.+X$XY.A. XH.L. XY.",
"T.+XT..XJ.h.u.0.0.b q j 9 l B 4.D 6.y w , , a u , ; * * : - N N N N 6 2 6 s f.x.g.c.g.c.k.k.S.S.Z.L.$XJ.oXoX*X$X|.D.T.+XD.T.|..X",
"#X$X$X$X,Xu.w.Z 7.2 7 x k 9 q C Z 7.6.m , t e : 5 ; ; ; v n N M 7 0 8 s F c.d.d.g.k.c.c.l.Z.n.A.H.H.L.Y.:X$X$X<XI.Y.Y..XH.H.*X$X",
"+XOX$X1X4Xw.e.F 6.. 6 s d.x k k k 5.5.D 7.i i t - 4 k k x v N 9 6 0 9 b.g.b.b.k.k.b.b.j.Z.Z.K.B.T.Y.$X$X,X+X>X4X>XT.|..XY.OX+X.X",
"=XOXT.7X2XF.w.5.7.0 7 0 V.k.n x x x c 6.5.5.B t : V k k d 6 6 s q k.k.g.b.c.k.g.b.b.M.M.L.L.L..X.X.X:X7X$X1X,X>X$X4XY.:X XT.T.T.",
"$X$X1X>X,X$X.XM 5.2 k M.c.b.b.c.k q c 0.0.5.C Z D D k 0 0 8 k S.k.k.b.b.g.V.Z.b.Z.L.H.|.H.Y.L.$X#X1X:X>X>X:X5X+X>X1XT.T.*X+X$X=X",
"#X=X=X=X>X,XR.|.$X0 n.Z.M.b.C.M.V.b.c q.8.u.Z Z M D 9 9 8 7 l.x.V.n.z.M.|.H.H.M.Z.H.oXH.Y.H.-X|.=XwX,X=X>X,X5XrX7X>X4X%X$X+X*XOX",
"$XtX:X7X,X7X$XI.T.U.Y.N.L.S.M.n.V.j.b.h.h.u.C C 5.V 8 0 s f.k.b.V.j.{.S.M.S.$X.XM.|.Y.P.+X$X.XT.,X1X=X.XJ.I..XU.,X$X:X,X>X@XOXT.",
"2X7X>X,XG.I.#X+X$X+XT.G.#Xb.M.b.b.f.l.h.8.q.4.Z C C 7 j k f.f.x.b.M.M.Y.T.+XY..XH.L.Y.T.L.+X5X6X=X6XD.L.L.Z.XXL.S.,X>X2X$X X:X$X",
"%X>X$XT.L.Y.+XA.J.:X-X1XY.T.|.S.M.K.n.w.h.h.Z D v C 6 j q b.l.k.M.M.n.{..XL.<X$X+X$X:X:X@X7X$X6X2XT.I.T.N.$XT.Y.L.Y.2X1X7X6XeX+X",
">X>XT.T.OXH. XH.Z.T.:X1XW.$X.X.X.XY.N.8.e.u.V 7.V C 0 k 2 k.l.n.M.Z.z..X$X$X7X=X2X%X,X=X1X%X>X7XY.T.J.-XoXI.Y.T..X$XOX>X>X=XwX>X",
"=XOX.XJ..XT.T.|.*X.XT.#X=X.X$X$X$X.XH.w.u.8.C C C C 0 q k n.b.M.B.B..X|.$X$X:X&X7X,X,XwX%X=X=X$XL.$XH.T.T..X$XJ.T..X+X,XwX>X,X>X",
"$XT.$X.X$X+X.X.XXX|.H.1X$XI.wX:X:X XoX|.q.q.V B C 5.0 s n.Z.Z.L. XY.+X$X+XT.OX7X=X:X,X1X:X>X7X$X XT..X+X*X#XOX.X*X$X.XY.$X+X2X=X",
".X$X+X%XT.H.Y.OXT.$XT.@X>X+X.X=X2X$XOX+XY.+XZ D C V L.M.M.Z.Z..XL..X$X$X.XU.:X-X,X=X&X>X>X&X7X,XoX:XH.H.L.Y.$XT.OXOX%X.X+X%X=X=X",
"$X$XY.$XL.A.H.J.$XD. X$X-X.X|.2X7X=X,X;XH.*XL.B n B.oXZ.Y.A.OXP.:X.XH.OX<X$X@X6XwX>X,X:X:X6X:X7X5XG.T..X X$X=XT.T.T.:X+XL.rX4XwX",
"XX$X:XH.L.Y.G..X.X.XOX,XY.4XL.4X,X5X7X@X,XL.J. X X$X.X X.X.X*X|.T.:X.XP.+X%X=X2X3X7X2X7X5X<XwX,X6X.X X$X>X+XT.+X+XU.$XOX=X&X=XwX",
"T.$X|..XT.I. X%X$XT.J.:X$XOX6X%X9X7X$XwX,X=X-X$XP.OX|.=X$X*XT.$X.X:X$X$X7X5X%X$XH..X.XoXT.*X1X=X7X:X>X$X>XOX$XL.>X.X:X,X7X=X>X<X",
"$X$X.XY.H..XY.$XT.+X$X XJ.$X4X4X:X7X,X>X7X=X6X:XOX,X%X+XT.:XOX$X>X;X+X:X7X,X&X*X*X+XOX+X$X+X=X7X>X=X=X:X.X$X+X.X+XT.%X7X7X2XU.$X",
"4X$X.X$X|.|.+X.XW.$X@X#XY.,X@X=X,X,X2X:X1X=X1X1X7X>X X.X;X+X.XT..X;X1X=X1X,XT.Y.+X%XT..XOX$X$XwX&X>X=X=X5X>XwX1X4X7X=X=X.X$X.X.X",
">X,X$XT..X$XT..X+X X:X$X7XwX,X6X2X$X#X+X$X7X>X,X=X>X7X>X$X$X$X$XOX>X7X1XwX$X+XY. X|.$XOX+X$X$X+X+X=X7X=X=X=X7X:X,XwX=X$X$X.X+X.X",
",X,X>X,X$XOX$XY.$XY. X>X>X=X4X$XT.=X:XT.$X+X$X2X@X=X>X:X7X=X7X:X,X=X4X%XT.Y.I.$XL.$X$X$X+X$X@X#X+X.X=X1X=X5X1X3X=X=XOXY.OXT.$X@X",
">X>X:XrXW.$X>X%XJ.Y.wX7XwX$XOX$X.X*X XH.T.+X>X.X@X=X>X+XwX7X$X=X=X+X,X#XXXG.$XE.|.H.<X$X.X;X.XT.$X#X$X7X+X>X7X%X7X$X$X$XT.+X$X+X",
"6X>X@X=X%X:X2X4XtXwX7X,X1XW..X+X$X+XP.|.=XOX$XP.+X4X>X6X,X5X,X2X:X7X>X;X|.$X X.XY.+XT.+X$XP.@XT.OXOX.X$X=X=X7XeX<X$X.XJ.$X.XOX$X"
};
