/* XPM */
static char *_21dc2e80bc94bca9a180809ba8df3d29vd6JSrG9tydrQs3[] = {
/* columns rows colors chars-per-pixel */
"64 64 219 2 ",
"   c #020104",
".  c #080605",
"X  c #040A01",
"o  c #0A0A06",
"O  c #04010B",
"+  c #09050D",
"@  c #0B090C",
"#  c #04080B",
"$  c #100003",
"%  c #12000C",
"&  c #100F0D",
"*  c #11120D",
"=  c #050112",
"-  c #090513",
";  c #0D0A14",
":  c #05011A",
">  c #0B051B",
",  c #0E0A1A",
"<  c #040814",
"1  c #130414",
"2  c #110D15",
"3  c #12021C",
"4  c #110D1C",
"5  c #131116",
"6  c #15121C",
"7  c #18131F",
"8  c #1B181A",
"9  c #050022",
"0  c #0B0223",
"q  c #0F0922",
"w  c #05002D",
"e  c #0C012B",
"r  c #120526",
"t  c #120C23",
"y  c #11002A",
"u  c #140D2B",
"i  c #190F2A",
"p  c #190F27",
"a  c #151123",
"s  c #191524",
"d  c #1D1A25",
"f  c #17112A",
"g  c #1A142B",
"h  c #1D1929",
"j  c #1E1A2C",
"k  c #0C0032",
"l  c #0D0038",
"z  c #120032",
"x  c #180033",
"c  c #1B0C34",
"v  c #14003D",
"b  c #1B043A",
"n  c #160F31",
"m  c #1B1431",
"M  c #1F1A30",
"N  c #201B24",
"B  c #221D2D",
"V  c #21162A",
"C  c #231632",
"Z  c #221D33",
"A  c #241C3A",
"S  c #281E39",
"D  c #1E2126",
"F  c #25222E",
"G  c #222023",
"H  c #262134",
"J  c #282435",
"K  c #292434",
"L  c #2C2835",
"P  c #272139",
"I  c #2A2539",
"U  c #2A243C",
"Y  c #2E293C",
"T  c #312D3D",
"R  c #35323D",
"E  c #270F44",
"W  c #2E0A4A",
"Q  c #261C43",
"!  c #27144D",
"~  c #2D1F42",
"^  c #311F47",
"/  c #310E52",
"(  c #38175C",
")  c #2B2442",
"_  c #2F2942",
"`  c #2E264A",
"'  c #2F2849",
"]  c #332343",
"[  c #352D45",
"{  c #322C44",
"}  c #392F45",
"|  c #332C4B",
" . c #392E4D",
".. c #37254F",
"X. c #353047",
"o. c #363144",
"O. c #393345",
"+. c #37314C",
"@. c #39334C",
"#. c #3D394A",
"$. c #352E51",
"%. c #392E50",
"&. c #373151",
"*. c #3B3353",
"=. c #3B335B",
"-. c #361B61",
";. c #3E2961",
":. c #413C4E",
">. c #444051",
",. c #7A3FBF",
"<. c #6F46AE",
"1. c #724EAE",
"2. c #6C42BC",
"3. c #6B45B4",
"4. c #754BB5",
"5. c #794BB6",
"6. c #7446BD",
"7. c #7945BD",
"8. c #734ABB",
"9. c #7B4BBB",
"0. c #7B54B7",
"q. c #7A51BE",
"w. c #7052B2",
"e. c #7459AA",
"r. c #773EC3",
"t. c #7B3DC5",
"y. c #773FCB",
"u. c #7C3DCB",
"i. c #7C3ED1",
"p. c #7644C3",
"a. c #7B44C4",
"s. c #754DC3",
"d. c #7B4BC5",
"f. c #7545CB",
"g. c #7C44CB",
"h. c #754BCC",
"j. c #7D4BCB",
"k. c #7652C4",
"l. c #7B52C5",
"z. c #7F5AC3",
"x. c #7553CB",
"c. c #7D53CB",
"v. c #7F59CC",
"b. c #775BC1",
"n. c #7D44D2",
"m. c #7C4CD2",
"M. c #7B43D8",
"N. c #7D53D3",
"B. c #7F61C3",
"V. c #814BBE",
"C. c #815DBF",
"Z. c #813DC4",
"A. c #833DCC",
"S. c #893ACF",
"D. c #843DD3",
"F. c #8A3DD6",
"G. c #883AD7",
"H. c #933ED2",
"J. c #8F3FE0",
"K. c #943DE1",
"L. c #8144C7",
"P. c #8842C7",
"I. c #824CC5",
"U. c #8244CD",
"Y. c #8B45CD",
"T. c #824CCD",
"R. c #894CCE",
"E. c #8254C6",
"W. c #825AC4",
"Q. c #8253CC",
"!. c #8B56CF",
"~. c #855BCD",
"^. c #8444D3",
"/. c #8B44D4",
"(. c #844BD2",
"). c #8B4BD5",
"_. c #8544DA",
"`. c #8C44DA",
"'. c #834BDA",
"]. c #8C4BDA",
"[. c #9047D6",
"{. c #9244DC",
"}. c #924BDC",
"|. c #9B4CDE",
" X c #9547DB",
".X c #8453D2",
"XX c #8A54D5",
"oX c #8358D2",
"OX c #8A5BD5",
"+X c #8B52D9",
"@X c #8B5ADB",
"#X c #8752D8",
"$X c #9351DC",
"%X c #935FDD",
"&X c #9451D7",
"*X c #A24FDD",
"=X c #8661D2",
"-X c #8E4AE2",
";X c #8B46E2",
":X c #9345E2",
">X c #944CE2",
",X c #994BE3",
"<X c #9B4CEA",
"1X c #9D46E9",
"2X c #8C5CE0",
"3X c #9452E3",
"4X c #9A53E3",
"5X c #9B53EB",
"6X c #9E59EB",
"7X c #955DE2",
"8X c #964FF5",
"9X c #A253EB",
"0X c #A45AEC",
"qX c #A257E5",
"wX c #A25DF1",
"eX c #AA5FF8",
"rX c #A860F0",
"tX c #A062F1",
"yX c #B167FC",
/* pixels */
"            5 O O { K O : Q [ H -       O + ; ; =  .U - - S *.)     .     . ; > = *.H + - S | J           O 2 + 0 +.s O O Q ] Y ",
".   4 , O 4 O , X.t -   h ' > O O O - > : 4 O = X.> > - N [ t -     O , - - - - { t + O H [ > + + O , ; - , O - { 4 O O B @.4 + ",
"O h Y A g s = s s , -   = g O   O Z _ A g s O s f , ; O ; h O   O j U P g 4 O s t ; +   - 7 O   O S ~ M g s O h a ; ;   , s O   ",
"O I q , ; O   @     O     = .   O K t - 4 O             O +     = A > f f O   O O O O O   O   + O Z > q 4 O     O     O O = O . ",
"4 , 4 +   0 : O + O { K ;     O ; 2 6 O O > : =   : @.H O   @   t 4 2 + = t O O - O | A O     O 4 ; &     > : O - = [ H ; o     ",
"; , : f A { _ H O   B O @ O O O ; - = t Z X.I h + O d - O - O O @ 6 : t Z { I K , - d   - : - + @ ; = - Z _ Y H   O s O   O O O ",
"O = I _ q 4 > j H O   O s , a ; O = I _ 4 4 , Z h .     H g = =     _ | - 4 t H B     o d n f ;   O U U q f > H d O     s u f , ",
"F s - O , O H A : O   , O 4 + O F 6 O O O , H Z -     2   ; - O P f O   , O B Z , +   2 O 4 O = Y a   = ;   H A 4 O   7 = 4 = O ",
"; O O O @ + O ; O = = O , = - L 2 O O   O = O ; O = -   2 @   B a O     + + O , = = O O ; - - H ; - +   + O = 4 O O   O - - O Z ",
"O j j - - . + 4 t | U s 4 B , ; O J g O @ + - 4 4 &.` f , Z t ; = M s - + + - 4 t =.A g q A 4 = = Z f ; - - - , u $.A m t Z , > ",
"Z Z , - - + + 4 t > > = = = H , B Z > O O   O 4 q , = ;   + d + Z H f = O + O 4 4 4 O   O = F = P P 0 @   ; O 4 t t O + + = j O ",
"O K = - 5 - K O + 2 6 O 2     +   H O   = O K O ; 4 4         - = L O   N   T O O 4 6       = - = K O + 2 - K O O 7 ; O -       ",
"q : O ;   = 4 B a - =   O = O X z > 9 3 > 0 0 E z : 0 0 0 : : 9 y 0 0 0 e > - c 9 : > > > > 0 b @     ; O = , Z : ; +   O O     ",
"      .   + ; = : [ I   - ) { ] (.P.^.Z.p.s.h.h.h.d.a.(.a.E.l.p.U.t.g.g.t.d.d.r.g.d.,.R.7.l.j.E.>         . ; O : T d O = ) | Y ",
"  O U P p @ - a { t 4 O f ` , 3 ].{.8XD.(.).^._.^.(.g.n.n.2Xf.F.1XK.<X{.'.m.f._.`.(.t._.n.N.n.a.3   G S s , = j { f - O j ` = O ",
"  } A n p F O 7 O ; O   - u   O d.A.'.j.#Xg.}./.^.(.f.tXg..XXX(.u.A.^.j.@Xu.4Xi.n.f.y.wXn.m.Q.5.= @.~ u t H O t = 4     - 7     ",
"O B 4 2 @             @ ; O O . k.d.~.oXA.}.a.E.c.d.E.6.(.^.^.OXj.p..X.Xr.4Xt.E.s.d.I.a./.G.j.~.= H e 6 ; O       O O O +     + ",
"4 , - O O 0 : O ; O &.Z 2     $ T.U.I.A.4XU.Q.Q.T.f.j..Xf.].].T.(.j.j.(.3X(..Xl.c.T.Q..X(.).'.q.3 4 > O = > = O + O Y F @ O   + ",
"O O a X.0 m q t     +   O Y h + n.^.j.D.U.Q.k.Q.U.D.^.j.j.T.U.D._.(.^.^.^.T.j.d.g.D.).j.c.v._.6.- @ - { > t > u O O O O O U B O ",
"O O O.Y > s 4 K K .   . L > , 1 m.g.j._.^.f.s..X^.,X5Xg.(..XT.^.^.(.n.(.U.a.s.+X^.3X6X^.j.c.;X6.- O :.P 4 , t U F -     B , 4 4 ",
"I ,   O ; - L L a =   4 O 7 + % g.h.2.5XD.^.Q.j.^./.S./.g..X2.m.h.j.p.).:Xn.c.p.n.>XF.H.t.8.M.3.] > O + ; 4 K H 2 O   ; + 5 + O ",
"> , +   - O O 7 : g g 4 4 - O V n.Y.~.(./.$X).^.D.F.4XT.T.T.).(.g.(.#X(.^.4X/.^._.>X4X).T.j.^.0.3 >     - - O 4 : s f , , - - h ",
"O :.O.4   2 , 4 _ *.q = f X.f = n.|.I.N.(.U.}.`.`.>Xy.OX6.].9XU.).].].g..XZ.*X`.`.,Xr.2Xp.].5XQ.> | _ 6   ; , a ) +.0 : f *.f = ",
"F Z t O + O O 4 a t - - O O B @ m.^.&X].c.c.(.g.t.s.OXU.`.$Xa.j.g.U.$X).a.%Xg.u.^.d.XXf.). Xy.W.A A , O O O O , , , O O   O K - ",
"O H O - ; , B - O O -         o v.p.g.yX/.(.m.n.^.j.U.`.(.Q.j.s.h.j.U.rX}.(.j.^./.(.^.`.^.Q.Q.4.- D   O + O Y = O ; -           ",
"+     -   + 4 4 , Z g   - H I d c.U.].D.D.f.p.).(.j.^.`.j.Q.T.f.j.n./.D.^.g.h.g.U.T.U.`.j.c..X5.-     O   + 4 a - H a O - A U Z ",
"+   = -   + ; - Z U g   4 ` ` V #X/.D.{.^.j.d.g.(.j.^.`.j.Q.(.g.].D.D.`._.(.h.g.f.j.g.).j.z.'.7.3   + O O + + - g Y d O , A ) j ",
"+ O @. .B O - h H > -   t ) O O +X/.4X^.(.oXd.`._.j.^.D.j.oXg.u.}./.6Xu.j.XXa./.).f.^.D.g.~.n.V.+ O [ +.K O O K A - @   f K + + ",
"  } Q r f s - d O ;     O 4 @   j.P.a.(.+Xf.$XF._.j.g.wXg.h.#Xn.U.U.(.T.XXa.$XD.].(.t.wX^.g.(.5.- { Q q t K O ; = 2 .   = 4 -   ",
"O H g t - O   . . O O O   O   . x.d.E.@XD.).U.Q.j.p..XT.).^.).oXT.d..XXX/.).r..Xd..XXXL./.`.m.z.+ B u ; 4 O     O O , = O +   O ",
"; - = , B U _ h 4   H 4 -     + m.^.T.4X^.T.j.l.d.g.j.XX(.^./.U.T.U.).).[.R.Q.l.x.(..X(.(.f.-Xl.3 6 < , H P I Z o O U ,   +     ",
"@ O , X.4 ; = > O     O O o.B + m.^.T.^.U.T.h.x.T.D.^.a.c.Q.(.A.^.).^.(.^.j.s.j.U.A.^.n.c.k.-X7.- O , @.t a = t         O { K O ",
"  O #.j , 2 4 H H O     F > f 1 j.g.j.y.t.h.h.XX^.1X0Xg.c..Xg.^._.n.'.n.n.h.s.#XA.,XeXu.T.z._.8.- = Y A t 6 4 H A O . O ) f t h ",
"Z 4     , - h Z - ;   ; ; ; O 7 m.U.d.3X].].T.a.g.F./.).g.(.g.n.g.j.j.T. XT.j.g.u./. X`.g.x._.4.C q     6 - B H + O   + ; ; O 4 ",
"  6 + - ;   + 4 = @.+.Z t 4 ; 4 f.T.9.h.A.4X4X/.`.,X`.^.(.a.#X^.U.T.Q.j.^.|.|._.i.:X`.U..Xj.$X<.- t + O 6 O = 4 > Y >.Y ; , , 4 ",
"- o.#.,   f 4 a P *.> = , #.- + m. XR.T.!.L.}.`.`.].U.#XU.).4X^.`.>X}.^.(.Y.$X^._.3Xp..XU.].3X9.>  .[ 6   ; ; ; Q | u = t @.- = ",
"P Z q > O O O 2 ; - O - O O h . j.A.}.}.6.=Xj.u.u.d.XXg.).}.A.l.p.a.$X).a.%Xp.A.u.a.OXp.].:Xn.l.^ A i O - O O ; 4 4 O       F O ",
"- d . O - > s s - - - +   O O + x.(.(.4X/.(.T._._.j.^.:XU.l.Q.s.c.(./.9XA.j.j._.n.(.^.`.U.I.c.9.> s O ; ; O B 4 + , = O     O = ",
"; @   @   O 4 h = B s O = f m s Q.U.(.A.D.n.g.`.D.j.U.`.g.Q.j.d.(.^.^.S.A.f.n._.n.(.D./.T.W..X5.3     @   + , g - d s + @ f j f ",
"    - ; O ; ; O X.f O = S U q - 7X|.A.>XT.c.z.a.L.T.^.^.j.d.g.g.6X/.F.}.U.N.(.D.(.!.g._.n.h.^.V.-   ; a + @ + = { , O O H ) t = ",
"  O *.$.A   O K S > 4 O , B + + ^.H.0XD.U.Q.a.`.:XU.D.^.s.OXg.D.{.{.wXA.U.c.a./.^.n._.^.d.B._.V.+ O | =.Z     Y Z , 7 O , U O @ ",
"O X.j f a d - ; O ;     O ; O   j.U.E..X).A.].^.(.a.T.3X(.j..Xd.(.(.j.oXoXU.{./.j.j.^.5X^.).N.w.: | C a 4 h + 5 + @       ;     ",
"4 a - ; + 2 O       Z g - +   X x.j.l.T.$X).I.~.c.s.oX(.^./.^.~.d.d.Q.d.$XP.R.Q.c.a.v.z.(.`.n.W.r t 4 @ @ ;   O   : A j o     . ",
"; 4 = 4 F | | H = O Y : -     % n.^.a.<X`.T.E.s.a.g.j.T.(.U.$X`.^.u.^.,X/.XXE.l.d.U.j.d..XU.-X4.3 , + t A { _ Z . - U =       + ",
"  O t | u > O ; +       O [ A + a.d.l.i.U.d.s.j./.K.`.g.Q.c.f.n.h.j.n.u.g.c.x.T./.F.J.F.T.b._.4.- O @ *.r 4 O 4 O       O &._ - ",
"@ = U P ; , j Z Z +   2 a , ; 1 '.Y.7._.n.h.l.l.g.>X|.P.U.T.f._.^.h.g./.^.d.E.T.^.,X<Xi.g.E._.8.- - H j 4 O g P d     + j - - , ",
"- + @   =   - , O + O : - O   N m.U.Q.m.}.).U.g.^.G.9X].d.E.d.g.g.j.Q.(.{.).U.n._.D.9X|.g.c._.k., # 5 + +   O , O O O O , + + s ",
"O O   + 7 O O ; O } o.H : 4 7 @ f./.I.j.t.6X4X^.D.4X/.g.XXa.}.U.f.Z.U..Xt.0X>X_._.6XU.L.XXj.].8.= 4 - O 5   O , = @.[ J - - 4 , ",
"  { $.t   , ; 4 P %.7 - t { f   g.,X).(.f.T.]././.).d..Xf.,X X^.u.|. Xh.oXg.}.D./.,Xp.c.j. X}.d.0  ...4 O ; 4 t C { u > s ) t 4 ",
"t Y - O ; O 6 ; ; 2 ;   . + 4 + 1.(.Y.0XI.E.d.a.g.oX(./.`.).#XI.a.(.[.qXU..Xj.g.U.N.(.`././.oX0.c H > O - O s - @ ; - O   . 6 + ",
"- +   2 O - 4 K 4 O - O + - O - C.j._._.g.j.g.).g.f.T.(.T.Q.l.x.oXd.(.).).a.j.^.U.f.(.U.I.E.z.e.r O O & + O a Z ; O - + O O - - ",
"      O   + ; O O X.F = O Z T H w w k e k l k v k -./ x e E ;.! e e k k k e z k v ( W y e b -.! O   O     = , = : T H O O ` *.U ",
"@     4 O ; + O @.q - > Z U 4   ;   > ;   *   - } , ; - d X.g ; X     4   8 o O :.a - O Z | f O @   O ; O 6 O ; | t O - _ &.> ; ",
"  , &.$.I O > Y H f @   4 Z O     t $.| j ; O F H ; @   4 M :   O -  .&.A > O I Z , 2   ; j O     , | | A - - j Z f 4 = 4 B O O ",
"O H g , ; 7 O O O - O O O + O . O _ g , ; s   @ O = O O + O O   O T p > 4 6 O + O -     O -   .   K f , 4 6   ;   +     . @     ",
"4 4 7 O   4 = + O   { B +     O ; 4 4 O - 4 - O   = { H O +     4 s 4 O O , O + + O R H O   O O 2 4 t O O ; - @ O - { P O +     ",
"; 7 - , _ [ @.H -   U O +   O - 2 ; O t H @.@.H ; + H O O   O   6 4 O > Z | ' Z O   K O = O O O ; 4 O > A | +.Z   O P =   O O   ",
"@ O u ` > @ + > >     O , [ I O ; O p { 7 2   6 +     O , ) A     O t _ 4 4 = t : O   + O Y H   + O t { 4 ; O a - O     , I B ; ",
"S - +   , > m A u O   ; - 4 4 O d ; + O > > M Z p +   + O , : - d 4 - = 4 - K H 4 -   8 O , O , H , + O ; + B ) 4     2 O 4 O O ",
"q O     O + - 4 -     O ; -   H 4 O O     + + ; = + O + ; + O I 4 - +   O - = 4 : O     2 -   U t - 2     O - t O - O - 2   O K ",
"  , : = 5 + + 4 = +.X.Z t q 4 , O s , O 2   - 4 = @.{ Z , ; 4 ; : , O   6   O , > *.{ Z 4 > - 4   2 = - 4 O + , = { | U 4 a 4 4 ",
"q ) P - O - - ; h Z > : , H B   4 | _ ; O - - 4 s H : O + h f = u | j - - - ; , a Y - = - B g O s | Q 4 O - - ; s H = = 4 s s O ",
": S = - 4 O F O O ; ; O O   + ; - Z - - + O B = = 7 ;   + O O   > Z O + 4 + K = - 4 ;   +   O O O Z = O ; O F = : , = O O O O O ",
", = O 2   + > H 4   + . . . . O 4 = O 4   O t H 4     + + . .   ; O   5   + 4 H 4   O . .   + O ; O O 4 O O 4 P , O O O O + O O "
};
