/* XPM */
static char *_ed6a620e83041b8f4c3cb56c07939a2RpM8PR33QMgCEdM7[] = {
/* columns rows colors chars-per-pixel */
"64 64 163 2 ",
"   c #0C463A",
".  c #0D463C",
"X  c #004A3C",
"o  c #14463C",
"O  c #024E41",
"+  c #144D43",
"@  c #194B41",
"#  c #015345",
"$  c #0A5346",
"%  c #005B4C",
"&  c #15544A",
"*  c #19554B",
"=  c #334D47",
"-  c #245C53",
";  c #2A5C54",
":  c #3C5651",
">  c #345C56",
",  c #3D5A55",
"<  c #375F58",
"1  c #385F58",
"2  c #056754",
"3  c #0C6456",
"4  c #006C5D",
"5  c #2D655C",
"6  c #35625B",
"7  c #3A655E",
"8  c #006E62",
"9  c #017669",
"0  c #017A6C",
"q  c #007D71",
"w  c #2F6C62",
"e  c #376C63",
"r  c #495E5A",
"t  c #4B625D",
"y  c #426761",
"u  c #4F6764",
"i  c #456963",
"p  c #496C66",
"a  c #496E68",
"s  c #576A67",
"d  c #5B6A67",
"f  c #586E69",
"g  c #5C716D",
"h  c #427B72",
"j  c #666767",
"k  c #666A69",
"l  c #686868",
"z  c #61726F",
"x  c #69716F",
"c  c #6E7977",
"v  c #627E79",
"b  c #747474",
"n  c #717876",
"m  c #747B7A",
"M  c #7F7F7F",
"N  c #05836D",
"B  c #008274",
"V  c #038975",
"C  c #018A7A",
"Z  c #0B8D7A",
"A  c #02937E",
"S  c #0A967E",
"D  c #478377",
"F  c #6F827E",
"G  c #009484",
"H  c #039E85",
"J  c #149383",
"K  c #159E8B",
"L  c #1D9E94",
"P  c #2B9082",
"I  c #3F9D93",
"U  c #07A488",
"Y  c #01A792",
"T  c #01AC95",
"R  c #1CA196",
"E  c #14A698",
"W  c #1AAF9C",
"Q  c #01B097",
"!  c #01B19A",
"~  c #28AB8C",
"^  c #39AB93",
"/  c #36B398",
"(  c #01BDA3",
")  c #10B6A0",
"_  c #35B9A9",
"`  c #45988E",
"'  c #519A91",
"]  c #7E8281",
"[  c #728F8D",
"{  c #788B8B",
"}  c #7E9998",
"|  c #5BAB97",
" . c #56AF9E",
".. c #64A79A",
"X. c #75A195",
"o. c #5CAAA2",
"O. c #57B7A0",
"+. c #5AB8A1",
"@. c #67BAAA",
"#. c #00C1A6",
"$. c #01C6AA",
"%. c #02C8AD",
"&. c #19D8AB",
"*. c #03CFB0",
"=. c #08D1B3",
"-. c #14D4B4",
";. c #19DFB0",
":. c #3ECAA6",
">. c #26CCB6",
",. c #13E0B0",
"<. c #1FF6BF",
"1. c #2FE2B5",
"2. c #22EAB7",
"3. c #20EAB8",
"4. c #35E3B8",
"5. c #23F4BC",
"6. c #5DC3A8",
"7. c #44C1B4",
"8. c #36E6C6",
"9. c #21FFCC",
"0. c #23FFD6",
"q. c #4AD0C0",
"w. c #5BEECD",
"e. c #5DF2D0",
"r. c #5DFAD7",
"t. c #64EDCE",
"y. c #62E1DD",
"u. c #65E5E2",
"i. c #828484",
"p. c #8F8F8F",
"a. c #8E908F",
"s. c #878F91",
"d. c #859697",
"f. c #929292",
"g. c #98A2A4",
"h. c #99A8AA",
"j. c #84B5AE",
"k. c #92ADB0",
"l. c #97B5B6",
"z. c #99B5B7",
"x. c #9AB6BA",
"c. c #9EB9BD",
"v. c #A0A5A9",
"b. c #82C3BC",
"n. c #85CFCA",
"m. c #80DBDB",
"M. c #9ADBD6",
"N. c #A5C8CD",
"B. c #A7D1D5",
"V. c #AFD4D7",
"C. c #AAD6DB",
"Z. c #86E2E2",
"A. c #83FEFD",
"S. c #8BFFFF",
"D. c #ACE1E6",
"F. c #ADE3E9",
"G. c #AEE9EE",
"H. c #B3E1E4",
"J. c #ACFEF0",
"K. c #BBF6FD",
"L. c #C7FFFF",
"P. c #C9FFFF",
"I. c #D7FFFF",
/* pixels */
"p.p.p.p.p.p.p.p.p.p.p.p.p.p.p.p.M M M M b b b b b b b b M M M M b b b b l l l l b b b b b b b b M M M M M M M M M M M M M M M M ",
"p.p.p.p.p.p.p.p.p.p.p.p.p.p.p.p.M M M M b b b b b b b b M M M M b b b b l l l l b b b b b b b b M M M M M M M M M M M M M M M M ",
"p.p.p.p.p.p.p.p.p.p.p.p.p.p.p.p.M M M M b b b b b b b b M M M M b b b b l l l l b b b b b b b b M M M M M M M M M M M M M M M M ",
"p.p.p.p.p.p.p.p.p.p.p.p.p.p.p.p.M M M M b b b b b b b b M M M M b b b b l l l l b b b b b b b b M M M M M M M M M M M M M M M M ",
"M M M M M M M M b b b b M M M M b b b b M M M M M M M M M M M M M M M M M M M M M M M M l l l l l l l l b b b b M M M M b b b b ",
"M M M M M M M M b b b b M M M M b b b b M M M M M M M M M M M M M M M M M M M M M M M M l l l l l l l l b b b b M M M M b b b b ",
"M M M M M M M M b b b b M M M M b b b b M M M M M M M M M M M M M M M M M M M M M M M M l l l l l l l l b b b b M M M M b b b b ",
"M M M M M M M M b b b b M M M M b b b b M M M M M M M M M M M M M M M M M M M M M M M M l l l l l l l l b b b b M M M M b b b b ",
"M M M M b b b b l l l l l l l l b b b b b b b b b b b b l l l l b b b b b b b b b b b b M M M M M M M M M M M M M M M M M M M M ",
"M M M M b b b b l l l l l l l l b b b b b b b b b b b b l l l l b b b b b b b b b b b b M M M M M M M M M M M M M M M M M M M M ",
"M M M M b b b b l l l l l l l l b b b b b b b b b b b b l l l l b b b b b b b b b b b b M M M M M M M M M M M M M M M M M M M M ",
"M M M M b b b b l l l l l l l l b b b b b b b b b b b b l l l l b b b b b b b b b b b b M M M M M M M M M M M M M M M M M M M M ",
"M M M M M M M M p.p.p.p.p.p.p.p.M M M M p.p.p.p.M M M M M M M M p.p.p.p.p.p.p.p.M M M M M M M M M M M M b b b b b b b b b b b b ",
"M M M M M M M M p.p.p.p.p.p.p.p.M M M M p.p.p.p.M M M M M M M M p.p.p.p.p.p.p.p.M M M M M M M M M M M M b b b b b b b b b b b b ",
"M M M M M M M M p.p.p.p.p.p.p.p.M M M M p.p.p.p.M M M M M M M M p.p.p.p.p.p.p.p.M M M M M M M M M M M M b b b b b b b b b b b b ",
"M M M M M M M M p.p.p.p.p.p.p.p.M M M M p.p.p.p.M M M M M M M M p.p.p.p.p.p.p.p.M M M M M M M M M M M M b b b b b b b b b b b b ",
"b b b b M M M M M M M M b b b b b b b b b b b b M M M M b b b b M M M M p.p.p.p.p.p.p.p.p.p.p.p.p.p.p.p.b b b b M M M M M M M M ",
"b b b b M M M M M M M M b b b b b b b b b b b b M M M M b b b b M M M M p.p.p.p.p.p.p.p.p.p.p.p.p.p.p.p.b b b b M M M M M M M M ",
"b b b b M M M M M M M M b b b b b b b b b b b b M M M M b 7 ; ; ; 5 y M p.p.p.p.p.p.p.p.p.p.p.p.p.p.p.p.b b b b M M M M M M M M ",
"b b b b M M M M M M M M b b b b b b b b b b b b M M M M b & % # # % & M p.p.p.p.p.p.p.p.p.p.p.p.p.p.p.p.b b b b M M M M M M M M ",
"M M M M p.p.p.p.M M M M M M M M M M M M M M M M M ] M m 7 i a p p p i 7 x b b b b b b b l l l l b b b b l l l l b b b b p.p.p.p.",
"M M M M p.p.p.p.M M M M M M M M M M M M M M M M M M M m % k M M M M z O x b b b b b b b l l l l b b b b l l l l b b b b p.p.p.p.",
"M M M M p.p.p.p.M M M M M M M M M M M M M M M M M M z y 7 } z.k.l.s.v V e d b b b b b b l l l l b b b b l l l l b b b b p.p.p.p.",
"M M M M p.p.p.p.M M M M M M M M M M M M M M M M M M 6 # M C.P.K.I.v.F *.4 > b b b b b b l l l l b b b b l l l l b b b b p.p.p.p.",
"b b b b M M M M M M M M p.p.p.p.p.p.p.p.p.p.p.p.b u < > p.B.K.F.V.j.O.=.2 , b b b b b b b b b b M M M M M M M M M M M M M M M M ",
"b b b b M M M M M M M M p.p.p.p.p.p.p.p.p.p.p.p.b O < b p.C.P.G.p.:.0.2.2 , b b b b b b b b b b M M M M M M M M M M M M M M M M ",
"b b b b M M M M M M M M p.p.p.p.p.p.p.p.p.p.p.p.b $ 1 m h.N.H.B.f.+.4.3.N 5 d b b b b b b b b b M M M M M M M M M M M M M M M M ",
"b b b b M M M M M M M M p.p.p.p.p.p.p.p.p.p.p.p.b O : m L.g.p.p.p.p.X.<.*.C . b b b b b b b b b M M M M M M M M M M M M M M M M ",
"b b b b b b b b l l l l l l l l b b b b l l l j k * p a.D.d.{ { } d...;.-.Z + ] b b b b b b b b b b b b M M M M M M M M M M M M ",
"b b b b b b b b l l l l l l l l b b b b l l l t # l x.F.b m.S.A.A.S.y.B r.^ o M b b b b b b b b b b b b M M M M M M M M M M M M ",
"b b b b b b b b l l l l l l l l b b b b l l l t # l x.F.b m.S.A.A.S.y.B r./ + m b b b b b b b b b b b b M M M M M M M M M M M M ",
"b b b b b b b b l l l l l l l l b b b b l l l t # l x.F.b m.S.A.A.S.y.B e.8.Y $ s b b b b b b b b b b b M M M M M M M M M M M M ",
"p.p.p.p.p.p.p.p.p.p.p.p.M M M M p.p.p.p.M M M g # m c.D.p.Z.S.A.A.S.y.B w.8.T # g M M M M M M M M M M M M M M M M M M M b b b b ",
"p.p.p.p.p.p.p.p.p.p.p.p.M M M M p.p.p.p.M M M g # c i.[ J u.S.A.A.S.y.B Z V 9 # g M M M M M M M M M M M M M M M M M M M b b b b ",
"p.p.p.p.p.p.p.p.p.p.p.p.M M M M p.p.p.p.M M M g # c M m G u.S.A.A.S.y.B 9 9 8 # g M M M M M M M M M M M M M M M M M M M b b b b ",
"p.p.p.p.p.p.p.p.p.p.p.p.M M M M p.p.p.p.M M M g # b | 1.&.W L R R R E ! Q _ o.# g M M M M M M M M M M M M M M M M M M M b b b b ",
"M M M M M M M M p.p.p.p.M M M M M M M M M M M g % p.6.9.5.H 0 B B q G %.#.q.b.# g M M M p.p.p.p.p.p.p.p.p.p.p.p.p.p.p.p.M M M M ",
"M M M M M M M M p.p.p.p.M M M M M M M M M M M m v > ~ 3.S T Q Q Q Q Y C ( K w g m M M M p.p.p.p.p.p.p.p.p.p.p.p.p.p.p.p.M M M M ",
"M M M M M M M M p.p.p.p.M M M M M M M M M M M M p.. U ,.8 T $.#.#.$.T 8 ( V o M M M M M p.p.p.p.p.p.p.p.p.p.p.p.p.p.p.p.M M M M ",
"M M M M M M M M p.p.p.p.M M M M M M M M M M M M a.@ ^ t.9 T #.( ( #.T 9 7.P + ] M M M M p.p.p.p.p.p.p.p.p.p.p.p.p.p.p.p.M M M M ",
"l l l l M M M M b b b b M M M M b b b b b b b b l   @.J.4 T #.( ( #.T 4 n.'   i.b b b b M M M M M M M M b b b b b b b b b b b b ",
"l l l l M M M M b b b b M M M M b b b b b b b b l : D  .I ) ( ( ( ( ) I ` h t ] b b b b M M M M M M M M b b b b b b b b b b b b ",
"l l l l M M M M b b b b M M M M b b b b b b b b j l = 3 M.>.$.%.%.$.>.M.3 , M M b b b b M M M M M M M M b b b b b b b b b b b b ",
"l l l l M M M M b b b b M M M M b b b b b b b b l j r 5 ' J A A A A J ' e f M M b b b b M M M M M M M M b b b b b b b b b b b b ",
"M M M M M M M M M M M M M M M M M M M M p.p.p.p.p.p.p.] X X X X X X X X n M M M M M M M M M M M p.p.p.p.p.p.p.p.M M M M p.p.p.p.",
"M M M M M M M M M M M M M M M M M M M M p.p.p.p.p.p.p.] - - - - - - - - c M ] M M M M M M M M M p.p.p.p.p.p.p.p.M M M M p.p.p.p.",
"M M M M M M M M M M M M M M M M M M M M p.p.p.p.p.p.p.p.M M M M M M M M M M M M M M M M M M M M p.p.p.p.p.p.p.p.M M M M p.p.p.p.",
"M M M M M M M M M M M M M M M M M M M M p.p.p.p.p.p.p.p.M M M M M M M M M M M M M M M M M M M M p.p.p.p.p.p.p.p.M M M M p.p.p.p.",
"M M M M b b b b b b b b b b b b M M M M p.p.p.p.M M M M b b b b b b b b M M M M M M M M l l l l l l l l b b b b l l l l b b b b ",
"M M M M b b b b b b b b b b b b M M M M p.p.p.p.M M M M b b b b b b b b M M M M M M M M l l l l l l l l b b b b l l l l b b b b ",
"M M M M b b b b b b b b b b b b M M M M p.p.p.p.M M M M b b b b b b b b M M M M M M M M l l l l l l l l b b b b l l l l b b b b ",
"M M M M b b b b b b b b b b b b M M M M p.p.p.p.M M M M b b b b b b b b M M M M M M M M l l l l l l l l b b b b l l l l b b b b ",
"p.p.p.p.p.p.p.p.M M M M b b b b b b b b M M M M M M M M b b b b b b b b b b b b M M M M M M M M b b b b b b b b b b b b p.p.p.p.",
"p.p.p.p.p.p.p.p.M M M M b b b b b b b b M M M M M M M M b b b b b b b b b b b b M M M M M M M M b b b b b b b b b b b b p.p.p.p.",
"p.p.p.p.p.p.p.p.M M M M b b b b b b b b M M M M M M M M b b b b b b b b b b b b M M M M M M M M b b b b b b b b b b b b p.p.p.p.",
"p.p.p.p.p.p.p.p.M M M M b b b b b b b b M M M M M M M M b b b b b b b b b b b b M M M M M M M M b b b b b b b b b b b b p.p.p.p.",
"M M M M b b b b b b b b M M M M M M M M M M M M M M M M M M M M M M M M M M M M M M M M M M M M p.p.p.p.p.p.p.p.p.p.p.p.p.p.p.p.",
"M M M M b b b b b b b b M M M M M M M M M M M M M M M M M M M M M M M M M M M M M M M M M M M M p.p.p.p.p.p.p.p.p.p.p.p.p.p.p.p.",
"M M M M b b b b b b b b M M M M M M M M M M M M M M M M M M M M M M M M M M M M M M M M M M M M p.p.p.p.p.p.p.p.p.p.p.p.p.p.p.p.",
"M M M M b b b b b b b b M M M M M M M M M M M M M M M M M M M M M M M M M M M M M M M M M M M M p.p.p.p.p.p.p.p.p.p.p.p.p.p.p.p.",
"M M M M M M M M M M M M M M M M M M M M M M M M b b b b b b b b M M M M p.p.p.p.p.p.p.p.M M M M M M M M b b b b M M M M M M M M ",
"M M M M M M M M M M M M M M M M M M M M M M M M b b b b b b b b M M M M p.p.p.p.p.p.p.p.M M M M M M M M b b b b M M M M M M M M ",
"M M M M M M M M M M M M M M M M M M M M M M M M b b b b b b b b M M M M p.p.p.p.p.p.p.p.M M M M M M M M b b b b M M M M M M M M ",
"M M M M M M M M M M M M M M M M M M M M M M M M b b b b b b b b M M M M p.p.p.p.p.p.p.p.M M M M M M M M b b b b M M M M M M M M "
};
