/* XPM */
static char *fb2982377fe14592c861ce1a7f7fd64dODd1Tg2OhYVR8ukJ[] = {
/* columns rows colors chars-per-pixel */
"64 64 165 2 ",
"   c #032620",
".  c #032A23",
"X  c #042F28",
"o  c #05332B",
"O  c #063730",
"+  c #0C3730",
"@  c #063A32",
"#  c #0D3C34",
"$  c #074037",
"%  c #084037",
"&  c #074138",
"*  c #0A443B",
"=  c #0A493E",
"-  c #10473F",
";  c #0B4D42",
":  c #0D5246",
">  c #0E5549",
",  c #0F594D",
"<  c #12554A",
"1  c #105B4E",
"2  c #105E51",
"3  c #126255",
"4  c #1B6255",
"5  c #146658",
"6  c #166A5C",
"7  c #196C5D",
"8  c #1A6F61",
"9  c #1C7264",
"0  c #1E7769",
"q  c #217467",
"w  c #227668",
"e  c #227C6C",
"r  c #267F70",
"t  c #1E8775",
"y  c #268273",
"u  c #298675",
"i  c #B5AF56",
"p  c #BBB657",
"a  c #B3B35C",
"s  c #BCB55C",
"d  c #BCB95D",
"f  c #BDB662",
"g  c #BEBB63",
"h  c #BFBB6A",
"j  c #C0B65B",
"k  c #C2BA5D",
"l  c #C2B762",
"z  c #C3BC64",
"x  c #CABE66",
"c  c #C4BE6A",
"v  c #C9BE6A",
"b  c #BFC060",
"n  c #C5C265",
"m  c #C9C266",
"M  c #CCC967",
"N  c #C5C36C",
"B  c #CBC46D",
"V  c #C6C96C",
"C  c #CCCA6D",
"Z  c #D0C766",
"A  c #D0C66D",
"S  c #D2CB6E",
"D  c #C6C572",
"F  c #CCC573",
"G  c #C7CA73",
"H  c #CDCA73",
"J  c #C7C67B",
"K  c #CECB7A",
"L  c #D1C572",
"P  c #D2CC74",
"I  c #D9CD75",
"U  c #D2C779",
"Y  c #D4CD7A",
"T  c #D9CE7C",
"R  c #CED174",
"E  c #CFD27A",
"W  c #D4D176",
"Q  c #DAD376",
"!  c #D5D27B",
"~  c #DAD47C",
"^  c #D5DB7D",
"/  c #DCD97D",
"(  c #E1D57D",
")  c #E2DA7E",
"_  c #E0E07E",
"`  c #309282",
"'  c #399786",
"]  c #28A28D",
"[  c #32A38F",
"{  c #2DAB96",
"}  c #35A793",
"|  c #3CB29E",
" . c #48B5A2",
".. c #34C4AC",
"X. c #43C1AA",
"o. c #48CBB5",
"O. c #5EC5B4",
"+. c #4CD6BE",
"@. c #57D5BF",
"#. c #68CEBC",
"$. c #6DD0BE",
"%. c #57D5C0",
"&. c #5BD9C3",
"*. c #66D5C1",
"=. c #71D4C4",
"-. c #68E3CD",
";. c #72E0CC",
":. c #D4CE82",
">. c #DACF82",
",. c #D6D382",
"<. c #DBD583",
"1. c #D6D982",
"2. c #DDDA84",
"3. c #D6D688",
"4. c #DCD68A",
"5. c #D7D88C",
"6. c #DDDB8A",
"7. c #DEDC93",
"8. c #E1D684",
"9. c #E2DB84",
"0. c #E2DA86",
"q. c #E2DE86",
"w. c #E4DE84",
"e. c #E9DE87",
"r. c #E2D789",
"t. c #E1DA89",
"y. c #E3DC8B",
"u. c #E4DD8A",
"i. c #E2DE8E",
"p. c #E4DD8D",
"a. c #E9DE8B",
"s. c #E4DE91",
"d. c #E9DE91",
"f. c #DEE185",
"g. c #DEE08B",
"h. c #DEE092",
"j. c #E3E185",
"k. c #E9E186",
"l. c #E2E089",
"z. c #E5E18A",
"x. c #E5E18D",
"c. c #E4E28C",
"v. c #EAE38D",
"b. c #ECE98E",
"n. c #E5E292",
"m. c #E9E291",
"M. c #EBE493",
"N. c #E9E394",
"B. c #EEE795",
"V. c #E6E891",
"C. c #EAE891",
"Z. c #ECEA93",
"A. c #E5E49A",
"S. c #EBE59A",
"D. c #EEEA9B",
"F. c #F1E694",
"G. c #F1EB97",
"H. c #F2E49A",
"J. c #F1EC9A",
"K. c #F5F19C",
"L. c #F8F49A",
"P. c #EDEEA0",
"I. c #F3ECA1",
"U. c #F9EEA3",
"Y. c #81ECD9",
/* pixels */
"2.~ C H F B C n B <.P ~ C ! ~ P t.2.q.~ W P B G ~ T B <.2.~ C.I.B.<.2.p.q.W 3.~ F P U ~ P 6.~ B ,.D S z.v.w.~ 4.N 2.N B I n D D ",
"H H B N H ! ! k d W P P p.<.H t.S.B.B./ P T P D T 2.V ! H z u.n.w.u.v.l.A.F 2.P ! ,.~ W ~ B ! 2.! ~ 5.x.~ G ~ Q V B c m f ,.z <.",
"P l D N N M H H ~ v.A U Y P m N.u.,.) ! P P n ~ ~ ~ / W x.U s 0.2.z.0.W ~ l.N.P U j ! ~ u.B P m 8.p.0.z.P I ~ ) B Y F P f P i.f ",
"~ P ~ J c A H P ,.Y Y <.0.~ 6.m.i.P T 6.Y ,.N 2.! Y H T Y ! q.B <.C.V.p.~ s.k.2.~ H ~ ! 2.q.Q z.p.~ m.y.~ Q 8.N Q p H Y N P H ,.",
"m B P K Y n N F Y P <./ P x.g.l.z.<.L ~ ,.L H ! m P B ! L T H 2.6.Z.F.z.~ S 2.q.N.Z.~ P P ,.q.m.<.w.y.~ m.~ C ~ P n Y H <.P ! t.",
"~ H B ~ 0.F / ! ! m t.t.H l.i.v.H H T z v z ! G h T ! <.D C ~ J.u.v.6.S.k.k.x.v.y.u.0.u.v.u.q.2.x.6.,.q.0.m.,.u.R H j.T 2.P F C ",
"8.S Q B ~ H W W ~ ~ t.:.t.2.i.! 2.F ! N U z S P ! F B ! V 5.B m.v.v.v.h.5.6.4.! w.G.Z.I.6.0.x.D L ~ 7.q.b.m.y.2.! H C P 6.P L m ",
"6.,.U <.P W H C Q t.H m.p.0.n.,.~ ~ 2.<.H Y <./ b F n ~ T Q 6.~ x.<.Q 6.P P P 0.D 6.q.F.w.2.T ,.r.P I ,.~ 2.T ~ ~ n.2.~ <.Y N P ",
"2.i.6.~ H Y T C G Q 2.n.j.a.~ B 5.Y N H P v Y B Y c ! ~ Y n.t.v.z.q.! 8.,.Y <.Q 2.C i.p.x.P ! l U q.<.P q.H u./ u.n.T u.A <.B z ",
"0.x.2.M.t.~ D.q.F.u.w.S.4./ F.<.P ~ 0.Y B x D Y ! m Y B l.s.2.x.N.P U ! 6.T 6.P Q L ~ q.K ! ~ ~ T 2.K P Y P ,.<.v.B.l.~ 8.z.s.t.",
",.Y z.y.2.v.v.6.<.x.0.S.0.v.<.y.<.2.2.W H ~ ! ! Q F v.i.S n.Z.D.j.! ! F W T ,.B C ~ <.! Y B 2.1.! N ,.P S P P Y ~ ! q.q.i.~ 0.u.",
"Q ~ P n.Z.p.M.m.2.l.v.T F.d.y.:.B.~ y.~ K H <.B ~ U M.1.0.i.0.H P ~ P P v F / P w.m ~ <.B G <.<.F z v m B U B q.U T p.2.v.r./ G.",
"<.Y ~ B <.J.! a.i.l.P Y F Y C ( H q.s.z.2.! Y Q ~ / i.l.w.3.T ! P ,.F k N C B 0.Y 2.G P P 2./ F s H B F D 2.! l W 2.e.p.n.6.m.6.",
"<.,.P P W 6.w.5.i.~ P W P >.F m T H ~ B.m.6.m.y.N.v.P r.<.<.W Y M F n H W <.G f P ~ P y.B S F H B Q P P S ~ F T P P n.t.<.p.k p.",
"Y H m q.0.P n.z.2.F D z 2.F P F T Y P 2.Y 2.v./ I / 0.x.x.0.! v F H ~ Y 6.<.C F F P ! / Y N Q H n U H V ~ H p.~ Y s.<.6.l.4.,.! ",
"Y H 2.P W U 6.4.8.H / P F G v ! Y 6.! D p.P i.2.x.t.a.B.6.D C n F f N B P B Y L ~ B ~ Y Y U H W D H H m m / L Y H t.D.U ! P ,.,.",
"B 2.! ! 2.F n.t.) B P P B m P H B G H K P ,.2.e.! p.B.i.7.! ^ Q t.z F v n ! c 8./ Y F H ~ ! H P P ! 4.Y P B W T n.k.m.A.K Y ! K ",
"! N H P ~ n.F.0.! ! ~ B B Y c Y D B P 8.0.~ q.Q 8.Y y.<.4.l.,.A F.<.C C <.W F <.m T ~ K H ! P P B U D W P ~ t.r.0.w.i.Y R Y P S ",
"P ~ B V 2.<.q.d.H 1.6.H B C q.V K Y H ~ P y.T 0.0.d.e.2.z.v.! ! P P P C ! n P ! P 2.! >.T 8.! <.N ! t./ P ,.H v.q.p.k.~ ~ ~ ~ k ",
"1.C ! ~ B.2.q.6.t.P R F B F K v S ! x.2.q.n.~ 2.x.~ w.v.2.0.2.M V ~ F v P z ~ ~ ~ W P <.P P 3.Q P F B ! t./ n.P v.y.~ C m P 2.Y ",
"8.! J.y.<.z.J.n.! / W x n H 8.I 2.Q ! T D.0.v.6.m.t.Z.i.0.# # # + + t.! ~ B B <.0.F <.H P C t.T P P y.P m.q.t.~ d.0.u.2.~ ~ ~ P ",
"6.s.2.6.J.x.x.v.0.H E H Y u.! ! H 2.Y p.y.<.v.a.6.H <.< q e 9 8 7 7 9 7 # T T ! ! 2.I P H ! H D ~ v P <.n.t.n.P 2.x.m.y.A.u.N ~ ",
"~ ( ~ 6.m.Q l.D.~ q.~ V H H F P B V 2.i.y.y.<.u.B 4 9 8 5 2 2 2 2 2 2 5 6 3 # m ~ y.~ B 0.2.P H Y U 6.s.x.~ v.y.<.v.x.N.m.B.z D ",
"u.n.B.P n.<.z.s.<.q.B.P 2.x.>.u.2.q.q.~ 6.n.P ~ u 6 3 2 2 5 e 2 > > , 2 2 5 6 # <.W <.P B D W Y P w.v.P 6.~ ~ ~ 2.6.2.g.i.t.2.~ ",
"D.( p.M G 8.D.S.s.2.0.>.1.Z ! <.p.b.s.w.u.<.~ w 6 2 2 7 ' *.| 9 ; ; > , 2 2 3 6 # B.W T q.Y ~ <.) <.T ,.v.B q./ / ,.,.v.z.M.w.z.",
"2.B ~ U ,.W K q.4.~ m.u.2.q.Z.l.<.v.2.2.~ / < 8 3 2 ` #.;.} 7 ; ; ; ; : > , 2 2 3 v.w.N.i.Z.~ m.p.x.n.~ ~ F Y B C / 2.! n.<.u.<.",
"! Y 1.U 0.1.! W T i.d.x.~ l.n.v.6.<.u.W H <.e 3 2 u Y.@.[ 2 ; * * ; ; ; ; : 2 2 2 * x.n.s.H p.z.2.t.K ~ ~ F v H F W T P ~ ~ >.! ",
"! P v ~ <.P N ! 1.P v B.,.6.B.m.B.l.~ ^ <.- 7 2 3 O.&.{ 9 * @ o @ @ * = ; ; > 2 2 1 N.M.z.x.r.v.0.H v n n B g ! <.! Q 8.z ~ P 0.",
"W z Y B Q 2.:.! ! 1.f.n.2.0.( v.q.v.F ! F 8 3 2 r -...3 @ o o o o o @ % = ; : , 2 2 * t.q.z.p.2.! 6.K N H Y N m V <.3.P 2.~ P W ",
"! T 2.2.P W P ~ B y.P <.~ H g.u.z.B.m.W # 6 2 3 Y.+.5 @ @ X . . . . o @ = ; ; > 2 2 ; 2.~ L 6.! B ! g 4.H B g N ~ B B H K W 0.V ",
"F ! 1.<.m 0.! ~ ~ <.( N <.F 2.2.( 6.4.M.+ 8 2 3 o.y = @ o         . o @ * ; ; ; 2 2 1 m.6.M.n F D B Y d D ~ ! ~ Y P ! ~ B.m 0.~ ",
":.H 2.! P x.2.U ,.,.~ P T ~ x.n.2.C.B.y.# 7 2 2 9 ; * @ o .         . o & = ; ; 7 2 1 l.n.n.B H q.l G F C K B n P <.y.Y e.F u.<.",
"! M ~ 0.S B ! W H C Y ~ p.m.n.g.Q ~ 8.y.* 6 2 1 > ; * @ o .         X @ $ ; ; ; 9 2 2 j.n.8.~ F N 4.N H l I W ! W Y H F 5.~ z.y.",
"<.P A Q <.~ F 6.B 5.! p.G.~ 6.W T ! / B.# 6 2 1 : ; ; @ O X . .   . o @ * ; ; 2 0 2 1 W B.i.F.P ~ ! C v P Y H S 8./ P v B P ,.0.",
"<.P y.~ ( 2.2.T D Y x.m.i.J.<.S H <.H H C.5 3 1 > ; ; * @ @ o o o o @ % * ; ; ] 0 2 # ~ z.2.y.~ x.C ! ) H W ! ~ ~ W P >.H.) ~ a.",
"2.B.H B n.~ Y K Y <.q.( i.P B Y P W P P G < 3 2 , : ; = * @ @ @ @ @ * = ; ; 3 { 6 2 + x./ <.2.1.x.<.<.6.B P W B K K T Z.! W w.K.",
"<.6.s.v.p./ p.T n.i.v.2.V 2.P x P P ! P W # 5 2 , : ; ; * % @ @ * * ; ; ; > %.e 2 ; ~ U P l.0.u.l.<.B.Y P ( N ! ~ P d.~ V.8.Y 1.",
"B.v.B.w.q.n.B.z.j./ v./ <.~ 2./ ,.W H P P 2.1 3 2 , : ; ; ; = = ; ; ; ; : =. .3 < # / 2.G ! Q T ~ z.D.z.) w.~ v.q.Y n.D.B.~ ,./ ",
">.V 2.~ i.<.W n.S.~ ,.) ! L 0.W L F h 2.P 8.* 3 2 2 , : ; ; ; ; ; ; ; < $.X.6 1 ; u.H 6.~ H Y P S V / y.<.2.1.~ e.K.x.w.H P ~ ~ ",
"~ Y H v.m.e.0.G.s.<.Y P ~ P ! ~ C P z c ~ P n.+ 1 2 2 , , > ; : 3 7 ] { t 5 2 ; Q M l H :.Y K z D W z.0.~ 0.t.z.2.n.n.H B ! B z ",
"G 2.G K L z./ d.v.Y ! ~ l.! C W ! F m B D c H 6.+ > 2 2 2 2 2 6 7 0 e 3 3 2 : M ! H P H Y ~ U ~ 2.B i.C S y.,.n._ 2.H U ,.c l 2.",
"~ ~ W 2.U C s.u.y.T P W Y Y C P v ~ c U n B ! Q P <.* 1 2 2 2 2 2 2 2 2 > # 0.Y D D B v G c H F Y 2.<.~ 2.n.a.0.x.D f H F B L F ",
"L H ~ x.! Q 6.v.v.A.C P 2.~ D B B m C P f ! D W ~ I P H # < < 2 1 > * # u.P ~ F ~ U K P D P P ,.T W H F 8.u./ l.B W n H P N P B ",
"2.F F ! ! a.T i.x.Z.Q ! ~ D C D H F v ! T 0.U ! L U <.Y H P Y 2.0.! ~ <.T H K H F i G g ,.Y 2.P T W 8.D.6.y.m.v.H n m g R h 2.! ",
"P ~ B g.S.v.W C.6.u.z.6.2.H z P H n N H V ,.y.I <.~ K 1.2.5.Z.0.p.W y.P 2.<.P ! ! 2.Q T H <.<.2.P ~ t.2./ v.z.! u.! m F T D F B ",
"2.! Y p.G.p.~ <.v.B.x.B 2.R B F B f F U n H W <.Y H Y <.C ~ 1.u.<.L ! <.,.B ! H P h P T C P ~ 2.w.~ r.8.~ z.P z.z.q.q.N V ~ 2.Y ",
"<.<.Q s.z.a.x.n.v.~ q.2.0.P 3.~ H ~ C F B C 0.x.8.,.P Q Z.p.n.q.2.P P G ~ W l S P ~ F H W z L ,.~ y.u.s.,.,.y.i.m.2.T P ! N ,.C ",
"<.r.q.~ e.<.t.( 0.<.u.v.,.<.! <.Y ~ ~ B 2.T Y 5.Y ,.~ x.2.m.q.6.i.q.2.~ P H P H T B M ~ M T ( ~ P v.6.N.~ m.w.~ x.z.P ~ S w./ ~ ",
"z.s.u.m.B.M.1.6.B.n./ 0.x.P D <.T D H P H B C ! n <.4.2.6.b.P <.I.8.2.~ Q ~ P A / H T ~ P P 2.g.2.t.N.C N N F P 0.t.~ n P P 0.2.",
"D.p.x.<.7.7.y.m.i.0.0.L.w.n.<.~ S U ,.B W m.3.B.x.J.u.N.! K G m ,.y.2.2.2.<.,.m.W B ! ! W P y.u.w.2.d d G N x V ~ r./ v.W ,.:.B ",
") Z.0.! <.N G ,.K w.<.~ P ,.p.2.s.~ 0.Y D P <.D.) r.0.2.U q.6.P P ~ 0.v.u.n.w.i.Y Y ,.C G v.p.v.t.f n v P F h n N <.v.~ 2.p.x.! ",
"n.P ~ B ! F P g B B i.n.w.0.q.<.x.D.<./ ~ 5.u.U.s.z.! ~ H C P P ~ V Q 2.q.n.b.e.~ f.x.k.n.0.6.P B H N F v H B V P ! V 6.0.n.i.x.",
"0.Q ~ 2.B n Y h 2.P Y t.z.T V.T p.N./ Z.v.P y.2.z.M q.K I ~ ~ F ! N F G v.l.I.<.0.S.v.4.g.2.B.c Q F Y T n B Y W C Y Y ,.z.~ y.P ",
"Y F ~ ! N x n H K H B n.y.! S.x.B.6.l.y.<.i.8.~ 2.P ! B B m U B ~ H <.~ ! ) n.u.G.4.v.l.6.6.u.B P P 2.:.! B ! F N ~ T H F y.v.,.",
"8.F P H 1.U H G B <.C ) n.! 4.2.J.<.0.2.2.F.q.2.~ B 6.Y D s n Y P H / U m H 2.a.2.u.B.N.x.z.y.2.! P V ! C V W B L z 2.z P 0.y.2.",
"~ M.L P N a P B P Q H / <.U I n.<.x.n.A.i.0.P P ~ P I :.H N ~ P P H N L Y Y x.A.0.i.k.0.F.w.e.W d.F z ! ~ m 2.,.~ <.C B S 2.i.2.",
"P P 2.B Y j 2.B Y ! H ! <.D 2.u.v.v.M.U x.n.S H T 0.F P P z y.C P P 3.Y G T z.w.v.q.C.B.M.s.S./ / P K P T P ! ~ ~ <.C B 2.W ,.4.",
"P 2.6.B F U <.W C n A ! t.L z.u.v.V.<.6.N.<.6.H Y u.m L / ! Y Q Y ! ,.L ! t.~ S.,.A / M P v.Z.! g.b.Q H P T H F I ! M n.e.6.H / ",
"i.8.! N P Y F P V P ~ H ! 6.( S.x.m.v.2.p.>.t.Q Q P L Y ,.I 2.B <.v.2.M y.w.6.,.! H P Y Y S m.t.0.u.A.0.~ H <.( <.m 2.~ k.W ! H ",
"D.P :.T H f 6.! I ! ,.I z.q.v.v.i.~ 2.2.t.L Q 0.) x.! ~ a.2.P ! I ~ ~ x.r.x.W B Y ,.Y P P P ! s.6.j.<.x.6.w.m.6.T 2.Z.q.W ! V ~ ",
"m.p.>.Q P 0.0.Y ,.H F m.m.B.x.t.T B 4.F Q K B.n.u.~ v.~ P Y ! ! P L u.D.n.T H <.R P F ~ ~ 2.Y ~ U <.H.x.T p.B.) / D.y.! ! P M H ",
"z.t.y.F.P ! P d P ~ B.P.i.L B.6.P 0.~ <.2.L G v.6.y.,.P U P H V H n.p.t.2.,.A H F H Y / 5.P P K N ~ <.N.G.y.F.p.n.v.D D S Q 2.N ",
"s.v.l.2.p.V.6.! ~ v.p.v.<.2.! T P P F 2.Y A m Y z.2.<.e.x.0.u.k.T T u.Q Y z P Y C x 6.B ~ P 2.>.,.Y U s.6.2.2.s.m.! T Y Q 2.F P ",
"u.0.2.t.B.B.u.i.T z.Z.e.u.F ! P z Y I W W ! K T Y t./ ~ y.Z.2.) t.p.~ 6.! B m N n ! T K Y 0.Y ~ H 2.K Y <.8.~ B.T W Y Y ! C Q ~ "
};
