/* XPM */
static char *result[] = {
/* columns rows colors chars-per-pixel */
"64 64 117 2 ",
"   c #060606",
".  c #0D0D0D",
"X  c #10100F",
"o  c #131313",
"O  c #191916",
"+  c #1C1C1B",
"@  c #23231D",
"#  c #232322",
"$  c #2B2B23",
"%  c #2C2C2B",
"&  c #3B3A26",
"*  c #34332D",
"=  c #3D3C2C",
"-  c #343433",
";  c #3C3C32",
":  c #393939",
">  c #413F2B",
",  c #44432D",
"<  c #474633",
"1  c #494731",
"2  c #4C4A34",
"3  c #43433C",
"4  c #4E4D38",
"5  c #504E38",
"6  c #565436",
"7  c #56543A",
"8  c #424241",
"9  c #4B4A43",
"0  c #4D4D4D",
"q  c #5F5D41",
"w  c #535353",
"e  c #5C5C5C",
"r  c #696641",
"t  c #6D6A44",
"y  c #6D6A4A",
"u  c #706D47",
"i  c #716E4B",
"p  c #75724D",
"a  c #7D7A4D",
"s  c #656456",
"d  c #6F6D53",
"f  c #67665C",
"g  c #777550",
"h  c #797751",
"j  c #7E7B50",
"k  c #75735D",
"l  c #626262",
"z  c #6B6B6A",
"x  c #747474",
"c  c #7B7B77",
"v  c gray47",
"b  c #817D52",
"n  c #807F6F",
"m  c #8A8653",
"M  c #8D8956",
"N  c #86835C",
"B  c #8F8B5B",
"V  c #928E5D",
"C  c #99955C",
"Z  c #858366",
"A  c #928F61",
"S  c #9B9662",
"D  c #9F9B62",
"F  c #97946E",
"G  c #8A8975",
"H  c #97957B",
"J  c #A29E62",
"K  c #A8A466",
"L  c #AAA569",
"P  c #B4AF67",
"I  c #B3AE6B",
"U  c #B7B26D",
"Y  c #BAB56B",
"T  c #BEB96F",
"R  c #B3AF71",
"E  c #B8B472",
"W  c #BAB67B",
"Q  c #BDB97F",
"!  c #C4BF6D",
"~  c #C2BE72",
"^  c #C5BF79",
"/  c #C7C26C",
"(  c #CAC56F",
")  c #C6C174",
"_  c #CCC671",
"`  c #CEC973",
"'  c #CBC67C",
"]  c #CDC97E",
"[  c #D2CC76",
"{  c #D5CF79",
"}  c #D6D07B",
"|  c #D9D37E",
" . c #868686",
".. c #888887",
"X. c #8A8A89",
"o. c #9D9B82",
"O. c #90908D",
"+. c #9E9D8D",
"@. c #949492",
"#. c #9B9B92",
"$. c #A9A783",
"%. c #A5A48E",
"&. c #AAA889",
"*. c #B5B288",
"=. c #C3BE81",
"-. c #C0BC8C",
";. c #CBC681",
":. c #CFC980",
">. c #D4CF87",
",. c #D1CC8A",
"<. c #D6D082",
"1. c #DCD682",
"2. c #DFD984",
"3. c #DCD688",
"4. c #DFD989",
"5. c #E1DB86",
"6. c #E3DD89",
/* pixels */
"[ ` ` _ ( _ _ ` [ } } } } | } | 5.6.6.6.1.{ [ [ [ { { } 5.5.6.6.6.6.6.6.1.| } { } } } { } } } } } } | 6.6.| | } } [ ( ( ( ( ( ` ",
"` _ _ _ ( ( _ [ [ ` } } | } } 1.6.6.6.3.} [ [ [ { { { { { | 5.6.6.6.6.6.6.| | } } } [ { } } } | { } 5.6.6.| } } [ ( ( ( ( ( ( [ ",
"{ [ ` _ _ ` ` [ ` ` { | } } 1.6.6.6.| { { { [ { } } } { } } { 1.6.6.6.6.6.6.6.| } } } } } } } | | 6.6.6.| | { { ` ( ( ( ( ` [ } ",
"{ { } ` _ ` _ ` ` { <.} | 1.6.6.6.1.{ { { { { { } } } { { { | { 6.6.6.6.6.6.6.| } } } } } } | 6.6.6.6.6.| } { { } ( ( ( ` } } | ",
"{ { { } { ( _ _ } } } } } 6.6.6.1.{ { [ [ [ { [ | { } { } } | { 6.6.6.5.6.6.6.6.5.| | 5.2.5.6.6.6.6.6.6.5.| { } } } [ [ } } } } ",
"} { { { | } { { } [ } | 1.6.6.6.| { [ ( _ _ [ ` [ } } { { { } 1.6.6.6.6.6.6.6.5.5.6.6.6.6.6.6.6.6.6.6.6.5.6.| } } } } } } } } } ",
"| { { } } } } } } } | 1.6.6.6.6.| { _ _ ( ( _ ` _ _ { { { { { 5.6.6.6.5.5.5.5.5.6.6.6.6.6.6.6.1.| | 5.5.6.6.6.5.| } | | } } } [ ",
"6.| | | } } } } } } 1.6.6.6.6.<.} { { _ ( _ ` _ _ [ [ [ { | 5.6.6.6.5.| { { [ { } 6.6.6.6.6.} } | | } } | 5.5.6.6.6.| } } | [ ` ",
"6.6.6.5.} } } } } 1.6.6.6.6.6.1.} } } { { ` _ _ ` ` [ } } 5.6.6.6.5.} } } } } } } } 2.6.6.| } } { { { { } } | | 5.6.6.| | | [ [ ",
"1.6.6.6.6.1.2.4.6.4.6.6.6.6.6.| } } } | { [ [ [ ` } } } 3.6.6.6.5.| { { } 1.<.} } } | 1.| } } } } [ [ [ [ [ } } 5.6.6.6.6.6.6.6.",
"} } 6.6.6.6.6.6.6.6.6.6.6.6.6.6.<.| | { } { { { { { } 1.6.6.6.5.{ { | { } } } } } } } } } } } } { ( ` [ [ [ [ } } 5.6.6.6.6.6.| ",
"} } | 6.6.6.6.6.6.6.6.6.6.6.6.6.6.5.2.| { } { } { } 1.6.6.6.2.} | { { [ ` [ } } } } <.} } } } [ ` ( ( ` ( [ { } [ } 6.6.6.6.6.6.",
"} } } } | 6.6.6.6.6.6.1.| | } } } 5.6.6.5.| | <.| 6.6.6.5.5.} | { { [ _ _ _ ` [ { } } } } } { ` ( ` ` ` ` [ } { | | | 6.6.6.6.6.",
"} } } } } | 6.6.6.6.| ` ` ` ` ` [ } 3.6.6.6.6.6.6.6.6.6.5.2.} { } [ _ [ _ ( _ ` { { } [ } [ ` ` [ ( ` ` [ } { } | | | 6.6.6.| | ",
"} } } | { { 2.4.6.| _ ` ` ` ] ` { { { { 1.6.6.6.6.6.6.W A ,.} { { ` ( ( _ _ _ ` [ } } [ } ` ` ` ( ` ` [ { { { } } | 6.6.| } | | ",
"| } } } { } 2.6.4.` _ _ ` _ _ { { { { } } | 6.5.6.5.5.F O & J ` ` ( _ ( _ _ ` [ { { } } } ` / _ ( ( { { } { { } | 6.6.6.| } } } ",
"[ [ } } { { 5.5.6.` _ ( _ ` [ [ } { [ } } } | 6.6.2.5.Z o   . , M Y ! / ( ` [ { { } } [ { [ ( ( ` { } { { { { | | 6.6.| | | } } ",
"` ` [ [ | 5.6.5.| [ [ ` ( [ [ [ [ } } } } } 5.6.5.6.4.k .       o $ 2 t / ` [ [ } } } } } { { ` [ [ } } } } } | 6.6.| | | | } [ ",
"[ ` ` [ 5.6.6.| } } [ [ ` ` [ ` [ } } } } | 6.5.6.6.3.s . o % % @ .   & ` [ [ { { { } } } } { { [ [ { [ | | | 6.6.6.| | } [ } { ",
"[ [ { 5.6.6.6.5.{ [ } [ ` ` ` [ } } } } 5.6.6.6.6.6.>.s - % o         r { [ { { { [ [ { } } } } { [ [ { | 6.6.6.6.6.6.| { } } } ",
"{ | 6.6.6.6.6.5.} { [ [ [ ` [ } { } } } 6.6.6.6.6.3.*. .x w : o       6 } } { } } } } } } { } { { [ | | 6.6.6.6.6.6.6.| } | } } ",
"5.6.6.6.6.6.6.5.1.{ } [ [ [ } [ } [ } 6.6.6.6.6.1.{ %...x % 8 w 0 8 * $ U | } { ` [ [ } } { { } } } | | 6.6.| 6.6.6.6.6.| | } } ",
"6.6.6.6.6.6.6.6.6.1.} } } } } } [ } 1.6.6.6.6.1.} ] #.w : e O X X O % 3 N 6.| } [ } } } { { } } } | | 6.6.6.6.6.6.6.6.6.6.6.} | ",
"6.6.6.6.6.6.6.6.6.6.1.| } [ } } | 1.6.6.6.6.| | <.=.@.: X : 0 o o o < ) 6.6.6.6.| } [ [ { } } } } | 6.6.6.6.6.6.6.6.6.6.6.6.| | ",
"6.5.} | | | 2.6.6.5.5.6.6.2.2.1.6.6.6.6.4.} } } } &.X.+ o o * w O $ Y | 5.5.6.6.6.1.{ } { { } 5.6.6.6.6.5.| } } | | | | 6.6.6.6.",
"5.} { { } } } } 5.6.6.6.6.6.6.6.6.6.6.5.} { } } ` %.x o o o o % w h { } | 6.5.6.6.6.2.2.2.2.5.5.5.6.6.| [ [ } } | | | | 6.6.6.6.",
"} } | { } <.} } } 1.6.6.6.6.6.6.6.6.6.} { } } ` ~ #.w o o O r C I ] } } } 1.2.5.6.6.6.6.2.5.6.6.6.5.` _ _ _ [ [ | } } } | | 6.6.",
"} } | { { } } { } } } 5.6.6.6.6.6.6.| } } } [ _ W @.- o 1 P U N j j b b V ~ ~ ) ] A q q j 6.5.6.5._ ` _ _ _ ( ` | | } [ | | | 6.",
"{ } } } { { } { } } } } | 6.6.6.6.6.| } } } [ _ $. .+ < ) { C # o o o o O # # # # @ X . , 6.6.2.` _ _ ` _ ( ` ` [ [ [ } | } } } ",
"{ { } { { { { { { { { } } } 6.6.6.6.2.} { { [ J f l O + $ % $ # + O O o O * * * * # o . > 2.2._ ( _ _ _ ( ( _ ` } } [ } } } } } ",
"` { <.} } <.} } } ~ J J p y N :.` ] ] ' ) ~ T 4 @ # # + @ # # + # # t C J Y Y T T S g g B ] T Y P Y Y Y Y Y / [ [ [ } } } } } } ",
"` ` { { [ { } | } B # # # % # ; - : < - 3 - - # - % # % - % # - - # % - * * * * - * * % % * * * * ; * & = & r [ } [ } } } } } | ",
"_ ` [ { [ [ { } { K 5 5 % 3 ; p p g h h h p h * # # # # # # # # # # 7 p u u u i g p y y y p t t t t r t t t m ` [ [ } } } | | 5.",
"[ [ { [ [ [ [ { { { ` <.] ' ] | } { 1.5.5.6.4.p - - + + + + + # + + * , 6 M M V B q @ + 4 1.1.| [ _ ( _ [ [ [ [ [ } } } } | 6.6.",
"1.| } [ [ [ } { [ { 2.6.6.6.| } } } } | 5.6.6.<.o.x O = j m r # o o o O O + # # # + o . , 5.5.5.5.| [ { } { [ [ } } [ } 1.6.6.6.",
"6.6.1.} { } } } { 2.6.6.6.1.} } { { { { } 5.6.6.-.X.# @ C [ D ; * $ % $ ; y y y y ; o X , 1.6.6.5.5.2.| { { { } } [ } | 6.6.6.6.",
"6.6.6.6.2.| | | 3.6.6.6.| | } } { { { { { | 1.3.,.O.> o + q E ^ ( ) ) ' <.4.5.5.| / U P Y } | 1.5.5.6.5.| { } | } | | 6.6.1.} } ",
"6.6.6.6.6.6.6.6.6.6.6.1.} } } | { { { { } <.} } ,.o.l X X o @ & d R 5.5.6.6.6.| | [ } [ [ } } } 1.6.5.6.6.1.| | | 6.6.6.5.} } } ",
"| 1.5.6.6.6.6.6.6.6.| } } } } } { [ [ [ { { } { <.&.v o X X o 0 - 7 3.6.6.6.| } [ } } [ [ { [ { { | 5.6.6.6.6.6.6.6.6.| } [ } [ ",
"} { | 5.6.6.6.6.4.1.} } { } } } [ _ ( ( ` [ { | } *.X.# X + 0 % o O V 6.6.| } } } } ` ` [ [ [ } } { } | 5.5.6.6.6.6.} [ ` ` [ [ ",
"} } } } | 6.6.6.2.} } } } | | ` _ ( ( _ _ _ [ } } ;.@.8 O e % . o . O i E } [ } } ` _ _ ` [ } } } } } } | 6.5.6.6.| ` ` ` ` ( [ ",
"} } { { } | 6.6.6.} } } } } ` ( ( ( ( _ _ _ [ } } [ +.z e - o # % 8 0 9 N [ [ } ` _ _ ` ( ( [ } | } } } | | 6.5.| ` ` ( ` ` ` ` ",
"{ { } } | 5.6.6.6.6.} } | { ( ( ( _ ( _ _ ` [ } } } &...x e l e 8 # O ; _ } } ` ( _ ` _ ` ` } } } } } } | 6.6.6.[ ` ( ( _ _ ( [ ",
"} { } | } 6.6.6.6.6.} } } { ( ( _ ( ( ( [ [ [ } { } Q c v 8 + X . . o t [ } ` _ _ _ _ _ ` } } } } | | | 6.6.6.6.[ ( ( ` _ ` [ [ ",
"} } } | 6.6.6.6.6.6.6.} [ } ` _ ( ( ( [ } } } } } { { n - 0 0 % o X o 7 } ` ` ` _ _ _ ` [ } { [ { | | 6.6.6.6.5.| } ( ` ` [ } [ ",
"} } } 5.6.6.6.6.6.6.6.} } { } ` ( ( ` ` ` [ } } } } ,.G o X @ : 8 : $ < ) _ _ _ _ ` [ [ } [ [ [ } } 6.6.5.5.6.6.6.| [ [ ` [ [ } ",
"} } | 6.6.6.6.6.6.6.6.5.} } [ } [ } [ ` ` [ } } { } { H + o o O = a K Y ` ` ` { } [ } [ [ [ } } | 6.6.| 5.5.6.6.6.| } [ } [ } } ",
"} | 6.6.6.6.6.6.6.6.6.6.1.{ } } [ } } [ ` } { } } } 3.$.% o 7 L <.1.1.} } } } } [ } [ } } } [ } | 6.6.6.5.5.| 6.6.6.| [ } } } [ ",
"5.6.6.6.6.6.6.6.6.6.6.6.6.5.| { | | | | } } | | | | 6.;.5 V 1.6.6.6.| 6.| | | | { { { { | | | | 6.6.5.} ( ( _ } 5.5.6.} } } } } ",
"6.6.6.6.| | 5.1.6.6.6.6.6.6.5.| | | | | { } | | | 6.6.6.| | 1.1.| 6.6.| | | | | } { { | [ | | 6.6.6.{ ( _ ( _ _ } 5.5.6.| | } } ",
"6.6.5.} ` ` [ ` { 1.6.6.6.6.6.6.| | 6.| } | | 6.6.6.6.| } } { { | | 6.6.6.6.6.| { { | | | | 6.6.6.} ( ( / ( ( _ ` } 6.6.5.6.5.| ",
"6.6.} [ ` ` ` ` ( [ 1.6.5.5.6.6.6.6.6.6.| | | | 6.6.| | } } } } | | | 6.6.6.6.6.| | 6.| 6.| 6.6.} ` ` _ ( ( ( _ [ } } 2.5.6.6.6.",
"6.| } } [ ` ` ( ( [ } } 5.6.6.6.6.6.6.6.6.| 6.6.6.| { { { } { { | | | | | 6.6.6.6.6.6.6.6.6.6.| ` ` _ ` ( ( _ ` [ } } } 5.6.6.6.",
"} } } [ } [ ` ` { } { { } | 6.6.6.6.6.6.6.6.6.6.| | { { ` _ ` [ | | | | | | 6.| | 6.6.6.6.6.6.| _ ` _ ` _ ` ` } [ [ } } } 5.6.6.",
"} } | } { ` ` [ { { [ { } } | 6.6.6.6.6.6.6.6.| | { { _ ( ( _ [ { { } } | | | 6.6.6.6.6.6.6.6.| ` ` _ ` ` [ } [ } } } } | | 6.6.",
"} } } [ ` ` ` ` { [ { } { { | 6.6.6.6.6.6.6.| | } { } _ _ _ ` [ { } } } | | | 6.6.6.| 6.6.6.6.6.| ` ` ` [ } [ } } [ } } | 6.6.6.",
"{ } } ` ` ( ` ( [ { { { { } } 5.6.6.6.6.6.6.| | } [ } | [ [ { } } } | | } | | | | | | | 6.| 6.6.| | [ } { { [ } } [ | | 6.6.6.6.",
"} } ` ( ( ` ( ` { { } { { { | 6.6.6.6.6.6.6.| | } } [ [ { } } } } } | | | | 6.6.} } | | | 6.6.| 6.| | | } { { | } } | 6.6.6.| } ",
"| { } ` ( ` ` } { { } { } 1.6.6.6.6.6.| 6.6.6.| | } } [ [ { } } } } { | 6.6.6.| { { { { | | | 6.6.6.6.| | } | | } | 6.6.5.| | | ",
"6.| [ [ [ ` { [ { { { { | 6.6.6.6.6.6.| 6.6.6.6.| | | [ [ [ } } } { | | 6.| | | { } { { | | | | 6.6.6.6.6.| | 6.| 6.6.6.| } } } ",
"6.6.5.} { } [ [ { { | | 6.6.6.6.| | { { | | 6.| 6.6.6.| | | } } | | 6.| | | } [ ` [ } { } { { } | | 6.6.6.6.6.6.6.6.| } } | } } ",
"6.6.6.6.| } } } { { 1.6.6.6.6.| { { { [ | | | | 6.| | 6.| | | | | 6.6.| | | [ [ ` ` [ { { | } } | | 6.6.6.6.| 6.6.6.| [ | } } } ",
"6.6.6.6.5.5.| } | 5.6.6.6.1.} } [ [ [ { | | | | | 6.6.6.6.6.6.6.6.6.| | ` ` [ ( ` [ { { | { } { | } | 6.6.6.6.6.6.} } } } } } } ",
"5.6.6.6.6.6.6.5.6.5.6.6.5.} } { [ [ [ { { } | | | 6.6.6.6.6.6.6.6.6.| [ ` ` ` [ [ } } { { } } } { } | | 6.6.6.6.| } } } } } } } "
};
