/* XPM */
static char *result[] = {
/* columns rows colors chars-per-pixel */
"64 64 125 2 ",
"   c #060606",
".  c #080707",
"X  c #0D0D0D",
"o  c #10100F",
"O  c #131313",
"+  c #1A1916",
"@  c #1C1C1C",
"#  c #22221C",
"$  c #232322",
"%  c #282720",
"&  c #2C2C24",
"*  c #2C2C2B",
"=  c #343324",
"-  c #3B3A26",
";  c #34332D",
":  c #3C3B2B",
">  c #343433",
",  c #3B3B32",
"<  c #393939",
"1  c #42412C",
"2  c #484732",
"3  c #4C4A35",
"4  c #43433C",
"5  c #49483D",
"6  c #504F34",
"7  c #535135",
"8  c #53523B",
"9  c #5A573A",
"0  c #5C5B3C",
"q  c #62603F",
"w  c #424241",
"e  c #494946",
"r  c #4D4D4D",
"t  c #535353",
"y  c #5C5C5C",
"u  c #615E41",
"i  c #646140",
"p  c #696744",
"a  c #6D6A45",
"s  c #666449",
"d  c #6A6748",
"f  c #6D6B49",
"g  c #706E47",
"h  c #716F49",
"j  c #75724D",
"k  c #79754D",
"l  c #636253",
"z  c #6D6B51",
"x  c #6A695F",
"c  c #706F58",
"v  c #797651",
"b  c #626262",
"n  c #6B6B6A",
"m  c #7F7E6F",
"M  c #747474",
"N  c #7B7B77",
"B  c #797978",
"V  c #807E53",
"C  c #807E60",
"Z  c #85824E",
"A  c #898654",
"S  c #85825A",
"D  c #88855A",
"F  c #8E8B5A",
"G  c #908D5E",
"H  c #96925C",
"J  c #9D995F",
"K  c #A09C5E",
"L  c #9D9A62",
"P  c #898874",
"I  c #949279",
"U  c #9E9C7A",
"Y  c #A19D61",
"T  c #A09C68",
"R  c #ABA769",
"E  c #AEAA6A",
"W  c #B3AE67",
"Q  c #B5B16B",
"!  c #BBB66C",
"~  c #BEB96E",
"^  c #A7A47B",
"/  c #BBB672",
"(  c #B8B479",
")  c #BCB87E",
"_  c #C2BD6E",
"`  c #C3BD73",
"'  c #C6C16E",
"]  c #CAC56F",
"[  c #C6C174",
"{  c #CCC771",
"}  c #CEC973",
"|  c #C6C17A",
" . c #CBC67B",
".. c #CEC97E",
"X. c #D2CC76",
"o. c #D5CF79",
"O. c #D6D07B",
"+. c #D9D37E",
"@. c #868686",
"#. c #888887",
"$. c #8A8A89",
"%. c #90908C",
"&. c #9D9C8E",
"*. c #949492",
"=. c #9C9C93",
"-. c #A19F90",
";. c #A6A48E",
":. c #ACAA8B",
">. c #B0AD83",
",. c #B3B087",
"<. c #B8B584",
"1. c #B5B28C",
"2. c #C1BD80",
"3. c #C2BE8D",
"4. c #CAC581",
"5. c #CFCA80",
"6. c #CAC58B",
"7. c #D1CB83",
"8. c #D3CE8B",
"9. c #D6D183",
"0. c #DCD681",
"q. c #DFD984",
"w. c #DDD689",
"e. c #E1DB86",
"r. c #E3DD89",
/* pixels */
"X.} } { ] { { } o.O.O.O.O.+.O.+.r.r.r.r.0.X.X.X.X.o.o.O.e.e.r.r.r.r.r.r.0.O.O.O.o.o.o.o.O.+.O.+.o.+.O.r.r.+.+.O.O.} ] ] ] ] { { ",
"} { { { ] { { } } } o.+.+.O.O.0.r.r.r.0.o.X.X.X.o.o.o.o.o.O.e.r.r.r.r.r.r.0.O.O.o.+.o.o.o.+.O.O.o.O.r.r.e.O.O.O.o.] ] ] ] ] { X.",
"o.X.} ] { } } X.} } o.O.O.O.0.r.r.r.+.o.o.o.X.o.o.o.o.o.O.O.o.0.r.r.r.r.r.r.r.+.o.o.o.o.o.O.+.O.+.r.r.r.e.O.o.o.} ] ] ] ] { X.O.",
"o.o.o.X.{ } { } X.o.9.O.+.0.r.r.r.0.O.o.o.o.o.O.+.+.+.O.o.O.O.O.r.r.r.r.r.r.r.0.+.o.+.+.O.O.+.r.r.r.r.r.+.O.o.o.O.] ] ] { O.+.O.",
"o.X.o.O.o.{ { } o.O.O.O.O.r.r.r.0.O.o.X.} o.o.o.o.o.o.o.O.O.O.o.r.r.r.r.r.r.r.e.e.0.0.0.q.q.r.r.r.r.r.r.e.+.O.O.o.o.X.X.O.O.O.+.",
"O.o.o.o.O.O.o.o.O.O.O.O.0.r.r.r.+.o.X.] { { } } X.O.o.o.O.o.o.q.r.r.r.r.r.r.r.e.r.e.r.r.r.r.r.r.r.r.r.r.r.r.O.O.O.+.O.O.O.O.O.O.",
"+.o.o.O.+.O.O.o.O.O.+.0.r.r.r.r.O.o.{ ] ] ] { } { } o.o.o.O.o.r.r.r.r.e.r.e.e.e.r.r.r.r.r.r.r.0.+.+.e.r.e.r.r.e.+.+.+.O.O.O.O.X.",
"r.0.+.O.O.O.O.O.O.O.0.r.r.r.r.9.O.o.O.{ { { } { { } X.o.O.O.q.r.r.r.e.O.o.o.X.o.+.e.r.r.r.r.+.O.+.O.O.O.+.e.e.r.r.e.+.O.+.+.X.} ",
"r.r.r.0.+.O.O.+.O.0.r.r.r.r.r.0.O.O.O.O.O.} { { { } o.o.O.r.r.r.r.e.O.+.O.O.O.O.O.O.q.r.r.0.O.X.O.o.O.o.O.O.+.+.r.r.r.e.+.+.X.} ",
"q.r.r.r.r.0.q.q.q.r.r.r.r.r.r.0.O.O.O.O.O.} o.} } o.o.+.0.r.r.r.e.O.o.o.O.+.9.O.O.O.+.0.+.O.O.O.o.X.X.X.X.o.O.o.e.r.r.r.r.r.r.e.",
"O.+.r.r.r.r.r.r.r.r.r.r.r.r.r.r.+.+.O.O.O.o.o.o.+.o.+.0.w.r.r.q.o.+.o.o.O.O.O.O.o.O.O.O.O.O.O.O.X.] ] X.X.X.o.o.O.+.r.r.r.r.r.e.",
"O.O.+.r.r.r.r.r.r.r.r.r.r.r.r.r.r.r.w.+.O.O.o.O.o.+.q.r.r.r.q.O.o.o.o.X.X.X.O.O.o.O.0.O.O.O.O.o.] } ] } } X.o.O.O.O.e.r.r.r.e.r.",
"o.o.O.+.+.r.r.r.r.r.r.0.O.+.O.O.O.r.r.r.q.0.+.+.+.r.r.e.r.e.+.O.o.O.X.{ { { } X.X.O.O.O.O.O.O.} } } } } } o.o.o.O.O.+.r.r.r.r.e.",
"O.O.O.O.O.+.r.r.r.r.9.} } } } } { O.0.r.r.r.q.r.q.r.r.r.w.q.O.O.O.X.} { { { ] } o.O.O.X.O.X.} } } } } ] X.o.o.o.o.+.r.r.r.e.+.+.",
"O.O.O.O.o.o.q.r.r.+.{ } { } ..} O.O.O.O.0.r.r.r.r.r.r.r.r.r.O.O.o.} { _ [ { } } X.O.O.X.O.} { { } } } X.o.o.o.O.o.+.r.r.+.+.+.+.",
"O.O.o.O.o.O.q.r.q.} { { } ] { O.O.X.o.O.O.+.r.r.r.e.r.r.r.0.O.O.X._ Z 5 ^ ] } X.X.O.O.O.O.} ] ] ] ] o.o.O.o.o.O.+.r.r.r.+.o.o.+.",
"X.X.O.O.O.O.e.r.q.} ] ] ] } X.o.o.o.o.O.o.O.+.r.r.q.e.r.r.0.O.{ L 6 O * U } X.o.o.O.o.o.X.X.] ] ] O.O.o.O.X.O.+.+.r.r.+.+.+.O.O.",
"} } X.X.O.e.r.e.+.o.o.} { X.X.X.o.O.O.O.O.O.e.r.r.r.r.e.4.E k : + o o @ I } X.X.O.o.o.o.O.O.X.} X.X.o.o.O.O.O.+.r.r.+.+.+.+.O.X.",
"X.} X.X.e.r.r.0.o.o.o.X.} } X.} X.O.O.o.+.+.r.e.r.r.r.9.3 * < w < @ o + P } X.o.o.o.O.O.O.O.o.O.X.X.o.X.+.+.r.r.r.r.+.+.O.X.O.o.",
"X.X.X.q.r.r.e.e.o.o.o.} } } } X.o.O.O.o.q.r.r.r.r.r.r.w.u o X O * t r > m } X.o.o.o.X.O.O.O.O.O.o.X.o.o.+.+.r.+.r.r.r.+.O.O.O.O.",
"o.+.r.r.r.r.r.e.+.o.o.X.} } X.X.O.o.o.+.r.r.r.r.r.q.q.0.h O o X o @ e B N ) o.O.o.o.o.O.o.O.O.O.o.o.+.+.r.r.r.r.r.r.r.r.O.O.O.O.",
"e.r.r.r.r.r.r.e.+.o.o.o.X.O.O.O.o.X.o.r.r.r.r.r.+.O.O.} : @ $ < t b y M $.:.O.o.X.o.o.O.+.o.o.o.O.o.+.+.r.r.r.r.r.r.r.r.+.+.O.O.",
"r.r.r.r.r.r.r.r.r.0.O.O.o.O.O.O.X.O.0.r.r.r.r.q.O.O.+.S e r w * $ O > y n -.O.O.o.o.o.o.X.o.o.+.o.+.+.r.r.r.r.r.r.r.r.r.r.+.O.O.",
"r.r.r.r.r.r.r.r.r.r.0.+.o.o.O.O.+.q.r.r.r.e.+.+.O.O.O.Q p @ X O o * y + 4 *.8.e.+.O.o.X.o.o.O.O.O.+.r.r.r.r.r.r.r.r.r.r.r.r.r.+.",
"r.e.+.+.O.0.q.r.r.e.r.e.r.q.q.q.e.r.r.r.w.+.O.O.O.} } } } A + O * r @ o $ $.3.r.r.q.o.O.o.o.+.q.r.r.r.r.+.+.o.O.+.+.+.+.r.r.r.r.",
"q.o.o.o.O.O.O.O.e.r.r.r.r.r.r.r.r.r.r.e.O.O.O.O.} } } } { { 7 > r O o O + B :.r.r.r.e.q.q.+.e.e.r.r.e.+.o.X.O.O.+.+.+.+.r.r.r.r.",
"O.O.o.+.O.O.O.O.O.0.e.r.r.r.r.r.r.r.r.+.O.O.O.} { { } { ] ] R z ; # o o X b =.w.r.r.r.r.e.r.r.r.r.+.} } } } X.O.+.O.O.O.+.+.r.r.",
"O.O.O.o.o.O.O.o.o.O.O.r.r.r.r.r.r.r.+.~ Q Q ~ { ] ] { ~ ~ _ ' [ [ W 0 + o w %.4.q.r.r.r.r.r.r.r.q.X.} ] } ] ] } O.O.O.X.+.+.+.r.",
"O.O.O.O.o.o.O.o.O.O.O.O.O.r.r.r.r.r.+.1 o O : i q q q - & & & * , J X.H # $ $.<.O.q.e.e.e.r.r.q.X.{ } { ] ] ] ] X.X.X.O.+.O.O.O.",
"o.o.O.o.o.o.O.o.o.o.o.O.O.O.r.r.r.r.q.1 o o # $ # $ $ + + O O + $ p A V : O M &...O.r.e.r.e.q.} { { { { ] ] } X.o.o.o.O.O.O.O.O.",
"} 7.+.O.O.o.7.O.O.o.o.o.O.o.w.w.e.r.q.6 @ # 8 A S A A 7 1 = @ @ # @ @ @ @ @ ; ; g O.r.r.e.q.} ] ] ! W ! ' ] X.O.X.o.O.O.O.O.O.o.",
"} } o.o.o.o.+.+.O.A a j j j j j j j j f d p a h g g g g h 8 $ $ $ $ $ $ $ # $ $ ; v j v j j a a a ; 2 & 6 6 K X.X.X.O.O.O.O.O.+.",
"{ } o.X.X.X.o.+.O.s ; < , ; , ; , ; ; ; * > * > * > * ; > * $ > > $ * > * $ > > $ > ; 4 > 4 , ; , % * $ % % F } X.X.O.O.O.O.+.e.",
"X.X.o.X.X.} X.o.o.[ [  ...5...[ ` ` [ G k k T | ` ~ ~ J H f $ $ @ $ $ $ @ $ $ @ 8  .5. ... . .[ / k f g K K ~ X.X.O.o.O.O.0.r.r.",
"q.+.O.X.X.X.O.o.X.X.q.r.r.r.0.O.O.O.O.: o O $ ; ; , ; @ O O + O $ & & % @ + b x Q q.e.e.q.e.r.q.q.9.X.o.o.o.X.X.o.O.X.o.q.r.r.r.",
"e.r.+.+.o.O.o.+.O.0.r.r.r.0.O.o.X.X.X.1 X o $ $ $ $ $ + O + O + $ L X. .2 @ @.1.e.e.q.q.q.q.r.e.e.e.e.O.o.O.X.o.O.o.O.0.r.r.r.r.",
"r.r.r.r.q.+.+.+.0.r.r.r.+.O.O.O.O.o.o.k 9 0 F  .....7.L D D S V A / Q 2 O < *.6.+.O.O.X.X.O.+.e.r.q.r.q.+.O.o.O.O.O.q.r.r.q.o.O.",
"r.r.r.r.r.r.r.r.r.r.r.0.O.O.O.+.O.X.O.X.O.O.o.O.+.+.r.r.r.r.w.( L a @ O o t =.4.O.o.O.X.X.X.o.o.0.r.r.r.e.0.q.+.+.r.q.r.q.O.o.X.",
"+.+.e.r.r.r.w.r.r.r.+.+.O.O.O.O.O.X.X.X.o.O.O.O.O.+.0.r.r.r.S t * o O O O M ;.O.o.O.o.o.o.o.X.o.o.+.q.e.r.r.r.r.r.r.r.+.o.o.O.X.",
"+.o.+.r.r.r.r.r.r.+.O.+.O.O.O.X.X.] ] ] { } O.O.O.O.+.9.+.| & + t > O O @ @.,.O.o.O.{ { X.o.X.O.O.o.O.0.e.e.r.r.r.e.+.X.} } X.X.",
"+.o.o.+.+.r.r.r.q.+.o.O.O.+.O.X.] ] ] { { { o.O.O.O.O.0./ 2 O O O t < o < *.2.o.O.X.{ { ] X.O.O.O.O.O.+.+.r.r.+.r.+.{ { X.} { o.",
"+.o.o.o.O.+.r.r.r.+.o.o.O.O.X.{ ] ] ] { { } } O.O.O.O.v 4 * + O o O y < t =...o.} { { { { ] X.O.O.O.O.+.+.r.r.r.+.} { { { { { { ",
"o.o.O.o.O.e.r.r.r.q.O.O.O.o.] ] ] { ] { { } o.o.O.O.O.E % * w r t w * M #.;.o.} { { } { } } O.O.O.O.+.+.+.+.r.r.X.{ { { { { { X.",
"o.o.O.+.+.r.r.r.r.r.+.O.O.o.] ] { ] ] ] X.X.o.O.o.O.O.O.7 . . . O > t M @.>.} { { ] ] { } O.O.O.+.+.+.+.r.r.r.r.X.{ { { { { X.o.",
"O.O.O.+.r.r.r.r.r.r.r.O.o.o.X.] ] ] ] X.O.O.O.O.O.O.O.O.p .       O > > l ` } } { { { } X.o.X.o.X.+.+.+.r.r.r.r.q.X.} } { o.o.X.",
"O.O.+.e.r.r.r.r.r.r.r.+.o.o.o.} ] ] { } } X.O.O.O.O.O.X.=   o @ * * O   l [ { } } } X.o.o.o.X.o.O.O.r.r.+.r.r.r.r.+.X.} X.X.X.o.",
"O.O.+.r.r.r.r.r.r.r.r.q.+.o.o.o.o.o.X.} } X.O.O.O.O.O. .k 8 = O X     X c } ..X.o.o.o.X.X.X.O.O.+.+.r.r.r.r.r.r.r.+.o.o.o.X.O.o.",
"O.+.r.r.r.r.r.r.r.r.r.e.q.o.o.o.o.o.O.X.} o.O.O.O.O.0.r.r.0.} J 2 X   O C o.o.o.X.o.o.o.o.o.X.O.+.r.r.r.r.+.+.r.r.r.+.o.O.O.O.o.",
"+.r.r.r.r.r.r.r.r.r.r.e.r.q.+.+.O.o.O.O.o.o.O.O.+.+.r.r.r.r.r.r.9.R - + Y +.+.+.X.O.X.O.+.+.+.+.r.r.r.+.] ] { +.q.e.r.+.O.O.O.O.",
"r.r.r.r.+.+.e.e.r.r.r.r.r.r.r.O.o.o.o.o.o.O.+.+.e.r.r.r.+.+.+.+.q.q.O.H [ +.+.+.O.O.O.+.O.+.+.r.r.r.O.] ] ] { { +.e.q.r.+.+.O.O.",
"r.r.r.O.} } X.} X.0.r.r.r.r.r.r.+.r.r.+.O.O.+.r.r.r.r.+.O.O.o.o.+.q.r.r.r.r.r.+.O.o.+.+.O.+.r.r.e.O.} ] ] ] ] ] { +.q.r.e.r.+.e.",
"r.r.O.o.} } { { { } q.r.e.e.r.r.r.r.r.r.r.+.+.r.r.r.+.+.O.O.O.O.O.O.+.e.r.r.r.r.+.+.r.+.r.+.r.+.+.} } ] ] ] ] ] X.o.+.q.e.r.r.r.",
"r.+.o.o.o.} } { { X.O.O.q.r.r.r.r.r.r.r.r.r.r.r.r.+.O.o.o.X.O.o.O.O.O.O.+.r.r.+.r.r.r.r.r.r.r.+.} } { } { ] ] X.X.O.O.O.e.r.r.r.",
"+.O.o.o.o.o.} ] X.o.o.o.O.+.r.r.r.r.r.r.r.r.r.r.+.+.o.o.} } } X.O.O.o.O.+.+.r.r.+.r.r.r.r.r.r.+.} } } ] { } } o.X.X.O.O.O.e.r.r.",
"O.O.O.o.o.} } o.o.o.o.o.O.O.+.r.r.r.r.r.r.r.r.+.+.o.o.} ] ] ] X.o.o.o.o.+.+.+.r.r.r.r.r.r.r.r.+.} } { } } } O.o.O.X.O.O.+.+.r.r.",
"O.O.o.o.} { } X.o.o.o.o.O.O.O.r.r.r.r.r.r.r.+.O.o.o.o.{ { } } X.o.o.o.o.+.+.+.r.r.r.+.r.r.r.r.r.+.} } } o.o.o.o.X.O.O.+.+.r.r.r.",
"o.O.O.{ { { { } } O.o.o.o.O.O.e.r.r.r.r.r.r.O.O.o.X.O.O.X.} X.O.o.+.o.O.+.+.r.r.+.+.+.+.r.+.r.r.r.O.X.O.o.o.o.o.O.O.O.+.r.r.r.+.",
"O.O.} ] ] { { } o.o.O.o.o.o.+.r.r.r.r.r.r.r.+.+.O.O.o.X.O.O.O.O.o.O.+.+.+.r.r.e.+.O.+.+.+.r.r.r.r.+.+.+.O.O.o.O.o.X.+.r.r.r.+.+.",
"+.O.o.{ } { { o.O.o.o.o.+.+.r.r.e.r.r.r.r.r.r.+.+.O.O.o.X.O.O.O.O.O.o.+.e.r.e.+.o.X.o.o.+.O.+.r.r.+.r.+.+.O.+.+.o.+.r.r.r.+.+.+.",
"r.+.o.o.X.} o.o.o.o.o.o.+.r.r.r.r.r.r.r.r.r.r.r.r.q.O.X.X.X.o.O.O.O.+.q.e.e.O.O.O.O.o.o.+.O.+.+.r.r.r.r.r.+.+.r.r.r.r.r.+.O.+.+.",
"r.r.+.+.+.O.o.X.X.O.+.+.r.r.r.r.+.O.O.o.O.+.r.r.r.e.e.+.X.o.O.o.O.0.r.r.q.X.o.X.X.X.o.o.O.O.O.O.+.+.r.r.r.r.r.r.r.r.+.O.O.O.o.o.",
"r.r.r.r.+.+.O.o.O.O.q.r.r.r.r.+.o.o.o.o.o.o.o.r.r.r.e.e.+.O.+.0.0.r.r.+.} } } } } } X.o.O.O.O.O.+.+.r.r.r.r.+.r.r.r.+.+.O.+.+.o.",
"r.r.r.r.r.+.O.+.+.+.r.r.r.+.O.O.O.o.o.o.o.O.X.O.r.r.r.q.r.r.r.r.r.r.r.o.} } X.{ ] X.O.O.O.O.O.O.+.O.+.r.r.r.r.r.r.+.o.o.O.O.O.O.",
"r.r.r.r.r.r.e.r.r.r.r.r.e.O.O.o.} { } o.o.o.o.X.O.q.r.r.q.r.r.r.r.r.9.o.} } X.} X.O.o.o.o.O.O.O.O.O.+.+.r.r.r.r.+.o.o.O.O.o.O.O."
};
