/* XPM */
static char *_a76369ad40c4daf8102f0e9927f77f0BuKuS9N4GC3xyKwT[] = {
/* columns rows colors chars-per-pixel */
"64 64 142 2 ",
"   c #060606",
".  c #080807",
"X  c #0D0D0D",
"o  c #10100F",
"O  c #131313",
"+  c #191916",
"@  c #1C1C1B",
"#  c #22221C",
"$  c #232322",
"%  c #2C2C23",
"&  c #2C2C2B",
"*  c #343324",
"=  c #383624",
"-  c #34332D",
";  c #38372E",
":  c #3D3B2B",
">  c #343433",
",  c #3C3B32",
"<  c #393939",
"1  c #403F2A",
"2  c #42412B",
"3  c #454435",
"4  c #484631",
"5  c #4A4933",
"6  c #43423C",
"7  c #4E4D38",
"8  c #514F35",
"9  c #514F3B",
"0  c #555337",
"q  c #56543B",
"w  c #59573D",
"e  c #5B593A",
"r  c #424241",
"t  c #4B4B44",
"y  c #4D4D4D",
"u  c #535353",
"i  c #5C5C5C",
"p  c #696644",
"a  c #6E6B45",
"s  c #6C6A4A",
"d  c #716E47",
"f  c #716E49",
"g  c #75724C",
"h  c #78764D",
"j  c #7D7A4D",
"k  c #656456",
"l  c #6E6C52",
"z  c #68675D",
"x  c #75735D",
"c  c #626262",
"v  c #6B6B6A",
"b  c #7F7F6F",
"n  c #747474",
"m  c #7B7B77",
"M  c gray47",
"N  c #817E53",
"B  c #817E58",
"V  c #868356",
"C  c #898552",
"Z  c #87845B",
"A  c #8B8859",
"S  c #928E5E",
"D  c #96925B",
"F  c #9A965E",
"G  c #9C985B",
"H  c #858366",
"J  c #918E60",
"K  c #979362",
"L  c #9A9762",
"P  c #9F9B67",
"I  c #96936D",
"U  c #8C8B77",
"Y  c #99977E",
"T  c #A29D62",
"R  c #ADA867",
"E  c #AAA66A",
"W  c #ACA86C",
"Q  c #B1AC66",
"!  c #B2AE6C",
"~  c #B6B16C",
"^  c #BAB56D",
"/  c #BDB96D",
"(  c #BBB675",
")  c #BEBA71",
"_  c #BBB77D",
"`  c #C4BE6E",
"'  c #C2BD72",
"]  c #C2BE7B",
"[  c #C7C26C",
"{  c #CAC56F",
"}  c #C6C172",
"|  c #CCC771",
" . c #CEC973",
".. c #C6C17B",
"X. c #CAC57B",
"o. c #CEC97B",
"O. c #D2CC76",
"+. c #D5CF79",
"@. c #D5D07A",
"#. c #D7D17D",
"$. c #D8D17C",
"%. c #D9D37E",
"&. c #DAD47F",
"*. c #868686",
"=. c #888887",
"-. c #8A8A89",
";. c #908F8C",
":. c #93938F",
">. c #9C9C8C",
",. c #959594",
"<. c #9D9C94",
"1. c #A7A586",
"2. c #A8A583",
"3. c #A9A788",
"4. c #B2AF87",
"5. c #B2AF8A",
"6. c #B7B482",
"7. c #B9B68D",
"8. c #A8A791",
"9. c #A9A893",
"0. c #C8C480",
"q. c #CBC78D",
"w. c #CDC98D",
"e. c #D1CB81",
"r. c #D6D083",
"t. c #D9D381",
"y. c #DBD580",
"u. c #DCD582",
"i. c #DDD682",
"p. c #DDD785",
"a. c #DED883",
"s. c #DFD985",
"d. c #D7D189",
"f. c #DBD68B",
"g. c #DFD889",
"h. c #E1DA86",
"j. c #E2DC87",
"k. c #E1DB88",
"l. c #E3DD89",
"z. c #E4DE8A",
"x. c #E3DE8C",
"c. c #E4DE8C",
/* pixels */
"O. . .| { |  . .+.@.@.#.@.%.#.@.s.l.l.l.y.O.O.O.+.+.+.@.h.l.l.z.l.c.c.k.i.+.@.+.+.@.@.+.@.@.@.@.+.@.%.z.l.i.@.@.+.O.{ { { { | | ",
"O.| | | { { | O. . .+.#.%.@.@.i.z.c.l.y.+.O.O.O.@.+.+.+.+.#.h.z.z.l.l.l.l.i.%.@.@.#.+.+.@.#.@.@.+.%.h.l.h.@.@.@.O.{ { { { | | O.",
"+.O. .| |  . . . . .+.#.#.@.y.c.z.l.y.+.+.+.O.+.+.@.+.+.@.@.+.i.z.l.l.l.l.l.l.%.@.@.+.+.@.@.@.%.i.l.l.z.a.+.+.+. .{ { | |  .O.@.",
"+.@.@. . . .|  . .+.#.#.%.%.z.z.l.y.+.+.+.+.+.@.#.#.#.+.+.@.@.@.l.z.z.h.l.l.c.i.@.@.#.@.#.@.&.z.l.l.l.z.s.@.+.+.+.| { |  .+.#.#.",
"+.+.+.@.+.| |  .+.#.@.@.#.l.z.z.i.@.+.O.O.O.+.O.@.@.@.+.@.@.@.@.k.l.l.l.h.j.l.j.h.i.y.y.i.i.z.l.z.z.l.l.l.%.+.@.@.+.O.O.+.@.@.%.",
"@.+.+.+.@.@.O.+.+.+.@.#.%.l.c.z.%.+. .| {  .O. . .@.@.+.@.+.+.s.z.z.z.l.z.l.l.h.l.l.l.l.z.z.l.l.z.z.l.l.l.l.%.@.@.@.#.@.@.@.@.#.",
"%.+.+.@.#.@.#.@.@.#.#.y.l.z.c.s.#.+.| { { { |  . . .+.+.+.@.+.l.l.l.z.k.k.h.h.h.l.l.l.l.z.z.l.i.%.%.s.k.l.l.l.h.i.@.@.@.@.@.@.O.",
"l.y.%.#.#.@.@.@.@.@.&.l.l.z.l.#.@.+.+.| { |  .|  . .O.+.@.@.s.l.l.x.s.@.+.+.+.+.@.h.h.l.l.l.&.@.+.+.+.@.t.s.k.l.l.k.a.@.#.#.O. .",
"z.z.l.i.%.@.+.@.#.i.l.l.l.z.l.@.#.@.@.@.+. .| | | O.+.+.+.s.c.z.l.s.@.@.#.#.@.@.@.#.h.l.l.y.+.+.+.+.+.+.+.+.%.s.l.l.l.h.i.@.O. .",
"p.l.l.z.l.i.s.i.k.l.l.l.l.c.l.%.@.#.@.@.+.O.O.O. .+.@.@.i.l.l.W K ' +.+.#.#.#.@.#.+.%.y.&.@.@.+.@.O.O.+.O.O.+.+.h.z.l.z.z.l.l.h.",
"@.#.k.z.z.z.l.l.z.z.z.z.z.z.l.h.#.#.#.@.+.+.+.+.+.+.@.i.h.l.p.q $ T +.+.#.#.@.@.@.@.#.#.@.@.#.@.O.| |  .O.O.+.+.@.h.l.l.l.l.l.h.",
"+.@.%.k.x.l.c.z.l.z.z.z.z.z.z.l.l.l.s.%.+.@.+.@.+.#.s.l.l.l.t.7 $ T +.O.O.O.@.@.+.@.#.#.@.@.@.+.| | | | | O.+.@.+.@.h.l.l.z.l.h.",
"@.+.#.%.i.l.l.l.z.l.z.y.+.+.+.+.#.l.c.l.h.&.%.%.%.l.l.l.k.h.' & $ f O.| | |  .O.+.@.@.@.@.@.+. .|  . .|  .O.@.+.@.@.p.z.c.l.l.h.",
"@.@.#.@.@.&.l.z.l.l.%. . . .O. .O.@.i.l.z.l.l.l.l.l.l.l.k.h./ 6 & s | | | | |  .+.+.@.+.+.+. . . . .|  .O.@.+.@.@.@.s.l.l.s.i.i.",
"#.@.@.+.+.+.a.h.l.%.|  . . . .O.+.@.+.@.i.j.l.l.l.l.l.l.z.l.' ; $ h | { | | |  .+.@.@.+.@. . .| |  . .O.+.+.+.+.@.s.l.h.s.@.@.@.",
"@.@.@.@.+.@.s.l.h.| | |  .| | O.+.+.+.@.@.%.l.l.l.k.l.l.l.i.+.a , ^ | | | |  .O.+.+.@.@.+. .| | { | +.+.@.+.+.+.%.l.l.l.%.@.+.+.",
"O.O.@.@.@.@.h.l.h. .{ | {  .O.+.+.+.+.@.+.#.i.l.l.h.h.l.z.y.+.f - ^ { { | O.O.+.+.@.@.+.+.O.{ | { +.@.+.+.+.@.%.h.z.z.i.@.+.+.+.",
" . .O.+.#.h.l.h.y.+.O. .| O.O.O.+.@.+.#.@.@.i.l.l.l.l.l.z.y.+.f > '  . . .O.O.O.@.+.+.@.@.@.O. .O.O.+.@.+.+.@.h.l.z.h.+.+.+.+.+.",
" .O.O.O.h.l.l.a.+.@.+.O. . .O. .O.@.@.+.@.i.l.j.h.l.l.l.z.l.%.g 3 ' +.+.+.O.O.+.+.+.@.@.@.@.+.@.O.O.+.O.+.+.s.l.l.z.i.@.@.+.@.+.",
"O.O.+.s.z.l.l.s.+.+.+.O. . .O.O.+.@.@.+.p.z.l.l.z.l.l.l.c.z.l.g ; ' @.@.+.O.O.+.+.+.+.@.@.@.@.@.+.O.+.+.@.s.l.l.j.l.h.@.+.@.@.+.",
"+.+.k.z.z.l.h.s.+.+.+.O.O.O.O.+.+.+.+.%.l.z.l.c.z.p.a.i.h.l.k.h 6 X.h.y.@.+.+.@.+.+.@.@.@.@.@.@.+.+.@.#.h.l.l.l.l.z.l.s.@.@.@.@.",
"h.k.l.z.l.z.l.h.i.+.+.+.O.+.@.+.+.+.+.h.z.c.l.l.%.#.@.@.%.i.i.h - e.k.l.h.%.@.+.O.+.+.@.@.+.+.+.@.@.#.s.l.l.l.l.z.l.l.l.s.#.@.@.",
"l.l.z.l.z.z.z.z.l.i.@.@.O.+.+.+.+.@.p.l.l.z.l.&.@.@.#.@.@.@.O.g > X.s.l.l.l.y.+.+.+.@.+.+.+.@.#.@.@.h.l.l.l.j.l.l.l.l.z.l.h.@.#.",
"l.l.l.l.l.l.l.l.z.l.i.%.+.+.@.@.#.s.l.l.l.h.%.#.#.@.@.@.+.| s ; $ 9 W k.l.l.l.h.y.@.+.O.O.+.@.@.@.h.l.l.l.z.l.l.z.l.l.h.l.l.l.k.",
"l.s.@.%.@.%.s.l.l.k.l.l.i.i.i.i.k.l.z.l.h.#.@.@.@.O.| ] 6.Y - $ > $ z 5.q.d.k.l.l.y.+.+.+.+.@.h.l.l.l.l.h.%.#.%.%.y.l.l.l.l.l.z.",
"s.@.@.@.@.#.@.@.h.l.l.l.z.l.l.c.z.l.z.h.@.+.+.0.6.1.>.;.-.M > $ > $ c *.,.<.8.7.w.f.p.s.i.i.h.l.l.l.k.y.O.O.+.+.+.+.%.&.k.z.l.l.",
"@.@.@.@.@.#.@.@.#.y.h.z.z.z.c.z.l.k.g.+._ 3.>.:.-.M c 6 $ O @ $ $ $ O @ < u n =.,.<.9.7.e.i.g.l.l.s. .| | | O.O.+.+.+.@.%.%.h.l.",
"@.#.@.@.+.#.@.+.+.@.#.k.l.z.f.4.2.Y U b m -.v r $ O X O # : @ $ & $ @ 4 O O O @ < u =.*.k k x H I W | | | | |  .+.+.+.+.+.@.%.h.",
"@.@.@.@.+.+.@.+.@.@.#.@.%.l.d.t $ @ O & M n i + O O O + D j @ $ > $ % | 5 O O O O < n n < . X O + V  . .| { | | O.+.+.+.+.@.+.@.",
"+.+.@.+.+.+.#.+.+.+.+.@.@.%.l.D + O O y r i < i + O O e  .C @ $ & $ * +.~ @ O O < i & u > O     = / | | | | | O.+.+.+.+.@.+.+.@.",
" .+.@.@.#.#.#.@.@.@.+.@.%.#.l.p.q O @ u @ c O & y O # Q G p @ $ $ $ % L / p O > u O r < O &   X G | | | | | O.+.O.+.@.@.@.@.@.@.",
" . .+.+.O.+.#.#.@.+.@.@.%.s.l.l.E + < & X u $ O & t : ` , $ $ $ > $ $ $ Z F & u O O u O   & . 2 ` | |  .| O.+.O.O.O.#.@.@.@.+.&.",
"|  .O.O.O.O.+.#.@.#.+.@.s.z.z.z.r.: r O X < & O O < l } % O @ $ > $ O O N ! u + O O y .   @ O C |  .| |  .O.O.O.O.O.@.@.@.@.y.h.",
"O.O.+.O.O.O.+.+.+.+.+.i.z.z.z.%.@.j < X X $ r o + 0 W } % O @ $ $ $ + O N O.N % O + r     o % ' O. .|  .+.O.O.O.O.+.+.+.@.i.l.l.",
"h.%.+.O.O.+.@.+.+.+.i.c.c.z.y.@.+.E % O O + y @ S i.s.} % O * q & s O O N %.k...5 & &   .   9 t.h.#.O.+.+.+.O.O.+.@.+.+.i.l.z.l.",
"l.l.i.%.+.@.+.+.+.a.z.l.l.y.@.+.O.) 3 e a 2 t s k.l.l.e.% + 2 g > D O O V l.l.h...6 % 0 a = h h.l.h.h.@.+.+.+.+.@.+.+.i.l.l.z.z.",
"l.l.l.l.i.%.%.%.i.l.z.l.&.%.+.@.+.O.| +.+.o.Z ( l.l.z.d.: + q g - T @ O L l.l.h.%.B R O.O.O.o.h.l.h.l.h.%.@.@.@.@.%.i.k.l.s.+.@.",
"l.l.l.l.l.l.l.l.z.c.l.%.#.#.#.%.+.+.+.+.@.#.@.@.%.&.l.l.s $ S g - ] ; $ e.l.l.%.@.+.@.+.O.O.+.+.&.l.l.l.h.i.i.i.i.l.h.h.s.+.+.+.",
"y.i.h.l.z.l.l.z.l.l.%.@.@.@.@.@.@.O. .O.+.#.@.@.+.@.y.l.s $ S g > ..; $ e.k.%.@.@.+.+.+.+.+.O.+.@.%.s.l.l.l.l.l.l.l.l.y.+.+.@.+.",
"+.@.@.h.z.l.l.z.l.%.#.@.@.@.@.+.O.| { | | O.@.@.@.@.@.#.p $ S g & ..; $ o.%.@.@.+.+. .| O.+.+.+.@.+.@.y.h.k.l.l.l.h.y.O. . .O.O.",
"@.@.@.@.i.c.l.z.s.#.@.@.#.#.#.O.| { { | | | +.@.#.@.#.+.p $ J h > X.; $ ..+.+.+.@.O.| | { O.@.@.@.@.@.@.&.h.h.j.l.y. . . . .| O.",
"@.@.+.@.+.y.j.z.k.%.@.+.@.@.O.{ { { { | |  .O.+.@.@.@.} , @ w g & P $ # A +.+.+. .| | | | | +.@.#.@.@.@.@.h.l.l.i. .| | |  .|  .",
"@.+.@.@.+.y.l.l.z.h.@.@.#.+.| { { | | | | O.O.+.@.@.#.^ O O # s > h O O e +.+. .| |  . . . .@.#.#.@.+.+.y.h.k.l. . .| | | | { O.",
"@.+.@.@.&.l.z.z.z.l.%.+.@.O.{ { | { { { O.O.+.+.+.@.#.~ o X @ s & g X X w +. .| | { | |  .+.@.@.#.#.@.i.l.l.l.l.O.| | | | | O.+.",
"#.@.@.y.l.l.l.l.z.l.h.@.+.@. .| | { { O.+.+.@.@.@.+.@.) 2 1 8 s - C : 1 h  . . .| |  . .O.+.O.O.+.#.i.l.l.l.l.l.s.O.|  .| O.+.O.",
"#.+.#.s.l.l.h.l.l.l.l.@.@.+.+. .{ {  .O.O.O.@.#.@.@.@.@.%.s.k.g - ' +.+.O. .|  . . .O.+.+.+.O.+.@.@.k.l.j.j.j.l.l.i.O.O.O.O.+.+.",
"#.+.%.l.z.l.l.l.z.l.l.s.@.+.+.+.+.+.O.O. .O.@.@.@.@.@.&.k.l.k.g ; ' +.O.O. .O.+.+.+.+.O.O.+.+.@.#.s.l.h.h.l.l.l.j.i.+.+.+.+.@.+.",
"#.&.h.l.z.l.z.l.l.l.l.l.s.+.+.@.+.+.+.O.O.+.+.@.@.@.s.l.l.l.k.g , ..&.@.+.+.@.+.+.+.+.+.+.@.+.@.i.l.l.l.s.i.s.l.h.k.%.+.+.@.@.+.",
"y.l.l.l.l.l.l.l.l.l.l.j.l.s.%.@.@.+.+.@.+.+.+.@.%.i.j.l.l.l.k.g - X.s.a.&.@.+.+.+.+.+.O.+.+.@.&.l.k.h.#.[ | | %.h.h.l.&.+.@.+.+.",
"l.z.l.l.i.i.y.p.k.l.k.l.z.l.k.&.+.+.+.+.+.@.@.%.k.l.l.l.i.y.y.f , X.h.h.l.s.@.@.@.+.@.+.+.@.y.l.l.h.+.[ | { | | %.h.h.l.i.&.@.+.",
"c.z.h.#. . . . .+.i.l.l.l.l.l.l.s.i.h.&.@.+.%.k.l.l.z.%.@.@.+.a - ..l.j.l.l.k.i.@.+.+.+.@.s.l.l.l.#.| { [ | { {  .%.k.k.h.l.h.p.",
"z.l.+.O. . . .| |  .s.l.l.h.l.l.l.l.l.k.l.h.h.l.z.l.%.+.@.#.+.d ; ' y.j.l.l.z.l.h.h.s.s.h.l.l.k.%. . .| { [ { | O.+.@.h.h.l.l.l.",
"l.%.+.+.O. . .| | +.@.@.h.l.l.z.l.l.l.l.l.j.l.l.l.&.@.+.+.+.+.f , ' +.@.i.l.l.l.l.l.h.l.l.l.l.%. .| |  .| { | O.O.+.+.#.h.l.l.z.",
"%.@.@.+.+.+.O.| O.@.+.+.@.%.z.l.l.l.l.l.k.l.z.z.y.@.+.+. . .| a ; ' +.@.@.%.l.k.h.l.h.l.l.l.l.+.|  . . . . .O.+.O.+.+.@.#.h.l.l.",
"@.@.@.+.+. . .+.+.+.+.+.@.@.&.l.l.z.l.l.l.l.z.&.+.+.+. .{ { | C s } O.+.+.@.i.c.l.h.l.l.z.l.l.y. . . . .| O.+.+.+.+.+.+.@.a.l.z.",
"@.+.+.+. . . .O.+.+.+.@.+.@.@.h.l.c.c.l.k.l.i.+.+.+.+. .|  .| +.+.@.+.@.@.+.i.l.l.h.l.k.z.l.l.h.&. . . .+.+.+.+.+.+.+.+.y.l.l.l.",
"+.@.@.| | | |  .O.@.+.+.+.+.@.h.l.c.l.l.l.l.@.+.+.+.@.#.O. .+.@.@.@.@.@.@.&.k.z.h.i.i.i.l.l.l.l.h.O.O.O.+.+.+.@.+.+.@.y.l.l.l.h.",
"@.+. .{ { | |  .+.+.+.+.+.+.i.z.l.z.l.z.c.l.&.+.@.@.+.+.@.@.@.@.@.@.#.#.i.l.l.h.%.@.+.+.@.h.l.l.l.h.&.@.@.@.+.@.+.+.&.h.k.l.i.@.",
"y.+.+. .| |  .+.+.+.+.+.+.y.l.c.l.l.l.l.l.l.l.i.%.@.+.+.+.+.@.+.@.@.+.y.h.l.h.@.+.+.+.+.+.@.h.l.l.l.z.i.&.@.#.@.@.&.z.z.h.i.#.%.",
"l.y.+.+.O. .+.+.+.+.+.+.i.l.l.l.l.l.l.l.l.l.l.l.k.s.@.+.+.O.+.@.@.@.%.h.h.s.#.#.@.@.+.+.@.+.+.s.k.h.j.h.l.h.a.s.h.l.z.h.#.@.@.@.",
"l.l.h.%.+.@.+.O.+.+.+.i.l.l.l.l.i.@.@.+.@.i.l.k.l.l.h.%.+.+.+.+.@.i.l.l.i.O.+.O. .O.@.+.@.@.+.@.&.h.l.h.l.l.l.l.l.l.h.#.#.@.+.+.",
"l.l.l.h.y.@.+.+.+.+.i.l.l.l.k.y.@.+.O.O.+.+.@.h.l.l.h.k.&.%.%.y.i.z.l.&. . . . . . .O.+.@.#.@.+.@.%.l.l.l.z.l.l.l.h.#.+.@.@.#.@.",
"l.l.l.l.l.s.#.%.%.a.l.l.l.p.@.@.+.O.+.+.+.+.O.%.h.l.k.h.l.l.l.l.l.l.k.+. . . . . .O.+.+.@.@.@.+.%.@.#.l.l.l.l.l.h.#.@.@.@.#.+.+.",
"l.l.k.l.l.l.l.j.l.l.c.l.p.+.@.+. . .O.+.+.+.+.+.%.j.l.k.j.l.l.l.l.l.y.+. . . . .O.@.@.+.+.@.@.@.+.+.+.%.l.l.l.l.%.@.@.@.@.@.@.@."
};
