/* XPM */
static char *result[] = {
/* columns rows colors chars-per-pixel */
"64 64 125 2 ",
"   c #060606",
".  c #0D0D0D",
"X  c #10100F",
"o  c #131313",
"O  c #1A1916",
"+  c #1C1C1C",
"@  c #23221C",
"#  c #232322",
"$  c #282720",
"%  c #2C2B23",
"&  c #2C2C2B",
"*  c #343324",
"=  c #393824",
"-  c #33332D",
";  c #38372E",
":  c #3C3A2A",
">  c #343433",
",  c #383730",
"<  c #3C3C33",
"1  c #393939",
"2  c #403E2A",
"3  c #403F32",
"4  c #43412D",
"5  c #48462F",
"6  c #4D4B34",
"7  c #43423B",
"8  c #4A4938",
"9  c #504F38",
"0  c #535135",
"q  c #53513B",
"w  c #58563F",
"e  c #5C5A3C",
"r  c #605E3F",
"t  c #424241",
"y  c #4B4A43",
"u  c #4D4D4D",
"i  c #535353",
"p  c #5C5C5C",
"a  c #676544",
"s  c #696744",
"d  c #6D6B45",
"f  c #696748",
"g  c #6D6B4A",
"h  c #706E47",
"j  c #726F49",
"k  c #75734D",
"l  c #7A774C",
"z  c #7D7B4E",
"x  c #636254",
"c  c #69685E",
"v  c #706E51",
"b  c #716F59",
"n  c #777551",
"m  c #797751",
"M  c #7F7C54",
"N  c #626262",
"B  c #6B6B6A",
"V  c #7F7E6E",
"C  c #747474",
"Z  c #7B7A77",
"A  c #797978",
"S  c #807D53",
"D  c #868357",
"F  c #8A8654",
"G  c #8C8A56",
"H  c #8C8859",
"J  c #918D5C",
"K  c #96925C",
"L  c #99955C",
"P  c #9D995D",
"I  c #A09B5E",
"U  c #8B8861",
"Y  c #928E67",
"T  c #9F9B62",
"R  c #8A8875",
"E  c #97957B",
"W  c #A7A266",
"Q  c #ADA866",
"!  c #AEA96C",
"~  c #B1AC63",
"^  c #B3AE6A",
"/  c #B6B16B",
"(  c #BBB66C",
")  c #BDB86D",
"_  c #B1AD70",
"`  c #BBB674",
"'  c #BFB975",
"]  c #BCB77D",
"[  c #C2BD6C",
"{  c #C3BD73",
"}  c #C7C26C",
"|  c #CAC56E",
" . c #C5C074",
".. c #CCC771",
"X. c #CEC973",
"o. c #CAC57C",
"O. c #CEC97D",
"+. c #D2CC76",
"@. c #D5CF79",
"#. c #D6D07B",
"$. c #D9D37E",
"%. c #868686",
"&. c #888887",
"*. c #8A8A89",
"=. c #9D9B83",
"-. c #92928E",
";. c #9E9D8E",
":. c #959593",
">. c #9B9B93",
",. c #A6A58F",
"<. c #A9A788",
"1. c #AAA889",
"2. c #B1AE85",
"3. c #B0AE88",
"4. c #BAB784",
"5. c #C3BF82",
"6. c #C1BD8D",
"7. c #CFC980",
"8. c #D3CD83",
"9. c #D1CC8A",
"0. c #D7D183",
"q. c #DCD682",
"w. c #DFD985",
"e. c #E1DB86",
"r. c #E3DD89",
/* pixels */
"+.X.X...| ....X.+.#.#.#.#.$.#.#.e.r.r.r.q.@.+.+.@.#.#.#.e.e.r.r.r.r.r.r.e.@.@.@.#.#.#.#.#.#.#.#.#.#.$.r.r.$.$.#.#.+.| | | | | X.",
"X.......| ....+.O.X.#.$.$.#.$.q.r.r.r.q.@.+.+.+.#.+.@.@.@.$.e.r.r.r.r.r.r.q.#.#.#.#.@.+.#.#.#.#.#.#.r.r.r.#.#.#.+.| | | | | | +.",
"@.+.X.......X.+.X.X.#.#.#.#.q.r.r.r.$.@.@.@.+.@.@.#.#.+.#.@.@.q.r.r.r.r.r.r.r.$.#.#.#.#.#.#.#.$.$.r.r.r.$.$.@.@.X.| | | | X.+.#.",
"@.@.#.X.X.X...X.+.+.#.#.$.q.r.r.r.q.@.@.@.@.@.@.$.$.#.#.@.#.@.$.r.r.r.r.r.r.r.q.#.#.#.#.#.#.$.r.r.r.r.r.$.#.@.#.@.X.| | X.#.$.#.",
"@.@.@.#.@.| ....@.#.#.#.#.r.r.r.q.#.#.+.+.+.@.+.@.#.@.@.@.$.@.@.e.r.r.r.r.r.r.r.e.$.$.w.$.e.r.r.r.r.r.r.r.#.#.#.@.@.+.+.@.#.#.#.",
"@.@.@.@.#.#.@.@.+.#.#.#.$.r.r.r.$.@.+.| ....+.X.X.@.$.@.@.@.@.e.r.r.r.r.r.r.r.e.r.r.r.r.r.r.r.r.r.r.r.r.r.r.$.#.#.#.#.#.#.#.#.#.",
"$.@.@.#.$.#.$.#.0.#.#.q.r.r.r.r.@.@...| } ....X.X.X.#.#.+.@.@.e.r.r.r.r.e.r.r.e.r.r.r.r.r.r.r.w.$.$.e.e.r.r.r.r.$.$.$.$.#.#.#.+.",
"r.q.$.#.#.#.@.#.#.#.q.r.r.r.r.q.$.@.@.......X.....X.X.@.@.$.e.e.r.r.e.#.@.+.@.+.$.r.r.r.r.r.$.#.$.#.#.#.$.$.r.r.r.r.$.#.$.$.+.X.",
"r.r.r.q.#.#.#.$.#.q.r.r.r.r.r.q.@.#.#.@.@.X.....X.+.+.@.@.w.r.r.r.e.#.#.#.#.#.#.#.$.e.e.r.$.#.@.#.#.#.+.#.@.$.$.r.r.r.r.$.$.+.+.",
"w.r.r.r.r.w.w.w.r.r.r.r.r.r.r.$.#.$.#.$.@.+.+.+.X.@.#.@.w.r.8.v J #.@.@.$.0.#.#.#.@.0.0.$.#.#.#.#.+.+.+.+.@.#.@.$.r.r.r.r.r.r.$.",
"#.$.r.r.r.r.r.r.r.r.r.r.r.r.r.r.0.#.0.@.@.@.@.@.@.@.@.w.e.e.7.; h @.#.@.@.#.#.@.#.#.$.#.#.#.#.#.+.| X.X.+.+.@.#.$.$.r.r.r.r.r.r.",
"#.#.0.r.r.r.r.r.r.r.r.r.r.r.r.r.r.r.w.#.#.#.@.#.@.#.w.r.r.r.o.< h @.@.+.+.@.@.@.@.#.$.$.#.#.@.@.X.| | X.X.+.+.#.#.#.r.r.r.r.r.$.",
"@.@.#.#.q.w.r.r.r.r.r.q.$.#.#.#.#.e.r.r.e.$.$.0.0.r.r.e.e.e.{ ; h @.+.......X.@.+.@.#.#.#.#.@.X.| +.X...| @.#.#.$.$.r.r.r.r.r.r.",
"#.#.#.#.#.$.r.r.r.w.q.X.X.X.X.O.+.#.w.r.r.r.e.r.r.r.r.r.e.e.{ - h +.............@.#.@.@.@.@.X.X.+.| X.| +.#.+.#.$.$.$.r.r.r.$.$.",
"#.#.#.#.#.@.w.w.r.q...X.X...X.X.@.@.@.@.q.r.r.r.r.r.r.r.r.e.{ < d ..............+.#.@.@.@.+.....+.| X.+.@.#.@.#.#.$.r.$.$.$.$.$.",
"#.#.#.#.#.#.w.r.w.X.....X.....#.@.@.@.#.#.$.r.r.r.e.r.r.r.$.{ - s | ........+.+.@.@.@.@.@.........| @.#.#.@.@.#.$.r.r.r.$.#.$.$.",
"+.+.@.@.#.@.e.r.w.X.....| X.+.@.@.+.@.@.@.#.w.e.r.e.e.r.r.q.{ , d ....} | +.+.#.#.#.@.@.@.+.| | | #.#.@.#.@.#.$.$.r.r.r.$.$.#.#.",
"+.X.+.@.#.e.r.e.q.+.+.X...+.+.+.@.#.#.#.#.#.w.r.r.r.r.r.r.q.) - d #.+...X.+.+.+.#.#.@.@.#.#.+...+.+.@.#.@.@.#.$.r.r.$.$.$.$.@.+.",
"X.+.X.+.e.r.r.e.#.#.+.+.X.+.X.X.+.#.#.#.#.w.r.e.e.r.r.r.e.r.{ - d #.+.#.+.+.+.+.@.@.#.#.#.#.@.#.+.+.@.+.$.$.$.r.r.r.$.$.#.@.#.@.",
"+.+.@.w.r.r.e.q.+.#.#.X...X.+.+.@.#.#.@.w.r.r.r.r.r.e.M 4 4 Y - a 6 4 4 ) +.+.+.+.@.@.@.@.@.#.#.@.+.@.+.$.r.r.r.$.r.r.$.@.#.#.@.",
"@.$.r.r.r.r.r.e.#.#.+.+.+.X.+.@.#.@.#.$.e.r.r.r.r.w.q.e . . k & f @ . X / #.#.#.@.@.@.#.#.#.#.#.#.+.$.$.$.r.r.r.r.r.r.$.#.#.#.#.",
"e.r.r.r.r.r.r.e.q.+.#.+.+.@.#.@.+.+.#.w.r.r.r.r.q.#.@.e o o k , d @ X o ' $.#.#.X.@.@.#.#.#.+.#.#.#.$.$.r.r.r.r.r.r.r.r.$.$.#.#.",
"r.r.r.r.r.r.r.r.r.w.#.#.+.#.@.@.@.#.w.r.r.r.r.w.#.#.+.H @ # K & j w # 3 #.r.$.@.@.@.#.@.+.#.#.#.#.$.$.r.r.r.r.r.r.r.r.r.r.r.#.$.",
"r.r.r.r.r.r.r.r.r.r.q.#.#.#.#.@.#.w.r.r.r.e.$.#.#.#.#.{ # ; ) , j G # f r.r.r.r.$.@.@.+.@.#.#.#.#.$.r.r.r.r.r.r.r.r.r.r.r.r.$.$.",
"r.e.@.$.#.0.e.r.r.e.r.r.r.w.w.w.e.r.r.r.e.#.#.#.#.+.X.` # ; ( & d G # f w.r.r.r.r.w.#.#.@.@.#.w.$.r.r.$.$.$.#.$.$.$.$.$.r.r.r.r.",
"e.@.$.@.#.#.#.#.e.e.r.r.r.r.r.r.r.r.r.r.#.@.#.#.X.X.X.) @ - ( > d F # a #.r.w.r.r.r.w.w.w.q.e.r.r.r.r.$.#.+.@.@.$.$.$.$.r.r.r.r.",
"#.@.@.#.#.$.#.#.$.$.e.r.r.r.r.r.r.r.r.#.@.@.#.X...X.| ) # - ( - d G # a @.q.w.r.r.r.r.r.e.r.e.r.r.r.+.| X.X.+.+.$.#.#.#.$.$.r.r.",
"#.#.$.@.@.#.#.@.@.#.#.r.r.r.r.r.r.0.#.#.@.Q M X.| | | G O + P & j q O :  .@.@.#.` U 0.r.r.0.w.r.$.#.| X.| X.| X.$.$.#.#.$.$.$.$.",
"#.#.0.@.@.@.#.@.#.#.#.#.$.r.r.r.e.n * s 0 @ t ~ | } } l O o K > j 4 O %  .@.@.@.d y 3 j r 8 O.$.#.X.X.X.X.| X.X.+.+.+.#.$.#.#.#.",
"@.@.#.@.@.#.@.@.@.@.+.#.#.#.r.r.0.q       - & 4 ~ } | S o O g & q * O %  .@.X.F + u O X X % ^ | | +.X.X.| X.X.X.@.#.+.#.$.$.#.#.",
"O.@.#.@.#.@.0.#.#.#.@.#.q.#.r.r.o.& X     t O o @ l X.M o O # # # + o %  .! 9 O X t # X X 1 l | | X.| X.| X.+.#.+.@.#.#.#.#.#.#.",
"X.X.@.@.+.@.#.$.#.@.#.#.#.w.r.r.L o @     u o o + i ^ z O O + > # + O *  .v > X o & 1 X o t = } X.| | X.| +.+.+.+.+.$.#.#.#.#.$.",
"X.X.+.+.+.+.#.#.#.0.#.q.w.r.r.w.7   &   o i X o i % L D # + # > # # # <  .: y & X # i X & 1 O L X.......X.+.+.+.+.+.#.#.#.#.$.r.",
"X.+.@.+.+.X.+.@.+.+.#.w.r.r.r.W .   & o > t O i > o s ( T % # # # + s T / @ O u & o N + i # o 9 ..X...X.@.+.+.+.+.@.@.#.#.$.r.r.",
"e.$.@.+.+.@.#.+.#.+.w.r.r.r.o.=     . > i & p 1 o o + / O.* + & # + F +.e o X + p > p t u X X o H q.X.#.@.@.+.+.@.#.@.#.$.r.r.r.",
"r.e.q.$.@.@.#.#.#.q.r.r.r.q.H O X . . > C C 1 o X o o 6 O.$ # > # + z L + X X X O p C A & O + & y 0.w.#.@.@.@.@.#.+.#.$.r.r.r.r.",
"r.r.r.r.w.q.q.$.q.r.r.r.$.$./ Y S b x x %.&.i 1 + o X o 8 + # & # + : @ X X o & t B *.Z V R E _ 3.q.r.w.$.#.@.#.#.#.$.r.r.e.#.#.",
"r.r.r.r.r.r.r.r.r.r.r.q.#.#.$.#.8.+.O.o.2.,.>.:.&.C i > + o # # # + O # t p A *.:.>.1.] o.X.O.#.q.r.r.r.w.w.w.$.$.r.r.r.r.#.@.@.",
"$.w.e.r.r.r.r.r.r.r.q.#.#.#.#.#.@.+.X.+.+.0.O.5.2.,.>.:.&.c # - # > A *.-.;.<.4.o.X.#.#.#.#.+.#.#.$.w.w.r.r.r.r.r.r.r.$.@.@.@.@.",
"#.#.#.e.r.r.r.r.w.$.#.#.#.#.#.@.+...| ....+.@.$.@.@.O.6.1.c @ > # > =.6.9.7.#.#.@.@.X...X.@.+.@.#.#.#.q.e.e.r.r.r.r.$.X.+.| +.+.",
"#.#.#.#.$.r.r.r.w.#.#.#.#.$.#.X...| ........+.#.#.#.#.#.#.W y # - v 0.r.$.@.@.@.#.X.....| +.#.@.#.#.#.#.$.r.$.r.r.$.+.X.X...| +.",
"#.#.@.#.#.$.r.r.r.#.#.#.#.#.+...} | | ......+.#.@.$.#.#.0.@. .> n w.w.#.@.@.+.@.X...X...| X.@.#.#.#.#.#.$.r.r.r.$.X.X.| X.X...X.",
"#.@.#.#.#.e.r.r.r.r.#.#.#.@...| ..........X.+.#.@.@.$.0.$.#. .- m e.#.#.#.#.#.X...........X.#.#.#.$.$.#.$.r.r.r.+.+.| | ....| +.",
"#.+.#.#.$.r.r.r.r.r.#.#.#.@.| | ..| } | X.+.#.#.$.@.@.@.#.@.{ 7 m $.@.#.#.#.X...........X.#.#.#.#.#.$.$.r.r.r.r.+.| | | ..X.+.@.",
"#.#.#.$.r.r.r.r.r.r.r.#.@.@.X.....| | X.#.#.#.#.@.@.@.$.@.$.O.; k #.#.#.@.X...X.......X.+.@.+.+.#.#.$.r.r.r.r.r.$.@.| | X.+.+.+.",
"#.#.$.e.r.r.r.r.r.r.r.#.@.@.@.X.| | X.+.X.+.#.#.$.@.$.@.$.e.O.7 k #.@.@.@.......X.X.@.+.@.@.+.@.#.#.r.r.r.r.$.r.r.$.@.+.+.+.+.#.",
"#.#.$.r.r.r.r.r.r.r.e.e.#.@.@.@.+.@.+.X.X.+.#.#.$.@.#.q.e.r.7.> k #.#.+.X...X.#.+.@.@.+.+.+.@.#.$.r.r.$.r.r.r.r.r.$.#.@.+.@.#.#.",
"#.$.r.r.r.r.r.r.r.r.r.e.e.#.@.#.@.@.#.X.+.@.#.#.@.@.e.r.e.e.7.> k q.$.#.#.#.#.#.@.@.@.@.@.@.@.#.$.r.r.r.$.r.$.r.r.r.#.@.#.#.#.#.",
"$.r.r.r.r.r.r.r.e.r.r.e.r.w.$.#.#.@.#.#.@.@.+.#.$.$.r.r.e.e.7.3 F r.r.$.$.$.$.$.#.#.+.#.$.$.$.$.r.r.r.$.} | X.#.e.e.e.$.#.#.#.@.",
"r.r.r.r.w.$.w.q.r.r.r.r.r.r.r.$.@.@.@.@.#.@.@.$.r.r.r.r.q.q.S # 2 $.r.$.$.$.$.$.#.@.#.$.@.$.$.r.r.r.#.} ..| X...#.e.e.e.w.$.#.@.",
"r.r.r.#...X.+.X.+.w.r.r.e.r.r.r.$.e.r.$.#.#.$.r.r.r.r.$.#.#.h & 5 { r.r.r.r.r.$.@.@.$.$.#.$.r.r.r.#.| | } | | | X.#.e.e.e.r.e.w.",
"r.r.@.@.+.X.......X.w.r.r.e.r.r.r.r.r.r.r.$.r.r.r.r.$.#.@.$.j # * { $.r.r.r.r.r.$.$.r.$.r.$.r.r.$.X.X.| | | | | +.@.#.e.e.e.r.r.",
"r.$.@.#.@.....| ..@.#.#.w.r.r.r.r.r.r.r.r.r.r.r.r.$.@.@.@.+.I $ 8 X.#.#.$.$.r.r.r.r.r.r.r.r.r.$.X.| | +.| | | @.+.@.#.#.e.r.r.r.",
"$.#.#.@.@.@.+.| +.@.@.@.#.$.r.r.r.r.r.r.r.r.r.r.$.$.@.@.X.X.I @ 9 X.#.#.$.$.r.r.$.r.$.r.r.r.r.$.X.X.X.X.| X.X.@.+.+.#.#.#.e.r.r.",
"#.#.#.@.@.+.X.@.@.@.@.@.@.#.$.r.r.r.r.r.r.r.r.$.#.@.@.X.| | [ F T +.+.#.$.$.$.r.r.r.r.r.r.r.r.$.X.X.| | X.+.@.@.#.+.#.#.#.$.r.r.",
"#.#.@.@.X.....+.@.+.@.@.#.#.#.r.r.r.r.r.r.r.$.@.#.@.@.X.X.X.| +.@.#.#.#.$.$.$.r.r.r.r.r.r.r.r.$.$.X.+.X.@.@.@.@.@.#.#.$.$.r.r.r.",
"@.@.#.| ........+.@.@.@.@.#.#.e.r.r.r.r.r.r.#.#.@.@.@.#.X.X.+.#.#.#.#.#.#.$.r.r.$.$.$.$.$.r.r.r.r.#.+.@.@.@.#.#.@.@.#.$.r.r.r.e.",
"#.@.+.| | | ..+.@.@.@.@.@.#.w.r.r.r.r.r.r.r.$.$.@.@.@.@.$.#.#.#.#.#.#.$.q.r.r.w.$.#.$.$.$.r.r.r.r.$.$.$.#.#.#.#.@.#.$.r.r.r.$.#.",
"$.#.@.X.X.....@.@.@.@.@.#.$.e.r.r.r.r.r.r.r.r.$.$.#.#.@.+.#.#.@.@.#.#.$.w.r.r.#.@.@.@.+.$.$.$.r.r.$.r.$.$.#.$.$.#.$.r.r.r.$.$.$.",
"r.$.@.@.+.X.@.@.@.@.@.@.$.r.r.r.r.r.r.r.r.r.r.r.e.w.#.+.+.@.#.#.#.@.#.r.r.w.#.$.#.@.@.@.$.#.$.$.r.r.r.r.r.$.$.$.e.r.r.e.$.#.#.#.",
"r.r.e.#.@.#.@.+.+.@.@.w.r.r.r.r.$.#.#.#.$.$.r.r.r.r.e.#.#.@.@.#.#.q.r.r.q.#.+.X.X.@.#.@.#.@.@.$.$.$.r.r.r.r.r.r.r.r.$.#.#.#.#.#.",
"r.r.r.r.$.#.@.@.@.@.w.r.r.r.r.$.#.@.@.+.#.+.#.e.r.e.e.r.$.$.$.$.q.r.r.0.X.X.X.X.X.X.@.@.#.$.@.@.$.$.r.r.r.r.r.r.r.r.$.#.#.#.#.#.",
"r.r.r.r.r.e.#.#.#.e.r.r.e.w.#.#.@.+.+.+.@.#.+.#.r.e.r.e.r.r.r.r.r.r.w.#.X.X.X.X.X.X.@.@.#.#.@.@.$.$.$.r.r.r.r.r.e.#.#.#.#.#.#.#.",
"r.r.r.r.r.r.r.e.r.e.r.r.w.#.#.@.+.X.+.@.@.+.@.@.#.r.e.e.r.w.r.r.r.r.q.#.X.X.X.+.+.#.#.@.@.#.$.@.@.#.$.$.r.r.r.r.$.#.#.#.#.#.#.#."
};
