/* XPM */
static char *_bf627de98ab4dc2aa95d822cc60796bbGBnmiq9DZ618BsX[] = {
/* columns rows colors chars-per-pixel */
"64 64 58 1 ",
"  c #080B3F",
". c #080C40",
"X c #0C0E41",
"o c #090C45",
"O c #0A0E4B",
"+ c #0C0F4B",
"@ c #0A0E4E",
"# c #0C0F4F",
"$ c #0B0F52",
"% c #0B0F54",
"& c #0C1051",
"* c #0D1156",
"= c #0C1059",
"- c #0D115F",
"; c #0D1262",
": c #0F1364",
"> c #0E136A",
", c #0F146A",
"< c #0E136C",
"1 c #0F146F",
"2 c #10156E",
"3 c #0F1572",
"4 c #0F1574",
"5 c #101570",
"6 c #101674",
"7 c #10167A",
"8 c #11177E",
"9 c #111780",
"0 c #111883",
"q c #121885",
"w c #12198B",
"e c #131A8E",
"r c #131B93",
"t c #141B91",
"y c #141B94",
"u c #141C9A",
"i c #151C9C",
"p c #161DA3",
"a c #161EA6",
"s c #171FA8",
"d c #171FAC",
"f c #1820AD",
"g c #1720B0",
"h c #1820B1",
"j c #1821B4",
"k c #1921B9",
"l c #1922BD",
"z c #1A25C3",
"x c #1A27C5",
"c c #1B35C9",
"v c #1B3BCB",
"b c #1E60D6",
"n c #2195E3",
"m c #219BE3",
"M c #2198E4",
"N c #229FE5",
"B c #4AB9EB",
"V c #98D8F5",
/* pixels */
"..... ....7..... .  .-....#.*.. ..... ...............O.... .... ",
"......=...O.....  ... .......O. ...........  . ......@ .........",
"....... ........... .. .O...........8:...*.   ..... ........ .. ",
"........o7....... ............. ........ .. .. ........O$.... ..",
"........ .......$w.... .... ....... ...$......   f........... ..",
" . .  .........oa%.... .... ...........w..o-.....2.. ...........",
".. .. . ..O.......=...... ......>....$.....w. .......  .........",
".... . ..... . ..;..... ........s.7=.  .. .l ...................",
".......%O................ ......%...O:#....*.......@...... .... ",
"...... o. ... ..... ..... ..... ...&O.  .. . .   ..3... .  .....",
"...... ..Ou........... .. . ................. ....o7..... ......",
".. ....oo............  ....O.% ..o.=:......# ..@ ..=. ....   . .",
"......O..  . .... $........#. .....@%. ... %...;....... .... . .",
".. ...... ... ....w..... .... ......... .. ..... ...... ......  ",
".. ......................... $O........ ..........  . . ........",
"... ... . ;u... .....%..... . ......4............;... . ..... ..",
"......  ......... .. .. .... .......k.........s4.j..............",
"....ouMl;....   ...o....8...  .;...  . ............ .... @9ka1..",
"...... .>.......... ..............d ....  .. .. ...  ....... .. ",
"....... 7............... ......o.   ;... .. ..........j-........",
". .... . ... ....  ............;....=.. .. .... ... ..... .. . .",
".. .. . ..7. ..................q.....o...... ....3 .............",
". .. ....$N$...@.. .... .... ..pO....k..... .... g. ...... ..  .",
".. ..... .:.t.....;...... . ...<...oO;...... ..-0B8=....... ....",
"........ .. :.....<.......@....$..--O............z....O.........",
" .... .  .... .............. ........... ..  .$..q....*.........",
".  $..... ...........  .o...82... ;ddjq*.  .. ...O...... .......",
"...O........=7 .........X. ....o ....o...... ...  ..............",
". ......   . ............... . ...-......... .. ... .. . ..  ...",
"......... ......Oo........ .... ..%  ....... .. .....  .... ....",
"...o....... ............ ... ..... ,*6.......... . .... .... . .",
".. . .............. . ........... .%Oo.=a ... .............8  ..",
". . -O ..... .....  .........l..........  ...... .. .y ...%c=...",
".....  .. .*..  .........$O. ... . ................... ....e... ",
"...  ......o O* ......O@.......O. . . ..O... ...O. ... . ..$.. .",
".... ...w........3. .. ...  .O @...... .*..... ..  ....  ....   ",
"..*.....v.... ..... ..%. o.......... ......... . O   ...... ....",
"...  . .z. .........o.a..%..... .................$. ..* . ..... ",
".#..... 6. . ... . .*.o. 9O.......... .. .....  ........... ....",
".O..... ..  ....... ...$.7%=........ ............ . .. ...... ..",
"..... .... *...........w.$........... . .... .... . O3.... .X...",
"...... :...i....... .;,l.o.. .........;.....  ... ...... ....  .",
" .. ..... .n ...  .....d. .... .... ..s.......... . .........  .",
" . . ......m. .........3........w.....0. ...o.. ..... ..;... ...",
" ..  .....;i...........  .... ..:. ..$@  .-.7 .  @.....Os.......",
".... ... . @. ............ . ...... .... .@.=....p......$ .. .. ",
".   ..  ........... ..... ............... . ..  ..  ....... .. .",
" ..... .....q......... ... .........   . . ....... .. .. . .....",
". ..... ................  .... . .... ..... .o.... .........@ ..",
" ....... .... .......2-.... .....$  . ...   .3.o. ... ....... . ",
".. .&O ....  ... ..:..6...Oo.. ..o... .$ ... a.-................",
"X.......*.............a................   OqxVk7. .o.......-3...",
". .........+... .....Oj.. ......rl>.s. ......p........  %... ...",
".....w*..5hbu%.....o..q..........X    ...  ..6..o. ..6. ... ....",
".... .. . .O.. .....$o=.......... ....:.... .o. . ...3......,...",
"..a@. .....Oj ..............   .........3..........71..  ..... .",
"o.......  ...$... .. X...... . .......................%...... ..",
"..... ..... .q.*......... ..o ...........  . ..... ...:  ... .. ",
". ..... .....k........... ..7...;. $..... ....wO.......o=  .. ..",
"....8u. .....a............. ..... ....  ...... .......  .  .....",
" .... .. ....:......... . ....... .... ...... . ......... .... .",
"......  ....... .....<  . ...... ..... ....... .............. ..",
".......... ............. ..... .................. . .  ....... .",
"  ............. ....... ........... .... .... .... . .. ........"
};
