/* XPM */
static char *_fa97e29f7224060f6b1f26ccb797e69uKWBCsHEb9U7HAry[] = {
/* columns rows colors chars-per-pixel */
"64 64 160 2 ",
"   c #B3AF54",
".  c #BBB657",
"X  c #B3B35C",
"o  c #BCB55C",
"O  c #BCB95D",
"+  c #BCB662",
"@  c #BEBB63",
"#  c #BFBB6A",
"$  c #C0B65B",
"%  c #C2BB5D",
"&  c #C2B762",
"*  c #C3BC64",
"=  c #CABE66",
"-  c #C4BE6A",
";  c #C9BE6A",
":  c #BFC060",
">  c #C5C265",
",  c #C9C266",
"<  c #CCC967",
"1  c #C5C36C",
"2  c #CBC46D",
"3  c #C6C96C",
"4  c #CCC96D",
"5  c #D0C766",
"6  c #D0C66D",
"7  c #D2CB6E",
"8  c #D1D36F",
"9  c #C6C572",
"0  c #CBC573",
"q  c #C7CA73",
"w  c #CDCA73",
"e  c #C7C67B",
"r  c #CECB7A",
"t  c #D1C672",
"y  c #D2CC74",
"u  c #D9CD75",
"i  c #D2C779",
"p  c #D3CD7A",
"a  c #D9CE7C",
"s  c #CED175",
"d  c #CFD27C",
"f  c #D4D175",
"g  c #DAD376",
"h  c #D5D27B",
"j  c #DAD47C",
"k  c #D5DB7D",
"l  c #DCD97D",
"z  c #E1D57D",
"x  c #E2DA7D",
"c  c #E0E07E",
"v  c #D4CE82",
"b  c #DACF82",
"n  c #D6D382",
"m  c #DBD583",
"M  c #D6D982",
"N  c #DDDA84",
"B  c #D6D688",
"V  c #DCD68A",
"C  c #D7D88C",
"Z  c #DFD98C",
"A  c #DEDB8A",
"S  c #DEDC93",
"D  c #E0D581",
"F  c #E0D787",
"G  c #E1D684",
"H  c #E0DA83",
"J  c #E3DB87",
"K  c #E0D884",
"L  c #E1DD84",
"P  c #E3DD85",
"I  c #E3DE84",
"U  c #E0DD87",
"Y  c #E2DF87",
"T  c #E0DE86",
"R  c #E5DE84",
"E  c #E4DF84",
"W  c #E4DC84",
"Q  c #E2DC84",
"!  c #E9DE87",
"~  c #E2D789",
"^  c #E1DB88",
"/  c #E2DA89",
"(  c #E1D98A",
")  c #E5DA8A",
"_  c #E2DE89",
"`  c #E3DF8A",
"'  c #E4DC89",
"]  c #E4DD8A",
"[  c #E1DF8D",
"{  c #E2DD8E",
"}  c #E4DD8C",
"|  c #E5DD8D",
" . c #E4DC8D",
".. c #E5DF8C",
"X. c #E4DE8D",
"o. c #E3DC8B",
"O. c #E9DD8B",
"+. c #E3DA91",
"@. c #E4DE91",
"#. c #E9DE91",
"$. c #DEE185",
"%. c #DEE188",
"&. c #DEE08C",
"*. c #DEE092",
"=. c #E3E185",
"-. c #E8E087",
";. c #EAE286",
":. c #E1E188",
">. c #E3E08A",
",. c #E5E188",
"<. c #E4E18A",
"1. c #E5E18B",
"2. c #E4E28B",
"3. c #E3E78A",
"4. c #E4E08D",
"5. c #E5E28C",
"6. c #E5E18E",
"7. c #E4E28C",
"8. c #E8E088",
"9. c #E9E38D",
"0. c #EAE28C",
"q. c #ECE78C",
"w. c #EAE38D",
"e. c #ECE98E",
"r. c #F3E48D",
"t. c #E5E192",
"y. c #E5E292",
"u. c #EAE190",
"i. c #E8E391",
"p. c #E8E193",
"a. c #E8E492",
"s. c #EFE792",
"d. c #E8E394",
"f. c #E8E395",
"g. c #EBE294",
"h. c #EAE695",
"j. c #EDE695",
"k. c #EEE794",
"l. c #EBE493",
"z. c #E7E890",
"x. c #E5E891",
"c. c #E9E891",
"v. c #EBE891",
"b. c #ECEA94",
"n. c #E4E39A",
"m. c #E5E59A",
"M. c #EBE298",
"N. c #EBE69A",
"B. c #EDEA9B",
"V. c #F0E596",
"C. c #F1E694",
"Z. c #F1EB95",
"A. c #F2E49A",
"S. c #F2EB9B",
"D. c #F5F19C",
"F. c #F8F49A",
"G. c #EDEEA0",
"H. c #F4EEA3",
"J. c #F2EBA0",
"K. c #F9EEA3",
/* pixels */
"N j 4 w 0 2 4 > 2 m y j 4 h j y / N Y j f y 2 q j a 2 m N j c.H.h.m N | Y f B j 0 y i j y Z j 2 h 9 7 <.9.P j V 1 N 1 2 u > 9 9 ",
"w w 2 1 w h h % O f y y | m w / M.k.k.l y a y 9 a N 3 h w * ' y.P ) q.>.n.0 N y h n j f j 2 h N h j C 6.j q j g 3 2 - 2 + n * N ",
"y & 9 1 1 < w w j 9.6 p p y , g.' n x h y y > j j j l f 6.i o H N 8.W f j 3.g.y p $ h j ' 2 y , D | K <.y u j x 2 p 0 y + y { + ",
"j y j e - 6 w y n p p m K j A p.{ y a A p n ; N h p w a p h Y 2 m c.z.| j +.-.N j w j h N Y g <.| j p.o.j g G 1 g . w p 1 y w n ",
", 2 y r p > 1 0 p y m l y 6.%.>.<.m t j n t w h 2 y 2 h t a w N A v.V.<.j 7 N Y g.k.j y y n Y i.N P o.j p.j 4 j y > p w m y h / ",
"j w 2 j K 0 l h h 2 / / w :.{ q.w w a * ; * h q # a h m 9 4 j S.' 9.A N.;.-.6.9.o.' H ) 9.' H N 6.A n Y K p.n ' s w =.a N y 0 4 ",
"D 7 g 2 j w f f j j / v / N { h N 0 h 1 i * 7 y h 0 2 h 3 C 2 p.e.q.9.*.C A V h P S.b.J.A K 6.9 t j S Y e.i.o.N h w 4 y A y t , ",
"A n p N y f w 4 g / w i.| H y.n j j N m w p N l : 0 > j a g A j 6.m g A y y y K 9 A Y V.E N a n ~ y u n j N a j j y.N j m p 1 y ",
"N { A j w p a 4 q g N y.=.O.j 2 C p 1 w y ; p 2 p - h j p y./ 0.8.Y h G n p m g N 4 { | 6.y h & i Y m y L w ) l ' y.a ' 6 m 2 * ",
"W 6.N g./ j B.Y V.) P N.V l V.m y j K p 2 = 9 p h , p 2 >.@.N 6.g.y p h A a Z y g t j Y r h j j a N r y p y n m 9.h.>.j D <.@./ ",
"n p ,.o.N 9.9.A N 6.K N.W 9.N o.m N N f w j h h g 0 9.{ 7 y.b.B.=.h h 0 f a n 2 4 j m h p 2 N M h 1 n y 7 y y p j h Y Y { j H ' ",
"g j y y.k.| g.p.N >.9.a V.#.o.v j.j o.j r w m 2 j i g.M K { K w y j y y ; 0 l y P 2 j m 2 q m m 0 * ; , 2 i 2 N i a ' N 9.~ l Z.",
"N p j 2 m S.h O.{ :.y p 0 p 4 z w Y @.8.N h p g j l { :.P B a h y n 0 % 1 4 2 K p N q y y N l 0 o w 2 0 9 N h & f N ! | y.Z p.A ",
"m n y y f A P C { j y f y b 0 , a w j k.i.A i.o.g.9.y ~ m N f p < 0 > w f m q + y j y o.2 7 0 w 2 g y y 7 j 0 a y y y./ m | % | ",
"p w , Y K y y.8.N 0 9 * N 0 y 0 a p y N p N 9.l u l H 6.6.H h ; 0 w j p A m 4 0 0 y h l p 1 g w > i w 3 j w | j p @.m A >.V n h ",
"p w N y f i A V D w l y 0 q ; h p A h 9 | y { N 6./ O.k.A 9 4 > 0 + 1 2 y 2 p t j 2 j p p i w f 9 w w , 2 l t p w / B.p h y n v ",
"2 N h h N 0 y./ x 2 y y 2 , y w 2 q w r y m N ! h | j.{ S h k g / * 0 ; > h - G l p 0 w j h w y y h V p y 2 f a y.;.i.m.r i h r ",
"h 1 w w j y.C.W h h j 2 2 p - p 9 2 y G K j Y g D p o.m V >.n 6 V.m 4 4 N f 0 m 2 a j r w h y y 2 i 9 f y j / ~ W P { p s p y 7 ",
"y j 2 3 N m Y #.w M A w 2 4 Y 3 r p w j y o.a K H #.! N ,.9.h h y y y 4 h > y h y N h b a D h m 1 h / l y n w 9.Y | -.j j j j % ",
"M 4 h j k.N Y A / y s 0 2 0 r ; 7 h 6.N Y y.j N 6.j P 9.N H N < 3 j 0 ; y * j j j f y N y y B g y 0 2 h / l y.y 9.o.j 4 2 y N p ",
"G h S.o.m <.S.y.h l f = > w G u N g h a B.K 9.A i./ v.{ W N.6.N j 6./ h j 2 2 m K 2 m w y 4 / a y y o.y p.Y / j #.K ' N j j j y ",
"A @.N A S.6.6.9.H w d w p ' h h w N p | o.m 9.O.A w m j j =.Z i.y.Z A m h a a h h N u y w h w 9 j ; y m y./ y.y N 6.i.o.m.) 1 j ",
"j z j A i.g :.B.j Y j 3 w w 0 y 2 3 N { / o.m ' 2 f + N / r y 9 ' o.w 0.r.;.y , j o.j 2 H N y w p p A @.6.j w.o.m 9.6.g.i.h.* 9 ",
"' y.h.y n.m <.@.m Y j.y N 6.b ' N Y Y j A y.y j N y y 0 j n y p j y O.N Z.m j G m f m y 2 9 f p y E 9.y A j j j N A N $.{ / N j ",
"B.z | < q D B.N.@.N K b M 5 h m | e.+.E ' m j p s ; 9 4 y p w h N p G N 6.v.j D 3.k.f a L p j m x m a n 9.2 H l l n n 9.<.g.E <.",
"N 2 j i n f r Y V j p.' N Y k.>.m 9.N N j l j C i 2 3 w M i N i w a h w N >.j j N q.P g.{ b.j p.| 6.y.j j 9 p 2 4 l N h y.m ) m ",
"h p M i K M h f a { #.6.j >.y.9.A N ' f w m h y p - a 1 q p y 8 2 , p v l ) ,.x.Y Y 3.y.@.w | 8.N / r j j 0 ; w 0 f a y j j b h ",
"h y ; j m y 1 h M y ; j.n A k.p.j.:.j k m 9 p 0 f 2 w * 0 h w j A A 9 0 y r j 4 N L g.g.<.6.~ 9.W w ; > > 2 @ h m h g D * j y K ",
"f * p 2 g N v h h M $.y.N H z 9.Y 9.0 h 0 h i r - 2 2 * 1 t m g p f x h j :.o.j j i y./ Y <.| N h A r 1 w p 1 2 3 m B y N j y f ",
"h a N N y f y j 2 o.y N j w %.) 8.k.i.f 6 N r h   + h p w 0 p j m y h w G y h w i i @.N j t A h 2 h @ V w 2 @ 1 j 2 2 w r f K 3 ",
"0 h M m 2 H h j j m z 1 m 0 N V z A V g.f 0 0 j % / < j 9 p y t y h < j y w j p h p | i.A g.> 0 9 2 p O 9 j h j p y h j j.2 H j ",
"v w N h y 6.N i n n j y a j 6.y.N c.k.o.j h A h h f A ; b ; y y p 7 g n i 0 p , n N { >.y.y.2 w Y & q 0 4 r 2 > y m o.p ! 0 ) m ",
"h < j K 7 2 h f w 4 p j | i.y.%.g j D o.N.B.y.N j p m N N 0 1 y w 2 4 p d 1 m w A a A =.y.G j 0 1 V 1 w & u f h f p w 0 C j <.o.",
"m y 6 g m j 0 A 2 C h | S.j A f a h l j.E @.S.m f y 9 2 j p V * h y n n i p h Z.A Z o.f j.{ C.y j h 4 ; y p w 7 G l y ; 2 y n W ",
"m y o.j x N N a 9 p 6.p.{ S.N 7 w m w w c.y.:.>.9.#./ h h h p j N f h h j j N Y 6.6.' j <.N o.j 6.4 h x w f h j j f y b A.x j O.",
"N h.w 2 y.j p r p m L z { y 2 p y f y y q k.i.K / K Z ' o.; t m 4 y G j y N N N.p.! j 6.l m N M 3.m m A 2 y f 2 r r a v.h f P D.",
"m A @.9.| l | a y.{ 9.N 3 N y = y y h y f ,.m p q.j A j.Z.' h l D d Y 2 h.K p l N w j p y 3.H ' :.m k.p y z 1 h j y #.j x.D p M ",
"h.q.h.P Y y.j.,.=.l 9.l m j N l n f w y y N y 2 n p ! :.j h.Y h.| N N Y j y.| m p w l N q h g a j <.B.8.x P j 9.Y p y.B.h.j n l ",
"b 3 N j | m f y.h.j n x h t K f t 0 # N y D j p y h m x Y 9.;.+.i.A g K 9.h p j b ) w A j w p y 7 3 l o.m N M j ! D.6.P w y j j ",
"j p w 9.i.! K Z.@.m p y j y h j 4 y * - j y y.0 y N w 6.w N f G y.:.M x.Y w a N g < & w v p r * 9 f <.H j H / 8.N y.y.w 2 h 2 * ",
"q N q r t <.l #.9.p h j 3.h 4 f h 0 , 2 9 - w Z 6.l j g w m N B.A N i.W y w j < p w y w p j p j N 2 { 4 7 o.n y.c N q i n - & N ",
"j j f N i 4 @.' o.a y f p p 4 y ; j - i > 2 h g y m N x h y l ' j / m 2 a Y K p 9 9 2 1 q - w 0 p N m j N y.O.K 6.9 + w 0 2 t 0 ",
"t w j 6.h g A 9.9.m.4 y N j 9 2 2 2 4 y + f 9 f j u y w w g f y.{ g.a j ' y j 0 j i r y 9 y y m a f w 0 G ' l >.2 f > w y 1 y 2 ",
"N 0 0 h h O.a { 3.k.g h j 9 4 9 w 0 ; h a K p h t p m p w y p N H h j m a w r w 0   q @ n p N y a f D B.A o.p.q.w > 2 @ s # N h ",
"y j 2 &.h.q.f c.A ) 8.A N w * y w > 1 w 3 n o.u m j r M N C k.W | f o.y N m y h h N g a w m m N y j / N l 9.<.h ) h 2 0 a 0 0 2 ",
"N h i | S.| j N 9.j.6.2 N s 2 0 2 + 0 i 1 w f m p w p m 4 j M ' m t h N n 2 h w y # y a 4 y j N P j ( D j <.y =.<.L Y 1 3 j N p ",
"m m g @.<.O.6.y.9.j Y N K y B j q j 4 0 2 4 H 6.D n y g k.| y.L N y y q j f & 7 y j 0 w f * t n j o.' @.n n o./ p.m p y h 1 n 4 ",
"m ~ Y j 8.m / z K m ' 0.n m h m p j j 2 G a p C p n j 6.N i.Y Z { L N j y w y w a 2 < j < a z j y w.A g.j i.P j 6.-.y j 7 E l j ",
"<.@.' i.h.g.M A k.n.l H 6.y 9 m a 9 w y w 2 4 h > m V N A e.y m J.G N j g j y 6 l w a j y y N %.N / g.4 1 1 0 f W / j > y y H N ",
"B.| 6.m S S o.i.{ H K F.P y.m j 7 i n 2 f p.B k.6.S.' g.h r q , n o.N N N m n p.f 2 h h f y o.) P N O O q 1 = 3 j ~ l 9.f n v 2 ",
"x b.K h m 1 q n r P m j y n | N @.j K p 9 y m B.x ~ H N p Y A y y j K 9.' y.P { p p n 4 q 9.| 9./ + > ; y 0 # > 1 N w.j N | 6.h ",
"y.y j 2 h 0 y @ 2 2 { y.E K L N 6.B.m l j C ' K.@.<.h j w 4 y y j 3 g N Y y.e.! j $.6.;.y.K A y 2 w 1 0 ; w 2 3 y h 3 A K y.{ 6.",
"K g j N 2 > p # N y p / <.a x.a | g.l B.9.y o.N 8.< Y r u j j 0 h 1 0 9 9.:.J.m W N.9.V &.N j.- g 0 p a > 2 p f 4 p p n ,.j o.y ",
"p 0 j h 1 = > w r w 2 y.o.h N.6.h.A >.o.m { D j N y h 2 2 , i 2 j w m j h x y.' Z.V 9.:.Z A ' 2 y y N v h 2 h 0 1 j a w 0 o.9.n ",
"G 0 y w M i w q 2 m 4 x n.h V N S.m K N N C.L N j 2 A p 9 o > p y w l i , w N O.N ' h.g.6.8.o.N h y 3 h 4 3 f 2 t * N * y K o.N ",
"j g.t y 1 X y 2 y g w l m p u y.m 6.n.n.{ W y y j y u v w 1 j y y w 1 t p p 6.m.K { ;.K C.P ! f #.0 * f j 2 N n j m 4 2 7 N { N ",
"y y N 2 p $ N 2 p h w h m 9 N ' 9.9.g.y 6.y.7 w a H 0 y y * o.4 y y B p q a ,.P q.Y c.j.g.@.N.l l y r y a y h j j m 4 2 N f n V ",
"y N Z 2 0 p m f 4 > 6 h / t <.' 9.x.m A g.m A w p ' 2 t l h p g p h n t h / j N.n 6 l < y w.k.h &.e.g w y a w 0 u h < y.! A w l ",
"{ G h 1 y p 0 y 3 y j w h A z N.6.p.9.N | b / g g y t p n u N 2 m 9.N < o.P A n h w y p p 7 i./ W ' m.H j w m z m , N j ;.f h w ",
"B.y v a w + A h u h n u <.Y 9.9.{ j N N / t g K x 6.h j O.N y h u j j 7.~ 6.f 2 p n p y y y h @.Z =.m 6.A P p.A a N v.Y f h 3 j ",
"p.| b g y W K p n w 0 i.p.k.6./ a 2 V 0 g r h.y.' j 9.j y p h h y t ' B.y.a w m s y 0 j j N p j i N A.6.a | j.x l B.o.h h y < w ",
"<./ o.C.y h y O y j k.G.{ t h.A y H j m N t q w.A o.n y i y w 3 w y.| / N n 6 w 0 w p l C y y r 1 j m g.Z.o.V.| y.9.9 9 7 g N 1 ",
"@.9.:.N | x.A h j 9.| 9.m N h a y y 0 N p 6 , p ,.N N ! 6.K ' ;.a a ' g p * y p 4 = A 2 j y N b n p p @.A N N @.p.h a p g N 0 y ",
") W N / h.h.) { a 8.v.! ) 0 h y * p u f f h r a p / l j o.v.N x / | j A h 2 , 1 > h a r p K p j w N r p m G j k.a f p p h 4 g j "
};
