/* XPM */
static char *d197a740a2474110bd578a1c956e4060Fp5XXLWCJx4EJBQu[] = {
/* columns rows colors chars-per-pixel */
"64 64 14 1 ",
"  c #427367",
". c #99C693",
"X c #2F584E",
"o c #B5AF79",
"O c #24433B",
"+ c #EEF6B4",
"@ c #CDC68B",
"# c #DEE6A4",
"$ c #F6FABD",
"% c #D5DA94",
"& c #C0C287",
"* c #C5BE8B",
"= c #03120E",
"- c #061914",
/* pixels */
"                                                                ",
" ....XXXXXXXXXXXXXX...oooOOOOOOOOOOOOOXooo...  XXXXXXXXXXXX.... ",
" ..XXXXXXXXXXXXXXXXXX.+++oOOOOOOOOOOXXo@@@.  XOOOOOXXXXXXXXXX.. ",
" .XXXXXXXXXXOOOOOOXXXX+#+$oOOOOOOOXXXo@@@@ XXXXXXXXOOOOOOXXXXX. ",
" .XXXXXXXOOOOOXXXXXXXX#+$+#oOOOOOXXXo@@@@%XXXXXXXXXXXXXOOOOXXX. ",
" XXXXXXOOOOXXX  XXXXXX++#++#ooOXXXoo@@@%%@XXXXXXXXXXXXXXXOOOXXX ",
" XXXXXOO  &ooooo  XXXX&%#+++$$oooo%@@%@@%&XXXXXXooooo&  XXXXOXX ",
" XXXXOO &&++%@@*oo  XXX&%%#+#$+#+#@%@@%@& XXXXoo%++#+#&& XXXXXX ",
" XXXXO &++##%@*@@@oo XXX&&%++++##+%#%@&& XXXoo%%+#++$+##& XXXXX ",
" XXXXO &#++##@%@@@@@o XXXX&&##++#+#%&&  XXXo++#+#++$+#%%& XXXXX ",
" XXXXOo####+#%@@@@@@*o XXXXX&&#++#&&XXXXXXo+#++###+#%%%%%o XXXX ",
" XXXXOo++##++#@%@@@@@@o XXXXXX&&&&XXXXXXXo####++#+#%%%#%#o XXXX ",
" XXXXOo#++##+#%@%@@@@@@o  XXXXXXXXXXXXXXo##%%%#+++##%%%#+o XXXX ",
" XXXXOo###++##+%@@@@@@%@oo  XXXXXXXXXXoo#%@@%@%##++###++#o XXXX ",
" XXXXOo%%##$+##+%@%@@%@**@oo        oo#%@@@@@@@%##+$#+$#+o XXXX ",
" XXXXOo@%%#+$+###%%%@**@@%%#oooooooo##%@@***@@%%%%#+$$+#+o XXXX ",
" XXXXOo%@%##$$++XXXXXXXXXXXXXXXXXXXXXXXXXXXXXXXX%@%#+$#+$o XXXX ",
" XXXXOo%#%%#+$+#XXXXXXXXXXXXXXXXXXXXXXXXXXXXXXXX@@%%+#+$$o XXXX ",
" XXXXOo%##%%#+$+XXXXXXXXXXXXXXXXXXXXXXXXXXXXXXXX%@@%#+$+#o XXXX ",
" XXXXOo@%##%#+$$XXX   XOOOOOOOXXXXOOOOOOOOOOOXXX%%@%#$$+%o XXXX ",
" XXXXO&@%#%###+$XXXO======================== XXX%@%#+$+#@& XXXX ",
" XXXXO&%#%%#+##+XXXX=======================- XXX%%#+$++%*& XXXX ",
" XXXX.&#%%#+$$+#XXXX======================-- XXX##+#++#%@&.XXXX ",
" XXX..&%#%+$$+$+XXXO=====================--- XXX%##++##%@&..XXX ",
" XXX..&###$$+++#XXXO====--------------------XXXX##+$$+#%%&..XXX ",
" XX...&#%+++##%@XXXO====--------------------XXXX#+$+$$+#%&...XX ",
" XX...&%#+##%@@*XXXX====--------------------XXXX###++#$+%&...XX ",
" XXX..&#+#%@***@XXXX====--------------------XXXX++###++##&..XXX ",
" XXX..&+#%@**@@@XXXX====-------------------- XXX%%%###+$$&..XXX ",
" XXXX.&%%@**@@**XXXX====-------------------- XXX@**@%%#+$&.XXXX ",
" XXXXX&@***@@**@XXXO====-------------------- XXX****@@%#+& XXXX ",
" XXXXX&**%@*@@@@XXXO====-------------------- XXX*@@@*%@%+& XXXX ",
" XXXXO&%%@@@@@@%XXXO====-------------------- XXX**@@@@%@%& XXXX ",
" XXXOO&%%%%@@@@@XXXO====-------------------- XXX@@@@@@@@%& XXXX ",
" XXXX.&@%%@@%%@%XXXX====-------------------- XXX@@@%@@@@@&.XXXX ",
" XXX..&%@@@%%%%@XXXO====-------------------- XXX@%@%%@%@@&..XXX ",
" XXX..&%%@@@%@%%XXXX====-------------------- XXX@@%%@%%%@&..XXX ",
" XX...&#%%%@@@@%XXXX====-------------------- XXX%@@@@@##%&...XX ",
" XX...&+##%%%@@@XXXO====-------------------- XXX@%@@%##%#&...XX ",
" XXX..&#++##%%%%XXXO====-------------------- XXX%@%@@%%%%&..XXX ",
" XXX..&%%#++++##XXXO====-------------------- XXX#%%%%%%#%&..XXX ",
" XXXX.&*@@%#+###XXXO===--------------------- XXX%%%#%####&.XXXX ",
" XXXXX&@**@%%#++XXXO==---------------------- XXX%%%%#%##+& XXXX ",
" XXXXX&@@**@%%+#XXXX=----------------------- XXX#%%%%#++#& XXXX ",
" XXXXOo%@@@*@%%+XXX           XXXX          XXXX+######++o XXXX ",
" XXXXOo@@@%%@@%#XXXXXXXXXXXXXXXXXXXXXXXXXXXXXXXX#+++#+##+o XXXX ",
" XXXXOo@%%#%%@++XXXXXXXXXXXXXXXXXXXXXXXXXXXXXXXX%#+#+++$$o XXXX ",
" XXXXOo%%@@%#%#+XXXXXXXXXXXXXXXXXXXXXXXXXXXXXXXX@%++##$+$o XXXX ",
" XXXXOo%@@%#%%+#+$++###+##++oooooooo#@@****@@@@@@%%+##%##o XXXX ",
" XXXXOo%%%%%%##++$+##+$$+#oo        oo**@*@@@%@@%#%#%##%%o XXXX ",
" XXXXOo%%##%#+++$$##$$$+oo  XXXXXXXXXXoo@@@@%@%%%%#%#%%%#o XXXX ",
" XXXXOo%##%#++#+$#++#%%o  XXXXXXXXXXXXXXo@%@@@@%%%#%%%%##o XXXX ",
" XXXXOo###++##+$+$#%%@o XXXXXX&&&&XXXXXXXo%%@%%%%###%###%o XXXX ",
" XXXXOo##++##++#$+%@@o XXXXX&&@@@%&&XXXXXXo%%%%%##%##%#+#o XXXX ",
" XXXXO &++##+#++##@@o XXXX&&%%@@@%%#&&XXXXXo%%###%%+++$+& XXXXX ",
" XXXXO &+#++#+#+#%oo XXX&&@%%@@*@%%+##&&XXX oo###%+$$#++& XXXXX ",
" XXXXOX &&++$++#oo  XXX&@@@@@**@%#%#++#%&XXX  oo##++$+&& XXXXXX ",
" XXXXOXX  &ooooo  XXXXX@@@**@@&&&&###+++#&XXXX  oooooo  XXXXXXX ",
" XXXXOXXXX      XXXXXX%@***@&&XXXX&&+##+++XXXXXX      XXXXXXXXX ",
" .XXXOXXXXXXXXXXXXXXXX@%@@%&XXXXXXXX&++++#XXXXXXXXXXXXXXXXXXXX. ",
" .XXXOXXXXXXXXXXXXXXXX%%%%&XXXXXXXXXX&+##%XXXXXXXXXXXXXXXXXXXX. ",
" ..XXOXXXXXXXXXXXXXXX.%#%&XXXXXXXXXXXX&%@@.XXXXXXXXXXXXXXXXXX.. ",
" ....XOXXXXXXXXXXXX...&&&XXXXXXXXXXXXXX&&&....XXXXXXXXXXXXX.... ",
"                                                                "
};
