/* XPM */
static char *_ea3c010a5954c9ed0a8bcff6059c9c5I0khhBlqFpIKdT8n[] = {
/* columns rows colors chars-per-pixel */
"64 64 209 2 ",
"   c #431616",
".  c #4A1717",
"X  c #4D1B1B",
"o  c #471818",
"O  c #531E1E",
"+  c #581F1F",
"@  c #562121",
"#  c #5B2323",
"$  c #542825",
"%  c #5D2B2A",
"&  c #5D342C",
"*  c #573028",
"=  c #5E3331",
"-  c #612626",
";  c #642A2A",
":  c #6A2D2D",
">  c #65312E",
",  c #69312F",
"<  c #643431",
"1  c #6D3131",
"2  c #653B33",
"3  c #6D3B36",
"4  c #653C3A",
"5  c #6B3E3B",
"6  c #733434",
"7  c #783737",
"8  c #753A39",
"9  c #7B3A3A",
"0  c #6C433B",
"q  c #6C4C3D",
"w  c #684338",
"e  c #74413C",
"r  c #7A413F",
"t  c #714E3F",
"y  c #6D513F",
"u  c #6B4840",
"i  c #734441",
"p  c #7B4542",
"a  c #734A44",
"s  c #7B4A46",
"d  c #754B49",
"f  c #7A4E4C",
"g  c #6E5541",
"h  c #6F5843",
"j  c #725245",
"k  c #75524B",
"l  c #7C534C",
"z  c #765D4A",
"x  c #7B5D4D",
"c  c #725B46",
"v  c #7E5452",
"b  c #7D5D52",
"n  c #76604C",
"m  c #7B624E",
"M  c #7D6353",
"N  c #7E6956",
"B  c #803F3F",
"V  c #824141",
"C  c #844947",
"Z  c #834D4A",
"A  c #884C49",
"S  c #84514D",
"D  c #805E4E",
"F  c #8B5551",
"G  c #855B54",
"H  c #8B5A54",
"J  c #895D5A",
"K  c #835856",
"L  c #945A55",
"P  c #945E5A",
"I  c #9A5E5A",
"U  c #836354",
"Y  c #816A56",
"T  c #85635C",
"R  c #8B635B",
"E  c #836C5A",
"W  c #8E6A5D",
"Q  c #8A6455",
"!  c #94635A",
"~  c #936B5E",
"^  c #9B655D",
"/  c #86705F",
"(  c #88735D",
")  c #A0655E",
"_  c #8D6461",
"`  c #8C6C64",
"'  c #8E6D69",
"]  c #846561",
"[  c #936562",
"{  c #936D64",
"}  c #9C6C62",
"|  c #936D69",
" . c #986D6B",
".. c #9B6460",
"X. c #8C7363",
"o. c #8E7A64",
"O. c #8F756B",
"+. c #8E7A69",
"@. c #947364",
"#. c #947A67",
"$. c #94736C",
"%. c #947D6B",
"&. c #9E7D6E",
"*. c #9B7467",
"=. c #937571",
"-. c #9B7572",
";. c #947A72",
":. c #9D7C74",
">. c #9C7D79",
",. c #A56C64",
"<. c #AA6F68",
"1. c #A46A64",
"2. c #A4746C",
"3. c #AC736B",
"4. c #AD796F",
"5. c #A47A6E",
"6. c #A37B74",
"7. c #AD7A71",
"8. c #A57A75",
"9. c #B27E77",
"0. c #95816E",
"q. c #9C816E",
"w. c #958272",
"e. c #9B8475",
"r. c #9D8A75",
"t. c #9E837B",
"y. c #9D8A7B",
"u. c #A28274",
"i. c #AC8275",
"p. c #A28B77",
"a. c #A2857C",
"s. c #AC837A",
"d. c #A48B7B",
"f. c #AC897B",
"g. c #B2837D",
"h. c #B48B7F",
"j. c #A5927D",
"k. c #A78681",
"l. c #A48C82",
"z. c #AA8984",
"x. c #AB8E89",
"c. c #A98985",
"v. c #B28D85",
"b. c #BB8E87",
"n. c #A59384",
"m. c #AB9485",
"M. c #AC938C",
"N. c #AB9B8C",
"B. c #A79789",
"V. c #B59285",
"C. c #B4938B",
"Z. c #BC958C",
"A. c #B29D8A",
"S. c #B8998B",
"D. c #AF9792",
"F. c #AE9B92",
"G. c #B19792",
"H. c #B39B93",
"J. c #BD9B92",
"K. c #B59E9A",
"L. c #BA9F99",
"P. c #B5A38D",
"I. c #B4A293",
"U. c #BAA593",
"Y. c #BAA994",
"T. c #B6A39B",
"R. c #BBA49C",
"E. c #B7A99B",
"W. c #BCAA9C",
"Q. c #B6A997",
"!. c #BDB09F",
"~. c #BDACA2",
"^. c #BCA7A2",
"/. c #BDB0A4",
"(. c #C19D96",
"). c #C2A49D",
"_. c #C0B19E",
"`. c #C3ADA4",
"'. c #CBAEA6",
"]. c #C2AEA8",
"[. c #CCAFA8",
"{. c #C4B4A4",
"}. c #C9B3A6",
"|. c #C4B4AB",
" X c #C9B4AC",
".X c #C6B9AC",
"XX c #CABCAE",
"oX c #CAB7B2",
"OX c #CBBCB4",
"+X c #CEBFB9",
"@X c #C7B7B0",
"#X c #D2BCB5",
"$X c #CEC2B4",
"%X c #CEC2B9",
"&X c #D0C4B6",
"*X c #D2C4BC",
"=X c #D4CABC",
"-X c #D8C6BE",
";X c #D4C7C0",
":X c #D5CBC2",
">X c #D9CDC5",
",X c #DBCFC9",
"<X c #D9D1C4",
"1X c #DCD3CB",
"2X c #DFD8CD",
"3X c #E1D8CF",
"4X c #E3DCD4",
"5X c #E6DFD8",
"6X c #E9E4DD",
/* pixels */
"- ; 6 7 9 B 9 ; ; ; ; % @ X @ ; # ; ; # : 1 - - ; # O . # % @ X # # # # 6 7 : O # ; : : : ; - # @ 1 7 : # # # ; : # # : 7 ; O O ",
"# # : 1 1 7 9 9 ; ; 1 ; @ @ : # # @ # ; 7 6 ; # # O . O . O X O ; O # : 7 - # # 6 6 6 6 : : # # # 7 7 7 : # # - ; - - @ 7 7 # # ",
"- ; ; ; 1 6 7 9 9 : 7 9 7 6 # ; # ; ; : : ; # # @ X X O O X = . # O # 6 7 6 : ; : ; : 6 : - # # - ; 7 - 6 1 # # ; : # ; 7 7 # @ ",
": : 6 ; # ; 6 7 7 6 9 7 ; 6 @ ; - : ; ; % @ # O .     . O O.4   O O # 1 7 6 # # ; 1 1 ; : : ; # : # O O # 6 7 6 1 ; 1 7 6 # @ O ",
"; # 1 6 ; # ; # ; 7 7 # ; ; O - : 6 9 9 : # # # O   @ # 4 l.=.X   O - 6 7 ; : 6 ; - ; 1 1 - # ; : # O O O - : 7 9 9 9 7 # # # O ",
"6 : ; 1 1 : # # 6 9 # O O O X O @ 1 9 9 7 1 : - # X @ = ;.' T.F.u < 1 > 7 9 9 9 7 9 : ' $.# # : - < O # O # - : 7 7 6 # @ ; O - ",
"7 # # ; : ; - 1 9 6 O # O # X . # O # 1 9 7 1 # @ O - `.oX>X*X:X>X*X`.W.d.S r 1 ; : = T.H.@ # O a 0 O # # @ O # ; : # X # # ; 6 ",
"# O # - : ; : 9 : ; X O # # # ; : # O . X # @ X # s ).1X4X*X=X1X%X1X4X*XH Z # 6 ; k.OXa.=.5 # # X.0 # # : # O # ; # O   # ; ; 7 ",
"# @ # - : # : 7 ; # X O O O ; - - @ D.=.$ $ 0 J z. X1X-X=X&XOXJ.h.Z.|.p.7 ; # # ; 1 ).9.2.z.$ $ e.1 - # : # O # O O O O ; : 7 - ",
"O : 9 ; @ # ; ; ; ; . < O # @ # # ` O.T l.K.|.+X*X>X}.S.h.V.4.4.v.u.0 7 ; # O O # : p s.4.`.d.a d.# # # ; ; X @ X . # 6 9 9 1 # ",
"7 9 1 O - : ; # ; - . K G.=.v # = K.I.{.oXXXXXXXZ.h.i.4.3.3.4.V.A.l 7 : X # O O . # ; 1 ,.,.C.I.' 9 : # O ; @ @   X O 9 9 7 # # ",
"9 ; @ ; 1 O O # # # ; O :.|.@X0 v +X1X6X$X{.U.V.7.5.+.2.<.<.3.1.3 7 ; O 1 # # O X - 7 ..g.} W.{.l.9 9 ; ; 6 - . X O 1 9 9 ; # 1 ",
"- O ; 6 ; X # : # 1 ; . 8 G.D.X.4 I.1X6X3X&X&XOX}.d.p.,.A p L L , 1 # 6 # X . . # a a J l.~.y..Xk.i ; : 7 : # O O # 6 7 9 ; 7 9 ",
"O @ 6 : : ; - ; # # - O X x.z.E.q X.4X6X4X}.J.*X|.e.l.Z 6 7 7 6 9 ; ; ; @ O O # l `. X~.n.l.T.1X`.v.: 1 : # O X # 6 7 9 1 ; 1 7 ",
"O # 7 1 ; : - # - : # . $ C.`.OXX.M 2X4X=X).Z.i >.O.p 1 : ; : 9 1 @ 1 1 : ; - ; ; 9  .K.l S x.>X<X#X[ : : - X # 7 7 7 9 1 ; : 1 ",
"O # 7 ; 1 9 6 : - O O [ V.*X[.`. XQ.=XXXN.J.S ; ; # 1 6 ; # : 9 X # v f ] ; @ 6 1 9 9 < - : 7 r  X{.k.% - O X # 6 ; ; 7 1 : ; - ",
"@ # ; 6 9 V 7 : % ; i a. X4X4X=X:X=X!.0.`.S 1 9 ; : 6 ; # @ - : X 2 |.M.t.< @ : : : # @ # @ - 6 7 J.C.e O X X 1 : # 1 ; # 1 7 # ",
"# : 6 9 9 6 1 # 5 ' ].;XoX5X6X$XN.n.F.` $.1 1 9 9 1 @ - O O . < J OX+XR.k.v O # ; @ # : # O # # : 7 }  .. . 1 ; # 1 # % 7 9 ; # ",
": # # # ; 1 ; : ~.R.oXR.|.<X{.( c h M l.s ; @ ; 9 7 6 : @ O 2 d.E >X*X|.H.R., 1 @ # # 6 # ; ; # # : :  .X - ; O # # : 9 9 : # # ",
": : ; - : # 7 7 % :.).S.XXY.P.P.j.h w : 1 - # O O # ; ; # 3 { N y.=X&Xw.5.3.) P Z 3 , O # - # O . O ; # @ - X O # : 9 7 : # ; 6 ",
"6 7 7 : ; # ; 1 6 9 P W.{..XU.P.d.c 2 6 1 ; # X X X O # F g./ z W.J.7.W 4.3.(.d./ g 0 O O ; # X O # . # # X X # < U 1 : # : 6 : ",
"7 6 9 9 : # O # 1 7 6 < j w.XX_.Y q 3 7 : @ X # i d 4 `.#Xn.d.Q.#.d.#.m.n.x u.T.b y q q 1 6 # # ; O   X 1 S # # l # # # 1 6 1 6 ",
"; : 6 9 7 # . # : : - # 3 q Y I.b 3 ; , $ & q w k ] T.=X=XXX}.S.u.#.o.I.B.h X.:XS 6 1 7 : ; ; v { 7 # X [ 2.# @.F X # 1 : 1 : : ",
": : : 9 9 # # X : ; @ : > w q y * 6 ; O > h h z -.%X6X<X$XXXXX0.X.Q.y.W.r.z +.;X_ : 1 1 6 9 6 f x._ 6 1 L.Z.! p.p O # @ # 1 6 : ",
"6 6 ; 9 1 # ; ; # - O : 7 > & * $ 1 X . j h N ~.C.Z.4X<X.XB.+.E /.%X+.^.e.#.w.*Xe 7 : - ; 7 7 7 a.G.K $.U.J.*.W # @ ; # O # ; 1 ",
": : ; 1 # 6 6 6 # # ; : # : 1 ; ;   X O d.j.B.J.9.7.9.e.m M E.2X:XOXR.OXOX.XW. X: 1 7 ; # ; # ; _ p.~.OX|.{.m.R # ; 9 1 # # ; : ",
": # : 1 # 6 6 : # - 6 - # @ X   # # > z.n.W.U.7.3.3.3.U n n.%XOXT.$.9 % | t.K.T.# # 7 7 : # # 6 _ E./.>XOX&XW.J @ : 9 9 1 : ; : ",
"; # 6 9 7 9 7 : # ; ; X O X X # i :.P 4.f.P.P.4.,.2.K.~.B.F.e.j 1 7 9 9 9 6 v K X O : 7 ; - ; H *Xn.n.*XOX$X{.{ @ 1 9 7 9 7 : ; ",
"# - ; 6 9 7 6 6 # - . . O # l 6.).g.3.7.P.Y.|.d./ e.N.U M k 2 w 6 : 9 : : 6 7 6 O @ - - # ; : f G.l.w.4X{.XXQ.Y 8 : 7 6 V 9 6 ; ",
"@ O # ; : : ; O . O O # < H.`.2.'.3.3.p.o.A.W.:.b e ; # : 7 > : : 7 9 6 ; # @ : : # # # # # # H.x.M.+.1XW.n.0.*.1 1 ; 7 V V 7 ; ",
"O O O # @ @ X O # X X v XX~._ G.(.3.} m %.N.U.Z , ; 6 7 6 ; : : 6 9 7 7 6 1 : @ @ ; O O . O ' :X|.;Xy.e.y.m.f.I # 6 ; 1 V B 7 ; ",
"O O X O X O # # O 4 >.oX*XA.OX2X*XW M H.).#XC.; ; 9 7 - # ; : 6 9 7 ; ; 1 9 7 - # O X . % y.2X4X4X6X.Xn. X7.i.# ; 6 @ 1 9 9 1 # ",
"O : O O @ # O $ ' ^.T.M.W.W.=X*X%.@.d.@.W.*X8 ; 6 ; # @ - : 9 9 7 : 6 6 # 6 1 @ O . X a >XE.~.4X6X6X6X[.7.2.i.; : ; # 9 7 1 - X ",
"@ @ O # @ O O T H.].M.l.D.*X4X1X}. X0.l.OXD.1 6 ; @ O - 7 7 7 6 : : 6 6 : ; # @ X O 1 =.5X*Xe.%X#X6X4X&.z U G : : # ; 9 ; # X . ",
". X @ # ; O O O # s K d K. X:X<X=X Xr.~.;XJ : @ X X @ : 6 6 : ; 1 6 7 1 ; & # X       ^.*X*X).V.U.XX`.Y Y o.m : : O : : O O X o ",
". X ; 6 # @ O O 6 ; O i 1X4X4X4X*XF.X.OXK.: ;   # @ X # # : : 6 7 7 6 f T W.; O       F.%X*X3X>XP.W.U.0.p.n g ; ; O 6 # O X # . ",
"X : 7 : O @ # ; ; X R M.,X4X4X<X*X+.N.|._ 6 : # X   @ ; ; 6 1 6 6 : 4 ].OX;.. @ 6 # : ` w.;X#X6X%XC.{ ` R s @ ; # # : X O # O . ",
": 7 6 @ # # 1 @ O Z M.x.|.=XE.>XN.n *XR.Z 6 ; # # # ; @ O - 6 # ; T OXOXE q O @ ; # : : M +.W.>X*Xu.u.C ; ; # # ; : X X @ @ . O ",
"7 6 ; # @ # @ @ 3  XW.oXE ~.~./.%.w.oXL.: ; + O O . X O O # # @ >.*X%XOXT.a # # : : : @ a %.E.|.e.[ # 1 1 # . @ - O . X O @ - 6 ",
"7 : # - X . O # E.=X=X$Xw.R.%Xd.n E.~.[ 1 # # # X O ; # # # O K |.G.|.*X|.M.1 6 6 6 1 @ | 0.A.o.8 : ; : # X # # O X X O O : : 9 ",
"6 7 ; # O O @ T :X=X$Xw.j.P.|.~.N  XR.1 6 # : ; # 1 : - # @ # R.`.*Xe.E l.~.$.9 7 7 ; @ s XXA.q.: 1 1 #   X : - # X O # - 7 7 7 ",
"7 9 : - O X O T =X`.X.q.i.u.~ |.B.R.r 6 ; ; 6 : # # O - O : p }.oXT.#.&.x U n.a 9 6 @ ; 6 t.d.e.1 : # O @ # ; - # O # : 6 7 6 7 ",
"9 9 : - # X d { J.} } ^ ~ D q %.*XM.: 7 # : 7 ; ; O # ; O F ! #.w.~.%X`.[ e x 5 9 ; # 9 9 f K.T % # # @ @ 9 7 - X O : 7 : : ; 7 ",
"9 9 6 : @ T ` $.1.<.,.D h t - a ~.| : ; ; 9 7 - O # @ # . Q ~ R.6X6X4X%X-.9 9 9 7 ; : 9 : @ < 2 < @ @ @ - 6 # 5 O : 1 # ; : : 6 ",
"7 9 6 ; # 3 O 1 C 6 6 7 8 # , 6 7 # : # 6 7 ; O . X ; O % Z.b.4X6X4X*X.X| 6 9 6 : % 9 B ; O - ; # X O : : # $ -.8 9 ; # - : : : ",
": : : - O - : 1 ; # ; ; @ # : 7 # # ; : 9 ; O O # : # % U.'.'.>X{.{.M.] S 9 6 ; 6 7 9 7 # - : : O # X 1 ; @ M.| 9 7 6 : @ ; : 1 ",
": : ; O @ : ; # O # # O ; ; 6 # @ # : 9 1 O O # 6 : % I.`.).=X.X{.W.W.j 6 9 9 7 ; 6 ; @ @ # @ O O $.>.5 i { ].; 1 : 6 7 ; - - : ",
": : # O - # X X O # @ # : 1 : O # : 7 7 # O # : 7 J OX{.{ A.=X=X&XP.P.&.1 : : 1 0 @ # @ @ # O # R oXn.~.d.OX:.6 ; @ ; 7 : ; # # ",
"# ; # ; # O X O # @ X X O # ; # ; 6 6 : O + # 6 d %XXXq.Q XX$X=X&XP.P.H ; - ; e R ~ 8 G ; G.n.G .XOXm.S C.|.K 9 7 # # 7 : : : - ",
"- # - - # ; O O O ; ; O . X X O : : 6 # O O : 7 | R.@.U 7.Y.P.m.|.W.l - # # # 1 p I.W.:.J OX%.e.*XW.W 9 C 6.F s 6 : # # 7 ; 6 - ",
"; ; : : : # O O # 6 : # # X . O # # O O @ O ; 1 P C.5.D f.P.A.m.e.a.s O # : 1 # 1 y.R.XX|.I.a.W.m.Z 9 9 9 6 ; # O ; # # 6 7 1 : ",
": - : ; @ # # # O ; 1 : : - - X . X . X X # ; : p S J.&.%.P.U.k T O # @ : 7 # X 6 a H.`.oXN.W.I.C 9 7 # : 7 ; # O O - # ; : 6 6 ",
": : ; # @ O # : ; : 6 6 : : ; # @ # O # O O % 6 ; 1.,.J.x r.P.4 5 1 : @ . O X O ; 6 ;.|.y.%.` 6.a.1 # @ 6 9 6 : # O O # ; : : 6 ",
": : # @ O # O # # 1 1 7 6 1 ; : : ; # 6 ; O # ; 8 ^ ! H 2 *.f.0 9 ; ; 7 # O @ : O 6 s n.E W : 7 i # : # 7 9 9 6 ; # # O #   ; ; ",
": # O O - # - # - # : 7 9 9 7 6 6 1 7 7 O # O # ; 1 > > 8 L 3.3 6 6 : 7 9 7 7 # ; 7 > E s 9 1 6 6 # ; : ; 9 9 7 : - # @ O O # # ",
"# @ # # ; ; ; ; ; - : : 7 9 1 : ; : 7 # # O X O # 6 7 % C L I 7 ; 6 6 9 7 ; 6 @ # 9 7 0 1 9 # ; 6 ; : : 7 9 7 ; ; - # ; X . X O ",
"@ - ; : : : 1 6 6 6 9 9 9 : ; # ; 1 # # : # @ O O ; 1 ; r ; ; 1 O ; 7 7 # : ; O # 7 6 ; O : # ; 6 ; : 7 9 6 ; : # ; - - # X X X ",
"- - - 1 7 9 9 9 9 6 1 : : ; - 1 ; ; # ; 9 : # O # O @ ; 6 7 7 # # 6 6 ; # # # O ; 7 # X O 7 - - # @ : 9 7 ; 1 : # ; ; - # X O # ",
"- # @ ; - # # - # @ O X O O # ; ; # ; : 9 : 1 - - # O # : 7 ; # 1 9 1 # ; @ # # : - X O 6 6 ; # # 6 9 9 6 7 6 - : ; - # O O # : ",
": # # # @ O # X O @ - # O # ; # ; # ; 7 9 6 1 ; : ; O # - ; # : 7 : : - @ # # : ; # - 1 6 @ # ; 9 9 9 9 9 7 : # - # # O O + : 6 ",
"7 9 6 : # # # O - : O O O O @ 1 ; # : 7 9 7 : # - ; ; O # - - : : ; ; ; O - + ; 6 ; : 1 ; ; : 7 7 6 6 7 7 1 # # # O O O # 6 6 : ",
": : 7 7 ; 7 : : : - O O # O : ; ; ; : 9 6 7 6 : ; # : ; O # O - # ; 1 - O O : 7 9 7 7 7 7 7 7 : : : 7 9 : ; - # O O # # 6 6 # : ",
": : 6 6 6 : - # O O @ X X @ : : - : 9 7 ; # : 7 6 - ; @ O # : ; # : - O O : 7 7 7 7 7 6 : ; - @ # : 7 6 : @ - @ @ - # 1 6 O # - ",
"; : ; 6 1 ; - # # O ; @ X # @ # 7 9 9 : ; ; @ 1 1 ; # O X 1 # # @ ; # O : 7 7 7 : # - ; ; - : # # 6 7 : # # O O # - # : 6 @ O # "
};
