/* XPM */
static char *_9f9de9af4944b6b88d3750fb0baa24dGjwQxuNsafUwdxio[] = {
/* columns rows colors chars-per-pixel */
"64 64 256 2 ",
"   c #040004",
".  c #0B0103",
"X  c #01000B",
"o  c #0A050C",
"O  c #0D090D",
"+  c #140202",
"@  c #1C0202",
"#  c #160903",
"$  c #1A0A02",
"%  c #160A0B",
"&  c #040212",
"*  c #0B0613",
"=  c #0C0A15",
"-  c #0D0A1C",
";  c #08061B",
":  c #130D13",
">  c #120D1C",
",  c #1A0812",
"<  c #1D1515",
"1  c #15111C",
"2  c #1B151B",
"3  c #1D181A",
"4  c #161114",
"5  c #1B1209",
"6  c #240202",
"7  c #2A0304",
"8  c #230D03",
"9  c #290A08",
"0  c #360709",
"q  c #2C1B0D",
"w  c #2A1707",
"e  c #331302",
"r  c #351C03",
"t  c #3B1D02",
"y  c #321D0B",
"u  c #381508",
"i  c #260B13",
"p  c #370B12",
"a  c #221614",
"s  c #251A15",
"d  c #2B1D15",
"f  c #241A1A",
"g  c #2B1C1A",
"h  c #271518",
"j  c #351917",
"k  c #3D2102",
"l  c #39230B",
"z  c #2E211C",
"x  c #2F2016",
"c  c #33231D",
"v  c #392417",
"b  c #2D230E",
"n  c #0E0921",
"m  c #161120",
"M  c #1A1522",
"N  c #1D1822",
"B  c #1F1628",
"V  c #110B22",
"C  c #241C23",
"Z  c #281E24",
"A  c #3A1F27",
"S  c #2B2324",
"D  c #2C232A",
"F  c #272128",
"G  c #352A2D",
"H  c #3B2D2D",
"J  c #382725",
"K  c #2F2231",
"L  c #362535",
"P  c #362B32",
"I  c #3A2D33",
"U  c #3C2C3A",
"Y  c #37273A",
"T  c #3D3334",
"R  c #3D343B",
"E  c #3F393A",
"W  c #3F302D",
"Q  c #4B0B0B",
"!  c #450808",
"~  c #540C0B",
"^  c #590908",
"/  c #431D02",
"(  c #4A1608",
")  c #591509",
"_  c #481516",
"`  c #591713",
"'  c #4F0C12",
"]  c #660B0A",
"[  c #780C09",
"{  c #681509",
"}  c #74140A",
"|  c #771807",
" . c #681715",
".. c #771614",
"X. c #6F0F12",
"o. c #442301",
"O. c #4B2401",
"+. c #4C2A03",
"@. c #452A0C",
"#. c #482B09",
"$. c #522500",
"%. c #532A01",
"&. c #552C0D",
"*. c #543407",
"=. c #472918",
"-. c #4C3214",
";. c #4C341C",
":. c #44311A",
">. c #512F13",
",. c #79280C",
"<. c #6B2417",
"1. c #742912",
"2. c #4B1F20",
"3. c #462B26",
"4. c #552C27",
"5. c #4D3424",
"6. c #43322C",
"7. c #4C342B",
"8. c #4C382A",
"9. c #53342D",
"0. c #533A2D",
"q. c #533527",
"w. c #412E39",
"e. c #433535",
"r. c #4B3632",
"t. c #453937",
"y. c #4B3A36",
"u. c #42363B",
"i. c #453A3B",
"p. c #4A3C3D",
"a. c #493738",
"s. c #553633",
"d. c #543A34",
"f. c #5A3C36",
"g. c #523C3A",
"h. c #5C3E39",
"j. c #593733",
"k. c #653833",
"l. c #6E2D27",
"z. c #5D423C",
"x. c #5A413A",
"c. c #4D413B",
"v. c #61433D",
"b. c #61433D",
"n. c #3B3544",
"m. c #3D3749",
"M. c #372F42",
"N. c #423641",
"B. c #453942",
"V. c #4B3D41",
"C. c #423A4B",
"Z. c #473E53",
"A. c #563F41",
"S. c #4E4143",
"D. c #5E4342",
"F. c #564345",
"G. c #4F455A",
"H. c #614543",
"J. c #664A46",
"K. c #64504B",
"L. c #860B07",
"P. c #950B08",
"I. c #891508",
"U. c #991908",
"Y. c #9A1613",
"T. c #861714",
"R. c #B90C07",
"E. c #A71807",
"W. c #BA1913",
"Q. c #AD160B",
"!. c #852408",
"~. c #992607",
"^. c #912C15",
"/. c #A72609",
"(. c #B62607",
"). c #A73507",
"_. c #B93707",
"`. c #B42914",
"'. c #A83516",
"]. c #B93818",
"[. c #C81909",
"{. c #D71A08",
"}. c #CC1A13",
"|. c #CB0F0B",
" X c #E31D10",
".X c #EE1B0A",
"XX c #C82608",
"oX c #D9250A",
"OX c #C83909",
"+X c #D7380B",
"@X c #C52613",
"#X c #D72612",
"$X c #D03919",
"%X c #E92609",
"&X c #F62808",
"*X c #E93908",
"=X c #FE3B03",
"-X c #F93809",
";X c #E92914",
":X c #F72913",
">X c #E93414",
",X c #F83718",
"<X c #BB4511",
"1X c #B6633C",
"2X c #B0522D",
"3X c #D94817",
"4X c #CF4B0F",
"5X c #E7490B",
"6X c #FE4202",
"7X c #FE4B02",
"8X c #F84708",
"9X c #FC5707",
"0X c #E84A18",
"qX c #FC471A",
"wX c #E75516",
"eX c #FA5815",
"rX c #E65A0A",
"tX c #DC661A",
"yX c #FC670C",
"uX c #FA6917",
"iX c #FD7316",
"pX c #FC731A",
"aX c #FD7A1A",
"sX c #EB6B15",
"dX c #C14D2A",
"fX c #FC4B25",
"gX c #F95728",
"hX c #E45D2C",
"jX c #D86334",
"kX c #F96828",
"lX c #FE7627",
"zX c #FB6A35",
"xX c #FF793B",
"cX c #EC712B",
"vX c #AF7343",
"bX c #FC7F47",
"nX c #C66D41",
"mX c #FD861E",
"MX c #FC8626",
"NX c #FC9828",
"BX c #FF8B32",
"VX c #FFA436",
"CX c #FFB33B",
"ZX c #FFA42E",
"AX c #FB8745",
"SX c #FC9547",
"DX c #F39758",
"FX c #FFAB48",
"GX c #FFBA58",
"HX c #FDAB54",
"JX c #FFA761",
"KX c #FEB26B",
"LX c #C68D56",
"PX c #FFC34C",
"IX c #FDC068",
"UX c #FBD189",
/* pixels */
"C C F F Z Z Z g a g g g g g z z z c c c c z z S S S S z g g g g g g s s s s s s s a < < < < < < < 5 5 % # # # $ # # $ $ 8 8 8 $ ",
"Z.G.C.C.D.D.A.d.7.9.s.s.j.v.J.J.H.J.J.J.H.H.J.J.K.J.H.v.v.H.v.v.h.f.f.f.0.9.8.r.r.7.6.6.6.e.6.6.6.J c v e s q e e e e o.$.O.O.t ",
"G.Z.n.n.B.p.7.3.7.7.9.j.D.H.v.v.v.v.z.v.x.D.D.H.H.z.f.z.v.v.z.z.h.j.j.d.s.s.r.r.r.r.r.r.r.r.7.7.6.J J J e q q e e e e $.$.$./ e ",
"G.m.n.n.u.9.9.9.9.j.z.H.v.v.v.v.v.z.D.D.D.D.D.H.z.h.v.v.v.v.v.z.z.h.h.f.h.f.j.f.d.d.d.s.j.d.d.7.6.6.e.W v x q e e e O.%.$.O./ O.",
"Z.n.n.n.R r.9.j.h.H.b.v.v.v.v.v.H.H.H.D.H.b.b.v.h.v.v.v.v.v.z.z.z.v.z.h.h.z.z.z.f.f.f.j.d.s.j.d.r.y.a.J v v y e e e O.%.$.O.O.$.",
"C.n.n.n.n.u.z.H.b.b.v.v.v.H.v.D.z.z.z.z.z.z.z.h.v.v.v.z.z.z.z.z.v.z.z.h.h.z.h.f.f.f.f.f.d.s.j.d.d.y.y.:.v v y d w e O.%.O.o.O.O.",
"C.n.n.n.n.N.x.z.v.v.z.z.z.z.z.z.z.D.D.H.D.z.z.z.v.v.z.z.z.z.z.z.z.h.h.h.h.h.f.f.f.f.f.j.d.d.d.g.g.y.6.@.v v v x y e O.$.O.O.O./ ",
"C.m.n.n.n.n.x.z.x.z.z.z.z.z.D.H.H.H.H.H.J.J.J.J.b.z.z.z.z.b.b.H.z.h.h.h.f.f.h.f.f.f.g.s.d.f.j.9.8.5.-.@.=.-.@.#./ u O.%.O./ e e ",
"C.n.m.n.n.n.g.z.z.z.z.z.D.H.H.H.H.J.4.0 =.4.4.j.j.k.z.x.h.9.4.3.j.b.h.h.h.h.h.h.f.f.h.f.f.h.d.5.5.-.-.-.@.@.O.O.o.o.O.$.u e e r ",
"C.m.M.n.n.n.n.p.j.x.D.D.D.D.D.D.H.s.! ) | | | | { ~ ..T.] ^ Q ! 0 3.z.h.h.h.h.d.0.j.s.j.h.j.0.9.5.8.-.#.O.O.O.o.o.o.O.o.t t r t ",
"n.C.n.n.n.n.n.a.j.z.D.D.D.D.D.D.D.` !././.Q.E.~.~.| | |.R.P.[ ^ ! ` k.g.0.d.d.;.0.s.s.f.d.s.s.5.@.>.o.O.O.*.*.*.+.+.o.O.o.o.o.o.",
"N.n.Z.n.n.N.N.B.g.z.z.D.D.D.D.D.<.U.XX[.XXoX#X@X@XOX~.XX&X[.Q.P.X.f.0.;.;.q.-.q.0.5.7.5.5.5.q.5.o.o.o.O.o.o.%.*.*.*.+.O.o.o.o.k ",
"p.i.C.C.n.n.B.N.p.z.D.H.D.z.x.k.E.(.(.oX&X&X-X-X>X*X+XOX-X&X}.Q.Y.5.;.>.;.;.;.;.;.@.o.@.@.l v -.o.o.o.o.O./ u t O.+.%.O.o.o.o.r ",
"g.g.a.n.m.n.N.n.n.f.f.5.@.>.>.1.!.~.).).OX-X=X=X=X6X8XwXlXgX:X}.W.&.-.-.-.-.;.-.o.o.O.o.k v :.@.o.O.O.O.O.O./ o.o.o.o.O.o.o.t r ",
"z.h.f.p.N.n.n.C.e.-.;.( ) | ~.).).rXuXsXrX5X*X8X9X7X8XuXSX3XqX:X}.&.-.-.-.-.;.-.O.O.o.l 3.9.0.@.O.O.O.O.O.$.+.O.+.+.o.o.o.o.t r ",
"x.D.D.D.x.i.e.R H &. .) ,.`.>XOXrXyXuXZXVXrXrXrXeXeX4XtXlX_.'.qX%X&.@.-.@.-.#.O.o.@.:.8.j.d.:.o.O.O.O.O.O.$.O.+.+.O.o.o.o.o.t r ",
"y.g.x.D.z.q.0.l =.I.| ` /.-X4XrXaXiX9XiXPXiXmXrXpXlX3X4XuXeXU.OX,X&.-.-.-.@.o.O.@.5.0.d.f.q.o.O.O.$.$.O.o.o.O.O.o.o.o.o.k r r r ",
"r.6.r.5.=.o.o.8.<.E.} ,.*X7X9X9XiXZXaXpXFXmXMX4XMXMXwX<XlXeX+X{ @X1.:.-.@.k o.;.8.0.f.f.d.=.O.$.$.$.$.O.o.o.k o.o.o.o.r r r q q ",
"i.:.@.o.o.o.8.s.I.E.{ _.=X6X8X4XyXmXZXCXCXNX4XOXVXCX<X4XlXqX>X} Q &.v o.k @.5.0.0.f.f.j.8.#.$.$.$.$.O.o.o.o.t k k o.t t r w s a ",
"l l k o.k J S.` (.U.| +X=X7X5XOX5XyXmXNXNX4X{ 4XFXcX~.kXlX,X#XT.0 @ t #.;.0.0.0.d.f.j.j.;.+.$.$.$.O.O.o.o.o.o.k k k t t r r q < ",
"k k o.o.#.p.s.{ XX[.| +X=X7X7X9XaXaXrX4X/./.<XwXkX).$XSXzX>XW.X.0 u -.q.0.q.0.d.d.f.j.0.+.$.$.O.O.o.o./ t k k k k t t y d d s s ",
"k k k k 6.S._ { (.%X!.OX6X6X7X9XwXOXOX+XuXlXeX5X~.~.kXIXfX#XE.! e =.=.v 8.0.c.f.k.g.y.v o.o.o.o.o.o.k k t r r r t o.t y d d d f ",
"@.O.o.6.i.c._ } (..XXX_.=X6X9XuX0X0XgXBXMX].!.{ { 0XJXAX:XW.^ ~ ` _ p c d.4...Y.}.`.^.,.!.| ) / t k k r r t t r t k k k y d d d ",
">.*.8.V.p.F.p.1.~.{.&X_.+X6X9XyXiXlXlXkX_.,.( ( 3XJXJX;X[.^ ..].<.=.v q. .P.[. X:X+X5X5X3XOX~.| ~.) / / t k k k k k o.k d d d s ",
"+.5.V.p.V.F.k.^.(.Q.{.*X5X-X6X7X7XwX4X).^.!.| 4XFXGX>XE.^ ^.>X'.( y ( ^ [ ~.OXqXkXwXyXsXsXtX<X).9X).} @X@X} k t r r r l l d d s ",
";.p.p.p.S.j.P.[.:XqXwXeXkXkXeX9XeXwXwXhXkXkXxXFXGX>XI.1.1XfX&X) w 5.] { !.`.>X7X5XsXNXVXFXCXpXOX9X4X4XeX>X}.{ w r q z d y g g g ",
"7.g.g.p.S.p.T.{.:XeXlX8X8X9XiXiXlXBXFXGXGXPXPXFX0X'.LXDXgX&X/.d 5.z.<.| /.oX=X+X<XiXyXaXMXsXpX5XuX5XwX-X[.E.I.t d G I d f g s a ",
"V.g.p.i.i.e.] R..X,XXX{.&X6X9XyXiXlXMXNXMXuX*XDXUXUXKXgX}.#X=.8.z.s.0 !.(.%XXXOXgXrXiXuX5X5XuXeXiX5XpX7X%XU.{ ! T B.G d a < < < ",
"p.i.u.i.i.6.Q P. X{.I.E.[.%X=X6X7X7X8X*XoXR.jXUXUXJXkX,X`.!.{ u 3.4.j ) ~.%X5X~.0XzXeX9X9X9XuXMXeXMXNX9X%XU.} ! g R S d f < < < ",
"u.u.u.i.i.i._ ] R.E.| | I.Q.[.{.oX[.(.E.L.nXUXKXSXzXqX;XI.=.4.j @ ! l.^.'.+XeX1.{ ].3XgXiXyXMX9XpXVXyX=X[.| { ! 7 j g g f < < < ",
"R R u.u.i.i.3.] P.L.( } } | I.I.I.I.I.[ 1XKXDXAXzXqX:XW.[ 9.D.K.d.9 R.-XeXAXHXkXcXjXdX<X4X4X3X0XyX7X&XR.| ) Q A n.G s f a < < a ",
"R n.n.R u.i.e.Q [ P.^ ~ { { { } ..} ~ l.DXxXzXfX,X;X}.Y.} k.K.7.q 9 U.%X=XeXAXdXXXqXkXxXAXAXzXkXJXbX$X/.| I.W.l.U c a < < < a a ",
"H i.i.R R R i.j ] P.E.] 0 ) ] ) ' ! =.t.dXgX,X:X%X}.Q...{ j.J + + . ! U.{.&XqXAX1XY.P.XXXXE.].DXJXzXfX,X.X XY.` J y a 3 < < a s ",
"6.i.i.R u.u.i.I p ] L.P.] 7 0 7 6 v g.k.qX:X:X X[.Y.T.{ ) 0 . 5 w $ 8 ( U.[.;XqXxXDXvX` ! '.SXMX-X:X.X|.R.L.Q R T y 3 < < < a s ",
"i.i.R R u.u.R E j 0 ! ^ } ^ @ 6 j f.p.k.;X.X[.Q.T...{ ) Q 0 w w # 8 t 7 ( } E.@X#X>XAXjX`.fX;X%X{.|.Q.L.[ ^ J B.e.d < < < < a s ",
"i.i.u.u.u.R R u.H j j j _  .! @ 3.g.d.y.j.T.} } ] ) ~ ! 7 7 w a d r 0 0 e / ( | U.) } /.'.1.L.L.[ ] ^ Q ! p R n.G s s a 3 3 a s ",
"i.i.i.i.i.t.e.t.i.p.p.p.p.a.r.j y.y.y.y.y.p.e.i @ 6 6 7 9 7 d u.:.$ 0 ( o.O.k { | ( w w b w y j p 0 p i 7 H R N.D a s s 3 < s s ",
"u.u.u.u.t.y.t.t.y.a.t.y.y.a.t.e.y.p.p.e.3.J G % . # 8 v 7.r.4.4.t # 7 9 ~ ) %.o./ r r l v q g g y c R u.J R R N.C s s s < a s s ",
"i.i.u.e.t.t.t.t.t.i.i.r.y.S O # j e.v y v H a.s @ 9 + 6 0 p ' [ X.0 7 X.~ 9 w r l r r y q q q s q x H V.B.R u.U C s s s a s s s ",
"i.i.u.r.t.t.a.a.y.a.y.y.p.p.e.i p c l J y.y.y.t.j 6 @ @ @ @ @ 7 ^ ^ 0 T.Q # 9 e r r r y d g s s s F B.p.N.R N.U 3 f s a a g s s ",
"i.i.r.d.y.y.y.y.j.j.d.p.p.p.u.p p H r.y.y.y.p.3.6.6.p 6 @ 6 6 @ 6 0 ^ }.) 8 7 7 q q r d s s s < < 1 I F.i.R Y C 2 3 a s h < a s ",
"i.i.y.a.y.y.y.d.d.g.p.p.i.t.h ^ 2.p.p.y.y.p.g.) H c.p.H % + . @ @ @ P.W.~ .   o > : # # X o o X X X = e.u.F 3 2 M 2 s s a < s s ",
"i.i.i.p.a.y.d.a.p.p.V.e.2.=.i 0 j j F I t.T v ! 9 i i a < . . + + 7 X. .0 . . = = o .       X X X X X = N 2 2 1 2 3 < a 3 < a s ",
"i.i.p.p.p.y.a.p.p.p.e.G 3._ 9 ! Y._ Z h _ ~ Q 0 7 6 @ +     .     + ! 0 + . : = = X X     X X X X X X X > 1 1 f f 2 3 < 3 3 < < ",
"p.p.p.p.a.p.p.p.i.W H e.p.p.J 9 ..Y...~ Q Q 9 % . . . . .         . 6 + . * = ; = X     X X X X X X X X : 1 1 d v f 2 3 3 3 3 2 ",
"p.p.p.a.a.p.p.i.H 6.p.p.a.p.p.F % % + , Z H p.J @ @ + .         . 7 6 . o i ~ ~ ] ` 9   X X X X . . X X > m 2 q d x 1 2 3 3 3 3 ",
"p.p.p.p.p.p.e.T e.p.p.p.p.p.e.P P N - D e.r.a @ 6 6 6 + + + + @ 6 0 ! ^ ^ Q 0 p i , # . X X X X   . . X : d d d f d f m 3 3 2 1 ",
"p.p.p.p.i.e.T i.i.a.p.p.i.p.p.G M > > N P H . 6 #   . + + + @ @ @ 6 0 ~ ..P...* ; X     X X X X X . . X : d d d g d d 1 2 1 > 4 ",
"p.p.p.i.T i.p.p.p.p.p.p.i.i.p.p.y.G m > Z F o 6 i - o . . . . .     . + @ 0 Y.Y.i X     X X X X X   . . a d d g g d d 2 2 > > < ",
"p.p.u.u.i.p.p.p.p.p.i.i.i.i.p.i.e.H J f 1 M 1 . ` j = O o . . . . . = ; ; o 6 Y.Y.6   . X X X X X   . . s d d d d d d f f 1 s < ",
"V.u.e.p.p.p.p.p.i.i.i.i.i.p.T $ 6 @ 9 ' ' j < p Y.p ; o o . . . . * = ; - - o 7 ....+   X X X X X   . . s d d d d d d d g d g 1 ",
"u.i.p.p.p.p.p.p.p.p.p.i.i.e.% h J H H J ` | I.W.[ * * o o . . X o = = - - = - o @ ^ ] @ X X X   X       % g g d d d d d d d 2 - ",
"i.p.p.p.p.p.p.p.p.p.p.t.a.G g S.p.a.i.i.T J =.j = ; . ; * o o & = = - - - - - - * @ ! ] _ i .     X X     : g g g d d d s s > - ",
"V.p.p.p.p.p.p.p.V.p.i.i.p.i.i.t.t.t.e.H G D G G M o . ; * X X * = = - - - - - - n & +  ._ p p % X X X X X X O < s a a < < < * : ",
"V.p.p.p.p.p.p.p.p.i.i.p.i.t.t.t.i.I C m M m > m 1 o . = * & X * = = - - - - - - ; &   , X   0 _ X X * 4 X X X X o X   X X X X X ",
"V.p.p.p.p.V.p.p.p.i.i.T T t.t.e.e.N N I e.T D m - . o ; & X   * * = = - - - - - - &   & & X . p i : f f * X X X X X X X X X X X ",
"S.p.p.p.V.V.p.p.p.i.T T R e.t.e.T F T i.e.e.e.e.f . X X . . . . . * = - - - - - - &   X & & X o g s f f < X X X X X X X X X X X ",
"p.p.p.p.V.V.p.p.V.u.T u.e.e.e.e.T T e.e.t.e.e.T y w $ . . . . . o ; ; - - - - - n ; X   & & X X X O f f f o X X X X X X X X X X ",
"p.p.p.p.V.p.p.S.V.T T e.T T T T T T u.e.T T T G x x r w $ . . . o ; = - - - n n n n X   X X X X O X 4 f f 4 X X X X X X X X X X ",
"V.p.p.p.p.V.S.S.R T e.e.e.T T T T e.e.H I T I L K S x r y a O     ; - n - - - - - n &       X X < < : f 3 o X X X X X X X X X X ",
"V.p.p.p.p.S.S.p.R e.e.e.T T T T T I I T I L L L D z x g f g f < o & - > - m Z B V n & X X X X o C Z a f < X X X X X X X X X X X ",
"V.p.p.p.S.F.S.e.e.e.R R T T T H H T I P P P T L K S S F C f d d d * ; > C P w.U L K M & X X X : F K C f 4 X X X X X X X X X X X ",
"p.p.p.V.S.F.u.e.e.T T T T I G G I G G T T T T L L D S S F F z d d s 1 K U Y U U U w.U M : 1 > 2 F Y P Z < X X X X X X X X X X X ",
"p.p.V.S.S.V.T e.t.T T T T I I P G G T T T T I L L D S S S D S g f f f F U U U U U w.w.Z m N N 3 F Y Y L 3 & X X X X X X X X X X "
};
