/* XPM */
static char *result[] = {
/* columns rows colors chars-per-pixel */
"64 64 77 1 ",
"  c #060505",
". c #0D0D0D",
"X c #100F0F",
"o c #131313",
"O c #1B1515",
"+ c #1D1C1C",
"@ c #231515",
"# c #231C1C",
"$ c #2A1B1B",
"% c #341E1E",
"& c #3B1E1E",
"* c #232222",
"= c #2A2424",
"- c #2D2B2B",
"; c #352222",
": c #3C2323",
"> c #322E2E",
", c #333232",
"< c #393636",
"1 c #3C3B3B",
"2 c #471717",
"3 c #441A1A",
"4 c #4D1B1B",
"5 c #531E1E",
"6 c #432424",
"7 c #4C2323",
"8 c #442A2A",
"9 c #4B2B2B",
"0 c #562121",
"q c #5C2323",
"w c #552C2C",
"e c #5C2A2A",
"r c #473131",
"t c #403F3F",
"y c #4C3A3A",
"u c #513030",
"i c #5B3434",
"p c #573E3E",
"a c #5C3C3C",
"s c #612626",
"d c #652A2A",
"f c #6A2D2D",
"g c #673131",
"h c #6E3131",
"j c #733434",
"k c #783737",
"l c #763838",
"z c #7B3A3A",
"x c #424242",
"c c #4F4343",
"v c #4D4D4D",
"b c #524242",
"n c #524E4E",
"m c #535353",
"M c #595353",
"N c #5C5C5C",
"B c #6B4D4D",
"V c #744141",
"C c #704848",
"Z c #625F5F",
"A c #725E5E",
"S c #785D5D",
"D c gray40",
"F c #6C6060",
"G c #6A6A6A",
"H c #726363",
"J c #7A6464",
"K c #747373",
"L c gray47",
"P c #803F3F",
"I c #824141",
"U c #856767",
"Y c #847B7B",
"T c #897C7C",
"R c #868686",
"E c #8B8989",
"W c #949393",
/* pixels */
"sdhlkzzfdsseq50eesddffsssq440q04qqqshhf5qdfhfds5qhjf555Pq5qPP555",
"qsffjkzlfdgdqqdqqqqdjhdqq0444745e0qdjdssffhhfdqqshPhP5qqPqq5qPq5",
"sddffjlzlfjljgssqsddfdq004404444q5qfjhfddffhfsqqsffsPqss5ss55Pq5",
"dffdddfljjljffqssdgdsqq04324554455qjkhssfffdffsqdq55ssPsP5PPPPq5",
"dsffdsssdllssqqqfjjlhqqq04qqq54425shjffhddffdsssfq545ssPPPqP5q55",
"hddffdsdjzdqq05qslzzlfdseqjdq55045qfjkkkjlffsqsds555555PPqPP555P",
"hqqdfddfljs55q5qhzzzzzjfgjdsdsq55555ffjhddds5qqqqs55555q5555qq5P",
"s0qsddfkhfq5qqqdhhhlIzljfdssdfds5445sdfsqqsssqs55sqqs55qq5555q5P",
"qqqsssfjdsq5qssffffjzIzldq5qqdhfq545qqsq5qsqdffs5qqqs5555425PsPq",
"qdjdqssddsqqshhhjfddjIzldsdqqsfhdq54555555sfhflkPsqqs544242PPsP5",
"jjfqsssqssqfjjhhjdffhzzgefjfqdfdss5sqs555sfjdgPzPPsq5q5425qsPs55",
"jssddq5qqsdfdhjhfdfhljfssdlldfhfsdhkfsqqqfjlflzzPPPq5Pq445PPPP5P",
"s5djd5qdsffsssdfddflldq0ddflljzljkzzsq55qjjfglPPPPqPP55525PPPPqP",
"5qffddssqqsq555sfsdjf00qq5sdfjjjzPzlfdsqshlzzzPzq5sqP554qP5qqq5P",
"5qjfdddssdqqsss5qssjq00q040i9qdlPzljkljdfzzzljklPqPqP545PPPPqPP5",
"5sjfjljfdqqsfdq5qeds5qdqqq5poOwljfdjzzljflzfdjjd5qPsq544P55PPqPq",
"qsfjzPklllhlfq0qqqs55qdjsq0bo .@37qfzzzljhhffddfsP55555sPsP5sqP2",
"sdhkzzzkzzlhdddqq0555sfzldqc.   o@=8lzlzzljhssfhP55545PssPq5PPP5",
"ssdfjlzkllhfhjd05545sdfjkjjb.X--+o @gddhjhfhsssss5525qqP55sPPP45",
"fffdfjljjjffhlds5455dffsfgln>>o    %5400ssddssq555445qqqsPPP555P",
"jjjfdsssdlfdjjsq545qdfdsfjSRKm<o.  @42505sfjfdsqqq44qqqq5PqP55P5",
"jjklfs55shdsjfq555qfhfdhfjTRK>xmv1-O34sssfzzzlffPq4255qq555qPPPP",
"dflzlq55qdqsjfs525qdsdjkzVEN,NoXX+-1rqqsqfjkzzlf5554qqqq555q5P5P",
"fffllsq4qqqsjs5224500sfkzSW,o1moXo$000qsdfffjzzlPPPPP5qq55P555P5",
"hhdkhsds555sfq542445sssshUR#oo>m+O00055qdjdsdjlljkjffqqsPP555qPq",
"hfffdhhfs55555445q55sffssTKoooo=v8ds000qdhjdqdsdjjsss55s5PP5qq5P",
"dsfjshjfs5555224q055dfdfgEmXoo%6whldqqq0qdhhfssjkf5qq55fPPPPP5qP",
"ssfljjjfs555445qq5555qssCW,o$70999u99ee009;%6shzksq5q5qhPPPPPPP5",
"ssdhkjjf55445qdhqsq55555JR+*009*+oooo****+o.@fljhq5q5sfhPqPPPP5P",
"55sdffs55500qfglfdsq5559MNo+OO+*oo+oO===**o.@fjdss5sssff5PqPPPP5",
"555555542477:89jhgss554=#*********8wwgdww7%&:edee05qff5PP5sPPPP5",
"5554544556+#*-*,-,>->->*>>*-,>*>,*=,-->->=>=-==-=>=>&&4P5Pq5PPP5",
"5q544455qw;;=,%79866:;;-**********>868:%%%%:;%&%&66;669hffjljfs5",
"0524445qsfgfesgPzjdsq00:->+*+++*++$$%786&=oo@555dgsqqdhffdlldq54",
"425qs555sfdssdhPkfds5550GKo#68:=+o+Oo*#*#*o.O555qsq55qqfsdjf0042",
"24sdq55qfqqsdfhPzfsq5550BE=O4de>O#O+#%;$;*oX@55ss05550qesdhq5404",
"5dhd55qds5sddhPPls5sq5qqiE1oo;egfdq005432490q5qsq005450qqdd55044",
"fjhq5qdsqsssdPPjd55ssssqeYZXoXO#yuq45044qqssqq5qqdqq0440qd545045",
"jhd555qsssqdhPPjsqssqqq50JLoXXov,%00qqqqddfdqq55qqqsqq00q5445qqh",
"jfsq44qdsssdhPjs5sfssdsq7BE*X+v-oo&sdhjhhjjfsq555q00sdqq0445qdfl",
"jjsq55sffdssfjhqsfssfffdqVExON-XXXo:gzzzlljhd5555sfsqsfsq5qqsjll",
"kjfs5555dffffjfsfhffhhffqdRGN,o*-tmxazIzzlhjfq555sfhhfdsq0qdhjhj",
"Pkfs5555qshhjhdfhhfhhfjfs5HRKNDm<-o$lzPzzljzks555qfhkkjfqsfhhffj",
"kkhfsq555qfhhfsfhhffjPhs55bKLx+o.XX:lzzkljkzf55525qhhPkjdffsdffj",
"fPjffs55ssfffffhfsffjhd5440F-vm-ooX;gjljflkzdqq5555hfhPPjkhdsdff",
"fffdqsq555ssfffhsfffPs55qqeF+o+<x,=;jljfjkklsssq5q5fffkkjkkhssfh",
"fds55q5q55qsfffsssfjf55sfdqAOXXX#:wgjzljjzldsds555qfdsjkffhjdssf",
"fdqqss555q5qsffqdfPjq5qfjjdA-o$27qsdffjljkldffsq5sfhsshkfqdjfdqs",
"qsqsP42455555qqqsPPP255PPPqP8245252PqqqP5PPPP5q5sfjjddllfsqhffds",
"sssfqq552Ps544555P55555P5PPPfss54255q5P5555P5P55shkjhjjffdqsjffd",
"ssffP4555qs55555qq5555PPsPssfPdq5555qPP25qPqP445fjkjjds5qdsqhjhf",
"Psfsqqqq5PPqPqq544455555qssPfPfdq5545Pq55q5qP52Pjjhsdfsq55qqdhhj",
"ssss55qs5PPssssq55555555sssfPPPfPsP255555545PP45jss5hjjfs5qqsfff",
"sPs55qq55ssPPqqP55Pqq55PPsqsfPPPPq5P525sqPq55P5Pd5sshPkhfqq5qdds",
"ss55s5qqqsPsPsPsPPqP5q5qqfsqsfPPPPPsPPPPq5P5qP5PssffhPkjfqq555qq",
"55ssP5P5qPssPPPsq5PPq5555ffPsqsfPsPPqP55qPP55P555dffjPjfdqqq5455",
"q5P5P55PPqPPPP555P54q5555q5PP55P4qPP5P545P555P5q555PPPq5qdssq545",
"P55PPPPPsPqP5q5PP55PPPq5q55PPPq55PqP55554P555qq5q4PPP5PPsdss555q",
"554545P5qq55555PP555PP55P4555qP5PP55qq555555PP44PP5PP5P5dssq55qs",
"5PP555q555q55555q5PPP5P5P554Pqq5P5P5qqq554P5P45PqPPPPP5Psq5555sP",
"PPP555555P5555P555PPPPP455q5qP5PP55P5P5555P5P5PPPP5PPP55q544qsPs",
"P5PPP5P55q55q55PPqPq5P5PP55P555q4Pq55qqPPPPPPP5q5PPP5P555555sPss",
"5P5PqP55555555qP5qPP5PqPP5q555Pq5PP22PPPPPP555P4555P55q55P5PPs5s",
"55P5P5PP55q55555PPqP555PqPq55q455555q5PP5P5P5P5P5PP5Pq55554Ps55s"
};
