/* XPM */
static char *result[] = {
/* columns rows colors chars-per-pixel */
"64 64 79 1 ",
"  c #060505",
". c #0D0D0D",
"X c #100F0F",
"o c #1B0F0F",
"O c #131313",
"+ c #1B1515",
"@ c #1D1C1C",
"# c #221414",
"$ c #231B1B",
"% c #2A1B1B",
"& c #301717",
"* c #341E1E",
"= c #391E1E",
"- c #232222",
"; c #2B2323",
": c #2C2A2A",
"> c #362222",
", c #3C2323",
"< c #322D2D",
"1 c #333333",
"2 c #3A3636",
"3 c #3C3B3B",
"4 c #471717",
"5 c #451A1A",
"6 c #4D1B1B",
"7 c #531E1E",
"8 c #422525",
"9 c #4B2525",
"0 c #442B2B",
"q c #4B2B2B",
"w c #562121",
"e c #5C2323",
"r c #542B2B",
"t c #5C2B2B",
"y c #4B3131",
"u c #403F3F",
"i c #483838",
"p c #513131",
"a c #5D3333",
"s c #5E3E3E",
"d c #612626",
"f c #652A2A",
"g c #6A2D2D",
"h c #653030",
"j c #6E3131",
"k c #663A3A",
"l c #733434",
"z c #783737",
"x c #763939",
"c c #7B3A3A",
"v c #424242",
"b c #4D4D4D",
"n c #5A4545",
"m c #524D4D",
"M c #535353",
"N c #585252",
"B c #5C5C5C",
"V c #6E4E4E",
"C c #625F5F",
"Z c #6F5B5B",
"A c #755454",
"S c gray40",
"D c #6A6A6A",
"F c #746565",
"G c #7C6565",
"H c #7B6868",
"J c #747373",
"K c gray47",
"L c #803F3F",
"P c #814141",
"I c #824949",
"U c #845555",
"Y c #826363",
"T c #877A7A",
"R c #868686",
"E c #8C8787",
"W c #8A8989",
"Q c #958D8D",
"! c #939393",
/* pixels */
"dfjxzczgfdtte7wtedddggddde66re67ee7dllf7dfggffd7egLf777L777LL777",
"edgglzczjfjfeefeeedfljfeew666w67eweglfddgjglgfeedjLgLeee7L77L7L7",
"dffgglzcxjjxlgddddffgfeww6976666e7ejllffffjjgdeedffdLdde7L77Le77",
"fggfdfjxllxlggedffgfdeew6466w66677ejljfdfgjfggddgd77edLdLeLLLL77",
"fdggfdddfxxdddweglllgeee66eee77647dllggjffgjgfdfge777edLLLLL7777",
"jffgjfddlzf7ww7eflzLxjfdtelge76766eflzzzllgfd7dgd777777L7Lee777L",
"jeeffffjxlde7eeelzzLczxgglfddde7776dfgljfgfd77d7ed77777eeLe7eeeL",
"dwedffgzjgd7e7efglgzLVxlgfddfggd7667dfgdd7ddddd77deed77e7477777L",
"eeedddglfde7eddfggglcPcxfeeedfgge7677dd77wddfggdeeded7777747LdLe",
"eflfeedfffeedljjlgfflPclddfeedflde767ee777dggglzLdeed777444LLdL7",
"llgedfdeddefllljlfggjczjdjlfefffddedede77tglfjLLLdd77774477dLL7e",
"lddffe7eeeggdgllgfgjxljeedxlgglgdfjlgew7ejllglzLLLLd7Le477LLLd7L",
"d7flf7eddfjeedggffgxxfewffgxxlxxlzczfwe7dgljjxLLLL7deL7747LLLLeL",
"7eggffdfedde77edgdflfeweewdfglllcLcxjfdedlzzccLVL7eLL747eL7e7eeL",
"7dlgfgfedfeeede7edfjewwew7weedgxLLljcxlfgzccllxzdeLeL747LLLLeLL7",
"7elgjxljfdedgfe7etfd7dfewwwwedfxlf9iGzxlgxzjfljfdeLde777L77LLeL7",
"edfxzLzlxxlljeweeed77eflde7777ef6$O:YcccljjggffgLLe7777dLdLeeede",
"efjzcLcczzxjfffeew777dgzxfe7w9>#OO.@Hcxzzxljddgjde7777dLLddeLLde",
"fdfgxzczzxjgjlfw7767ffglzxlf>-1v1-OOFhdjllgjddddd7747eLd7dLLLLdd",
"gggfgllllxggjxfd7677fgffffll>OOO:mm:Cr7eedffdde777747d7eedLd7e7L",
"llxgfdddflgfjlf7767dfgfdfljl,OO.O@vKJs777dgljfdeee44ee7dLeLd7dLd",
"llzxgd77djgdljd767efjgfjlggf$+-3MSBJWGdfdjzcczggLe7477de7777LddL",
"fglcle77dfedlgd766efdflzzxgyvbu:-O1BDRfddgxxcczfeL77edee47eL7LLe",
"ggjzxde67d7dlf764677edgzzcxa,O.O.:B@vWkdffgglccxLdLdL7d777de7eLd",
"lggxgdfd777dfe744667dddfgzxgg9OO:b+O-WVtflfdflxxlzzggdedL7e77edL",
"ggggfljgd77777747e77ffffefggdd%1bOO.OKHedllfdddgllddd77dLLL7dddd",
"fdgjdglgd7777446e777dfgfdeeeedri@+OO.CTtdfglfdflzf7ee77fLLLLL7dL",
"ddgxlzlgd777766ee779rwdddww79wwehh,OOvWk7dfgffgzzde7e7ejdLLLLLL7",
"ddfllllg77777efldde#.O;>,>>$$@$$:axrO:RAeeefdgxlle7eedfldLdLLLe7",
"77dfggf77777dfgzjfd#.O@--@@++OOO-8r0%OKFe7eedflgde7ddffjd7LLLLLL",
"777777764777edfxlgf%X+%,8qq%$$@@-@@@@@1:,e7eedffde7dgg7LLe7LLLee",
"777676667==,888q9888,****8,,,,----------;>,,,,,,,;<;447L7LLeLLL7",
"we766677e0:<::>::;::-<;1::::<--11-:1:-11$1:<;<<:<-:@-$pjggjzxgd7",
"7766667edhfftfhxxjf8,>9ttwrqr2--@----@-@;56r969wfq0,qrjgffxzfe76",
"646ee777dgfeeglczjg#.O-----+O+O@-$$$@+BM,5566777etew7wdgffxgw765",
"46dge77egdedfglLxjd#..@-$--+OO+O-ajt%@RZ666667wedww67weeefje7776",
"7fjf77efdeefflcclee=**qw96r98qqqyfw$O1!n467ee7ddeww767wweff77776",
"glje7efeeeddgzLzfw7dddee7wewedjtr>+OOMEreeddee77efeew67eef767w66",
"llfw7weeddeflcLldddd7de776777e,m-OOOOJTeffgfde77eeeede67e7667edj",
"lgd767edfddflzldedfddfde6wee79@+M1OO@RYjlllgd7777eewdfte7667efgx",
"lld777dfgfddgzjddfgdggfdegfe9%OOOM2O1!Uzzxllfe777dffedfde77edlxx",
"zzgd777eggffglgdgjfgjjjgeew02:+OOOB2NQIcczjlge777dgllgfdeweglljl",
"zzjde767ddgjlldfljfjglzfe765+<vbMv1JREPczxlzxe767efgzzlfedgjgggl",
"zzlgde6777gjlgdglgfjlzld7666#   O1mJWYczxxzzgw7767ellzLlfggdfggl",
"gLzjgd77ddfjjffjgfggzlf76677&    O11mxxlllzcfee7777lglLzlzlddggg",
"fggdeee777dfggjjdfglzf77ee77+ .@::O bcljlxzlddde777ggfzLzllgddgg",
"ggf77ee777edggjdddgzg77dgfew,*$O.  .ncxllzzgdfde777gfdlzfgllfddg",
"ffeedd777e7efgfefglld7efllgeww6=O  Onjjxlxxfjfde7dglfdglgdflgfdd",
"ddddL744777777defllg77dgxxjfd77665ooeLeL7LLLL7e7dfllffxxgddjggfd",
"dedgdd774Ld74777dgfe7edllxljffde6777ddde777e7L77dllzjljjgf7dlggf",
"ddggdd777dd77777ee7777fggxzjljfe6677efL47eLLL77eglzllfe7edeegllf",
"Ldgdeeed7LLeLd77667677dfefgglxlgeeeedg777e77L777lljffgfd7eedfgll",
"ddL777eddddeddd7ee7e777ggdfjxcczggfe77777777LL7Lldd7jllfd77edggj",
"eLd7777edeLLLdeLfddgd77fjdedlcccxggg74edL7L7ee7ef7fdlLzlfde7edfd",
"dd77dde7dd7LdLLdjjllee7dfjftfjxzcxgleLL77ee7LLe7ddfggzLlfde777ee",
"7eedddL7LdLdLLLdfggde777efjjdtfjxxlxLLe7LLL77eL77fgglLlffdde7677",
"7L7LL77LdLLLdLeefgddfe777dgljddfdflltfd77L777L777L7LLeL7dddde667",
"7e7eLLLLLddLddddffdflgd7e7dfjjfddllfeee77L774LL777eLLL7Ldfdde67e",
"e77L77L7777777dLfefjzggdde7dfgfdgzjdeee77e77LL77eLeLL7eeddde77dd",
"7Le7777777e777e7fdflzlgffdeedddglggdeee777e7777LLLLLLLLddee77dgg",
"L7L77ee7dd777eeLfdglzlgddfde7ddfgffd7e7dL7LLL77LL7LLdL7ee777edgd",
"LLLL7LLeLe77e7deffjlgllgfdfd7ddddfgd7dgl7LL77LLL7L7LLe777777dLdd",
"7L7LL7de477777ddfgllffglldd777fddfd77glzLLLLL77777LLL7ee7deLLedd",
"L77LdLde77e77eeelzzgfddggfd77fde7de7glzlL777L7L77LL7ee77ededdeed"
};
