/* XPM */
static char *result[] = {
/* columns rows colors chars-per-pixel */
"64 64 80 1 ",
"  c #060505",
". c #0D0D0D",
"X c #100F0F",
"o c #1A0E0E",
"O c #131313",
"+ c #1A1515",
"@ c #1D1C1C",
"# c #251515",
"$ c #2B1717",
"% c #231B1B",
"& c #2D1C1C",
"* c #341D1D",
"= c #3A1D1D",
"- c #232222",
"; c #2A2525",
": c #2C2B2B",
"> c #352222",
", c #3B2222",
"< c #322E2E",
"1 c #333232",
"2 c #3A3636",
"3 c #3B3B3B",
"4 c #471717",
"5 c #451B1B",
"6 c #4D1B1B",
"7 c #531E1E",
"8 c #432525",
"9 c #4D2222",
"0 c #452A2A",
"q c #4B2A2A",
"w c #562121",
"e c #5C2323",
"r c #542B2B",
"t c #5D2A2A",
"y c #4C3333",
"u c #403F3F",
"i c #493939",
"p c #523333",
"a c #5C3333",
"s c #612626",
"d c #652A2A",
"f c #6A2D2D",
"g c #653131",
"h c #6E3131",
"j c #6E3C3C",
"k c #733434",
"l c #783737",
"z c #773939",
"x c #7B3A3A",
"c c #424242",
"v c #4D4242",
"b c #4D4D4D",
"n c #564646",
"m c #524D4D",
"M c #535353",
"N c #5A5353",
"B c #5C5C5C",
"V c #674242",
"C c #6F4545",
"Z c #724343",
"A c #724848",
"S c #625F5F",
"D c #725151",
"F c #785757",
"G c #745C5C",
"H c gray40",
"J c #6C6060",
"K c #6A6A6A",
"L c #796767",
"P c #747373",
"I c gray47",
"U c #803F3F",
"Y c #824141",
"T c #816C6C",
"R c #847676",
"E c #8B7D7D",
"W c #868686",
"Q c #8B8989",
"! c #928C8C",
"~ c #939292",
/* pixels */
"sdhzxUldddstwwwtesdsffsssww6wew7ee7skkd7edffddseefUf777sU7eUU777",
"esffhlxlfdfdeedeeetdhkdeew666966ewedkdssfhkhfdeeefkfU7ess7e7eUe7",
"sddfhkkUzfkzhhssesddfdeww6696666e7wkkhfdddfhhseesdffUessU7e77Ue7",
"dffdsdhkkkzkhfessfgdseew6466w7667wtfkhdsfffffdssfe77ssUseUUUUUe7",
"dsfhdsssdzksts7sfhzzheew66wee77647shkffkddfffsssde777ssUUUUU7777",
"hddfhdsskxde7w7eszxxzhfstehfsw6767edklxlkzfdsesds777777U7Use7e7U",
"heedfddhzks77e7ehxzxxxkfhkdsssww777edhkfddds7eeees77777eeU77e7eU",
"ewwdddfkhfs7s7sdhhhzYxxhfdssdffs7767sddseesseeew7sees77e7477ee7U",
"ewesssfkdse7ssdffffhxYxzdeweedhhe767wssw7wssdffs7ss7s7777477ssU7",
"edkdsesddsewshfhkffdkYxkdsdeetdaww767ww777sfffllUsees7744777UUU7",
"kkfesssesswdkkkhkdffhxzhtfkfwfd>%qwees7w7sfzdkZxUUse7777447UUU77",
"kdsdf77eesfhsfkkfddhxkfsedkkffh>-rhxfswwwfzkfkUxUUUs7U7777UUsU7U",
"s7dkd7sdsffdssdffddzkdeeddfxzkj--yxxdwwwskhfhzUUUUssss7777UeUUsU",
"7ehfdsssessw777sfsdzfwwewwsdfkh1:yxkhdsesfzxxxUxe7eUU77777UUseeU",
"7skfdfdssdewsss7ssdhwwwew7wwedd:-pzzzkkdfxxxkkzzseUeU777UUUUU7sU",
"7ekfhzkfdeesfde7wedd7sdswwwwwef0<ddkxzzkflxhfhkdseUes747U7sUeUs7",
"7sfkxUlkzkkzheweess77edkde7777e8:wwhxxxxkhhfhsdfUUe7777sUsUessU7",
"sdkkxxxxxxkhdddeww767sfxkdwe776=:9tkxzzxxlkfssfhse7767sUUsseUfs7",
"dsdfkxxxxkhfhkdw7677sddkxkhds77*<wkkhsdhkhhhssdss7747eUs7sUUUsss",
"fffdfhkkkzffhzde776edffddfkzfe7=:6ee777wssddsse777477s7sesUsss7U",
"kzkffsssdkfdhks7767sdfdsfkfkfe7,<676647w7sfkhdswee47777s7UUsssUs",
"kklzfs77skdskhs777efhffhfhfdew7*:w766wsssfxxxlffUe7477se7777UssU",
"dfkxke77sdeskfs747edsdkxxkfeset,1ge97wesefklxxlde774ssee77eU7UUe",
"fffxzsw77s7skd774677wsdkxxzedd8;@>qwwwwsdfffkxxzUUUUU7s777s77eUs",
"hhdlfsds7e7sde744767setshxxAFL:-1@MJVteedhdddhlzsUUeUeeeU7777sUe",
"hfdfdhkf777777747w77dfhCDTEQQI1-<-SW~!RGAzzdtdsdUU7U777eUUU7ss7U",
"dsfkshkfs7777446wrweCTWQQIBu-O@-;-O@2MPQ~!ELjsdkU7e7777eUUUUU7eU",
"ssfzklkfs77776rDGJJJPQKu;OXOO%@-;-@;XOO@2MWWmvnNkee7e77UsUUUUUU7",
"ssdkkkkf77777sf2-@O:IPB@XXXO5=@-<-%h&OOOX2PP<.XOo77e77UesUUUUU7e",
"77sdffs77777sdfrOX.McB1B@OO$7=@-:-%zgOOO2S:M1X  oe7eU77UUseUUUUs",
"7777777646777sdl>O@M@HO:bOO9r,%---%ag8O<MOu2O:  7eesU77UessUUUU7",
"7776766777sdhklxdO2:XM-O:b%r;---<---pp;MOOMO : #wedkUeUUeUssUUU7",
"7s766677esfhfkkUx%cO.3:XO1ie%@@-<-@O0gM+OXb. @O=efhdhkhkdfkzkfs7",
"7747767edfffsskxxq3.X;uXO$re+O@---++0g,@O+c  .%9ffseefffddllde76",
"4477e777sfdssdkUxa-XOObO=67e%+%>-0OO0ew5%::   &weewwwwsfddzfw764",
"47sfe77edsesdfkxxg>&*%c=657r@+&01pO+,w6663+#$O,esw777wwssdfew6w6",
"7dhd77eds7sddklUkeweewyr66we%+>8;r@O8764609ewwesww7767wwedd77776",
"fkhe77dsesssfkUld77ssssewwew>@q,:r;-ww667eedse7esfsew67wed767w66",
"kkd777esssedkUUkssds7ss766w6*-8=<t--teeedffdee77weessw7www66wwsh",
"khs777essssdkxkd7sdssdsw77te>-8,;r--dhkhhkkhs7777ewwtdee7777wdfz",
"lfse77edfdsshlhesffsffdsefdw>-q8<6;-hxxxlzkhd7777efsesssw77edkkz",
"lUfs777edfdffffsfhdffkhfee7w;@>,;8-@axZUxlfkfe777sflkffsewefkkhk",
"llfs7777esfflfddkhdhhkkfe769OOO*<=XO,UUxlzzlks747edfkUkfedffhffk",
"Ukffs7777efkkfshkfffklks7665..O,;,..,xxlzzlxhe7767ehhlUkdffsdffk",
"UUUffd77ssdfkddhhshfkkd77676##$>:q$#8zlkhzlxdes7777hhkUlklhdsdff",
"efsseee77esddfhksshfkd77ws77wst,:dfzzxkfkklzssse7e7fffllkllfssfh",
"ssse7e7e77esfdfsedflh77sfde7wew,;eddklxzkxlddds777esdsklfdkkdssd",
"Useess77777sdfdedflke7efkkfswew*:refdfhlklzdfdseeefksehlhedkfdss",
"7sssU74777777eeedkkf77shkzhds77*$777sesUseeUsUe7sfkldskzfsehfffs",
"s77Us7777es77477dfde7wskkllhdss=447Ue7U777UUse77sflkkkkfkdeshffd",
"UeU7U777ess77777we7777dffzlhkkd,*677eUU47ssUU777fklkkssewssehkhf",
"77Use7777UUeUse767677wsdedffkzh8;777es777e7eU74Ukkhsdfs777esshhk",
"U77777eUssUssss7ee7w777fdsdhzxx0>dde7777ee777U7ekss7kkkds77esfff",
"7UU77777sssUUseUdssfs77dhseskxxq:gdh777seeUeU77Ud7dshUxkfee7essf",
"eU77U777ssUsUsUsfhkfee7sdhtsdhhpyzhk7UUUe777UUsessdffxUkfeee77ee",
"77777UU7UsssUUUsdfkss777ehfhdtdhzkkzUU77eUUe7Uee7dffkUkdseee7677",
"7sseU7sUsUUUsUeedfssde777ddkhssdtdkksdsw7U777Ue7e77UUUs7sssse777",
"UesUsUUUUssUssssddsdkfs7e7sdhhdsshkdeew77U777se7e7UeUeUUsfss7777",
"77es7ess777777ssdesklffsse7sdfdshzhsseewe777UU77UeUUeUsessss77ef",
"Uese77e777s77sssdsdklkhsdseesssfkhfewwww77e7s7eUUUUUUeUsee777eff",
"UU7Uese7ss7777ssdsfklkfssdse7ssddddsweesU7UU777UUeUUU77ee774efUs",
"7U7UsUU7ss77s77Usdhkfhkfdsss7ssssdfs7sdk7UU7UUUU7U7UUeee7777ffss",
"U7UUsssse77777ssshlkfsfkhsse77dssds77fklUUUUU7777UUUU7s77s7UUe7s",
"7U77Usss77e77eeskllfdssfhfe77dss7se7fklkU777U7U777U7se77es7Use7s"
};
