/* XPM */
static char *result[] = {
/* columns rows colors chars-per-pixel */
"64 64 189 2 ",
"   c #120A06",
".  c #190B07",
"X  c #150D0A",
"o  c #17100D",
"O  c #1D120B",
"+  c #140D18",
"@  c #1F1714",
"#  c #22140E",
"$  c #261614",
"%  c #241B1A",
"&  c #2B1B1B",
"*  c #301618",
"=  c #2A211C",
"-  c #3B2117",
";  c #3F281D",
":  c #0C082B",
">  c #181127",
",  c #19173D",
"<  c #1C2036",
"1  c #2A232C",
"2  c #352426",
"3  c #33302D",
"4  c #232639",
"5  c #362A35",
"6  c #34333B",
"7  c #3B3938",
"8  c #44291C",
"9  c #422926",
"0  c #4F3324",
"q  c #47332B",
"w  c #5A3B28",
"e  c #453236",
"r  c #4D3B32",
"t  c #423B3D",
"y  c #593D39",
"u  c #49433F",
"i  c #5A4133",
"p  c #56423B",
"a  c #5C453C",
"s  c #684736",
"d  c #6B553F",
"f  c #735438",
"g  c #1B1942",
"h  c #1A245F",
"j  c #20214F",
"k  c #3C3B45",
"l  c #36364A",
"z  c #31314D",
"x  c #292A5B",
"c  c #0C176A",
"v  c #1F2972",
"b  c #12307F",
"n  c #272F6F",
"m  c #33346C",
"M  c #242F7A",
"N  c #463C46",
"B  c #503E47",
"V  c #463C56",
"C  c #513A51",
"Z  c #3F4754",
"A  c #3F505F",
"S  c #3D4C70",
"D  c #4D4945",
"F  c #474548",
"G  c #554B45",
"H  c #584848",
"J  c #5D5047",
"K  c #474954",
"L  c #5B4F53",
"P  c #4B5357",
"I  c #43535C",
"U  c #595457",
"Y  c #51515B",
"T  c #5C5B5D",
"R  c #684B47",
"E  c #714F42",
"W  c #67534B",
"Q  c #61554C",
"!  c #77584A",
"~  c #685056",
"^  c #675B56",
"/  c #6A5D57",
"(  c #635C5B",
")  c #7D5F5A",
"_  c #54605D",
"`  c #68625D",
"'  c #444365",
"]  c #534F69",
"[  c #495961",
"{  c #555A64",
"}  c #644B65",
"|  c #6A5060",
" . c #4F6165",
".. c #526266",
"X. c #5C646C",
"o. c #5E6B6C",
"O. c #4E6570",
"+. c #5A6B75",
"@. c #5F757F",
"#. c #676767",
"$. c #6A6467",
"%. c #676769",
"&. c #696969",
"*. c #686E6A",
"=. c #746765",
"-. c #73726D",
";. c #7A756B",
":. c #676876",
">. c #746F76",
",. c #6C7178",
"<. c #757575",
"1. c #7A7777",
"2. c #727971",
"3. c #797875",
"4. c #77797A",
"5. c #7F7F7F",
"6. c #856348",
"7. c #976D49",
"8. c #9F744C",
"9. c #896954",
"0. c #936E57",
"q. c #8F725A",
"w. c #AF7B57",
"e. c #847768",
"r. c #847B71",
"t. c #807F7F",
"y. c #AF8155",
"u. c #8C8377",
"i. c #80807F",
"p. c #88837A",
"a. c #B18C64",
"s. c #D09D66",
"d. c #CFA47B",
"f. c #D7A972",
"g. c #142A85",
"h. c #0D2690",
"j. c #102790",
"k. c #213790",
"l. c #163EA9",
"z. c #0C3DB4",
"x. c #1F4489",
"c. c #2E53A5",
"v. c #494A83",
"b. c #475897",
"n. c #656C87",
"m. c #647983",
"M. c #6D7C84",
"N. c #737586",
"B. c #7B7E80",
"V. c #7E7D90",
"C. c #4F69A0",
"Z. c #0036D0",
"A. c #0441D9",
"S. c #106DF8",
"D. c #6F8789",
"F. c #758383",
"G. c #7B8285",
"H. c #7A8997",
"J. c #7A9399",
"K. c #7A83A0",
"L. c #7895AC",
"P. c #1980FB",
"I. c #5B83C3",
"U. c #4C94E7",
"Y. c #808080",
"T. c #888985",
"R. c #8E8E8E",
"E. c #928C87",
"W. c #928F8C",
"Q. c #96928B",
"!. c #858C91",
"~. c #8D8E90",
"^. c #8F9090",
"/. c #919191",
"(. c #989897",
"). c #9A9996",
"_. c #A89586",
"`. c #B0A391",
"'. c #8E9EA6",
"]. c #8D9DAA",
"[. c #98A4A9",
"{. c #86A5B2",
"}. c #98ABB5",
"|. c #DAB184",
" X c #DEBF90",
".X c #91B3CC",
"XX c #A1BDCD",
"oX c #B2D4E4",
"OX c #C6E9F8",
/* pixels */
"R.R.R./.R./.R.^.^.^.^.R.^.R.^.E.t.t.t.t.<.<.<.<.<.<.<.<.5.5.5.5.<.<.<.*.%.&.&.&.<.<.<.<.<.*.<.<.1.t.t.t.5.5.5.t.t.t.t.t.B.t.t.B.",
"R./.R.R.R./.R.^.^.^.R.R.R.^.R.R.t.t.t.B.<.<.<.<.<.<.<.<.5.5.5.5.<.<.<.<.&.%.#.&.<.<.<.<.<.<.<.<.5.t.B.t.5.5.5.t.t.t.t.t.t.t.t.t.",
"/.R./.R.R.R.R.R.^.R.R.R.^.^.~.R.t.B.t.t.<.<.<.<.<.<.<.<.5.5.5.5.<.<.<.<.&.#.&.&.<.<.<.<.<.<.<.<.5.t.t.t.5.5.5.5.t.t.t.B.5.5.t.t.",
"R.R.R.R.R.R.R.R.R.R.R.R.R.R.R.R.5.5.5.5.<.<.2.<.<.<.<.<.5.5.5.5.<.<.<.<.&.&.&.&.<.<.<.<.<.<.>.<.5.5.t.B.5.5.5.5.t.B.t.t.5.5.5.5.",
"Y.t.G.i.i.i.5.5.4.<.<.<.5.t.t.5.<.<.<.<.5.5.5.5.5.5.5.5.5.5.5.5.5.5.5.5.t.5.5.5.5.5.5.5.&.&.&.&.#.#.&.&.<.<.<.<.5.5.5.5.2.<.<.<.",
"5.5.t.t.5.t.5.5.<.<.<.<.5.5.5.5.<.<.<.<.5.5.5.5.5.5.5.5.5.5.5.5.5.5.5.5.t.5.5.5.5.5.5.1.&.&.#.&.#.#.&.&.<.<.<.<.5.5.5.5.<.<.<.<.",
"5.t.t.t.t.5.5.5.<.<.<.<.5.5.t.5.<.<.<.<.5.5.5.5.5.5.5.5.5.5.5.5.5.5.5.5.5.5.5.5.5.5.5.5.&.&.&.#.&.&.#.&.<.<.<.<.5.5.t.5.<.<.<.<.",
"B.i.t.5.5.5.5.5.<.<.<.<.1.5.5.5.<.<.<.<.1.5.5.5.5.5.5.5.5.5.5.5.5.5.5.5.5.5.5.5.5.5.5.5.&.&.&.#.*.&.&.&.<.<.<.<.5.5.t.5.<.<.<.<.",
"5.5.5.5.<.<.<.<.&.&.&.&.&.&.&.&.<.<.<.<.<.<.<.<.<.<.<.<.&.&.&.&.<.<.<.<.<.<.<.<.<.<.<.<.5.5.5.5.5.5.5.5.5.5.t.B.5.5.5.5.5.5.5.5.",
"5.5.5.5.<.>.<.<.&.%.&.%.&.#.&.&.<.<.<.<.>.<.<.<.<.<.<.<.&.#.&.&.<.<.<.<.<.<.<.<.<.<.<.<.5.5.5.5.5.5.5.B.B.t.t.t.5.5.5.5.5.5.5.5.",
"5.5.5.5.<.<.<.<.&.&.#.&.#.&.#.&.<.<.<.<.<.<.<.<.<.<.<.<.&.&.&.&.<.<.<.<.<.<.<.<.<.<.<.<.5.5.t.t.5.5.5.t.t.t.B.t.5.5.5.5.5.5.5.5.",
"5.i.5.5.<.<.<.<.&.&.&.&.&.&.&.&.<.<.<.<.<.<.<.<.<.<.<.<.&.&.&.&.<.<.<.<.<.<.<.<.<.<.<.<.5.5.t.i.5.5.5.5.5.5.1.5.5.5.5.5.5.5.5.5.",
"5.t.t.t.5.5.5.5.T.R.R.R.R.R.R.R.t.B.t.t.R.R.R.T.5.5.5.5.5.t.5.t.T.R.R.R.R.R.R.R.Y.i.5.5.5.5.5.B.5.t.t.5.<.<.<.<.<.<.<.<.<.<.<.<.",
"5.t.t.t.t.t.5.t.^.^.^.^././.R.R.t.t.t.t.R.^.^.R.5.5.5.5.Y.Y.5.i.(./.R.R.R.R.R.R.t.G.5.t.5.5.5.t.5.5.5.5.<.<.<.<.<.<.<.<.<.<.<.<.",
"5.5.t.t.B.t.t.t.R.R.R.^.^.^.R.R.t.B.t.t.R.R.R.R.Y.5.5.t.4.D.J.T.f.`.!./.R.R.R.R.i.t.t.t.5.5.5.5.t.t.5.5.<.<.<.<.<.<.<.<.<.<.<.<.",
"5.5.5.5.t.t.t.t.R.R.R.R.R.T.R.R.t.t.B.t.T.R.R.R.Y.5.t.i.M.D.{._.s.W Q.W.R.R.~.R.Y.Y.i.Y.Y.Y.Y.Y.t.t.t.5.<.<.<.<.<.<.<.<.<.<.<.<.",
"<.<.<.<.5.t.t.t.i.i.i.5.<.<.<.4.<.<.<.<.<.<.5.5.B.G.t.( +.@.+.a.d 1 I.K.Q.(.^.~.R.R.R.R.R.R.R.^.R.R.R.R.<.<.<.<.5.5.5.5.5.5.5.5.",
"<.<.<.<.5.B.B.t.5.5.5.5.<.<.<.<.<.<.<.<.<.<.H.[.<.T.-.N A I L 7.1 x b P.I.v.H.(.^.^.^.R.E.^.^.^.R.R.R.R.<.<.<.<.5.5.5.5.5.5.5.5.",
"<.<.<.<.5.t.t.t.5.t.5.5.<.<.<.<.<.<.<.<.<.-.G.}.[.F.T 7 k 9.a.s h = - x.S.z.h.X.(.R.R.R.~.^.^.^.R.R.R.R.<.<.<.<.5.t.t.5.5.5.5.5.",
"<.<.<.<.t.i.G.t.5.5.t.t.1.<.<.<.<.<.<.<.<.<.4.'.OXN.L 6 7 8.f.H b # - v A.l.+ h U./.R.R.R.R.R.R.R.R.R.T.<.<.<.<.1.5.5.5.i.t.G.t.",
"5.5.5.t.R.R.R.R.Y.5.5.t.5.5.5.5.5.5.5.5.5.Y.5.].oXV.~ N 4 l 7.~ g.f y.x A.c.;.S S.I.1.<.&.&.&.&.<.<.<.<.#.*.&.&.<.<.<.1.R.R.R.R.",
"5.B.t.t.R.R.R.R.Y.t.5.G.5.5.5.5.5.5.5.5.B.Y.1.].XXN.| H r N f ] j.6.a.Z A.b.;.3.C.n.<.<.&.#.&.&.<.<.<.<.*.#.&.&.<.<.<.<.R.R.R.R.",
"5.t.5.t.R.R.R.R.Y.5.5.5.5.5.t.5.5.5.5.5.5.i.5.H.{.,.} F 9 s w V b R 8.m Z.x p. X|.&.1.<.&.%.#.#.<.<.<.<.#.%.&.&.<.<.<.<.R.R.R.R.",
"5.5.5.5.R.R.R.R.Y.5.5.5.Y.i.i.t.Y.Y.Y.Y.Y.Y.5.G.H.:.C ~ 9 2 a s M j N k.b.! w.f.d.,.<.<.&.%.*.#.<.<.<.<.&.&.&.&.<.<.<.<.R.R.R.R.",
"<.<.<.<.5.5.B.t.t.t.t.t.R.R.R.R.R.R.R.R.R.R.^.!.m.,.K <.R ) W.z c h.c s w.|.0.e.r.<.<.<.-.<.<.<.5.5.5.5.5.5.5.5.5.5.5.5.t.t.G.i.",
"<.<.<.<.5.5.t.t.B.t.t.t.R.R.R.R.R.R./.R.^.~.^.^.N.{ [ :.;.q.Q.m k n B s 6.f.=.L.}.-.<.<.<.<.<.<.5.5.5.5.5.5.5.t.5.5.t.t.5.B.t.t.",
"<.<.<.<.5.5.5.5.t.t.B.t.R.R././.R.R.R.R./././.R.F.K [ Y u.q.).H y m y E x w.-.J.T.3.<.<.<.<.<.<.5.5.5.5.5.5.i.5.5.5.5.t.B.t.t.t.",
"<.<.<.<.5.5.5.5.5.B.t.t.R.R.R.R.R.R.R.R.T.R.R.R.<.X.{ K ~ 0./.Q * c 2 6.N Q { m.J.<.<.<.<.<.<.<.3.5.5.5.5.5.5.5.5.5.t.t.t.t.t.t.",
"<.-.<.<.<.<.<.<.*.#.&.&.&.&.&.&.<.<.<.<.&.&.&.&.<.,. .Z ! 6.<.U * y w w N z O.J..X4.<.<.<.<.<.<.2.<.<.<.5.5.5.5.t.t.t.5.t.B.t.t.",
"<.<.<.<.<.<.<.<.&.&.#.&.#.&.#.&.<.<.<.<.&.#.#.&.<.<._ Z B W i.] > 0 0 3 l A o.D.F.<.<.<.<.<.<.<.<.<.<.<.5.5.5.5.B.t.t.5.t.t.t.t.",
"<.<.<.<.<.<.<.<.#.&.#.&.&.#.&.&.<.<.<.<.&.&.&.&.<.<.*.A N n.3.&.> 5 2 0 P I  .J.}.<.<.<.<.<.<.<.<.<.<.<.5.5.t.t.5.5.5.5.5.5.B.5.",
"<.<.<.<.<.<.<.<.*.&.&.&.&.&.&.&.<.<.<.<.&.&.&.&.<.<.,.A / :.<.^ =.~ i 9 W T _ ..G.<.<.<.<.<.<.<.<.<.<.<.5.B.t.t.t.5.5.5.5.5.5.5.",
"R.R.R.R.R.R.R.R.R.R.R.R.5.5.5.t.T.R.R.R.5.5.5.5.t.i.2.I J a t J &.2.w 2 w / | <.5.Y.5.5.5.5.t.5.5.5.5.5.t.B.i.t.5.B.5.5.<.<.<.<.",
"R.R.R.^.R.R.R.R.R.R.R.R.Y.5.5.Y.~.R.R.R.t.5.5.t.t.i.i.P r 0 8 ` -.p.p & 1 R 9.9.1.Y.5.t.5.5.B.5.5.5.5.5.t.t.t.t.t.i.5.5.<.<.<.<.",
"R.R.R.^.R.R.R./.R././.R.t.5.t.Y.R.~.R.R.Y.5.5.5.5.5.Y.( 8 O 8 G P ` q % l T T.E.Y.t.i.5.5.5.5.5.5.5.5.5.B.t.t.t.t.t.5.5.<.<.<.<.",
"R.R.R.R.R.R.R.R.R.R.R.R.Y.5.i.Y.R.R.R.R.Y.5.5.t.i.t.i.=.i e G q D 3 ; 1 5 { ^.R.Y.i.B.5.t.Y.Y.Y.Y.Y.i.t.Y.t.t.B.Y.Y.Y.5.<.<.<.<.",
"t.Y.Y.Y.t.t.t.Y.R.^.^.R.i.5.t.B.Y.Y.t.Y.5.5.5.t.R.R.R.R.T.(.T.4 5 5 2 2 e N Y.Y.5.5.5.Y.R.R.R.R.R.R.R.R.R.R.R.R.R.R.R.R.Y.5.5.5.",
"t.5.5.5.t.5.5.Y.R.^.^.R.Y.5.5.5.5.t.5.5.5.5.5.t.R.R.^.^.^./.*.< ' , + $ 8 6 Y.Y.5.5.5.Y.R.R.R./.^.R.^.^.^.^.R.R.R.R.R.R.Y.5.5.5.",
"5.5.5.5.5.5.5.5.R.R.^.R.i.5.5.5.5.t.5.B.5.5.5.t.R.R.^.^.R.(.P : j , % # - N Y.Y.5.5.5.Y.R.R.R.R.^.^.^.R.E.R.R.R.R.R.R.R.t.5.5.5.",
"5.5.5.5.t.5.5.5.R.R.R.R.i.5.5.5.5.5.5.t.5.5.5.5.R.R.R.R.R./.{ : g } 3 . 2 B.Y.Y.5.5.5.5.R.R.R.R.R.R.R.R.R.R.R.R.R.R.R.R.5.5.5.5.",
"&.&.&.&.5.5.5.5.<.<.<.1.G.t.5.5.<.<.<.<.<.<.<.<.&.&.&.&.&.*.$.| *.-.@ . % 5.i.5.<.<.<.<.5.i.i.Y.Y.t.t.t.<.<.1.<.<.<.<.<.<.<.<.<.",
"&.#.&.&.5.5.5.5.<.<.<.<.5.t.5.5.<.<.<.<.<.<.<.<.&.&.&.&.%.&.&.&.5.X.X # & 3.Y.t.<.<.<.<.5.5.5.5.B.t.t.t.<.<.<.<.<.<.<.<.<.<.<.<.",
"#.&.#.&.5.5.5.5.<.<.<.<.5.5.5.5.<.<.<.<.<.<.<.<.&.&.#.#.&.%.#.#.<.#.o # $ <.Y.5.<.<.<.<.5.5.t.5.t.t.t.B.<.<.<.<.<.<.<.<.<.<.<.<.",
"&.&.&.&.5.5.5.5.<.<.<.<.5.5.5.5.<.<.<.<.<.<.<.<.&.*.&.*.&.&.&.&.<.<.@   3 G.i.5.3.<.<.<.5.5.5.t.Y.Y.t.t.4.<.4.<.<.<.<.<.4.<.<.<.",
"5.5.5.5.5.5.5.5.5.5.5.5.5.i.5.5.5.5.5.5.R.R.R.R.R.R.R.R.5.5.5.1.Y.<.X   U T.5.5.G.t.5.5.5.5.t.t.R.R.R.R.R.R.R.T.5.5.t.t.R.R.R.R.",
"5.5.5.5.5.5.5.t.5.5.5.5.5.5.5.5.5.5.5.t.R.R.R.R.^.R.R.R.t.t.t.5.T.#.X . U T.5.5.5.i.5.5.5.5.t.t.R.R.^.^.^.^.R.R.Y.5.t.Y.R.R.R.R.",
"5.5.5.5.5.5.5.t.5.5.5.5.5.Y.5.5.5.5.5.t.R.^.R.R.R.R.R.R.t.B.5.5.Y.*.X O D Y.5.5.5.5.5.5.i.5.5.G.R.^.^.^.^.^.R.R.Y.5.B.Y.R.R.R.R.",
"5.5.5.5.5.5.5.5.5.5.5.5.5.5.5.5.t.5.t.t.R.^.^.^.R.R.R.R.t.t.5.5.G.1.$ o D T.5.5.5.i.5.i.5.5.5.5.R.R.R.R.T.R.R.R.5.5.5.t.T.R.R.R.",
"5.t.t.5.<.<.<.<.<.<.<.<.<.<.<.<.5.5.5.t.R.R.R.R.i.Y.Y.t.<.<.<.<.<.<.% # u T.5.5.t.t.5.5.&.&.&.&.#.&.&.&.<.<.<.<.&.&.&.&.<.<.<.<.",
"B.i.5.5.<.<.<.<.<.<.<.<.<.<.<.<.5.5.5.t.R.R.R.R.i.t.t.t.<.<.<.<.<.<.= O 7 Y.5.5.B.5.5.5.&.#.&.#.#.#.%.&.*.<.<.<.&.&.&.&.<.<.<.<.",
"5.5.5.5.<.<.<.<.<.<.<.<.<.<.<.<.5.5.i.G.R.R.R.R.t.t.t.B.<.<.<.<.<.<.F % &.Y.5.5.5.5.t.5.&.&.#.*.#.&.&.&.<.<.<.<.&.&.%.&.<.<.<.<.",
"Y.Y.Y.5.<.1.<.<.<.<.<.<.<.<.<.<.5.5.t.t.R.R.R.R.t.t.t.t.<.<.<.<.<.<.<.1.i.t.5.5.t.t.t.t.&.&.#.#.&.&.&.&.<.>.<.-.&.&.&.&.<.1.<.<.",
"R.R.R.R.R.R.R.T.5.5.5.5.<.<.<.<.<.<.<.<.t.i.i.i.B.t.B.5.2.<.<.<.<.<.<.<.<.<.<.<.5.5.5.t.5.5.5.5.<.<.<.<.<.<.<.<.<.<.<.<.R.R.R.T.",
"R.R.^.^.R.R.R.R.t.5.5.5.<.<.<.<.<.<.<.<.B.t.B.t.t.t.5.5.<.<.<.<.<.<.<.<.<.<.<.<.5.5.t.t.t.t.5.5.<.<.<.<.<.<.<.<.<.<.<.1.R.R.~.~.",
"/.R.R.^.R.R.R.R.t.5.B.5.<.<.<.<.<.<.<.<.5.t.t.t.t.t.t.5.<.<.<.<.<.<.<.<.<.<.<.<.5.t.B.5.t.B.t.B.<.<.<.<.<.<.<.<.<.<.<.<.R.^./.R.",
"R.R.R.R.R.R.R.R.5.5.5.5.<.<.<.<.<.<.<.2.5.t.t.t.B.t.t.5.<.<.<.<.<.<.<.<.<.<.<.2.5.t.5.5.t.t.t.t.1.<.<.1.<.<.<.<.<.<.<.<.R.R./.~.",
"i.i.t.t.<.<.<.<.<.<.<.<.5.5.5.5.5.5.5.5.5.5.5.5.5.5.5.5.5.5.5.5.5.5.5.5.5.5.5.5.t.t.t.t.t.B.t.t.R.R.R.R.R.R.R.R.R.T.R.R.R.^.E.~.",
"t.t.B.t.<.<.<.<.<.<.<.<.5.5.5.5.t.t.5.5.B.t.5.B.5.5.5.5.5.5.5.5.t.t.t.t.5.5.5.5.t.5.t.t.t.t.t.t.R.R.R./.R.R.R.R./.~.^.^.^.^.^.R.",
"t.t.t.t.<.<.<.<.<.<.<.<.5.t.5.5.t.B.B.t.5.t.t.t.5.5.5.5.5.5.5.5.B.t.t.t.t.t.5.5.5.5.5.5.t.t.t.G.R.R.R.R.R.R.R.^.R.~.^.^.^.R.^.^.",
"i.B.t.t.<.<.<.<.<.<.<.<.5.5.5.5.t.t.t.t.5.5.t.t.5.5.5.5.5.5.5.5.t.t.B.t.t.t.t.B.Y.i.Y.5.t.B.t.t.R.R.R.R.R.R.R.R.R.R.R.R.R.R.R.R.",
"t.B.i.t.B.t.5.5.5.5.5.5.5.5.5.B.t.t.t.t.5.5.5.5.<.<.<.<.<.<.<.<.t.t.t.i.R.R.R.R.R.R.R.R.G.B.t.t.5.5.Y.5.<.<.1.<.5.i.i.G.t.t.t.t.",
"t.t.B.t.t.t.B.t.5.5.5.t.5.5.t.t.t.t.B.t.5.5.5.5.<.<.<.<.<.<.<.<.B.t.t.G.R.R.R.R./.R.R.R.i.t.t.t.5.5.5.5.<.<.<.<.5.t.t.t.t.5.t.B.",
"t.i.i.t.t.t.t.t.5.5.t.t.t.t.t.t.t.t.5.5.5.5.5.5.<.<.<.<.<.<.<.2.5.5.t.i.R.R.R.R.R./.R.R.i.t.t.t.5.5.5.5.<.<.<.<.5.5.5.t.i.B.t.t.",
"t.B.t.t.B.t.t.B.5.5.t.t.t.5.t.5.5.5.5.5.5.5.5.5.<.<.<.<.<.<.<.<.5.t.i.i.R.^.R.^.R./.R.R.i.5.t.5.5.5.5.5.<.<.<.<.5.5.t.t.t.t.5.t."
};
