/* XPM */
static char *result[] = {
/* columns rows colors chars-per-pixel */
"64 64 85 1 ",
"  c #060505",
". c #0D0D0D",
"X c #100F0F",
"o c #1B0F0F",
"O c #131313",
"+ c #191515",
"@ c #1D1C1C",
"# c #241515",
"$ c #2E1616",
"% c #231B1B",
"& c #2A1B1B",
"* c #341D1D",
"= c #3A1E1E",
"- c #222222",
"; c #292424",
": c #2C2B2B",
"> c #352222",
", c #3B2323",
"< c #312D2D",
"1 c #333333",
"2 c #393636",
"3 c #3C3B3B",
"4 c #471717",
"5 c #461C1C",
"6 c #4D1B1B",
"7 c #531E1E",
"8 c #432525",
"9 c #4C2222",
"0 c #452A2A",
"q c #4A2A2A",
"w c #562020",
"e c #5C2323",
"r c #522A2A",
"t c #5C2A2A",
"y c #473131",
"u c #4E3434",
"i c #403F3F",
"p c #553232",
"a c #5A3232",
"s c #513E3E",
"d c #612626",
"f c #642A2A",
"g c #6A2D2D",
"h c #643434",
"j c #6E3131",
"k c #643838",
"l c #6F3939",
"z c #733434",
"x c #783737",
"c c #763838",
"v c #7B3A3A",
"b c #424242",
"n c #4B4040",
"m c #4D4D4D",
"M c #514242",
"N c #514D4D",
"B c #5E4848",
"V c #535353",
"C c #595353",
"Z c #5C5C5C",
"A c #674040",
"S c #6F4747",
"D c #674A4A",
"F c #714242",
"G c #605F5F",
"H c #695F5F",
"J c #725252",
"K c #745B5B",
"L c gray40",
"P c #6A6A6A",
"I c #736262",
"U c #7E6A6A",
"Y c #747373",
"T c gray47",
"R c #803F3F",
"E c #824141",
"W c #806B6B",
"Q c #827575",
"! c #877D7D",
"~ c #887979",
"^ c #868686",
"/ c #8B8484",
"( c #8A8989",
") c #918B8B",
"_ c #939292",
/* pixels */
"dfjcvvvgfdttw7wfeffdggffew76wew6eewdzjg7eggjffeeejxgdeedR7edRd77",
"edgjzxvcgfjfeefeeeefzjfeew666766eewgzgddggjjgfeeejxjdeedd7d7Rdd7",
"dfffgzcvcgzczjtdtdfgffeww6699666w7ejzjfdffgggfeedfgdRdeeddd7eRd7",
"fggfdfgczzczggwdfffffeew6466w666wwejzjfdggjggfddgdw7edRgRdRRRR77",
"ffgjfdfdgzcdfd7dfzczgee766wee77647djzgjjffgggddfge777dgRRRRR7777",
"jffgggddgcgeww7wfcvvcjgdtejgdw6767egzvRzzzgfdedfd77777dg7Red777R",
"geeggddgxcd77w7ejcvvvvzgjzgdfdw7776efjjggggd7wweed777777eR777eeR",
"dwwddggxjgd7eeegzjjcEvczgfedfggd7667dfffweeddeew7eeed77d7477ee7R",
"wwddddgzfde7edfggggzvEvcfeweefzge777wddw77fdffjfedd7d7777477ddR7",
"efzfeedgffeedjjjjgffzEvcfffeeefy77777ww77wdggjzcRdeed7744777RRR7",
"zzgedddeddwfjxjjzggglvxgtgzgegf:,e7dedw77dgzfjvvRdde7777447RRR77",
"zgefgw7eeegjfjzjgfgjczgdefczfgh:,fgcgdwwwgczjcvERRRd7R7777RRdR7R",
"dedjd7efeggdddfggdgccfewffgccjc>0xvvfww7dzzgjcvERReddd7777ReRRdR",
"7wjggdddedfe777dfffzgwwewwdgglh:qRvcjffedjcvvvRvR77RR77777RRdeeR",
"7ezgfgdddfewedd7tdfgwwwew77weff<qvzzczzffvvvzzccddReR777RRRRR7dR",
"7dzgzczgfdedgfd7eeff7ffeewwweef;8gfcvcczjcvgfzzfd7Rdd747R7dReRd7",
"edgzvRzzccjcgd7eeed77efzdw777wt:=7wgvvvvzjzggfggRR77777dReReeege",
"dfjzvRvvvvcgffgeww767dgvcfew776;*7dzvcccvczgdegjdd7747gRRdddRRg7",
"ddfgzxvvccggjzg77667dgggczjgd76;*wlzjffjzggjddfdd7746dRd7dggRdee",
"gggfgzzzzcggjcfew77edggfggz8##=:>###96wwedffdde777477d7eegRRdeeR",
"zczggdddgzgdjzf7777dgggdgzj,..*:>X.X546w7dgcjgewee4777edddRdddRd",
"zzxcgd77djgdzgd767wfgggggjg>.O*:*+OO5wfffgvvvxggRe7477de7777RddR",
"fgzvze6wdfddzgd766wgdfzxvzf0@;q;>,@;wwdeegzcvvcge774ddee77dRdeR7",
"gggvcfw77d7dzf76467wwegcvvct%;t18q@,wwwdfgggzvvcRRRRR7d7e7d7eR7R",
"jjgzgdfd777dg7764767ddefjvcf-;t:,8->777dfjgffzczRReRRe77R7777dRd",
"jgggfjjgd77777747w77dggdwfgh-;w:=8-,777wfjggeddgeR7R7777RRR7dddd",
"gdgjdjzgd7777446ee77fgffddee-;w<,q%,eeewegjjgefjR777777RRRRRR7R7",
"ddgczxzgd777747ew677w9ufdw78++9:8,+%fdderufgffjvRee7e777RdRRRRRd",
"edfjxzzg77777dggf,o$#+3www78+O910&+%ggdd>b&,**gRR77e7eRRdRRRRRed",
"77dfggf77777dfjxf>   ::&77w,OO<-,-+@hge9Om+OX*gd777R77eRdddRRRRd",
"7777777646777dgxh%O  b+O@0g0O+---@O%jh*OXi;XX26dde777RRdRddRRRR7",
"7776766677dfjzzvrO- .m.O+Nt0++-1--+%fs1OX:3.+i$de7eRRRdR7RdeRRR7",
"7d766677edgjgjcc%.: OVX@V:90--@1---:f%m:X-VX:3O9wjjtjzzjggzczgd7",
"7747667efgggdfzh  :O2iOm1O*tp----@8at++m:OL@V@O%fjfweggggfccfe76",
"466wd777dgfddgl#  .1V:G2XO+ej%-:-@qg*XX+Z2ZbmXXO,fw77wdgdfzgw764",
"46dge77egdedfgp+X..1YY2OOXO&e@@1-@89OOXO+ZYT:@@-2w777wwddfje7776",
"7fjf77dfd7dfgjcDBMnN^^C2@XXO%@-:-@%OXXO-bP^YHIIKJew767wweff77766",
"gzzw77geeeddgxvvhwefK~)_(YV1@+-;-@+;iGT()/WFted7dfeww67wef767w67",
"cjd777edddefzRRzeeffefhAKQ(_(G-<-1Y((!UJFhggee77weeffe9www67wwfg",
"zgde67eddddfjvzdedgedfdw7wkSKC@1-:IJSczlzzzgdw77wwweefeew667wfgc",
"zzde77dggfddjxjddggegjgdegfe7r<@;>tfjvvxxzzjg7777dgdedgdw77edzzc",
"xzgd767wfggfgzgdggfggjjfew777ff<*wdzxRRRvcjzj7777dgjjgfdewegzzzz",
"vxgdw767edgjzjdfjjgzjzzge7767ww:,wegxvRRvxzvcd777wfzxRjgefgggggz",
"xxzgde777egjzgdgzjfgzzzd766666918fffzvvvczxvge7767ejjxRzfjgdgggz",
"gRzggdw7ddfgjfgjjffgzzf76677wee;8jcgjcxzjzvvfw7777wjjjRvzxjfdggg",
"dggdwde777dffgjjddjzxf77eew7eft<,ggzcczgzxxcddde7w7ggfxvzxxgedgg",
"ggde7eww777dgggd7fjxj77dgfewwew<,ffgjvxzzvxfffd777wgfdzxggjzfddg",
"gdeedd777d7dfggefjzze7egzzgewer;,wefggjxzxcfggdewdgjfdgzgdgjgddd",
"ddddR74777777edefjzg77ejzcjge7w<477d7RdRRedRdRe7dgxzgdzzjddjgggd",
"dddge7777dd77477fgge77fzzcxgff0-$77d7dde47RRdd77djzxjzzjjd7djggf",
"gdggR7777dd77777we7777gggzxglz0:5677eRR477RdR747gzxzjfd7wddejzjg",
"RdgdeeeedRR7dde767677wddefjgzc0@;w77de777e77R77Rzzjdggde7eeddjjz",
"ddR7777ddggdRdde7e7w777gfffhcvk->ffe77777e777R7ejfedgzjfd7eedggj",
"Rdd77777dggRgggggffgd77fjfefzvk%>gfje77dedddR77Rf7ddjRRjfee7eddf",
"ed77e777dedRRgRgggzzee7dfjftfjhahcjzReRde7R7RReeeefgjxRzfde777ee",
"77eddRdRgdgggRRdgggde777efjjfegzczccR7R7eRR77eReefgjxRjgddde7677",
"edddddRgRdgRgReefgddfe777dgjjdddffzzfff77R777R7e7R7RRRRddddd7667",
"dddgRRgRgRRgddddffdfzgd7d7dgjjgdfjzfeew77R774Rd777dRRdeedfdde777",
"deedeedd7e7777ddfefgxggdd77dfgfdgcjddwww7777RR77dRRddRR7ddde77dd",
"Rdde77777ee77dddddgzxzgfff7edfdgzggeweww7ee7e77RRRRRRdRedde777dR",
"RdR7dddddd77e7ddfdgxRzgfdfde7ddffffded7dR7RRR77ReReRRe7ed774eRdg",
"eRRRdgdgdd77e7dgdfjzjjzgfffde7dddfgd7egz7RR77RRRdR7RR7ee7777ggdd",
"R7eRRddd777677dgfjxzddgjzdd777dddfd77gzxRRRRR77777RRR7e77R7RReed",
"7Reegddd7dd76eddjxxgfddggfd77gdd7deefzxzR777R7R77RR7de77774Rde7d"
};
