/* XPM */
static char *e92854a24b2143229e82cb8c9c88f7ecwh58BYSXcFT1Fqxs[] = {
/* columns rows colors chars-per-pixel */
"64 64 137 2 ",
"   c #130B0C",
".  c #1A0D0F",
"X  c #1C0F11",
"o  c #1D1012",
"O  c #200F11",
"+  c #231215",
"@  c #291317",
"#  c #261518",
"$  c #2C1519",
"%  c #2D191C",
"&  c #32171C",
"*  c #35181D",
"=  c #381A1F",
"-  c #341B20",
";  c #3C1C22",
":  c #411E25",
">  c #442027",
",  c #482127",
"<  c #462028",
"1  c #462128",
"2  c #472128",
"3  c #462129",
"4  c #472129",
"5  c #462228",
"6  c #472228",
"7  c #462229",
"8  c #472229",
"9  c #452028",
"0  c #462229",
"q  c #482128",
"w  c #492128",
"e  c #482229",
"r  c #492229",
"t  c #482329",
"y  c #4A2228",
"u  c #4B2329",
"i  c #48232A",
"p  c #49232A",
"a  c #4A232A",
"s  c #4A232B",
"d  c #4B232B",
"f  c #4D232A",
"g  c #4A242B",
"h  c #4B242B",
"j  c #4D2429",
"k  c #4C242B",
"l  c #4E242B",
"z  c #4D242C",
"x  c #4C252C",
"c  c #4D252D",
"v  c #4E252D",
"b  c #4D262D",
"n  c #4E262D",
"m  c #4F262D",
"M  c #4E252E",
"N  c #4F262E",
"B  c #4E272E",
"V  c #4C242B",
"C  c #50252C",
"Z  c #51262E",
"A  c #50272E",
"S  c #51272E",
"D  c #50272F",
"F  c #52272F",
"G  c #51272F",
"H  c #50282F",
"J  c #52282F",
"K  c #522730",
"L  c #512830",
"P  c #512930",
"I  c #522830",
"U  c #532931",
"Y  c #542930",
"T  c #542931",
"R  c #552931",
"E  c #542A32",
"W  c #562A32",
"Q  c #572A32",
"!  c #572A34",
"~  c #552932",
"^  c #592B34",
"/  c #5B2B34",
"(  c #5A2C35",
")  c #5B2C35",
"_  c #5C2C35",
"`  c #5D2D36",
"'  c #5F2E37",
"]  c #592C35",
"[  c #5F2E38",
"{  c #5E3139",
"}  c #5F323A",
"|  c #5F323B",
" . c #5D323A",
".. c #602F38",
"X. c #612F38",
"o. c #612F39",
"O. c #622F39",
"+. c #612F39",
"@. c #603039",
"#. c #623038",
"$. c #623039",
"%. c #633139",
"&. c #63303A",
"*. c #63313B",
"=. c #64313A",
"-. c #65313B",
";. c #60333C",
":. c #65323C",
">. c #66323C",
",. c #67323C",
"<. c #63343D",
"1. c #64353D",
"2. c #67353E",
"3. c #65363F",
"4. c #66363F",
"5. c #67373F",
"6. c #62343D",
"7. c #68333D",
"8. c #673640",
"9. c #663740",
"0. c #673740",
"q. c #683740",
"w. c #693740",
"e. c #683741",
"r. c #693741",
"t. c #683841",
"y. c #693841",
"u. c #6A3841",
"i. c #6B3842",
"p. c #6C3942",
"a. c #6C3943",
"s. c #6D3943",
"d. c #6E3944",
"f. c #6D3A44",
"g. c #6E3A44",
"h. c #6C3A43",
"j. c #703C46",
/* pixels */
"q.8.q.g.y.y.3.) <...*.a.:.-...-.-.-.:.7.:.:.7.*.....Y C C - . + { y.g.a.y.3.3.*.q.*.*.y.:.*...` ` / ` ` ....` / Y Y C C z - X . ",
"3.X X X X o + + + + + + + + + @ @ @ @ $ $ $ $ $ $ $ $ $ & @   + ;.X X X X o + + + + + + + + + @ @ @ @ $ $ $ $ $ $ $ $ & * @ . . ",
"g.X + + + + + + + + # # @ @ $ $ $ $ & & & & & & & & & & * @   + 3.X + + + + + + + + # # @ @ $ $ $ $ & & & & & & & & * * ; @   . ",
"j.+ + + + + @ @ @ @ @ @ $ $ & & & & & & & & * * & * * = ; @   # <.+ + + + + + @ @ @ @ @ $ $ & & & & & & & & * * & = * ; ; @   . ",
"a.+ + @ @ @ @ @ $ @ $ $ & & & & * * & & & * * * * = * ; ; @   # 8.+ + + @ @ @ @ $ @ $ $ & & & & * * & & & * * * & & * ; ; +   . ",
"a.+ + @ @ @ $ $ $ $ & & & & * * * * & & & = ; ; ; ; ; ; 1 +   + { + + # @ @ $ $ $ $ & & & & * * * * & & & * * * & & = ; : +   . ",
"*.@ @ @ @ $ $ $ & & & * * * * * * * * * * ; ; ; : : ; : z +   + ! @ @ @ @ $ $ & & & & * * * * * * * * * * * * * * * ; ; 1 +   . ",
"3.@ @ @ @ $ & & & * * * * * * * * * * * ; * : ; > > : > u +   + { @ @ @ @ $ & & & * * * * * * * * * * * * * * * * * ; ; ; +   . ",
"[ @ $ @ $ & & * * * * * * * * * * * * ; ; : ; 1 1 1 1 1 L O   + ) @ $ @ $ & & * * * * * * * * * * * * * * * * * * ; : ; g X   . ",
"C @ $ & & * * : ; ; = ; ; ; ; ; ; ; ; ; ; ; : > 1 : 1 1 L X   + f @ @ $ & & & * & * * * * * * ; = * ; = ; ; ; ; ; ; : : L X   . ",
"u $ $ & ; ; : : : : ; 1 ; ; ; ; : g : > : : : : 1 1 1 1 L .   o k $ $ & & * * ; = ; * * * * ; ; ; ; ; ; ; ; ; ; ; : 1 1 H X   . ",
"u $ $ * ; ; > : 1 1 1 u : : > : > 1 1 1 1 ; : ; : u 1 g C .   o k $ $ & * = ; ; ; : ; ; ; ; ; ; : : ; ; ; : : : ; > 1 u z .   . ",
"u * * ; ; u u z z z z z z k u u k z L u u z 1 z Y Y Y L Y .   X u * * = ; ; : 1 u 1 1 : ; : 1 > 1 u C u 1 z u z z C L L Y .   . ",
"* + + + + + + + + + + + + + + + + + + + o X X . . . . . . .   . * + + + + + + + + + + + + + + o + + + + o X X . . . . . . .   . ",
"                                                        . .           . .                                                       ",
"+ o o + o o o + + o o o o .   . o + # @ # @ + + + + # @ # # # + + + + # # + o o o + o o o .   . X + # + # + # + + + + + + + + + ",
"C C z z C z C z z z z z z -   o ) <.q.8.<.| { Y ) L ) <.` ) / ) Q Y / ) ) Y C C z z z z z -   X ) { { <.<.<.;.) { ) / ) L Q Y L ",
"@ @ @ $ $ $ $ $ $ & * & * @   + <.X X X X o + + + + + + + + + @ @ @ @ $ $ $ $ $ $ $ $ $ & @   o <.X X X X o + + + + + + + + + @ ",
"$ $ & & & & & * ; ; * ; ; @ . # <.X + + + + + + + + # # @ @ $ $ $ $ & & & & & & & & & & * @   o <.X + + + + + + + + # @ @ @ $ $ ",
"& & & & & & * ; : ; ; ; ; @ . % 3.+ + + + + @ @ @ @ @ @ $ $ & & & & & & & & * * & & & * * @ . o { + + + + + @ @ @ @ @ @ $ $ & & ",
"* * & & & ; ; ; ; : : ; ; @ . @ q.+ + + @ @ @ $ $ @ $ $ & & & & * * & & & * * * & & & * * @ . + <.+ + + @ @ @ $ $ @ $ $ & & & & ",
"* * & & & ; ; : > 1 1 : : +   @ 8.+ + # @ @ $ $ $ $ & & & & * * * * & & & * * * & * & = ; + . o 3.+ + # @ @ $ $ $ $ & & & & * * ",
"* * * * = ; ; : 1 1 1 : 1 +   @ ) + @ @ @ $ $ & & & & * * * * * * * * * * * ; ; ; * * ; 1 +   o ) @ @ @ @ $ $ $ & & & * * * * * ",
"* * * * = ; > 1 u u 1 : : +   # { @ @ @ @ $ & & & * * * * * * * ; ; = * * * ; : ; = ; ; : +   + { @ @ @ @ $ & & & * * * * * ; * ",
"; * ; ; ; ; : 1 1 1 1 : 1 O   # Y @ $ @ $ & & * * * * * * * * ; = ; ; * = * ; ; ; ; : : z +   X / @ $ @ $ & & * * * * * ; ; ; ; ",
"; ; : ; ; ; : u u 1 1 : z X   o u @ @ $ & & & * ; & * * * ; ; : ; ; ; ; ; ; ; ; : : 1 u z X   X C @ @ $ & & & * * & * ; ; ; ; ; ",
"1 ; : ; ; ; : > 1 1 : : 1 .   o , $ $ & & & * * = ; * : ; ; ; : > 1 1 : : ; : : 1 1 1 > L .   . u $ $ & & & * * * = = ; ; ; : : ",
": : ; ; : ; : : ; : ; ; 1 .   o , $ $ & & & * * * ; ; ; : ; ; 1 1 1 1 ; ; ; ; 1 1 1 1 u z .   X , $ $ & & & * * = ; ; ; ; ; ; : ",
": 1 u : ; u : u u u u > u .   o 1 * * * * * = ; ; : : : : 1 1 1 k g z : ; 1 ; 1 z Y J C Y .   . 1 * * * = = = = ; ; ; ; : ; : 1 ",
"+ + + + o X X . . . . . . .   . * + + + + + + + + + + + + + + + + + + + o X X . . . . . . .   . * + + + + + + + + + + + + o + + ",
"                                                                                                    . .                         ",
"o o o o o o o X o o o o o o X o o X o X o X o o X X o X X .   . X X o X X o o o o o o o o o o o o o o o o o X o X o X X X .   . ",
") ]  .| *.*.<.Y { L L ) Y C C J Y L C C K Y C J C z C z z -   o ] )  .{ <. . .L { Y L { Y C J Y Q Y Y / Q J z z z z z z z - . . ",
"{ X X X X o + + + + + + + + + @ @ @ @ $ $ $ $ $ $ $ $ $ & @   o { X X X X o + + + + + + + + + @ @ @ @ $ $ $ $ $ $ $ $ $ & @ . . ",
"3.X + + + + + + + + # # @ @ $ $ $ $ & & & & & & & & * * ; @   o <.X + + + + + + + + # # @ @ $ $ $ $ & & & & & & & & & & * +   . ",
"<.+ + + + + @ @ @ @ @ @ $ % & & & & & & & & * * & * = ; ; @   + { + + + + + @ @ @ @ @ @ $ $ & & & & & & & & * * & & & * * @   . ",
"g.+ + + @ @ @ $ $ @ $ $ & & & & * * & & & * * * & * * ; ; @   + <.+ + + @ @ @ @ $ @ $ $ & & & & * * & & & * * * & & & * * @   . ",
"y.+ + # @ @ $ $ $ $ & & & & * * * * & & & * * * * ; ; : 1 +   o <.+ + # @ @ $ $ $ $ & & & & * * * * & & & * * * & & & * ; +   . ",
"-.@ @ @ @ $ $ $ & & & * * * * * * * * * * * * * ; ; ; : z +   o Y @ @ @ @ $ $ & & & & * * * * * * * * * * * * * * * ; = : +   . ",
"q.@ @ @ @ $ & & & * * * * * * * * * * ; * ; ; * ; : 1 1 u +   o ] @ @ @ @ $ & & & * * * * * * * * * * * * * * * * = ; ; ; +   . ",
"..@ $ @ $ & & * ; * * * * = ; ; ; ; ; = ; ; ; ; ; : 1 1 L O   o K @ $ @ $ & & * * * * * * * * * * * * * ; ; ; ; ; ; ; ; g X   . ",
"F @ @ $ & * ; ; = ; * ; ; ; ; ; ; ; ; : ; ; > 1 1 1 1 u L X   o u @ @ $ & & & * * * = = ; ; * ; * = ; ; ; ; ; : ; : : ; g X   . ",
"k $ $ & & ; ; ; * = ; ; ; ; ; ; ; ; ; : : > 1 1 1 1 1 1 z .   o , $ $ & & & * * * ; ; ; ; ; ; * ; ; ; ; : : : ; : > : > g .   . ",
"C $ $ & & * ; ; ; ; ; ; ; ; ; ; ; ; ; ; : : 1 : 1 u > 1 1 .   X , $ $ & & & * = ; ; : : ; : ; ; ; ; ; ; ; ; : : : 1 : : 1 .   . ",
"u * * = ; ; ; ; ; ; ; ; ; : : ; ; ; > : : u 1 g g z 1 1 g .   X , * * * = * * ; ; ; > 1 1 1 : : ; : g ; : 1 ; 1 z g u 1 z .   . ",
"* # + + + + + + + + + + + + + + o o o + o X X . . . . . . .   . * + + + + + + + + + + + + + + + + + + + o X X . . . . . . .   . ",
"                                                                                                                                ",
". . . X X . . X X X X X . .     . X X o X X X . X X o o X . . X X o o o o X X X X X X X X .   . . X X o X X o o X X X o o X . . ",
"C C Y Y L C z z z z z z z -   o ) { { { ;.{ ;.Y { Q Y { ) Y Y / Q ) ) / Y Y K J C C C J C -   X ) { { { | <.3.) <.) Y { Y Q C z ",
"@ @ @ $ $ $ $ $ $ $ $ $ & @   o  .X X X X o + + + + + + + + @ @ @ @ @ $ $ $ $ $ $ & * & * @   X  .X X X X o + + + + + + + + + @ ",
"$ $ & & & & & & & & * * ; @   +  .X + + + + + + + + # # @ @ $ $ $ $ & & & & & * ; ; * ; ; @   X { X + + + + + + + + # # @ @ $ $ ",
"& & & & & & * * & * * ; ; @   # { + + + + + + @ @ @ @ @ $ $ & & & & & & & & * ; : ; ; ; ; @   o { + + + + + @ @ @ @ @ @ $ $ & & ",
"* * & & & * * * & * * ; ; @   + { + + @ @ @ @ @ $ @ $ $ & & & & * * & & & ; ; ; ; : : ; ; @   X <.+ + @ @ @ @ @ $ @ $ $ & & & & ",
"* * & & & * * * * ; ; : 1 +   + { + + @ @ @ $ $ $ $ & & & & * * * * & & & ; ; : > 1 1 : : +   o { + + # @ @ $ $ $ $ & & & & * * ",
"* * * * * * * * ; ; ; : z +   + ! @ @ @ @ $ $ $ & & & * * * * * * * * * = ; ; : 1 1 1 : 1 +   X ) @ @ @ @ $ $ $ & & & * * * * * ",
"* * * ; * ; ; * ; : 1 1 u +   + { @ @ @ @ $ & & & * * * * * ; * * * * * = ; > 1 u u 1 : : +   o { @ @ @ @ $ & & & * * * * * * * ",
"; ; ; = ; ; ; ; ; : 1 1 L O   + Y @ $ @ $ & & * * * * * - ; ; ; ; * ; ; ; ; : 1 1 1 1 : 1 X   X L @ $ @ $ & & * ; * * * * = ; ; ",
"; ; ; : ; ; > 1 1 1 1 u L X   o k @ $ $ & & & * * & * ; ; ; ; ; ; ; : ; ; ; : u u 1 1 : z X   X u @ @ $ & * ; ; = ; * ; ; ; ; ; ",
"; ; ; : : > > > 1 1 1 1 z .   o k $ $ & & & * * * = = ; ; ; : : 1 ; : ; ; ; ; > 1 1 : : 1 .   X , $ $ & & ; ; ; * = ; ; ; ; ; ; ",
"; ; ; ; : : > : 1 u > 1 1 .   o u $ $ & & & * * = ; ; ; ; ; ; : : : ; ; ; ; ; : ; : ; ; 1 .   . , $ $ & & * ; ; ; ; ; ; ; ; ; ; ",
"; ; > : : u 1 g g z 1 1 g .   o , * * * = = = = ; ; ; : : : : > : 1 u : ; 1 : u u u u 1 u .   . u * * * ; ; ; ; : ; ; ; ; : : ; ",
"+ + + + o X X . . . . . . .   X * + + + + + + + + + + + + + + + + + + + o X X . . . . . . .   . * # + + + + + + + + + + + + + + ",
"                                                                                                                                ",
". . . . . . . . . . . . . . . . . . . . . . . . . . . . .     . . . . . . . . . . . . . . . . . . . . . . . . . . . . . .     . "
};
