/* XPM */
static char *_095834f4f8f4d7ca2d5e45b763882b7n8IKuY8Ae4LQU2mz[] = {
/* columns rows colors chars-per-pixel */
"64 64 161 2 ",
"   c #451717",
".  c #491717",
"X  c #461818",
"o  c #4C1B1B",
"O  c #531D1D",
"+  c #581F1F",
"@  c #562121",
"#  c #5C2323",
"$  c #5F2828",
"%  c #632727",
"&  c #622727",
"*  c #602626",
"=  c #642727",
"-  c #612626",
";  c #602828",
":  c #612828",
">  c #612929",
",  c #622828",
"<  c #632828",
"1  c #622929",
"2  c #632929",
"3  c #602A2A",
"4  c #632A2A",
"5  c #642828",
"6  c #652828",
"7  c #642929",
"8  c #652929",
"9  c #662929",
"0  c #672929",
"q  c #642A2A",
"w  c #652A2A",
"e  c #642B2B",
"r  c #652B2B",
"t  c #662A2A",
"y  c #672A2A",
"u  c #662B2B",
"i  c #672B2B",
"p  c #642C2C",
"a  c #652C2C",
"s  c #652D2D",
"d  c #662C2C",
"f  c #672C2C",
"g  c #662D2D",
"h  c #672D2D",
"j  c #642A2A",
"k  c #682929",
"l  c #682A2A",
"z  c #682B2B",
"x  c #692B2B",
"c  c #6A2B2B",
"v  c #682C2C",
"b  c #692C2C",
"n  c #682D2D",
"m  c #692D2D",
"M  c #6A2C2C",
"N  c #6B2C2C",
"B  c #6A2D2D",
"V  c #6B2D2D",
"C  c #682E2E",
"Z  c #692E2E",
"A  c #692F2F",
"S  c #6A2E2E",
"D  c #6B2E2E",
"F  c #6A2F2F",
"G  c #6B2F2F",
"H  c #6C2D2D",
"J  c #6C2E2E",
"K  c #6D2E2E",
"L  c #6C2F2F",
"P  c #6D2F2F",
"I  c #6E2E2E",
"U  c #6E2F2F",
"Y  c #6B2D2D",
"T  c #702F2F",
"R  c #6B3030",
"E  c #6C3030",
"W  c #6D3030",
"Q  c #6C3131",
"!  c #6D3131",
"~  c #6E3030",
"^  c #6F3030",
"/  c #6E3131",
"(  c #6F3131",
")  c #6D3232",
"_  c #6E3232",
"`  c #6F3232",
"'  c #6F3333",
"]  c #6E3131",
"[  c #703131",
"{  c #713131",
"}  c #703232",
"|  c #713232",
" . c #703333",
".. c #713333",
"X. c #723232",
"o. c #733232",
"O. c #723333",
"+. c #733333",
"@. c #743333",
"#. c #703434",
"$. c #713434",
"%. c #723434",
"&. c #733434",
"*. c #723535",
"=. c #733535",
"-. c #743434",
";. c #753434",
":. c #743535",
">. c #753535",
",. c #763434",
"<. c #763535",
"1. c #773535",
"2. c #743636",
"3. c #753636",
"4. c #753737",
"5. c #763636",
"6. c #773636",
"7. c #763737",
"8. c #773737",
"9. c #733434",
"0. c #783636",
"q. c #783737",
"w. c #793737",
"e. c #783737",
"r. c #763838",
"t. c #773838",
"y. c #773939",
"u. c #773838",
"i. c #783838",
"p. c #793838",
"a. c #783939",
"s. c #793939",
"d. c #7A3939",
"f. c #7B3939",
"g. c #783A3A",
"h. c #793A3A",
"j. c #7A3A3A",
"k. c #7B3A3A",
"l. c #7B3B3B",
"z. c #7C3B3B",
"x. c #7D3B3B",
"c. c #7B3C3C",
"v. c #7C3C3C",
"b. c #7D3C3C",
"n. c #7C3D3D",
"m. c #7D3D3D",
"M. c #7E3D3D",
"N. c #7F3D3D",
"B. c #7E3E3E",
"V. c #7F3E3E",
"C. c #7F3F3F",
"Z. c #7B3A3A",
"A. c #803E3E",
"S. c #803F3F",
"D. c #813F3F",
"F. c #803F3F",
"G. c #814040",
"H. c #824040",
"J. c #834141",
"K. c #844242",
"L. c #834141",
/* pixels */
"& 5 } t.v.S.l.2 5 2 2 $ @ o @ 5 $ 5 5 $ n / & & 2 # O o # $ O o # $ # # @.8.n O # 5 P P x 5 & # O P 8.P # # # 5 P # # n 8.5 O O ",
"# $ n / / 8.v.l.5 2 / 2 @ @ n $ # @ # 5 8.} 5 $ # O o O o O o O 5 O # n 8.& # # } } } } P x # # $ 8.8.@.x # $ & 2 & & @ 8.8.$ # ",
"& 5 5 5 / } 8.v.l.n 8.v.t.} $ 2 $ 2 5 n n f $ # @ o o O @ o o o # O # } q.} n 5 n 2 n } P & # $ & 5 8.& } P # # 2 n $ f 8.8.# @ ",
"n n } 5 $ 5 } 8.8.} l.t.5 } @ 2 & x f f $ @ # O o     o O O @   O O $ / q.} $ $ f / / 2 P n 2 # P $ O O $ } 8.} / f / q.&.# @ O ",
"2 # / } 5 # 5 # 5 8.t.# 2 2 O & n &.l.l.n # # # O o # & $ O O o   O & } 8.2 n &.f & f / / & # 5 P # O O O & P q.l.l.q.8.$ # # O ",
"} x 2 / / n $ $ } v.f O O # O # 2 l.l.v.t./ x & & O l.n $ @ o # o o # n 8.v.v.l.8.l.n n $ # $ n & O O O O O & P } 8.} $ @ 5 O & ",
"8.# # 5 x 5 & / l.q.$ # O $ O O } z.l.v.v.l.8.x } 8.x & 2 $ @ o o O o $ 5 P 8.n 5 n P # O @ $ O # & O O # O O # 5 n # o $ $ 5 &.",
"$ O # & n 5 n l.P / # O # # # n &.} / &.K.v.l.} P 5 $ & n P / $ @ o . O 5 5 n 2 O $ # 5 # # # # O & # # x O O # 2 # o   # f f t.",
"# @ # & x $ n q.2 & $ O $ # 5 x / f 5 &.J.J.c.t.2 @ O $ # 5 @./ # @ o o # & 2 @ O O 2 # 5 P P & O & & # 5 O O $ O o o O 5 n t.& ",
"O n l.f @ # 2 5 5 5 $ O # 8./ / &.P n $ } K.S.t.2 & n @ # $ 5 8.2 # O o O O # @ o O & n / n l.z./ $ # # 5 o o o   o # &.l.l.R # ",
"8.l./ O & n 5 # 2 2 O 5 l.8.} } / n / n / v.z./ # / l.P O / 5 f 2 $ @ $ # 5 O @ O & P t.2 n S.v.z.l.n # O O o O   o O l.v.8.# $ ",
"l.5 # 5 / O O # # # } &.$ } } } P 2 n / z.&.P & # & l.8.5 5 8.n # 2 / v.8.# # # @ } l.8.f 8.c.S.l.z.l.5 $ P & o o O / l.v.2 $ / ",
"& O 5 } 5 o # x $ / / $ # # n P x 5 5 l.t.5 # O n n 5 l.v./ v.l.8.l.v.v.$ O O O $ 8./ n n 8.J.J.J.l.5 P &.n $ O O # / 8.l.2 8.l.",
"O @ } n 5 5 & x # $ 2 # O O @ $ n & 2 8.P O O $ @ O 5 x n t.8./ v.v.v.8./ 5 & $ 2 n 8.z.v.S.J.S.8.@ n / n $ O o $ &.8.l./ 2 / q.",
"O # 8./ 5 n & # & P $ o $ 2 # @ 2 $ 2 8.+ O O & O o O # @ 5 5 l.v.S.8.&.8.8.8.5 5 v.J.S.&./ l.z.2 $ } P x & o # 8.8.8.l./ 5 n / ",
"O $ 8.f / l.&.P 2 # # $ } 2 @ @ @ $ f 5 o 5 / @ # @ @ # # $ n l.l.n f 8.v.l.l.8.n l.v.n 2 8.&.5 $ T P x = O o # &.f P q.R n f & ",
"O $ f &.v.J.q.8.l.l.&.l.&.$ o $ & $ n o o $ $ l.2 O # O O O & / O O O 5 v.v.S.v.n } n n &.2 2 n P } n & O o o / 8.n } f $ / 8.# ",
"$ n } l.v.v.v.l.l.v.l./ $ 5 P $ # O O o # & / v.q.f O @ O O o O o O $ t.v.l.8.v.S.t.8./ $ # P } P 5 # o o o / &.} } $ $ 8.v.5 # ",
"x # 5 5 8.l.z.l.l.t.f P n q.n o o O o O 5 x 5 } z.8.} P # + o # O O l.t.} $ 5 / 8.&.n } $ 2 x 5 & O o o o 2 / 2 2 # n v.l.n # # ",
"x n n = / &.l.&.8.t.n f / l.x & # o o & 2 P / & 5 n } 8.&.# O # # O $ & O o O O $ & & & & & # O O # o o @ 5 2 $ $ P l.q.n # 5 } ",
"&.8.8.P 5 & $ $ $ l.n & / q.$ O O o O $ 5 n 5 & n 8.} 8./ # O O @ o O O o   o O O # / t.n x $ O # & o o $ @ # $ n 5 P x # P } P ",
"8.&.l.l.n $ O o 5 8.x $ t.n # # O O $ n &.P 5 n P P / & # # O O O O O o   O P n 2 } v.S.S.l.5 / P @ . O o O 2 $ # # $ $ / } / } ",
"5 x &.v.8.$ o O $ x $ # l.P x O o o & P $ 5 l.z.l.&.2 O 2 # 2 # O / $ o O # $ $ # n 8.q.z.v.l.5 5 &.$ O @ n # O O o # / n / P n ",
"n P n z.l.$ # o # $ @ # l.5 O o   o o O O # n l.z.v.S.@ 2 n f $ P P o $ @ # @ & 5 f 5 / 8.l.S.l.n &.v.t.8.$ 2 # O O $ @ $ / } n ",
"} } 2 l./ # 5 2 o # O $ } # # o   o o o 5 $ # $ / z.l.n n n & & P O # O O O O 5 5 8.5 $ 5 &.l.8.} l.t.f &.@ # & 2 f f # O $ 5 P ",
"P P 5 / $ &.} } $ @ O # O O o X o $ O O x x P 2 @ 2 P P 5 # & $ O $ n $ O O O @ 5 } 8.5 # 5 # 5 8.t.# 2 2 O O $ 8.l.v.R # $ 2 n ",
"x # P / # } } x $ O O @ O     o $ # O O x n x P & & $ # # f # O & P l.x $ # $ O # n } 8.P $ $ } v.f O O # O O 2 l.v.S.v.} n 5 x ",
"2 $ } l.8.l.8.P $ # O o O . o # # o O O # # & x $ @ O O O # + & P 8.l.P n 5 & # O $ x P 5 & / v.l.$ # O $ O O &.v.l.v.K.S.8.n 5 ",
"$ & 5 &.l.8.@.&.# O o o O $ n } $ 5 # O O O O O # # O O O # & x P 8.l.} / n = 5 O # = & $ n l.} } # O # # # n &.} / &.K.K.v.&.5 ",
"@ O $ 5 n x 5 O o o O # & P P v.P 5 = O O O O # O O @ @ O # 5 n } q.l.8./ n & & # O # & & P l.5 & $ O & & 5 x / f f &.J.K.J.t.2 ",
"O O O # # # o o o o o O # # & l.8.} 5 5 # O o o O $ P # $ & P / } l.8.8.&./ P $ & # O # O 2 n 2 5 $ O # 8./ / 8./ n $ } K.S.t.2 ",
"O O o O o o o o O O 5 n } 8.l.v.l.} x x $ O o O # 8.5 # $ x P } z.8.f 5 / l.8.& # O O # n 5 # n # O 5 l.8.} } } n } n / v.z./ # ",
"O n O o o o o # $ & n } } / q.v.S.} P 5 # # o @ &.f # $ 5 n l.v.l.P } } $ &./ @ O o o / O O O O # } &.$ } } } } 5 n / v.8./ & o ",
"@ @ o o o o O $ 5 / P P # 2 } v.v.} P # O # # ' f @ @ & 8.8.8.} n n } } n 5 # @ o   O # o O O O &./ $ # # n / P 5 5 l.l.5 # o o ",
".   . # f O O O $ P 5 $ $ P 8.v.l.P n & O O O @ o o O n } } n 2 / } 8.} x # # o   X     o O O O @ 2 # O O @ $ n 2 2 8.P O O o X ",
"  o 2 &.$ o O # } 2 O & n 5 8.S.l./ 5 # O O O # o o o # # P P } 8.8.} & O O O X o O X o O O @ $ n @ o O O # @ 2 $ 2 8.# O o $ o ",
"o n 8.n O O # n 5 o & x 5 / z.v.q.O O # $ # $ O o X @ 2 5 } / } } n & # @ O o     o O 5 @ @ 2 $ O @ O O o O @ @ $ f n o O # O o ",
"n 8.&.@ O @ } # # & & $ n z.J.l.5 O O & $ 2 2 $ # # 5 @ O & } $ 5 # $ o O # O o # # & 5 # # O # & P 2 # @ o O # $ P o o @ @ o O ",
"q.} 2 @ O $ # $ & 5 @ f 8.v.S.t.# # = x # # $ O o o o O O O @ @ # / o # # $ $ O n n n n # # # o @ # # 5 2 # o O O O o o O @ & } ",
"8.n $ # o o # & & 5 = 2 8.z.l.& + & x & $ x & # o O 5 $ O O O $ &.# o $ n } &.T } &.8.n 2 O # o O $ O O 2 n $ $ O o o O O P n l.",
"@.8.& @ O O f / n 5 # & P 8./ @ $ n n # n / P 5 # / n $ O @ n 8.& o & 5 } z.v.l.8.8./ 8.5 + O @ O & / 5 o 5 n & # o O # & 8.q.q.",
"q.q.P & O O O O P } 5 x n 8./ # P } 5 n } } } n # $ O O O n / # o O & } q.v.S.v.v.t./ 8.P # O o O 5 P 8.8.2 5 5 # @ $ n 8.8.} q.",
"l.l.n & # O o O # $ / P 8.8.$ f } / 2 } } } t.n 2 O O O O @ O o @ O $ P l.v.S.v.l.t.&.z.l.$ # o O # n } 8.v.8./ # 2 P 8.P n f q.",
"l.l.} } $ & O o O O P } 8.n # / } &.5 / } l.8.& o o o o o o # @ n P $ 2 l.v.z.z.8.&.l.v.n O O o o O # &.} l.z.l.$ / n # 5 P n } ",
"8.l.} P } 5 O o 2 5 5 P } 2 f } 8.# n P 8.8.x O o o O O # 2 $ @ 5 } q./ 5 &.l.&./ 8.l.S.5 O # + O o O &.P &.v.z.8.z.} 2 & n n n ",
"x P x 2 O $ $ O O # 5 5 x P / 8.# 2 / } z.5 O O # & O O # 5 2 2 n n / 8.l.l.} f } q.l.l.# & 2 # O $ o / n & v.l.8.l.q.P @ 5 n / ",
"x x 5 O @ # O $ O O # & / 5 } $ @ 2 P l./ O O $ } 5 # O # $ # # 5 & 2 5 } v.v.8.8.z.l.2 2 x 2 + O O O n f # l.l.2 n &.q.5 & & n ",
"x x # O 5 5 O O O # @ $ n / n O x P 8.8.# O # 5 8.} P & O # # o O # 2 x n x P l.8.z.t.2 P P & # O 2 n 8.2 # P l./ @ 5 8.P 5 # $ ",
"# 5 # 5 n # O O # @ o o O # 2 # n } &.n O + $ } } l.} n # O o X o o O & 5 5 P } 5 5 l.8.n n # O f 2 8.l.2 & 8.8./ $ # 8.n P x & ",
"& $ 5 P $ 2 O O O f 5 O o o o O n n } # O O x 8./ l.l.P 5 x 5 # o o # & $ 5 n 2 O & P l.& # @ O # 8.8.8./ l.&.} &.n # # 8.5 } & ",
"5 5 P n n $ O O # &.n # # o o O # $ O O @ O f / n 8.l./ } 8.5 & O o o O # n / o O & $ 8.&.O O $ n l.l.l.&.$ @ O O 5 $ # } 8./ x ",
"n = n 5 @ # $ $ O 5 / n n & & o o o o o o # 2 $ @ 2 / f &.l.n x $ O # @ n 8.# o O & @ 5 8.$ @ n 8.t.&.$ 5 n 2 # O O & # 5 P } } ",
"n n 5 $ @ O # n 2 n } &.n n 5 # @ $ O # O O o / n $ 5 R v.S.S.l.5 / P @ . O o O # $ O O &.} # / l.$ @ @ } 8.&.x $ O O # 5 x x } ",
"P n $ @ O # O # $ / / 8.&./ 5 n n 2 $ } $ O @ f &.$ @ $ 8.z.z.v.l.5 5 8.$ O @ n O # & # f l.# n 2 O n $ 8.S.v.} 5 $ # O # 5 5 5 ",
"n $ O O & # & $ & $ x 8.l.l.8.} } / 8.8.O $ O # f &.2 2 2 / 8.l.S.l.n 8.v.t.8.$ 5 } / $ $ l.$ # # $ 5 n f v.v.8.n & $ @ O O # # ",
"# @ # $ 5 2 5 5 5 & P P 8.l./ n 2 n 8.$ # O o O # n P &.$ # 2 &.l.8.} l.t.f &.@ # v.n # # l.$ # # 5 P P 8.v.t.5 5 & # 5 o o o O ",
"O & 5 x P P / } } } l.l.l.P 5 # 2 / # # n $ @ O O $ n &.@.2 @ 5 # 5 8.t.# n 2 O O &.5 @ O P # # & 5 x 8.v.} 2 n # 2 & & $ o o o ",
"& & & / t.l.l.l.l.} P n n 2 & / f 5 # 5 l.n $ O # O $ n } } n $ $ } &.f # $ # O O } @ o O 8.& & # @ n v.t.2 / n $ x 5 & $ o O $ ",
"& # @ 2 & $ $ & $ @ O o O O $ 5 5 # 5 P l.P / & & # O # x P 5 & / z./ # 5 @ $ O # O o O &.&.2 # $ &.z.z.} 8.} & x 5 & # O O $ n ",
"P # $ # @ O $ o O @ & # O # f $ 5 $ f 8.l.} / 2 x 5 O # = & $ n 8.n n & @ # # @ O # & / &.@ # 5 z.l.l.l.l.8.n $ & $ # O O + P } ",
"q.l.@.n # $ $ O & P O O O O @ / 5 $ n 8.l.8.P $ & 5 2 O # & & P n 2 5 5 O & + # } 5 P / 5 5 P 8.q.} } 8.8./ $ # # O O O # } @.n ",
"P P q.q.5 8.P n n & O O $ O n 5 2 2 P l.@.8.&.n 5 $ n 2 O # O & $ 2 R & O O P 8.l.q.8.8.8.8.8.n n P 8.l.n 2 & $ O O $ # } } # x ",
"n P } P } n & # O O @ o o @ n n & P l.8.2 # n q.} = 2 @ O # n 5 # P & O O P q.q.8.q.8.@.P 5 & @ $ n q.} n @ & # @ & # P } O # 5 ",
"& x & } / 2 & # # O 2 @ o $ @ # 8.z.l.n 2 5 # / / f $ O o / # # @ 5 # O n q.q.8.P $ & 5 5 & n # # } q.n # # O O # & # P } @ O $ "
};
