/* XPM */
static char *_68779b84d834f5eab86dc89e16d418aInyQpW1vsmA78YLH[] = {
/* columns rows colors chars-per-pixel */
"64 64 219 2 ",
"   c #040105",
".  c #090107",
"X  c #02010B",
"o  c #0C050C",
"O  c #0D090E",
"+  c #150A02",
"@  c #1A0A00",
"#  c #12060D",
"$  c #18070F",
"%  c #14090D",
"&  c #1A0B0D",
"*  c #1B120C",
"=  c #040312",
"-  c #0B0512",
";  c #0D0912",
":  c #07051A",
">  c #0A061A",
",  c #0C091C",
"<  c #130D12",
"1  c #1B0C11",
"2  c #130D1C",
"3  c #161115",
"4  c #1D1515",
"5  c #1F1916",
"6  c #16111C",
"7  c #1B151B",
"8  c #1E181A",
"9  c #210F00",
"0  c #220D0E",
"q  c #300F0E",
"w  c #2E1202",
"e  c #2E1904",
"r  c #26120E",
"t  c #2B120E",
"y  c #25180F",
"u  c #2D1A0D",
"i  c #331302",
"p  c #391602",
"a  c #351C03",
"s  c #3B1D02",
"d  c #32150E",
"f  c #341A0D",
"g  c #3B1D0C",
"h  c #230E11",
"j  c #2B0F12",
"k  c #320F15",
"l  c #3B0E13",
"z  c #231414",
"x  c #2C1412",
"c  c #251A15",
"v  c #2B1C15",
"b  c #221619",
"n  c #2E161D",
"m  c #241A19",
"M  c #2B1C1A",
"N  c #331613",
"B  c #381710",
"V  c #331A13",
"C  c #3A1C14",
"Z  c #341C19",
"A  c #3B1E1A",
"S  c #3C2103",
"D  c #35210E",
"F  c #3B220C",
"G  c #2E211D",
"H  c #352214",
"J  c #3C2215",
"K  c #33221C",
"L  c #3C231C",
"P  c #3F291D",
"I  c #0E0921",
"U  c #110B22",
"Y  c #161121",
"T  c #1B1522",
"R  c #1F1825",
"E  c #1E0C33",
"W  c #221B23",
"Q  c #2A1E21",
"!  c #251D2A",
"~  c #311E20",
"^  c #2D1335",
"/  c #251339",
"(  c #2C2224",
")  c #262128",
"_  c #2D232A",
"`  c #342423",
"'  c #3E2622",
"]  c #392827",
"[  c #3D2A24",
"{  c #33252E",
"}  c #34292C",
"|  c #3B2C2C",
" . c #3E302D",
".. c #2F2231",
"X. c #362535",
"o. c #372A33",
"O. c #3A2D32",
"+. c #37273A",
"@. c #3C2C3A",
"#. c #3D3334",
"$. c #3E353A",
"%. c #421E01",
"&. c #411E0D",
"*. c #410E15",
"=. c #431112",
"-. c #411E14",
";. c #411F1B",
":. c #442302",
">. c #4B2401",
",. c #462805",
"<. c #4D2B05",
"1. c #44230B",
"2. c #49270E",
"3. c #452A0C",
"4. c #4B2B0C",
"5. c #532700",
"6. c #532A01",
"7. c #522F0F",
"8. c #543407",
"9. c #54330C",
"0. c #58380C",
"q. c #442413",
"w. c #492614",
"e. c #472E14",
"r. c #4C2B14",
"t. c #43231C",
"y. c #48251D",
"u. c #432A1D",
"i. c #4B2B1C",
"p. c #4B3114",
"a. c #43301E",
"s. c #4D311A",
"d. c #543412",
"f. c #593512",
"g. c #573912",
"h. c #53351B",
"j. c #593619",
"k. c #442521",
"l. c #4B2522",
"z. c #442B24",
"x. c #4B2D24",
"c. c #452D2A",
"v. c #4C2D2A",
"b. c #502726",
"n. c #522B2B",
"m. c #423026",
"M. c #4D3324",
"N. c #43322D",
"B. c #4C332B",
"V. c #4E382C",
"C. c #513524",
"Z. c #513824",
"A. c #52352C",
"S. c #53392C",
"D. c #402C36",
"F. c #422E3A",
"G. c #433535",
"H. c #4C3533",
"J. c #453937",
"K. c #4C3936",
"L. c #42363B",
"P. c #4B3738",
"I. c #45393B",
"U. c #4B3C3C",
"Y. c #543632",
"T. c #583730",
"R. c #553A33",
"E. c #5A3C36",
"W. c #523C3B",
"Q. c #5B3E3A",
"!. c #4D403A",
"~. c #5E4137",
"^. c #54413D",
"/. c #5D423C",
"(. c #61433D",
"). c #61443F",
"_. c #240B44",
"`. c #261048",
"'. c #2E1249",
"]. c #250C5C",
"[. c #2E0E5C",
"{. c #2D125F",
"}. c #33125C",
"|. c #372F42",
" X c #3A3544",
".X c #3B3544",
"XX c #3B3648",
"oX c #3F394A",
"OX c #2C1062",
"+X c #2E0D74",
"@X c #320E75",
"#X c #331075",
"$X c #301078",
"%X c #423541",
"&X c #463943",
"*X c #4B3D41",
"=X c #423A4B",
"-X c #533F41",
";X c #5C3F41",
":X c #463E53",
">X c #483F52",
",X c #4E4144",
"<X c #534244",
"1X c #5D4341",
"2X c #5F4443",
"3X c #5F4444",
"4X c #53454A",
"5X c #5C4349",
"6X c #54484C",
"7X c #4D4458",
"8X c #53495F",
"9X c #614541",
"0X c #614542",
"qX c #654741",
"wX c #614645",
"eX c #684741",
"rX c #674844",
"tX c #684841",
"yX c #6A4D4B",
/* pixels */
"W ! ) ) Q Q Q M z M M M v M G G G K K K K G G ( ` ( ` G M M M M M m c c c c c b b z 5 5 5 5 4 4 4 * * % + + + @ + + @ @ 9 9 9 @ ",
">X8X=X=X5X5X-XY.v.A.Y.Y.E.(.rXrXqXtXtXeXqXqXrXyXyXyXrX(.(.).(.(.Q.E.E.E.S.A.V.H.H.B.N.N.N.G.N.m.m.[ L H i c y i i i i :.6.>.5.p ",
"7X:X X X&XP.B.x.B.B.A.R.1X0X(.(.(.(./.(./.1X2XwXwX/.E./.(./././.E.E.E.R.Y.Y.H.H.P.H.H.H.H.H.V.V.m.[ [ [ w t y w w i i 5.6.5.%.i ",
"7XoX X XL.A.A.A.A.E./.0X).(.(.(.(./.1X2X3X3X2XwX/.Q./.(.(.(./././.Q.Q.E.Q.E.E.E.R.R.R.Y.R.R.Y.V.N.N.G. .H H u i i i >.6.6.>.%.>.",
":X X X X$.H.A.E.Q.0X).(.(.(.(.(.0X0XwX3X0X).).(.Q.(.(.(.(.(./././.(./.Q.Q././.~.E.E.E.R.R.Y.R.R.H.K.K.[ J H f i i i >.6.6.>.>.5.",
"=X X X X XL./.0X).).(.(.(.0X(.1X/././././././.Q.(.(.(././././.~.(././.Q.Q./.Q.E.E.E.E.E.R.Y.R.R.R.P.K.u.J H f v e i >.6.>.:.>.>.",
"=X X X X X%X/./.(.(./././././././.1X1X0X1X/././.(.(./././.~.~.~./.Q.Q.Q.Q.Q.E.E.E.E.E.E.R.R.R.W.W.K.N.e.J H H H f i >.6.>.>.>.%.",
"=XXX X X X X/./././././././.1X0XwX0XwX1X1X/./././././././.~.(././.Q.Q.Q.E.E.E.E.E.E.E.E.R.R.R.A.B.M.s.4.e.p.4.,.%.p >.6.>.%.i i ",
"=X XXX X X XW./././././.1X0XwXwX0XwX0X1X/./.(.(./././././.Q.~./.Q.E.E.Q.E.E.E.E.E.E.E.R.R.R.A.M.M.h.d.d.g.0.<.>.:.:.>.5.p i i a ",
"=XXX|. X X X XP.E./.1X1X2X2X1X1X1X0X/.0X/.(./././././.Q.Q.E.E.E.E.E.E.E.E.E.E.E.E.E.R.R.R.R.S.Z.Z.C.h.g.f.9.6.>.:.:.>.:.p p a s ",
" X=X X X X X XP.R./.1X1X1X2X1X1X0X0X2X/././.Q././././.Q.E.E.E.E.E.E.E.R.R.R.R.E.E.R.R.Y.S.S.Z.Z.Z.C.h.j.f.f.8.9.<.<.:.>.:.:.:.:.",
"%X X:X X X%X%X&XW././.1X1X0X0X0X0X0X/.(././././././.Q.Q.Q.E.R.R.R.E.R.R.R.R.R.T.S.S.S.S.S.Z.Z.A.C.h.h.j.d.d.0.g.0.8.<.>.:.:.:.S ",
"U.I.=X=X X X&X%XU./.1X0X0X0X0X0X2X/./././././.Q.E.E.R.E.R.R.R.R.R.E.S.A.S.A.A.Y.Y.A.Z.Z.A.M.M.M.M.s.d.d.d.d.9.0.8.<.6.>.:.:.:.a ",
"W.W.P. XoX X%X.X XW./.~./.0X2X/./.;X1XQ./.Q.Q.E.E.E.R.E.R.R.S.R.S.Y.A.A.A.A.A.A.A.A.Z.M.M.M.x.x.i.i.i.r.d.9.9.9.<.:.:.>.:.:.s a ",
"/.Q.E.U.%X X X=XL.*X^././.0X/././.1X/.Q.Q.Q.Q.Q.E.E.R.R.R.Y.Y.A.A.A.A.A.A.A.A.A.C.C.M.M.M.M.x.i.i.i.r.r.d.7.4.6.<.,.:.:.:.:.s a ",
"/.2X1X1X/.I.G.%X&X*X^.^./.1X/.1X1X/./.Q.Q.Q.Q.Q.Q.R.R.Y.H.H.Y.Y.A.A.A.A.B.B.M.M.M.M.s.M.i.i.i.i.r.r.r.4.4.4.4.4.,.,.:.:.:.:.s a ",
"K.W.^.3X/.Z.A.H.U.*X*X<X<X1X/.1X/.Q.Q.^.E.W.R.E.R.R.R.R.A.A.V.B.B.B.B.B.M.M.M.M.x.i.i.i.i.i.i.w.w.r.r.4.4.4.,.,.,.:.:.:.S a a e ",
"V.N.H.M.e.3.9.h.H.U.,X4X<X1X/./.Q.Q.Q.Q.E.R.R.R.Y.Y.R.Y.A.A.B.B.B.x.x.x.M.x.x.i.V.M.i.i.u.y.w.w.w.w.q.q.2.2.2.,.,.,.:.a a a e y ",
"I.a.3.:.:.:.4.M.!.<X<X-X-X-X^.Q.Q.Q.Q.Q.R.R.Y.A.A.Y.H.V.M.B.v.x.x.x.z.z.z.x.x.i.S.Y.u.u.w.q.q.w.q.q.q.2.,.2.,.,.,.:.s s a e y z ",
"F S S :.S 3.M.K.<X<X<X-X<X<X^.1XQ.E.E.E.Y.Y.Y.A.A.A.V.B.B.B.x.x.x.l.u.z.z.u.i.i.i.i.y.q.q.q.2.q.q.q.2.2.1.,.,.,.:.:.s s a a y 5 ",
"S S :.:.3.B.U.4X4X4X4X<X<X<X/.Q.W.E.W.R.R.R.Y.A.A.A.B.B.v.v.z.z.z.z.z.z.z.u.u.u.u.w.y.q.q.q.q.q.1.2.2.2.1.1.,.,.:.S s f v v c c ",
"S S S S m.U.4X6X4X4X4X4X<X<X<XW.Q.W.W.R.R.Y.H.B.B.v.B.v.z.c.c.[ z.z.P u.t.t.t.t.q.q.q.J J q.q.-.1.&.1.1.1.1.:.:.:.S s a v v v m ",
"3.,.:.m.I.,X4X6X6X6X4X4X4X4X<X<XQ.W.R.R.R.Y.V.V.B.v.z.v.z.z.z.u.u.' P t.t.t.P L t.q.J J J C -.q.&.1.&.&.1.1.:.:.F F s S f v v v ",
"9.8.B.*X*X,X4X4X6X6X4X4X4X4X<XW.W.W.R.V.V.V.V.A.B.z.z.v.z.z.z.u.P P L L H H L L J J J A C A C g g -.g g g g g g S S g D v v v c ",
"<.M.*XU.*X,X4X4X6X6X4X4X4X<X-XW.W.R.R.H.H.H.B.B.x.z.z.z.z.' k.P L L L L L t.L L J J A A A C C C C g g g g g g g S g F F D v v c ",
"s.U.U.P.,X4X4X4X4X4X4X4X4X<XW.W.W.R.Y.H.H.V.B.N.c.c.z.u.t.k.t.L L L L L P ;.A J J C C A A C g g &.&.g g g g g g F F F J V M M c ",
"V.W.W.U.,X,X,X,X,X,X,X<X<X-XW.W.R.R.H.B.H.B.z.c.z.z.z.k.P L J J H A L Z Z Z V V H A B C C g B C g g g g g g g g g f H V v M c 5 ",
"*XW.U.I.I.*X*X,X,X<X,X<X,XW.W.W.R.R.H.H.N.c.c.z.' k.t.L L L A L A V V Z V V V Z V B B V C f B B f g g f f f f f f V V v v z 5 7 ",
"U.I.L.I.I.I.*X,X,X,X*X*XW.W.W.W.K.H.H.B.N.N.z.z.' ' P L A A A Z Z V C V V N B V V V V N B N B B B f f B f f f f V v v v c 5 5 5 ",
"L.L.L.I.I.I.U.*X*X*XU.U.U.W.W.P.K.K.H.B.B.c.z.k.L L L J A L A Z V v v v v V B V V V N B V B B B f f f B N N f N v v v m z b 5 5 ",
"$.$.L.L.I.I.I.U.U.*XU.U.U.P.P.K.P.H.H.B.c.c.[ ' L L J L K C A V V V v n v x x n v V N B d B f N u N f N x N x v v v m m 5 5 5 z ",
"$. X X$.L.I.I.U.U.I.U.W.U.P.P.K.K.H.v.v.c.c.' ' ' t.L V V V V V V V N x x x x N V N N N N N N N N N x x N N x v M m m m b 5 z z ",
"| I.I.$.$.$.L.I.P.U.P.U.P.P.P.K.H.H.G.v.c.z.z.t.t.;.A Z V V V Z V v x t u N N N N N v N N x x x u x x x x x v v v m m m b 5 z c ",
"N.I.I.$.L.L.L.*XU.U.U.U.P.P.K.K.H.H.c.c.z.z.k.y.t.-.A Z Z N B N N x x N N x x N x x x x ^ }.#X#X}.^ x x x v v v v m m m 5 5 z c ",
"I.I.$.$.L.L.L.%XI.U.I.I.P.P.P.H.H.B.c.v.x.l.k.y.t.-.Z Z Z N N N N N N N x x t x x x c '.#X@X@X@X@X@X'.z c v v v v m m 8 5 5 z c ",
"I.I.L.L.L.$.$.L.L.I.P.L.L.P.P.H.H.v.v.v.l.l.y.y.t.A A N N N N N N d d j z z t x x z ^ @X@X@X@X@X@X$X$X^ z c c m c c c m 8 8 z c ",
"I.I.I.I.I.J.G.G.I.P.K.P.G.G.P.H.B.v.v.l.l.l.y.t.;.A C N N x x t x k x j h z z z z z [.@X@X@X@X@X@X@X$X{.b c c m c v v c 8 5 c c ",
"L.L.L.L.J.K.K.P.P.P.K.K.G.P.H.H.v.v.v.l.l.l.y.;.A C C N N x z z t N j j x j z z z h @X@X@X@X@X@X@X@X$X$Xz m b c c M v c 5 z c c ",
"I.I.L.G.J.I.P.P.P.P.K.P.P.H.B.v.n.n.v.b.l.y.t.;.A C B N x x x z t d t j z h h 0 0 0 +X@X@X@X+X@X@X+X$X$X4 4 m m b c c c z c c c ",
"I.I.L.H.J.P.P.P.P.K.P.P.K.H.B.n.n.n.n.n.l.l.;.;.C C N N x x x t q q j h h h h 0 & 0 [.+X+X+X+X@X+X+X@XOX7 7 7 8 m m c c z v c c ",
"I.I.P.R.K.K.U.U.P.P.P.P.P.H.B.n.n.n.n.l.l.y.t.A C V N N x x x x t j r h 0 0 h 1 & 1 E +X+X+X+X+X+X+X+X/ 7 7 7 7 4 4 z c b 4 z c ",
"I.I.K.P.K.K.U.U.K.K.K.K.K.K.H.v.n.n.n.l.l.y.L A V N x N t x t z r 0 0 h 1 h 0 & 1 1 & _.+X+X+X+X+X+X`.4 3 7 7 T T 7 b c b 5 c c ",
"I.I.I.U.P.P.U.U.K.U.P.K.K.K.B.H.v.n.n.b.l.k.A A V N x N t t t z 0 h 0 h 1 & & & & & & % E ].+X+X].E 3 3 7 7 7 T T 7 5 z 4 4 z c ",
"I.I.U.U.K.K.K.U.U.K.K.K.K.K.H.H.B.n.v.l.l.t.A A V V x x x t t h 0 h 0 & & & & % & & # % % % # % & < 3 3 3 7 b m m 7 4 5 8 8 5 5 ",
"U.U.U.U.K.U.U.U.K.J.J.P.P.P.K.H.H.v.v.k.k.L A Z V N x x x t 0 0 0 & & 1 & & & & % # # # # # # < % < < 3 4 7 5 v H m 7 7 4 8 4 7 ",
"U.U.U.P.P.U.U.I.G.J.P.U.U.U.P.P.H.H.c.c.' L Z Z Z N x x t h 0 0 & & & & & $ % % # # # O O # O O O ; < 3 4 7 4 u V H 6 7 4 4 4 4 ",
"U.U.U.U.U.K.G.#.G.U.U.U.W.U.P.P.G.G.c.c.' ` K Z Z n x x h h & & & 1 & & % # # # # # O O O O o o O O < 3 5 v v v m v m Y 7 4 7 6 ",
"U.U.U.U.I.G.#.I.I.U.,X,XU.K.K.P.G.G.N.c.' ` ` Z Z x x z h 1 & & & 1 # # # # O # # # O o O o o o o o O < 4 v v v M v v 6 7 6 2 3 ",
"U.U.U.I.#.I.U.U.U.U.*XU.U.U.K.K.G.G.N.| | ] ` Z n c z h h 1 1 & & % # # < # # # O O o o o o X X X o # O z v v M M v v 7 7 2 2 5 ",
"U.U.L.L.I.U.U.U.U.U.U.U.U.U.K.J.J.G.N. .| ] ` ~ M c z z 1 1 & % # # # # # # o O O o o o o o o X     X o c v v v v v v m m 6 c 5 ",
"*XL.G.U.U.U.U.U.I.U.U.*XU.U.I.J.G.G.G.G.| | ] ` M c z 1 1 & % % # # # # O O o O O o o o o o X X     . . c v v v v v v v M v v 6 ",
"L.I.U.U.U.U.U.U.U.U.U.U.U.I.J.J.G.G.G.#.N.| ] ` M b z z & 1 % % # # # - - - o o O o o X o X X X X       % v M v v v v v v v 7 , ",
"I.U.U.U.U.U.U.U.U.U.U.U.U.I.J.L.G.I.G.G.N. .| ] ( M b 4 & % % # # O O - O o o o o X X o o X o X   X X     < M M M v v v c c 2 , ",
"*XU.U.U.U.U.U.U.*XU.I.I.I.G.G.L.I.J.J.G.G. .| ] ( Q b 4 % % # # O - - - o o - - = = X o X o =.0 X X X X X X O 4 c z z 4 5 4 - < ",
"*XU.U.U.*XU.U.U.U.I.I.U.L.$.L.J.J.J.J.G.#.#.O.| ] M m 4 < # # - O - - - - o - : - X X = X o l *.X X ; 3 X X X X o X   X X X X X ",
"*XU.U.U.U.*X*XU.U.I.I.#.#.L.J.J.J.G.J.G.G.G.#.| ] ` M 4 < O O O o - - > > , > > - X X X = X . l h & m m ; X X X X X X X X X X X ",
",X*XU.U.*X*XU.U.U.I.#.$.$.G.J.G.G.G.J.L.G.G.G.| ] ` M z < O o o - - - > , , , , > =   X = = X o n c m m 4 X X X X X X X X X X X ",
"*XU.U.U.*X*XU.U.*XL.#.L.G.G.G.G.#.#.L.I.G.G.#.| ] ` ( v * O X X - - > > , , , , , : X   = = X X X O m m m o X X X X X X X X X X ",
"U.U.U.U.*XU.U.,X*X#.#.G.#.#.#.#.#.#.L.G.#.#.#.O.{ _ K J u % o X = > , , , , I I I , X   X X X X O X 3 m m 3 X X X X X X X X X X ",
"*XU.U.U.U.*X,X,X$.#.G.G.G.#.#.#.#.G.G.| O.#.O.X.{ ( G a f z O     > , I , , , , , I =       X X 4 4 < m 4 o X X X X X X X X X X ",
"*XU.U.U.U.,X,XU.$.G.G.G.#.#.#.#.#.O.O.#.O.X.X.X._ G G M m m m 5 o = , 2 , Y ! R U I = X X X X o W Q z m 4 X X X X X X X X X X X ",
"*XU.U.U.,X<X,XG.G.G.$.$.#.#.#.| | #.O.o.o.o.#.X.{ ( ( ) W m v v v ; > 2 W o.F.@.X...T = X X X < _ ..W m 3 X X X X X X X X X X X ",
"U.U.U.*X,X<XL.G.G.#.#.#.#.O.| } O.} } #.#.#.#.X.X._ ( ( ) ) G v v b 6 ..@.+.@.@.@.F.@.T < 6 2 7 ) +.o.Q 4 X X X X X X X X X X X ",
"*XU.*X,X,X*X#.G.J.#.#.#.#.O.O.o.} } #.#.#.#.O.X.X._ ( ( ( _ ( M m m m _ @.@.@.@.@.D.F.! T T R 8 ) +.+.X.7 - X X X X X X X X X X "
};
