/* XPM */
static char *_0c59a5ae03a44dba3b1b9c036a2d495us27gHKYEueaxDZs[] = {
/* columns rows colors chars-per-pixel */
"64 64 251 2 ",
"   c #190604",
".  c #120C11",
"X  c #1B0A16",
"o  c #170919",
"O  c #1A1214",
"+  c #250805",
"@  c #260B09",
"#  c #2A0D0C",
"$  c #29150A",
"%  c #2B130C",
"&  c #34170C",
"*  c #351A0C",
"=  c #280C17",
"-  c #330E15",
";  c #2C1512",
":  c #2D1A14",
">  c #24131B",
",  c #281818",
"<  c #311513",
"1  c #331B15",
"2  c #391A15",
"3  c #341D1B",
"4  c #3B1C19",
"5  c #36210D",
"6  c #2E221D",
"7  c #3D2216",
"8  c #33221C",
"9  c #3B231B",
"0  c #382418",
"q  c #150726",
"w  c #100D32",
"e  c #171837",
"r  c #270D28",
"t  c #2A1B26",
"y  c #361C27",
"u  c #260D36",
"i  c #271334",
"p  c #351A34",
"a  c #2B2425",
"s  c #2D2429",
"d  c #342423",
"f  c #382727",
"g  c #3A2C29",
"h  c #3D312D",
"j  c #29263D",
"k  c #372734",
"l  c #3A3437",
"z  c #421D13",
"x  c #432414",
"c  c #4D2C16",
"v  c #44251A",
"b  c #482619",
"n  c #452A1E",
"m  c #4C2B1B",
"M  c #4F2F1D",
"N  c #53321C",
"B  c #5A381E",
"V  c #65361F",
"C  c #442C23",
"Z  c #4B2B23",
"A  c #462928",
"S  c #532D24",
"D  c #582E28",
"F  c #4B3226",
"G  c #44322B",
"H  c #483328",
"J  c #4C332B",
"K  c #543424",
"L  c #593527",
"P  c #5C3B24",
"I  c #53342B",
"U  c #543A2A",
"Y  c #5B3B2A",
"T  c #462A33",
"R  c #502D31",
"E  c #4B3633",
"W  c #463937",
"Q  c #563A36",
"!  c #543C34",
"~  c #613C24",
"^  c #633D2B",
"/  c #613E33",
"(  c #5D422D",
")  c #4C413B",
"_  c #5C4233",
"`  c #564639",
"'  c #5C433B",
"]  c #6D4E22",
"[  c #64432B",
"{  c #67452B",
"}  c #6B4A2D",
"|  c #704E2D",
" . c #72512D",
".. c #644533",
"X. c #6B4435",
"o. c #664935",
"O. c #6C4B34",
"+. c #62443B",
"@. c #664A3A",
"#. c #6B4C3C",
"$. c #724C35",
"%. c #744C3A",
"&. c #725135",
"*. c #75533A",
"=. c #78563D",
"-. c #130C46",
";. c #0A095A",
":. c #140D59",
">. c #191557",
",. c #271B47",
"<. c #2B114A",
"1. c #261859",
"2. c #1F205F",
"3. c #322A4A",
"4. c #2A2559",
"5. c #342A55",
"6. c #3A3557",
"7. c #0E106B",
"8. c #161469",
"9. c #161778",
"0. c #221A6A",
"q. c #1E2B74",
"w. c #272768",
"e. c #353668",
"r. c #292B75",
"t. c #35377A",
"y. c #483947",
"u. c #523B41",
"i. c #413C6A",
"p. c #3C485A",
"a. c #3E4477",
"s. c #4B4546",
"d. c #564846",
"f. c #5C514B",
"g. c #48465A",
"h. c #594C53",
"j. c #575557",
"k. c #644C43",
"l. c #694C44",
"z. c #744D43",
"x. c #695348",
"c. c #755442",
"v. c #7A5848",
"b. c #665856",
"n. c #745A52",
"m. c #6F615D",
"M. c #78655D",
"N. c #4F4E6E",
"B. c #585869",
"V. c #464776",
"C. c #655B6C",
"Z. c #586472",
"A. c #696467",
"S. c #776965",
"D. c #746C72",
"F. c #80593D",
"G. c #835B48",
"H. c #815D52",
"J. c #89634C",
"K. c #90664C",
"L. c #876857",
"P. c #966B55",
"I. c #9A745A",
"U. c #A3785C",
"Y. c #8C746A",
"T. c #9B7867",
"R. c #867975",
"E. c #A77B6A",
"W. c #AB7C71",
"Q. c #AB875C",
"!. c #958171",
"~. c #96837A",
"^. c #AB8568",
"/. c #B38B67",
"(. c #B38B6C",
"). c #B9926B",
"_. c #A68675",
"`. c #B88B75",
"'. c #BD9274",
"]. c #C08E7E",
"[. c #C49878",
"{. c #C9A07E",
"}. c #0E1689",
"|. c #141987",
" X c #0F1B95",
".X c #121B92",
"XX c #192487",
"oX c #192699",
"OX c #282B86",
"+X c #2A348C",
"@X c #343888",
"#X c #242B94",
"$X c #293896",
"%X c #0E26A7",
"&X c #182AA5",
"*X c #132CAB",
"=X c #1A34A9",
"-X c #112EB1",
";X c #182CB0",
":X c #1936B8",
">X c #253AA8",
",X c #30459A",
"<X c #2744A9",
"1X c #3846AB",
"2X c #2644B9",
"3X c #464987",
"4X c #4E5391",
"5X c #6A6988",
"6X c #73708B",
"7X c #444FA1",
"8X c #1936C3",
"9X c #223FC0",
"0X c #2140C6",
"qX c #807888",
"wX c #918988",
"eX c #958989",
"rX c #999494",
"tX c #B1978C",
"yX c #A89A95",
"uX c #AFA39A",
"iX c #909CA6",
"pX c #B6AFAB",
"aX c #BAB7B7",
"sX c #C28F82",
"dX c #C59484",
"fX c #C99886",
"gX c #CAA487",
"hX c #D4AA8A",
"jX c #DEB18F",
"kX c #DFB391",
"lX c #E3B694",
"zX c #C3B9B2",
"xX c #CDC3BC",
"cX c #C9C6C4",
"vX c #D3CCC9",
"bX c #DDD3CD",
"nX c #DAD6D4",
"mX c #E3DBD8",
"MX c #E9E2DD",
"NX c #EAE7E4",
"BX c #F1ECE9",
"VX c #F6F1EC",
"CX c #F9F4EE",
"ZX c #F6F5F5",
"AX c #FBF6F3",
"SX c #FDFAF5",
"DX c #F6F6FA",
"FX c #F5FCFC",
"GX c #FEFDFB",
"HX c #FDFEFD",
"JX c white",
/* pixels */
"JXJXJXJXJXJXJXJXJXJXJXJXJXJXJXJXJXJXJXJXJXJXJXJXJXJXJXJXJXJXJXJXJXJXJXJXJXJXJXJXJXJXJXJXJXJXJXJXJXJXJXJXJXJXJXJXJXJXJXJXJXJXJXJX",
"JXJXJXJXJXJXJXJXJXJXJXJXJXJXJXJXJXJXJXJXJXJXJXJXJXJXJXJXJXJXJXJXJXJXJXJXJXJXJXJXJXJXJXJXJXJXJXJXJXJXJXJXJXJXJXJXJXJXJXJXJXJXJXJX",
"JXJXJXJXJXJXJXJXJXJXJXJXJXJXJXJXJXJXJXJXJXJXJXJXJXJXJXJXJXJXJXJXJXJXJXJXJXJXJXJXJXJXJXJXJXJXJXJXJXJXJXJXJXJXJXJXJXJXJXJXJXJXJXJX",
"JXJXJXJXJXJXJXJXJXJXJXJXJXJXJXJXJXJXJXJXJXJXJXJXJXJXJXJXJXJXJXJXJXJXJXJXJXJXJXJXJXJXJXJXJXJXJXJXJXJXJXJXJXJXJXJXJXJXJXJXJXJXJXJX",
"JXJXJXJXJXJXJXJXJXJXJXJXJXJXJXJXJXJXJXJXJXJXJXJXJXJXJXJXJXJXJXJXJXJXJXJXJXJXJXJXJXJXJXJXJXJXJXJXJXJXJXJXJXJXJXJXJXJXJXJXJXJXJXJX",
"SXGXGXGXGXJXJXJXJXFXFXJXJXJXJXJXJXJXFXFXFXJXJXFXFXFXFXFXFXFXFXFXFXJXJXJXJXDXJXJXJXJXJXJXJXJXJXJXJXJXJXJXJXJXJXJXJXJXJXJXJXJXJXJX",
"AXAXSXSXAXSXGXJXJXFXFXJXJXJXJXJXJXDXFXFXZXDXJXJXFXJXFXFXFXFXFXFXFXJXGXJXJXDXJXJXGXJXJXJXJXJXJXJXJXJXJXJXJXJXJXJXJXJXJXJXJXJXJXJX",
"SXAXSXAXGXGXJXJXFXFXFXJXJXJXJXJXJXJXZXDXJXJXJXJXJXJXGXGXGXJXJXFXJXJXDXGXJXJXJXJXZXJXJXJXJXJXJXJXJXJXJXJXJXJXJXJXJXJXJXJXJXJXJXJX",
"uXyXyXuXmXSXSXJXJXJXFXJXJXJXJXJXJXJXJXJXZXDXJXJXGXAXCXCXAXSXGXGXGXJXJXJXJXJXJXJXDXJXJXJXJXJXJXJXJXJXJXJXJXJXJXJXJXJXJXJXJXJXJXJX",
"U ' ' M.zXAXSXJXJXJXJXFXJXJXJXJXJXGXFXJXJXJXJXGXAXAXCXVXVXCXAXGXSXSXJXGXJXJXJXJXJXJXJXJXJXJXJXJXJXJXJXJXJXJXJXJXJXJXJXJXJXJXJXJX",
"Y x.n.n.uXCXCXZXDXJXFXJXJXJXJXJXJXJXJXJXSXSXAXBXMXnXxXpXpXvXmXMXNXSXJXSXGXGXJXFXJXJXJXJXJXJXJXJXJXJXJXJXJXJXJXJXJXJXJXJXJXJXJXJX",
"..l.n.x.wXVXSXJXJXJXJXJXJXJXJXJXJXJXJXSXAXZXMXeXW d 6 , % ; J S.rXvXBXGXSXGXJXJXJXJXJXJXJXJXJXJXJXJXJXJXJXJXJXJXJXJXJXJXJXJXJXJX",
"o.@.x.k.R.AXSXSXGXJXJXJXJXJXJXJXJXGXAXGXVXpXb.d 1 0 1 * * 0 * * + d.uXnXSXJXJXJXJXJXJXJXJXJXJXJXJXJXJXJXJXJXJXJXJXJXJXJXJXJXJXJX",
"..o.#.k.S.bXAXSXJXJXJXJXJXDXJXJXJXAXAXBXpXW ; 1 9 7 * * 5 5 5 7 & 8   j.cXZXJXJXJXJXJXJXJXJXJXJXJXJXJXJXJXJXJXJXJXJXJXJXJXJXJXJX",
"[ [ ..k.b.zXSXGXSXZXFXFXJXZXJXJXJXSXBXpXW : 0 1 v v * % $ * * * * f ,   b.MXGXJXJXJXJXJXJXJXJXJXJXJXJXJXJXJXJXJXJXJXJXJXJXJXJXJX",
"Y ^ Y o.k.yXAXGXSXZXJXDXJXDXJXJXAXBXcXs.: 1 9 C 9 0 1 * * v v * & < f $ s.aXSXJXJXJXJXJXJXJXJXJXJXJXJXJXJXJXJXJXJXJXJXJXJXJXJXJX",
"L L [ ( k.Y.VXSXJXJXJXDXJXJXZXJXSXzXf.C 1 C 0 * 9 # * * * x 5 $ $ 0 4 % 8 D.ZXJXJXJXJXJXJXJXJXJXJXJXJXJXJXJXJXJXJXJXJXJXJXJXJXJX",
"L L [ U k.b.nXSXJXJXJXFXJXJXDXJXBXA.8 1 0 * * * & # 1 1 * * % # & 1 $ % 8 h.NXJXJXJXJXJXJXJXJXJXJXJXJXJXJXJXJXJXJXJXJXJXJXJXJXJX",
"L U Y U _ @.uXVXJXJXZXJXJXJXJXDXvXs.n v * * * < @ @ & & < < & % :   $ ; : W aXDXJXJXJXJXJXJXJXJXJXJXJXJXJXJXJXJXJXJXJXJXJXJXJXJX",
"J U L L U k.S.MXSXJXZXJXJXJXJXNXR.d 0 C 1 * $ + % 7 & @ + + # % @   $ $ % d R.ZXJXJXJXJXJXJXJXJXJXJXJXJXJXJXJXJXJXJXJXJXJXJXJXJX",
"C N K J J @.f.bXAXJXJXFXFXDXFXvXs.O 0 1 & $ Z _ v.G.m @ 7 F % + # G G : : % d.NXJXJXJXFXJXJXJXJXJXJXJXJXJXJXJXJXJXJXJXJXJXJXJXJX",
"f K N F J _ ` yXVXAXZXFXFXFXFXpXl $ 0 0 H +.E.[.jX^.K o.P.J.J x.L.Y.x.& $ + l vXSXJXFXFXJXJXJXJXJXJXJXJXJXJXJXJXJXJXJXJXJXJXJXJX",
"f n m F C J H M.BXGXGXFXFXFXFXaXs.  ; H.(.dXgXkXjXJ.J.[.kX(.T.tXhXuXT.M.` @ s zXAXJXJXJXJXFXDXFXJXJXJXJXJXJXJXJXJXJXJXJXJXJXJXJX",
"' U U U m n C ! bXCXGXFXFXJXDXnXj.@ 9 ~.fXgXfXgX{.).jXlXlXhXkXkXhXgXhXtXM.6 l nXGXGXJXFXJXJXDXJXFXJXJXJXJXJXJXJXJXJXJXJXJXJXJXJX",
"n.o.O...U U ! g uXVXJXJXJXJXJXBXA.  n C U %.E.Q.[.[.jXkXkXhXjXgX`.E._.I.x.: ) NXJXGXJXJXJXGXFXFXGXJXJXJXJXJXJXJXJXJXJXJXJXJXJXJX",
"v.#.&.o...k.n.' R.NXAXGXGXSXSXVXS.+ #.C 1 2 4 v v./.[.[.[.hX(.J.%.N * ; F 1 S.NXJXJXJXJXJXGXSXSXSXJXJXJXJXJXJXJXJXJXJXJXJXJXJXJX",
"&.*.O.{ Y o.x.b.b.NXAXSXAXAXAXCXR.# G.#.Q R 2 4 * N I.[.E.P.K % # x m Y #.C eXMXNXmXnXnXnXNXSXGXSXJXJXJXJXJXJXJXJXJXJXJXJXJXJXJX",
"{ *.*.} L Y ' f.f.cXCXAXCXAXMXmXS.- P.P.@.Q E ' ! Y =.)./.F.K ^ L M N X.L.Q S.yXrXeXwXR.S.eXzXmXAXGXJXJXJXJXJXJXJXJXJXJXJXJXJXJX",
"P [ O.&.O.{ _ ` d.rXNXAXGXCXyXS.G Z I.W.I.E.Y.R.R.E.U.[.`.I.P.P.P.I.G.H.^.#.+ 4 E H g G W G f.wXaXBXGXJXJXGXJXJXJXJXJXJXJXJXFXZX",
"~ B P } *.$.Y Q d.b.vXZXAXMXwXs.R Y P.].fXtXtXtXtXdXE.dX'.(.'.`.dXfX`.`.`.c.Z +.n.Q J J ! ! G G b.rXcXVXSXAXGXGXJXJXJXJXJXJXJXDX",
"$.Y N ~ $.c.@._ ' ! rXmXDXBXrXB.y.Y P.[.fXfXfXdXdX`.I.gXgX^.(.].fXfXfXfX`.v.D x.n.J y A C H ! ` E W A.rXbXAXAXGXJXGXJXJXJXJXJXJX",
"&.[ L Y ..c.c.@.! ! d.wXnXZXrX6.y.' P.).[.dX[.`.(.(.E.fXdX(.'.(.dXfXfXfX`.v.S ' k.J y f f 9 G ! W W G h D.pXBXJXGXAXSXJXJXJXFXJX",
"c.o.L L ^ $.v.=...U ) C.D.iX5Xi.6.h.H.I.^.(.(././.U.P.P.J.K.^.`.].[.'.].W.G.S I Q R f y f , , f g g W h d f.yXMXGXGXJXJXJXJXFXJX",
"n.#...^ Y ^ %.*.$...! j.g.4XV.e.3X5XR.R.^.Q.Q././.I.$.V ^ %.E.[.(.(.W.E.I.G.X.+.Q T y y t t a f 6 6 6 d h G ! R.vXZXJXFXJXJXFXJX",
"k.k.l.o.^ ~ } *.*.o.E B.Z.a.3X,X$X4X5XqX~.T.Q.[.[.[.U.X.v.E.dX`.^./.E.U.P.J.z.k.J y y k s a s s s d d 8 f g g ) S.pXNXJXFXJXJXJX",
"U k.x.#.{ { $.%.$.v.d.g.N.e.r.<X<X$X4X5XqXR._.dXsX`.E.H.M.W.dX(.^.E.I.I.P.L.' A 3 > t a a s f s s f f 8 8 d g W W b.aXZXJXJXFXJX",
"h f.x.#.O.$.$.| } c.x.h.B.a.0.oX:X<X$X4X5X6XeX_.L.z.z.v.v.z.J.I.^.E.I.P.Y.S.y.q o O O O > t d 8 4 8 d d d y d f W d.rXNXGXDXDXFX",
"k ! x.c.c.c.c.O.P } *.o.f.N.e.oXoX=X:X2X1X7X5XD.S.T.^.^.E.U.K.J.T.E.E.T.S.C.V.w.2.-.. X = r r ; & 1 d d s y d f G G S.bXAXSXJXFX",
"k T l.n.v.c.c.*.[ [ O.{ ` j.V.OXoX&X-X:X9X2X7X5XR._.U.P.I.P.Q./.E.E.^.T.D.Z.,X>X>X+Xq.>.w q o O $ , t s s s s f f E H cXSXSXAXGX",
"j k ' v.v.*.v.c.[ m P } o.d.N.@X|.oX&X-X;X#Xt.B.T.(././.Q.Q.Q.^._.W.E.L.A.N.$X:X0X2X<X$Xr.-.w q o O > t s s s f f G C S.xXVXSXGX",
"j k Q v.v.*.=.=.[ x c } O.d.B.N.9.|. X%X&X#Xt.b.~.tX[.).Q././.!.R.T.L.b.A.N.$X:X8X8X:X<X,Xr.,.q o O O > t s f f d h E F f.R.aXBX",
"e k R l.c.*.&.&.[ x x { c.k.h.N.e.9. X XoX#Xt.b.E.'.[.).).(.^._.~.M.X.b.B.e.+X=X-X:X:X=X<X,Xq.w . . O O > t s d 8 f 9 f C ' b.rX",
"e p E @.=.*.&.} P b v Y c.x.d.g.g.q..X.X.X9.6.b.P.U.Q./.{.^.Y.~.D.` ! h.g.2.|.oX%X:X:X%X>X2X<Xq.e q O . O > a d d 8 9 g U +.' k.",
"e k Q #.&. .&.O.P m S K X.#.' d.g.w.9..X|.2.y.v.J.G.J.U.^.L.B.B.p.l j.j.3.;.9.}..X=X:X=X&X=X2X<Xq.e O . . O t d d : 9 F Y .._ Y ",
"e k d.c.$.]  .$.P M L L Y o...K u.6.;.OXr.1.Q *. .] =.L.L.h.i.a.t.V.B.p.-.;.9.}.oX-X:X:X%X%X:X2X,Xq.. . O > > d 8 1 F _ ( ......",
"t T z.v.O.} &.{ N m D L Y ..[ N ! y.-.8.1.,.+.*.] ] | L.m.,.r.$X<X,X3Xw.;.;.7.}.&X8X:X*X-X*X=X2X2Xq.    $ O O 3 3 4 J ( ( ....[ ",
"k ! c.v.O.} O.P m m D ^ ~ ~ ~ N ! W w -.<.T o.&.] ]  .v.h.4.|.oXoX#X+XOXq.XX|.oX:X8X:X-X-X%XoX=X<Xq.  @   ; , : , 0 U ......[ { ",
"k.x.v.v.O.[ [ K m S D X.X.[ ~ K E k q w u E #.| ] ] &.x.6.9. XoXoXXXXXOX$X$X$X1X1X;X%X%X&X#Xq.@X4X6XR.x.  % , : 1 H ! o.&.} } *.",
"n.H.v.*.} } { K K K L X.O.[ [ I G s q q 3 Q =.} ] ] &.k.,.9.%X-X*XXXw.r.@X@X3X5X6X4Xa.t.t.V.B.C.D.rXzX!.+ % % : 9 J Q #.*.O.*.c.",
"v.v.*.$.O.$.{ K I I L { } [ Y I T i q o d @.c.} ] ] #.d.>.|.&X-X*X#Xe.e.e.6.g.S.~.!.j.A.A.C.x.d.' L._.I.F @ ; : 0 F _ o.O.} &.*.",
"%.*.*.%.$.O...H S D L [ } [ K G k i q o C #.c.&.]  .=.u.:.|.&X-X-X>X+Xt.w.3.W _ I.^.x.m.M.n.n.b.k m *.L.'   % 0 H U _ ..[ } } ^ ",
"%.%.%.%.O.^ I C Z K Y { | O.m y r q q > U *.c.&.] | #.T :.9.oX-X:X2X>X>X#X4.y.J =.I.n.! +.k.S.6X6.r ! n.@.  # 9 J Y o...[ { [ m ",
"*.&.$.{ ^ N b Z S L [ [ O.o.C , o q o : U &.&.$.| } _ p :.9. X*X:X2X:X2X>X1.y.E [ J.c.C U Q d.D.C.3.5.d._ * - A L P [ P { X.L m ",
"*.&.[ Y F m m m N Y ..o.l.+.k > o q X 8 U [ [ { &.#.l ,.8.|..X X:X2X:X*X#Xw.5.W Y *.z.C F J H d.D.V.0.6.` b - A m N B B { ..K c ",
"[ P N M n n F L U ( o.k.k.E y o o X , 8 Z K N P O.' p 1.9.oX&X%X-X-X:X*X#Xw.3.h K O.#.J H J H C b.5Xr.w.` F = - x N N B [ [ m c ",
"x x * x v m L L L ( o.k.d.T > o o X > 1 v m m K U T u 1.9.oX&X-X-X-X-X*X#Xw.3.G U O.l.Z C J F 7 d.5XOX4.W ) ; # 4 S c P o...N c ",
"x 7 * x m Y [ [ L ..c.+.E d = o o X > ; 2 b m F G p -.0.9. X-X-X-X-X-X*X|.8.5.E K O.#.n 9 Z K n W C.3Xw.3.h.g @ 4 m c K o.X.K c ",
"Z v 7 L Y ( o...L L c.Q C C : @ X > = @ & 9 v n A i <.0..XoX-X:X8X-X-X*X}.8.3.E m ( #.v 4 x v n T B.4Xr.4.g.W # 4 n Z K o.&.~ c ",
"K m v L ..o.*.O.P P X.S n F C ; # : ; @ @ % < y p u 1.9..X&X-X8X:X-X8X*X}.8.3.T m Y #.C 4 x x b f j.4Xr.>.6.d.* < 4 m L o.O.B c ",
"..K M ..o.&.*.&.~ N L b v S F v < < < @ # % # , u u :.9..X&X*X*X-X-X8X*X}.7.,.T m [ k.A 4 S P b 9 j.4X9.8.3.d.v # 2 4 I #.[ N N ",
"..Y I @.c.%.*.$.L m m z * m L F 2 & < % < < = = r w :.7.9..X&X*X-X-X8X&X}.7.,.T N [ +.R C +.$.P n s.V.XXOX4.d.0 # < < J c.[ m m ",
"O.K ( o.x.c.c.o.L x v z * * m L Z n C 4 ; % < y r w -.;.;.9.}.oX*X;X:X&X}.:.,.f Z L / C J @.O.[ v 3.@XoXOXw.d.5 + < 3 J x.} N m ",
"} N ..k.l.c.c...S v v v x * * 7 m I A H C 2 2 y p u <.-.;.;.7.|.XXoXoXoX|.:.<.p Z I Q C Z ..Y [ v 3.+X+XOXw.W 5 @ < y H @.} N c ",
"K m ! ! ! +.Y J 4 * v z v v * * n I J U Q R A 4 y p i i -.-.-.;.7.XX}.|.8.>.<.p A S I C n ......n 3.+X+XOX4.W 5 # < y T ..[ L m "
};
